<?xml version="1.0" encoding="utf-8"?>
<!-- Generator: Adobe Illustrator 19.1.0, SVG Export Plug-In . SVG Version: 6.00 Build 0)  -->
<svg version="1.1" id="Layer_1" xmlns="http://www.w3.org/2000/svg" xmlns:xlink="http://www.w3.org/1999/xlink" x="0px" y="0px"
	 viewBox="0 0 16 16" enable-background="new 0 0 16 16" xml:space="preserve">
<g>
	<defs>
		<rect id="SVGID_1_" width="16" height="16"/>
	</defs>
	<clipPath id="SVGID_2_">
		<use xlink:href="#SVGID_1_"  overflow="visible"/>
	</clipPath>
	<rect opacity="0" clip-path="url(#SVGID_2_)" fill="#FFFFFF" width="16" height="16"/>
	<path clip-path="url(#SVGID_2_)" fill-rule="evenodd" clip-rule="evenodd" fill="#53585F" d="M13.455,11.636H8.676
		c-0.162-0.627-0.726-1.09-1.403-1.09s-1.241,0.464-1.403,1.09H2.545c-0.201,0-0.364,0.163-0.364,0.364
		c0,0.201,0.163,0.364,0.364,0.364H5.87c0.162,0.627,0.726,1.091,1.403,1.091s1.241-0.464,1.403-1.091h4.779
		c0.201,0,0.364-0.162,0.364-0.364C13.819,11.799,13.656,11.636,13.455,11.636 M7.273,12.727c-0.401,0-0.727-0.325-0.727-0.727
		c0-0.401,0.326-0.727,0.727-0.727C7.674,11.273,8,11.599,8,12C8,12.402,7.674,12.727,7.273,12.727 M13.455,7.637h-1.143
		c-0.162-0.627-0.726-1.092-1.403-1.092c-0.676,0-1.241,0.465-1.403,1.092H2.545C2.344,7.637,2.181,7.799,2.181,8
		c0,0.201,0.163,0.364,0.364,0.364h6.961c0.162,0.627,0.727,1.091,1.403,1.091c0.677,0,1.241-0.464,1.403-1.091h1.143
		c0.201,0,0.364-0.162,0.364-0.364C13.819,7.799,13.656,7.637,13.455,7.637 M10.909,8.727c-0.401,0-0.727-0.326-0.727-0.727
		c0-0.401,0.327-0.727,0.727-0.727c0.401,0,0.727,0.326,0.727,0.727C11.636,8.401,11.31,8.727,10.909,8.727 M13.455,3.636H7.221
		C7.059,3.01,6.495,2.545,5.819,2.545c-0.677,0-1.241,0.465-1.404,1.091h-1.87C2.344,3.636,2.181,3.799,2.181,4
		c0,0.201,0.163,0.364,0.364,0.364h1.87C4.578,4.99,5.141,5.455,5.819,5.455c0.676,0,1.241-0.464,1.403-1.091h6.233
		c0.201,0,0.364-0.162,0.364-0.364C13.819,3.799,13.656,3.636,13.455,3.636 M5.819,4.727C5.417,4.727,5.091,4.402,5.091,4
		c0-0.401,0.326-0.727,0.727-0.727c0.401,0,0.727,0.326,0.727,0.727C6.545,4.402,6.219,4.727,5.819,4.727 M14.545,0H1.455
		C0.651,0,0,0.651,0,1.455v13.09C0,15.349,0.651,16,1.455,16h13.09C15.349,16,16,15.349,16,14.545V1.455C16,0.651,15.349,0,14.545,0
		 M15.273,14.545c0,0.401-0.326,0.728-0.727,0.728H1.455c-0.401,0-0.727-0.327-0.727-0.728V1.455c0-0.401,0.326-0.727,0.727-0.727
		h13.09c0.401,0,0.727,0.326,0.727,0.727V14.545z"/>
</g>
</svg>
