<?xml version="1.0" encoding="utf-8"?>
<!-- Generator: Adobe Illustrator 19.1.0, SVG Export Plug-In . SVG Version: 6.00 Build 0)  -->
<svg version="1.1" id="Layer_1" xmlns="http://www.w3.org/2000/svg" xmlns:xlink="http://www.w3.org/1999/xlink" x="0px" y="0px"
	 viewBox="-471 273 16 16" enable-background="new -471 273 16 16" xml:space="preserve">
<g>
	<g>
		<defs>
			<rect id="SVGID_1_" x="-471" y="273" width="16" height="16"/>
		</defs>
		<clipPath id="SVGID_2_">
			<use xlink:href="#SVGID_1_"  overflow="visible"/>
		</clipPath>
		<rect x="-471" y="273" clip-path="url(#SVGID_2_)" fill="#FFFFFF" fill-opacity="0" width="16" height="16"/>
	</g>
	<g>
		<defs>
			<rect id="SVGID_3_" x="-471" y="273" width="16" height="16"/>
		</defs>
		<clipPath id="SVGID_4_">
			<use xlink:href="#SVGID_3_"  overflow="visible"/>
		</clipPath>
		<path clip-path="url(#SVGID_4_)" fill="#FFFFFF" d="M-457.545,284.636h-4.779c-0.162-0.627-0.726-1.09-1.403-1.09
			s-1.241,0.464-1.403,1.09h-3.325c-0.201,0-0.364,0.163-0.364,0.364s0.163,0.364,0.364,0.364h3.325
			c0.162,0.627,0.726,1.091,1.403,1.091s1.241-0.464,1.403-1.091h4.779c0.201,0,0.364-0.162,0.364-0.364
			C-457.181,284.799-457.344,284.636-457.545,284.636 M-463.727,285.727c-0.401,0-0.727-0.325-0.727-0.727
			c0-0.401,0.326-0.727,0.727-0.727S-463,284.599-463,285C-463,285.402-463.326,285.727-463.727,285.727 M-457.545,280.637h-1.143
			c-0.162-0.627-0.726-1.092-1.403-1.092c-0.676,0-1.241,0.465-1.403,1.092h-6.961c-0.201,0-0.364,0.162-0.364,0.363
			s0.163,0.364,0.364,0.364h6.961c0.162,0.627,0.727,1.091,1.403,1.091c0.677,0,1.241-0.464,1.403-1.091h1.143
			c0.201,0,0.364-0.162,0.364-0.364C-457.181,280.799-457.344,280.637-457.545,280.637 M-460.091,281.727
			c-0.401,0-0.727-0.326-0.727-0.727s0.327-0.727,0.727-0.727c0.401,0,0.727,0.326,0.727,0.727S-459.69,281.727-460.091,281.727
			 M-457.545,276.636h-6.234c-0.162-0.626-0.726-1.091-1.402-1.091c-0.677,0-1.241,0.465-1.404,1.091h-1.87
			c-0.201,0-0.364,0.163-0.364,0.364s0.163,0.364,0.364,0.364h1.87c0.163,0.626,0.726,1.091,1.404,1.091
			c0.676,0,1.241-0.464,1.403-1.091h6.233c0.201,0,0.364-0.162,0.364-0.364C-457.181,276.799-457.344,276.636-457.545,276.636
			 M-465.181,277.727c-0.402,0-0.728-0.325-0.728-0.727c0-0.401,0.326-0.727,0.727-0.727s0.727,0.326,0.727,0.727
			C-464.455,277.402-464.781,277.727-465.181,277.727 M-456.455,273h-13.09c-0.804,0-1.455,0.651-1.455,1.455v13.09
			c0,0.804,0.651,1.455,1.455,1.455h13.09c0.804,0,1.455-0.651,1.455-1.455v-13.09C-455,273.651-455.651,273-456.455,273
			 M-455.727,287.545c0,0.401-0.326,0.728-0.727,0.728h-13.091c-0.401,0-0.727-0.327-0.727-0.728v-13.09
			c0-0.401,0.326-0.727,0.727-0.727h13.09c0.401,0,0.727,0.326,0.727,0.727v13.09H-455.727z"/>
	</g>
</g>
</svg>
