<?xml version="1.0" encoding="utf-8"?>
<!-- Generator: Adobe Illustrator 19.1.0, SVG Export Plug-In . SVG Version: 6.00 Build 0)  -->
<svg version="1.1" id="Layer_1" xmlns="http://www.w3.org/2000/svg" xmlns:xlink="http://www.w3.org/1999/xlink" x="0px" y="0px"
	 viewBox="0 0 16 16" enable-background="new 0 0 16 16" xml:space="preserve">
<g>
	<defs>
		<rect id="SVGID_1_" width="16" height="16"/>
	</defs>
	<clipPath id="SVGID_2_">
		<use xlink:href="#SVGID_1_"  overflow="visible"/>
	</clipPath>
	<rect opacity="0" clip-path="url(#SVGID_2_)" fill="#FFFFFF" width="16" height="16"/>
	<path clip-path="url(#SVGID_2_)" fill-rule="evenodd" clip-rule="evenodd" fill="#53585F" d="M8.909,9.591
		C8.136,8.932,8.227,8.636,7.25,8.636c-0.977,0-1.59,0.227-1.341,1.591c0.25,1.364,0.977,0.75,0.91,1.796
		C6.75,13.068,7,13.296,7.159,13.545c0.159,0.25,0.636,0.978,0.818-0.045c0.182-1.023,0.523-1.591,0.909-2.091
		C9.273,10.909,9.681,10.25,8.909,9.591 M12.034,9.534c-0.261,0.159-0.25,0.511-0.034,0.704c0.216,0.193,0.647,0.443,0.784,0
		C12.92,9.796,12.296,9.375,12.034,9.534 M6.227,7.204c0.045-0.523,0.886-1.068,1.454-1.318c0.568-0.25,1.091-0.341,1.023-0.773
		c-0.068-0.432-0.227-0.75-1.113-0.75c-0.887,0-0.5,1.181-1.227,0.477C5.636,4.136,6.522,4.319,6.886,4.159
		C7.25,4,7.613,3.341,6.977,3.296c-0.636-0.045-0.5,0.273-1,0.091c-0.5-0.182-0.727,0.636-1.045,0.522
		C4.721,3.834,4.158,3.411,3.785,2.996C3.033,3.63,2.427,4.431,2.021,5.342C2.13,6.564,2.796,7.204,2.796,7.204S3.136,8,5.181,8.977
		c0,0,0.387,0.023-0.068-0.432C4.659,8.091,4.159,7.523,4.727,7.227C5.296,6.932,5.455,6.955,5.591,7.5
		C5.727,8.045,6.181,7.727,6.227,7.204 M8,0C3.581,0,0,3.582,0,8c0,4.419,3.581,8,8,8c4.418,0,8-3.581,8-8C16,3.582,12.418,0,8,0
		 M8,15.273c-4.017,0-7.273-3.256-7.273-7.273S3.983,0.727,8,0.727c4.016,0,7.273,3.256,7.273,7.273S12.016,15.273,8,15.273
		 M14.515,7.393c-0.006-0.064-0.015-0.125-0.022-0.188c-0.017-0.139-0.038-0.275-0.063-0.41c-0.013-0.07-0.027-0.138-0.041-0.207
		c-0.03-0.134-0.064-0.267-0.102-0.398c-0.017-0.059-0.031-0.119-0.05-0.178c-0.056-0.176-0.119-0.348-0.189-0.517
		c-0.03-0.072-0.064-0.14-0.096-0.21c-0.046-0.1-0.093-0.199-0.143-0.296c-0.044-0.086-0.092-0.17-0.141-0.254
		c-0.043-0.074-0.088-0.147-0.134-0.22c-0.057-0.091-0.115-0.181-0.176-0.269c-0.033-0.047-0.07-0.093-0.105-0.141
		c-0.256-0.341-0.541-0.659-0.857-0.945c-0.02-0.018-0.039-0.036-0.059-0.054c-0.113-0.099-0.229-0.196-0.349-0.288
		c-0.006-0.005-0.012-0.01-0.019-0.014c-0.516-0.394-1.093-0.713-1.714-0.941c-0.185,0.296-0.374,0.672-0.594,0.798
		C9.341,2.841,9.364,3.568,9.977,3.5c0,0-0.181,0.181,0,0.841C10.159,5,10.464,5.143,11.364,4.773
		C11.75,4.613,12.043,4.696,12,5.091c-0.091,0.841-0.739,0.805-0.25,2.159c0.296,0.818,1.023,1.136,1.296,1.773
		c0.15,0.35,0.726,0.672,1.214,0.891c0.053-0.171,0.096-0.346,0.135-0.524c0.015-0.067,0.026-0.136,0.039-0.204
		c0.024-0.132,0.045-0.265,0.061-0.4c0.007-0.064,0.016-0.127,0.022-0.191C14.533,8.4,14.545,8.201,14.545,8
		C14.545,7.795,14.533,7.593,14.515,7.393"/>
</g>
</svg>
