<?xml version="1.0" encoding="utf-8"?>
<!-- Generator: Adobe Illustrator 19.1.0, SVG Export Plug-In . SVG Version: 6.00 Build 0)  -->
<svg version="1.1" id="Layer_1" xmlns="http://www.w3.org/2000/svg" xmlns:xlink="http://www.w3.org/1999/xlink" x="0px" y="0px"
	 viewBox="-471 273 16 16" enable-background="new -471 273 16 16" xml:space="preserve">
<g>
	<g>
		<defs>
			<rect id="SVGID_1_" x="-471" y="273" width="16" height="16"/>
		</defs>
		<clipPath id="SVGID_2_">
			<use xlink:href="#SVGID_1_"  overflow="visible"/>
		</clipPath>
		<rect x="-471" y="273" clip-path="url(#SVGID_2_)" fill="#FFFFFF" fill-opacity="0" width="16" height="16"/>
	</g>
	<g>
		<defs>
			<rect id="SVGID_3_" x="-471" y="273" width="16" height="16"/>
		</defs>
		<clipPath id="SVGID_4_">
			<use xlink:href="#SVGID_3_"  overflow="visible"/>
		</clipPath>
		<path clip-path="url(#SVGID_4_)" fill="#FFFFFF" d="M-462.091,282.591c-0.773-0.659-0.682-0.955-1.659-0.955
			s-1.59,0.227-1.341,1.591c0.25,1.364,0.977,0.75,0.91,1.796c-0.069,1.045,0.181,1.273,0.34,1.522
			c0.159,0.25,0.636,0.978,0.818-0.045c0.182-1.023,0.523-1.591,0.909-2.091C-461.727,283.909-461.319,283.25-462.091,282.591
			 M-458.966,282.534c-0.261,0.159-0.25,0.511-0.034,0.704s0.647,0.443,0.784,0C-458.08,282.796-458.704,282.375-458.966,282.534
			 M-464.773,280.204c0.045-0.523,0.886-1.068,1.454-1.318s1.091-0.341,1.023-0.773c-0.068-0.432-0.227-0.75-1.113-0.75
			c-0.887,0-0.5,1.181-1.227,0.477c-0.728-0.704,0.158-0.521,0.522-0.681c0.364-0.159,0.727-0.818,0.091-0.863
			c-0.636-0.045-0.5,0.273-1,0.091s-0.727,0.636-1.045,0.522c-0.211-0.075-0.774-0.498-1.147-0.913
			c-0.752,0.634-1.358,1.435-1.764,2.346c0.109,1.222,0.775,1.862,0.775,1.862s0.34,0.796,2.385,1.773c0,0,0.387,0.023-0.068-0.432
			c-0.454-0.454-0.954-1.022-0.386-1.318c0.569-0.295,0.728-0.272,0.864,0.273C-465.273,281.045-464.819,280.727-464.773,280.204
			 M-463,273c-4.419,0-8,3.582-8,8c0,4.419,3.581,8,8,8c4.418,0,8-3.581,8-8C-455,276.582-458.582,273-463,273 M-463,288.273
			c-4.017,0-7.273-3.256-7.273-7.273s3.256-7.273,7.273-7.273c4.016,0,7.273,3.256,7.273,7.273S-458.984,288.273-463,288.273
			 M-456.485,280.393c-0.006-0.064-0.015-0.125-0.022-0.188c-0.017-0.139-0.038-0.275-0.063-0.41
			c-0.013-0.07-0.027-0.138-0.041-0.207c-0.03-0.134-0.064-0.267-0.102-0.398c-0.017-0.059-0.031-0.119-0.05-0.178
			c-0.056-0.176-0.119-0.348-0.189-0.517c-0.03-0.072-0.064-0.14-0.096-0.21c-0.046-0.1-0.093-0.199-0.143-0.296
			c-0.044-0.086-0.092-0.17-0.141-0.254c-0.043-0.074-0.088-0.147-0.134-0.22c-0.057-0.091-0.115-0.181-0.176-0.269
			c-0.033-0.047-0.07-0.093-0.105-0.141c-0.256-0.341-0.541-0.659-0.857-0.945c-0.02-0.018-0.039-0.036-0.059-0.054
			c-0.113-0.099-0.229-0.196-0.349-0.288c-0.006-0.005-0.012-0.01-0.019-0.014c-0.516-0.394-1.093-0.713-1.714-0.941
			c-0.185,0.296-0.374,0.672-0.594,0.798c-0.32,0.18-0.297,0.907,0.316,0.839c0,0-0.181,0.181,0,0.841
			c0.182,0.659,0.487,0.802,1.387,0.432c0.386-0.16,0.679-0.077,0.636,0.318c-0.091,0.841-0.739,0.805-0.25,2.159
			c0.296,0.818,1.023,1.136,1.296,1.773c0.15,0.35,0.726,0.672,1.214,0.891c0.053-0.171,0.096-0.346,0.135-0.524
			c0.015-0.067,0.026-0.136,0.039-0.204c0.024-0.132,0.045-0.265,0.061-0.4c0.007-0.064,0.016-0.127,0.022-0.191
			c0.016-0.195,0.028-0.394,0.028-0.595C-456.455,280.795-456.467,280.593-456.485,280.393"/>
	</g>
</g>
</svg>
