<?xml version="1.0" encoding="utf-8"?>
<!-- Generator: Adobe Illustrator 19.1.0, SVG Export Plug-In . SVG Version: 6.00 Build 0)  -->
<svg version="1.1" id="Layer_1" xmlns="http://www.w3.org/2000/svg" xmlns:xlink="http://www.w3.org/1999/xlink" x="0px" y="0px"
	 viewBox="0 0 13 16" enable-background="new 0 0 13 16" xml:space="preserve">
<g>
	<defs>
		<rect id="SVGID_1_" width="13" height="16"/>
	</defs>
	<clipPath id="SVGID_2_">
		<use xlink:href="#SVGID_1_"  overflow="visible"/>
	</clipPath>
	<rect opacity="0" clip-path="url(#SVGID_2_)" fill="#FFFFFF" width="13" height="16"/>
	<path clip-path="url(#SVGID_2_)" fill-rule="evenodd" clip-rule="evenodd" fill="#53585F" d="M2.528,8h4.333
		C7.06,8,7.222,7.838,7.222,7.636c0-0.201-0.162-0.364-0.361-0.364H2.528c-0.199,0-0.361,0.163-0.361,0.364
		C2.167,7.838,2.329,8,2.528,8 M2.528,10.181h7.944c0.199,0,0.361-0.162,0.361-0.363c0-0.201-0.162-0.364-0.361-0.364H2.528
		c-0.199,0-0.361,0.163-0.361,0.364C2.167,10.019,2.329,10.181,2.528,10.181 M2.528,12.364h6.5c0.199,0,0.361-0.162,0.361-0.364
		c0-0.201-0.162-0.364-0.361-0.364h-6.5c-0.199,0-0.361,0.163-0.361,0.364C2.167,12.201,2.329,12.364,2.528,12.364 M12.278,2.181
		H9.389V1.455c0-0.401-0.324-0.727-0.722-0.727H7.222C7.222,0.326,6.898,0,6.5,0S5.778,0.326,5.778,0.727H4.333
		c-0.398,0-0.722,0.326-0.722,0.727v0.727H0.722C0.324,2.181,0,2.508,0,2.909v12.364C0,15.674,0.324,16,0.722,16h11.556
		C12.676,16,13,15.674,13,15.273V2.909C13,2.508,12.676,2.181,12.278,2.181 M4.333,1.455h4.333v1.454H4.333V1.455z M12.278,15.273
		H0.722V5.091h11.556V15.273z M12.278,4.364H0.722V2.909h2.889c0,0.401,0.324,0.727,0.722,0.727h4.333
		c0.398,0,0.722-0.326,0.722-0.727h2.889V4.364z"/>
</g>
</svg>
