<?xml version="1.0" encoding="utf-8"?>
<!-- Generator: Adobe Illustrator 19.1.0, SVG Export Plug-In . SVG Version: 6.00 Build 0)  -->
<svg version="1.1" id="Layer_1" xmlns="http://www.w3.org/2000/svg" xmlns:xlink="http://www.w3.org/1999/xlink" x="0px" y="0px"
	 viewBox="-473 273 13 16" enable-background="new -473 273 13 16" xml:space="preserve">
<g>
	<g>
		<defs>
			<rect id="SVGID_1_" x="-473" y="273" width="13" height="16"/>
		</defs>
		<clipPath id="SVGID_2_">
			<use xlink:href="#SVGID_1_"  overflow="visible"/>
		</clipPath>
		<rect x="-473" y="273" clip-path="url(#SVGID_2_)" fill="#FFFFFF" fill-opacity="0" width="13" height="16"/>
	</g>
	<g>
		<defs>
			<rect id="SVGID_3_" x="-473" y="273" width="13" height="16"/>
		</defs>
		<clipPath id="SVGID_4_">
			<use xlink:href="#SVGID_3_"  overflow="visible"/>
		</clipPath>
		<path clip-path="url(#SVGID_4_)" fill="#FFFFFF" d="M-470.472,281h4.333c0.199,0,0.361-0.162,0.361-0.364
			c0-0.201-0.162-0.364-0.361-0.364h-4.333c-0.199,0-0.361,0.163-0.361,0.364C-470.833,280.838-470.671,281-470.472,281
			 M-470.472,283.181h7.944c0.199,0,0.361-0.162,0.361-0.363c0-0.201-0.162-0.364-0.361-0.364h-7.944
			c-0.199,0-0.361,0.163-0.361,0.364C-470.833,283.019-470.671,283.181-470.472,283.181 M-470.472,285.364h6.5
			c0.199,0,0.361-0.162,0.361-0.364c0-0.201-0.162-0.364-0.361-0.364h-6.5c-0.199,0-0.361,0.163-0.361,0.364
			S-470.671,285.364-470.472,285.364 M-460.722,275.181h-2.889v-0.726c0-0.401-0.324-0.727-0.722-0.727h-1.445
			c0-0.402-0.324-0.728-0.722-0.728s-0.722,0.326-0.722,0.727h-1.445c-0.398,0-0.722,0.326-0.722,0.727v0.727h-2.889
			c-0.398,0-0.722,0.327-0.722,0.728v12.364c0,0.401,0.324,0.727,0.722,0.727h11.556c0.398,0,0.722-0.326,0.722-0.727v-12.364
			C-460,275.508-460.324,275.181-460.722,275.181 M-468.667,274.455h4.333v1.454h-4.333V274.455z M-460.722,288.273h-11.556v-10.182
			h11.556V288.273z M-460.722,277.364h-11.556v-1.455h2.889c0,0.401,0.324,0.727,0.722,0.727h4.333c0.398,0,0.722-0.326,0.722-0.727
			h2.889v1.455H-460.722z"/>
	</g>
</g>
</svg>
