<?xml version="1.0" encoding="utf-8"?>
<!-- Generator: Adobe Illustrator 19.1.0, SVG Export Plug-In . SVG Version: 6.00 Build 0)  -->
<svg version="1.1" id="Layer_1" xmlns="http://www.w3.org/2000/svg" xmlns:xlink="http://www.w3.org/1999/xlink" x="0px" y="0px"
	 viewBox="-505 377 13 16" enable-background="new -505 377 13 16" xml:space="preserve">
<g>
	<g>
		<defs>
			<rect id="SVGID_1_" x="-505" y="377" width="13" height="16"/>
		</defs>
		<clipPath id="SVGID_2_">
			<use xlink:href="#SVGID_1_"  overflow="visible"/>
		</clipPath>
		<rect x="-505" y="377" clip-path="url(#SVGID_2_)" fill="#FFFFFF" fill-opacity="0" width="13" height="16"/>
	</g>
	<g>
		<defs>
			<rect id="SVGID_3_" x="-505" y="377" width="13" height="16"/>
		</defs>
		<clipPath id="SVGID_4_">
			<use xlink:href="#SVGID_3_"  overflow="visible"/>
		</clipPath>
		<path clip-path="url(#SVGID_4_)" fill="#FFFFFF" d="M-498.139,387.909h-4.333c-0.2,0-0.361,0.163-0.361,0.364
			c0,0.201,0.161,0.364,0.361,0.364h4.333c0.2,0,0.361-0.162,0.361-0.364C-497.778,388.072-497.939,387.909-498.139,387.909
			 M-499.583,390.091h-2.889c-0.2,0-0.361,0.163-0.361,0.364c0,0.201,0.161,0.364,0.361,0.364h2.889c0.2,0,0.361-0.163,0.361-0.364
			C-499.222,390.254-499.384,390.091-499.583,390.091 M-502.472,384.273h1.444c0.2,0,0.361-0.162,0.361-0.364
			c0-0.201-0.161-0.364-0.361-0.364h-1.444c-0.2,0-0.361,0.163-0.361,0.364S-502.672,384.273-502.472,384.273 M-502.833,386.091
			c0,0.201,0.161,0.364,0.361,0.364h4.333c0.2,0,0.361-0.163,0.361-0.364s-0.161-0.364-0.361-0.364h-4.333
			C-502.672,385.727-502.833,385.89-502.833,386.091 M-494.528,377h-5.416c-0.798,0-1.445,0.651-1.445,1.455v1.09
			c0,0.201,0.161,0.364,0.361,0.364c0.2,0,0.361-0.162,0.361-0.364v-1.09c0-0.401,0.324-0.727,0.722-0.727h4.333v2.181
			c0,0.401,0.324,0.727,0.722,0.727h2.167v7.273c0,0.401-0.324,0.727-0.722,0.727h-1.083c-0.2,0-0.361,0.163-0.361,0.364
			s0.161,0.364,0.361,0.364h1.083c0.797,0,1.444-0.651,1.444-1.455v-8L-494.528,377z M-494.889,379.909v-2.125l1.883,2.125H-494.889
			z M-503.556,380.636c-0.797,0-1.444,0.651-1.444,1.455v9.454c0,0.804,0.647,1.455,1.444,1.455h6.5
			c0.797,0,1.444-0.651,1.444-1.455v-8l-2.527-2.909H-503.556z M-496.333,391.545c0,0.402-0.324,0.727-0.722,0.727h-6.5
			c-0.398,0-0.722-0.325-0.722-0.727v-9.454c0-0.401,0.324-0.727,0.722-0.727h4.333v2.181c0,0.401,0.324,0.727,0.722,0.727h2.167
			V391.545z M-498.5,383.545v-2.125l1.883,2.125H-498.5z"/>
	</g>
</g>
</svg>
