<?xml version="1.0" encoding="utf-8"?>
<!-- Generator: Adobe Illustrator 19.1.0, SVG Export Plug-In . SVG Version: 6.00 Build 0)  -->
<svg version="1.1" id="Layer_1" xmlns="http://www.w3.org/2000/svg" xmlns:xlink="http://www.w3.org/1999/xlink" x="0px" y="0px"
	 viewBox="0 0 13 16" enable-background="new 0 0 13 16" xml:space="preserve">
<g>
	<defs>
		<rect id="SVGID_1_" width="13" height="16"/>
	</defs>
	<clipPath id="SVGID_2_">
		<use xlink:href="#SVGID_1_"  overflow="visible"/>
	</clipPath>
	<rect opacity="0" clip-path="url(#SVGID_2_)" fill="#FFFFFF" width="13" height="16"/>
	<path clip-path="url(#SVGID_2_)" fill-rule="evenodd" clip-rule="evenodd" fill="#53585F" d="M6.861,10.909H2.528
		c-0.2,0-0.361,0.163-0.361,0.364c0,0.201,0.161,0.364,0.361,0.364h4.333c0.2,0,0.361-0.162,0.361-0.364
		C7.222,11.072,7.061,10.909,6.861,10.909 M5.417,13.091H2.528c-0.2,0-0.361,0.163-0.361,0.364c0,0.201,0.161,0.364,0.361,0.364
		h2.889c0.2,0,0.361-0.163,0.361-0.364C5.778,13.254,5.616,13.091,5.417,13.091 M2.528,7.273h1.444c0.2,0,0.361-0.162,0.361-0.364
		c0-0.201-0.161-0.364-0.361-0.364H2.528c-0.2,0-0.361,0.163-0.361,0.364C2.167,7.11,2.328,7.273,2.528,7.273 M2.167,9.091
		c0,0.201,0.161,0.364,0.361,0.364h4.333c0.2,0,0.361-0.163,0.361-0.364c0-0.201-0.161-0.364-0.361-0.364H2.528
		C2.328,8.727,2.167,8.89,2.167,9.091 M10.472,0H5.056C4.258,0,3.611,0.651,3.611,1.455v1.09c0,0.201,0.161,0.364,0.361,0.364
		s0.361-0.162,0.361-0.364v-1.09c0-0.401,0.324-0.727,0.722-0.727h4.333v2.181c0,0.401,0.324,0.727,0.722,0.727h2.167v7.273
		c0,0.401-0.324,0.727-0.722,0.727h-1.083c-0.2,0-0.361,0.163-0.361,0.364c0,0.201,0.161,0.364,0.361,0.364h1.083
		c0.797,0,1.444-0.651,1.444-1.455v-8L10.472,0z M10.111,2.909V0.784l1.883,2.125H10.111z M1.444,3.636C0.647,3.636,0,4.287,0,5.091
		v9.454C0,15.349,0.647,16,1.444,16h6.5c0.797,0,1.444-0.651,1.444-1.455v-8L6.861,3.636H1.444z M8.667,14.545
		c0,0.402-0.324,0.727-0.722,0.727h-6.5c-0.398,0-0.722-0.325-0.722-0.727V5.091c0-0.401,0.324-0.727,0.722-0.727h4.333v2.181
		c0,0.401,0.324,0.727,0.722,0.727h2.167V14.545z M6.5,6.545V4.42l1.883,2.125H6.5z"/>
</g>
</svg>
