<?xml version="1.0" encoding="utf-8"?>
<!-- Generator: Adobe Illustrator 19.1.0, SVG Export Plug-In . SVG Version: 6.00 Build 0)  -->
<svg version="1.1" id="Layer_1" xmlns="http://www.w3.org/2000/svg" xmlns:xlink="http://www.w3.org/1999/xlink" x="0px" y="0px"
	 viewBox="0 0 16 12" enable-background="new 0 0 16 12" xml:space="preserve">
<g>
	<defs>
		<rect id="SVGID_1_" width="16" height="12"/>
	</defs>
	<clipPath id="SVGID_2_">
		<use xlink:href="#SVGID_1_"  overflow="visible"/>
	</clipPath>
	<rect opacity="0" clip-path="url(#SVGID_2_)" fill="#FFFFFF" width="16" height="12"/>
	<path clip-path="url(#SVGID_2_)" fill-rule="evenodd" clip-rule="evenodd" fill="#53585F" d="M14.533,9.466h0.002l1.455-6.749
		l-0.007-0.002C15.99,2.685,16,2.657,16,2.625c0-0.207-0.163-0.375-0.364-0.375H3.978L3.462,0.267L3.457,0.269
		C3.411,0.115,3.278,0,3.113,0h-2.75C0.163,0,0,0.168,0,0.375S0.163,0.75,0.364,0.75h2.471l2.271,8.733h0.001
		C5.138,9.588,5.213,9.674,5.31,9.718C5.173,9.946,5.091,10.213,5.091,10.5c0,0.828,0.651,1.5,1.454,1.5C7.349,12,8,11.328,8,10.5
		c0-0.274-0.077-0.528-0.201-0.75h4.039c-0.124,0.222-0.201,0.476-0.201,0.75c0,0.828,0.651,1.5,1.455,1.5
		c0.803,0,1.454-0.672,1.454-1.5c0-0.287-0.082-0.554-0.219-0.782C14.429,9.672,14.504,9.579,14.533,9.466 M13.053,3h2.13L14.86,4.5
		h-1.969L13.053,3z M4.173,3h2.411l0.161,1.5H4.563L4.173,3z M5.148,6.75l-0.39-1.5h2.068l0.162,1.5H5.148z M5.343,7.5h1.726L7.23,9
		H5.733L5.343,7.5z M6.545,11.25c-0.401,0-0.727-0.336-0.727-0.75s0.325-0.75,0.727-0.75c0.402,0,0.727,0.336,0.727,0.75
		S6.947,11.25,6.545,11.25 M9.455,9H7.961L7.801,7.5h1.654V9z M9.455,6.75H7.719l-0.161-1.5h1.897V6.75z M9.455,4.5H7.477L7.316,3
		h2.139V4.5z M11.675,9h-1.493V7.5h1.655L11.675,9z M11.917,6.75h-1.736v-1.5h1.897L11.917,6.75z M12.159,4.5h-1.978V3h2.139
		L12.159,4.5z M13.091,11.25c-0.401,0-0.727-0.336-0.727-0.75s0.326-0.75,0.727-0.75c0.401,0,0.727,0.336,0.727,0.75
		S13.493,11.25,13.091,11.25 M13.89,9h-1.484l0.162-1.5h1.645L13.89,9z M12.648,6.75l0.162-1.5h1.888l-0.324,1.5H12.648z"/>
</g>
</svg>
