<?xml version="1.0" encoding="utf-8"?>
<!-- Generator: Adobe Illustrator 19.1.0, SVG Export Plug-In . SVG Version: 6.00 Build 0)  -->
<svg version="1.1" id="Layer_1" xmlns="http://www.w3.org/2000/svg" xmlns:xlink="http://www.w3.org/1999/xlink" x="0px" y="0px"
	 viewBox="-471 275 16 12" enable-background="new -471 275 16 12" xml:space="preserve">
<g>
	<g>
		<defs>
			<rect id="SVGID_1_" x="-471" y="275" width="16" height="12"/>
		</defs>
		<clipPath id="SVGID_2_">
			<use xlink:href="#SVGID_1_"  overflow="visible"/>
		</clipPath>
		<rect x="-471" y="275" clip-path="url(#SVGID_2_)" fill="#FFFFFF" fill-opacity="0" width="16" height="12"/>
	</g>
	<g>
		<defs>
			<rect id="SVGID_3_" x="-471" y="275" width="16" height="12"/>
		</defs>
		<clipPath id="SVGID_4_">
			<use xlink:href="#SVGID_3_"  overflow="visible"/>
		</clipPath>
		<path clip-path="url(#SVGID_4_)" fill="#FFFFFF" d="M-456.467,284.466h0.002l1.455-6.749l-0.007-0.002
			c0.007-0.03,0.017-0.058,0.017-0.09c0-0.207-0.163-0.375-0.364-0.375h-11.658l-0.516-1.983l-0.005,0.002
			c-0.046-0.154-0.179-0.269-0.344-0.269h-2.75c-0.2,0-0.363,0.168-0.363,0.375s0.163,0.375,0.364,0.375h2.471l2.271,8.733h0.001
			c0.031,0.105,0.106,0.191,0.203,0.235c-0.137,0.228-0.219,0.495-0.219,0.782c0,0.828,0.651,1.5,1.454,1.5
			c0.804,0,1.455-0.672,1.455-1.5c0-0.274-0.077-0.528-0.201-0.75h4.039c-0.124,0.222-0.201,0.476-0.201,0.75
			c0,0.828,0.651,1.5,1.455,1.5c0.803,0,1.454-0.672,1.454-1.5c0-0.287-0.082-0.554-0.219-0.782
			C-456.571,284.672-456.496,284.579-456.467,284.466 M-457.947,278h2.13l-0.323,1.5h-1.969L-457.947,278z M-466.827,278h2.411
			l0.161,1.5h-2.182L-466.827,278z M-465.852,281.75l-0.39-1.5h2.068l0.162,1.5H-465.852z M-465.657,282.5h1.726l0.161,1.5h-1.497
			L-465.657,282.5z M-464.455,286.25c-0.401,0-0.727-0.336-0.727-0.75s0.325-0.75,0.727-0.75c0.402,0,0.727,0.336,0.727,0.75
			S-464.053,286.25-464.455,286.25 M-461.545,284h-1.494l-0.16-1.5h1.654V284z M-461.545,281.75h-1.736l-0.161-1.5h1.897V281.75z
			 M-461.545,279.5h-1.978l-0.161-1.5h2.139V279.5z M-459.325,284h-1.493v-1.5h1.655L-459.325,284z M-459.083,281.75h-1.736v-1.5
			h1.897L-459.083,281.75z M-458.841,279.5h-1.978V278h2.139L-458.841,279.5z M-457.909,286.25c-0.401,0-0.727-0.336-0.727-0.75
			s0.326-0.75,0.727-0.75s0.727,0.336,0.727,0.75S-457.507,286.25-457.909,286.25 M-457.11,284h-1.484l0.162-1.5h1.645L-457.11,284z
			 M-458.352,281.75l0.162-1.5h1.888l-0.324,1.5H-458.352z"/>
	</g>
</g>
</svg>
