<?xml version="1.0" encoding="utf-8"?>
<!-- Generator: Adobe Illustrator 19.1.0, SVG Export Plug-In . SVG Version: 6.00 Build 0)  -->
<svg version="1.1" id="Layer_1" xmlns="http://www.w3.org/2000/svg" xmlns:xlink="http://www.w3.org/1999/xlink" x="0px" y="0px"
	 viewBox="-471 275 16 12" enable-background="new -471 275 16 12" xml:space="preserve">
<g>
	<g>
		<defs>
			<rect id="SVGID_1_" x="-471" y="275" width="16" height="12"/>
		</defs>
		<clipPath id="SVGID_2_">
			<use xlink:href="#SVGID_1_"  overflow="visible"/>
		</clipPath>
		<rect x="-471" y="275" clip-path="url(#SVGID_2_)" fill="#FFFFFF" fill-opacity="0" width="16" height="12"/>
	</g>
	<g>
		<defs>
			<rect id="SVGID_3_" x="-471" y="275" width="16" height="12"/>
		</defs>
		<clipPath id="SVGID_4_">
			<use xlink:href="#SVGID_3_"  overflow="visible"/>
		</clipPath>
		<path clip-path="url(#SVGID_4_)" fill="#FFFFFF" d="M-455,278.375c0-0.149-0.086-0.276-0.208-0.336l0.001-0.002l-0.01-0.004
			c-0.004-0.002-0.007-0.003-0.01-0.004l-7.617-2.992l-0.001,0.002c-0.047-0.023-0.099-0.039-0.155-0.039s-0.107,0.016-0.155,0.039
			l-0.001-0.002l-7.615,2.991c-0.004,0.001-0.007,0.002-0.01,0.004l-0.012,0.005l0.001,0.002c-0.122,0.06-0.208,0.187-0.208,0.336
			s0.086,0.276,0.208,0.336l-0.001,0.002l0.011,0.004c0.003,0.002,0.007,0.003,0.01,0.004l0.683,0.269l-0.461,3.567
			c-0.264,0.112-0.45,0.38-0.45,0.693c0,0.414,0.325,0.75,0.727,0.75c0.401,0,0.727-0.336,0.727-0.75
			c0-0.241-0.113-0.453-0.284-0.591l0.44-3.395l1.221,0.48l-0.646,5.331l0.006,0.002c-0.002,0.016-0.01,0.031-0.01,0.048
			c0,0.207,0.163,0.375,0.364,0.375c0.028,0,0.052-0.009,0.078-0.015l0.001,0.006l2.737-0.706l2.421,2.14l0.003-0.005
			c0.062,0.047,0.134,0.08,0.215,0.08c0.075,0,0.14-0.029,0.199-0.069l0.003,0.006l2.787-2.156l2.751,0.709l0.001-0.007
			c0.026,0.006,0.05,0.016,0.078,0.016c0.201,0,0.363-0.168,0.363-0.375c0-0.024-0.007-0.046-0.011-0.068l0.005-0.001l-0.968-5.326
			l2.564-1.008c0.003-0.001,0.007-0.002,0.01-0.004l0.01-0.004l-0.001-0.002C-455.086,278.651-455,278.524-455,278.375
			 M-457.644,284.619l-2.368-0.611l-0.001,0.007c-0.026-0.005-0.05-0.015-0.078-0.015c-0.074,0-0.14,0.028-0.198,0.069l-0.004-0.006
			l-2.693,2.082l-2.341-2.071l-0.004,0.006c-0.061-0.047-0.133-0.08-0.214-0.08c-0.028,0-0.052,0.01-0.078,0.016l-0.001-0.007
			l-2.403,0.619l0.559-4.609l4.313,1.694l0.001-0.002c0.047,0.023,0.098,0.039,0.154,0.039s0.108-0.016,0.155-0.039l0.001,0.002
			l4.36-1.713L-457.644,284.619z M-463,280.975l-6.618-2.6l6.618-2.6l6.619,2.6L-463,280.975z"/>
	</g>
</g>
</svg>
