<?xml version="1.0" encoding="utf-8"?>
<!-- Generator: Adobe Illustrator 19.1.0, SVG Export Plug-In . SVG Version: 6.00 Build 0)  -->
<svg version="1.1" id="Layer_1" xmlns="http://www.w3.org/2000/svg" xmlns:xlink="http://www.w3.org/1999/xlink" x="0px" y="0px"
	 viewBox="0 0 16 13" enable-background="new 0 0 16 13" xml:space="preserve">
<g>
	<defs>
		<rect id="SVGID_1_" width="16" height="13"/>
	</defs>
	<clipPath id="SVGID_2_">
		<use xlink:href="#SVGID_1_"  overflow="visible"/>
	</clipPath>
	<rect opacity="0" clip-path="url(#SVGID_2_)" fill="#FFFFFF" width="16" height="13"/>
	<path clip-path="url(#SVGID_2_)" fill-rule="evenodd" clip-rule="evenodd" fill="#53585F" d="M1.756,9.723
		c0.488-0.134,1.33-0.684,1.33-1.927c0-1.112-0.365-1.603-0.561-1.866L2.501,5.897C2.499,5.894,2.496,5.891,2.494,5.889
		C2.479,5.842,2.432,5.653,2.532,5.247C2.57,5.09,2.547,4.909,2.479,4.761C2.332,4.44,2.058,3.844,2.25,3.395
		c0.319-0.77,0.453-0.828,0.811-0.983c0.035-0.015,0.068-0.033,0.1-0.054c0.09-0.057,0.456-0.192,0.833-0.192
		c0.181,0,0.331,0.033,0.452,0.093c0.032-0.125,0.07-0.249,0.121-0.374c0.044-0.111,0.092-0.205,0.138-0.303
		c-0.226-0.097-0.47-0.138-0.71-0.138c-0.526,0-1.024,0.18-1.224,0.306C2.189,2.002,1.944,2.235,1.578,3.12
		C1.259,3.863,1.639,4.67,1.825,5.077C1.597,6.003,1.913,6.323,1.913,6.323c0.165,0.224,0.446,0.549,0.446,1.473
		c0,1.051-0.816,1.235-0.816,1.235C0.882,9.261,0,9.749,0,11.194c0,0,0,0.361,0.364,0.361l1.621,0.001
		c0.087-0.268,0.201-0.51,0.341-0.722l-1.573-0.001C0.863,10.147,1.292,9.888,1.756,9.723 M14.456,9.031
		c0,0-0.815-0.184-0.815-1.235c0-0.924,0.28-1.249,0.445-1.473c0,0,0.316-0.32,0.088-1.246c0.187-0.406,0.566-1.213,0.247-1.957
		c-0.367-0.885-0.611-1.118-1.193-1.37c-0.199-0.126-0.698-0.306-1.224-0.306c-0.248,0-0.501,0.044-0.733,0.149
		c0.093,0.234,0.171,0.465,0.227,0.693c0.009-0.005,0.019-0.012,0.028-0.017c0.124-0.068,0.285-0.102,0.478-0.102
		c0.376,0,0.743,0.135,0.833,0.192c0.032,0.02,0.066,0.039,0.1,0.054c0.358,0.155,0.492,0.213,0.811,0.983
		c0.193,0.449-0.081,1.045-0.229,1.366c-0.068,0.147-0.091,0.329-0.053,0.486c0.099,0.406,0.053,0.595,0.037,0.642
		c-0.001,0.002-0.004,0.005-0.006,0.008L13.475,5.93c-0.196,0.263-0.561,0.754-0.561,1.866c0,1.243,0.841,1.793,1.33,1.927
		c0.464,0.165,0.893,0.424,1.002,1.11l-1.573,0.001c0.139,0.212,0.254,0.454,0.341,0.722l1.621-0.001C16,11.555,16,11.194,16,11.194
		C16,9.749,15.119,9.261,14.456,9.031 M10.9,9.827c0,0-1.304-0.309-1.304-1.661c0-1.187,0.536-1.606,0.742-1.895
		c0,0,0.425-0.37,0.14-1.562c0.475-0.654,0.629-1.718,0.048-3.032c-0.324-0.767-0.609-1.188-1.044-1.432C9.163,0.066,8.8,0,8.447,0
		C7.79,0,7.167,0.231,6.918,0.393C6.19,0.717,5.701,1.016,5.242,2.154C4.844,3.11,5.318,4.148,5.551,4.669
		c-0.284,1.193,0.11,1.603,0.11,1.603c0.207,0.289,0.742,0.707,0.742,1.895c0,1.352-1.303,1.661-1.303,1.661
		c-0.827,0.296-2.555,0.862-2.555,2.812c0,0,0,0.361,0.364,0.361h10.182c0.364,0,0.364-0.361,0.364-0.361
		C13.455,10.689,11.727,10.123,10.9,9.827 M3.301,12.278c0.17-1.017,1.067-1.423,1.983-1.75l0.029-0.01
		C5.967,10.346,7.13,9.653,7.13,8.167c0-1.261-0.514-1.876-0.791-2.207C6.284,5.893,6.218,5.807,6.233,5.826
		C6.21,5.777,6.101,5.494,6.259,4.836c0.074-0.309-0.051-0.478-0.051-0.478C6.009,3.915,5.64,3.089,5.917,2.422
		C6.289,1.5,6.619,1.318,7.216,1.051C7.25,1.036,7.284,1.018,7.316,0.997c0.113-0.073,0.59-0.275,1.13-0.275
		c0.27,0,0.498,0.051,0.678,0.153c0.216,0.121,0.424,0.352,0.737,1.094c0.584,1.323,0.214,2.063,0.027,2.319
		c-0.124,0.17-0.166,0.385-0.118,0.589c0.144,0.606,0.051,0.862,0.027,0.913C9.792,5.796,9.704,5.907,9.66,5.96
		C9.384,6.291,8.869,6.906,8.869,8.167c0,1.487,1.164,2.179,1.818,2.352l0.029,0.01c0.916,0.327,1.813,0.733,1.983,1.75H3.301z"/>
</g>
</svg>
