<?xml version="1.0" encoding="utf-8"?>
<!-- Generator: Adobe Illustrator 19.1.0, SVG Export Plug-In . SVG Version: 6.00 Build 0)  -->
<svg version="1.1" id="Layer_1" xmlns="http://www.w3.org/2000/svg" xmlns:xlink="http://www.w3.org/1999/xlink" x="0px" y="0px"
	 viewBox="-471 274 16 13" enable-background="new -471 274 16 13" xml:space="preserve">
<g>
	<g>
		<defs>
			<rect id="SVGID_1_" x="-471" y="274" width="16" height="13"/>
		</defs>
		<clipPath id="SVGID_2_">
			<use xlink:href="#SVGID_1_"  overflow="visible"/>
		</clipPath>
		<rect x="-471" y="274" clip-path="url(#SVGID_2_)" fill="#FFFFFF" fill-opacity="0" width="16" height="13"/>
	</g>
	<g>
		<defs>
			<rect id="SVGID_3_" x="-471" y="274" width="16" height="13"/>
		</defs>
		<clipPath id="SVGID_4_">
			<use xlink:href="#SVGID_3_"  overflow="visible"/>
		</clipPath>
		<path clip-path="url(#SVGID_4_)" fill="#FFFFFF" d="M-469.244,283.723c0.488-0.134,1.33-0.684,1.33-1.927
			c0-1.112-0.365-1.603-0.561-1.866l-0.024-0.033c-0.002-0.003-0.005-0.006-0.007-0.008c-0.015-0.047-0.062-0.236,0.038-0.642
			c0.038-0.157,0.015-0.338-0.053-0.486c-0.147-0.321-0.421-0.917-0.229-1.366c0.319-0.77,0.453-0.828,0.811-0.983
			c0.035-0.015,0.068-0.033,0.1-0.054c0.09-0.057,0.456-0.192,0.833-0.192c0.181,0,0.331,0.033,0.452,0.093
			c0.032-0.125,0.07-0.249,0.121-0.374c0.044-0.111,0.092-0.205,0.138-0.303c-0.226-0.097-0.47-0.138-0.71-0.138
			c-0.526,0-1.024,0.18-1.224,0.306c-0.582,0.252-0.827,0.485-1.193,1.37c-0.319,0.743,0.061,1.55,0.247,1.957
			c-0.228,0.926,0.088,1.246,0.088,1.246c0.165,0.224,0.446,0.549,0.446,1.473c0,1.051-0.816,1.235-0.816,1.235
			c-0.661,0.23-1.543,0.718-1.543,2.163c0,0,0,0.361,0.364,0.361l1.621,0.001c0.087-0.268,0.201-0.51,0.341-0.722l-1.573-0.001
			C-470.137,284.147-469.708,283.888-469.244,283.723 M-456.544,283.031c0,0-0.815-0.184-0.815-1.235
			c0-0.924,0.28-1.249,0.445-1.473c0,0,0.316-0.32,0.088-1.246c0.187-0.406,0.566-1.213,0.247-1.957
			c-0.367-0.885-0.611-1.118-1.193-1.37c-0.199-0.126-0.698-0.306-1.224-0.306c-0.248,0-0.501,0.044-0.733,0.149
			c0.093,0.234,0.171,0.465,0.227,0.693c0.009-0.005,0.019-0.012,0.028-0.017c0.124-0.068,0.285-0.102,0.478-0.102
			c0.376,0,0.743,0.135,0.833,0.192c0.032,0.02,0.066,0.039,0.1,0.054c0.358,0.155,0.492,0.213,0.811,0.983
			c0.193,0.449-0.081,1.045-0.229,1.366c-0.068,0.147-0.091,0.329-0.053,0.486c0.099,0.406,0.053,0.595,0.037,0.642
			c-0.001,0.002-0.004,0.005-0.006,0.008l-0.022,0.032c-0.196,0.263-0.561,0.754-0.561,1.866c0,1.243,0.841,1.793,1.33,1.927
			c0.464,0.165,0.893,0.424,1.002,1.11l-1.573,0.001c0.139,0.212,0.254,0.454,0.341,0.722l1.621-0.001
			c0.365,0,0.365-0.361,0.365-0.361C-455,283.749-455.881,283.261-456.544,283.031 M-460.1,283.827c0,0-1.304-0.309-1.304-1.661
			c0-1.187,0.536-1.606,0.742-1.895c0,0,0.425-0.37,0.14-1.562c0.475-0.654,0.629-1.718,0.048-3.032
			c-0.324-0.767-0.609-1.188-1.044-1.432c-0.319-0.179-0.682-0.245-1.035-0.245c-0.657,0-1.28,0.231-1.529,0.393
			c-0.728,0.324-1.217,0.623-1.676,1.761c-0.398,0.956,0.076,1.994,0.309,2.515c-0.284,1.193,0.11,1.603,0.11,1.603
			c0.207,0.289,0.742,0.707,0.742,1.895c0,1.352-1.303,1.661-1.303,1.661c-0.827,0.296-2.555,0.862-2.555,2.812
			c0,0,0,0.361,0.364,0.361h10.182c0.364,0,0.364-0.361,0.364-0.361C-457.545,284.689-459.273,284.123-460.1,283.827
			 M-467.699,286.278c0.17-1.017,1.067-1.423,1.983-1.75l0.029-0.01c0.654-0.172,1.817-0.865,1.817-2.351
			c0-1.261-0.514-1.876-0.791-2.207c-0.055-0.067-0.121-0.153-0.106-0.134c-0.023-0.049-0.132-0.332,0.026-0.99
			c0.074-0.309-0.051-0.478-0.051-0.478c-0.199-0.443-0.568-1.269-0.291-1.936c0.372-0.922,0.702-1.104,1.299-1.371
			c0.034-0.015,0.068-0.033,0.1-0.054c0.113-0.073,0.59-0.275,1.13-0.275c0.27,0,0.498,0.051,0.678,0.153
			c0.216,0.121,0.424,0.352,0.737,1.094c0.584,1.323,0.214,2.063,0.027,2.319c-0.124,0.17-0.166,0.385-0.118,0.589
			c0.144,0.606,0.051,0.862,0.027,0.913c-0.005,0.006-0.093,0.117-0.137,0.17c-0.276,0.331-0.791,0.946-0.791,2.207
			c0,1.487,1.164,2.179,1.818,2.352l0.029,0.01c0.916,0.327,1.813,0.733,1.983,1.75L-467.699,286.278L-467.699,286.278z"/>
	</g>
</g>
</svg>
