<?xml version="1.0" encoding="utf-8"?>
<!-- Generator: Adobe Illustrator 19.1.0, SVG Export Plug-In . SVG Version: 6.00 Build 0)  -->
<svg version="1.1" id="Layer_1" xmlns="http://www.w3.org/2000/svg" xmlns:xlink="http://www.w3.org/1999/xlink" x="0px" y="0px"
	 viewBox="0 0 16 16" enable-background="new 0 0 16 16" xml:space="preserve">
<g>
	<defs>
		<rect id="SVGID_1_" width="16" height="16"/>
	</defs>
	<clipPath id="SVGID_2_">
		<use xlink:href="#SVGID_1_"  overflow="visible"/>
	</clipPath>
	<rect opacity="0" clip-path="url(#SVGID_2_)" fill="#FFFFFF" width="16" height="16"/>
	<path clip-path="url(#SVGID_2_)" fill-rule="evenodd" clip-rule="evenodd" fill="#53585F" d="M14.545,0H1.455
		C0.651,0,0,0.651,0,1.455v13.09C0,15.349,0.651,16,1.455,16h13.09C15.349,16,16,15.349,16,14.545V1.455C16,0.651,15.349,0,14.545,0
		 M15.273,14.545c0,0.401-0.326,0.727-0.727,0.727H1.455c-0.401,0-0.727-0.326-0.727-0.727V1.455c0-0.401,0.326-0.727,0.727-0.727
		h13.09c0.401,0,0.727,0.326,0.727,0.727V14.545z M11.636,6.545H9.455V4.364c0-0.401-0.326-0.727-0.727-0.727H7.273
		c-0.401,0-0.727,0.326-0.727,0.727v2.181H4.364c-0.401,0-0.727,0.326-0.727,0.727v1.455c0,0.401,0.326,0.727,0.727,0.727h2.181
		v2.181c0,0.401,0.326,0.727,0.727,0.727h1.455c0.401,0,0.727-0.326,0.727-0.727V9.455h2.181c0.401,0,0.727-0.326,0.727-0.727V7.273
		C12.364,6.871,12.038,6.545,11.636,6.545 M11.636,8.727H8.727v2.909H7.273V8.727H4.364V7.273h2.909V4.364h1.455v2.909h2.909V8.727z
		"/>
</g>
</svg>
