<?xml version="1.0" encoding="utf-8"?>
<!-- Generator: Adobe Illustrator 19.1.0, SVG Export Plug-In . SVG Version: 6.00 Build 0)  -->
<svg version="1.1" id="Layer_1" xmlns="http://www.w3.org/2000/svg" xmlns:xlink="http://www.w3.org/1999/xlink" x="0px" y="0px"
	 viewBox="-471 273 16 16" enable-background="new -471 273 16 16" xml:space="preserve">
<g>
	<g>
		<defs>
			<rect id="SVGID_1_" x="-471" y="273" width="16" height="16"/>
		</defs>
		<clipPath id="SVGID_2_">
			<use xlink:href="#SVGID_1_"  overflow="visible"/>
		</clipPath>
		<rect x="-471" y="273" clip-path="url(#SVGID_2_)" fill="#FFFFFF" fill-opacity="0" width="16" height="16"/>
	</g>
	<g>
		<defs>
			<rect id="SVGID_3_" x="-471" y="273" width="16" height="16"/>
		</defs>
		<clipPath id="SVGID_4_">
			<use xlink:href="#SVGID_3_"  overflow="visible"/>
		</clipPath>
		<path clip-path="url(#SVGID_4_)" fill="#FFFFFF" d="M-456.455,273h-13.09c-0.804,0-1.455,0.651-1.455,1.455v13.09
			c0,0.804,0.651,1.455,1.455,1.455h13.09c0.804,0,1.455-0.651,1.455-1.455v-13.09C-455,273.651-455.651,273-456.455,273
			 M-455.727,287.545c0,0.401-0.326,0.727-0.727,0.727h-13.091c-0.401,0-0.727-0.326-0.727-0.727v-13.09
			c0-0.401,0.326-0.727,0.727-0.727h13.09c0.401,0,0.727,0.326,0.727,0.727v13.09H-455.727z M-459.364,279.545h-2.181v-2.181
			c0-0.401-0.326-0.727-0.727-0.727h-1.455c-0.401,0-0.727,0.326-0.727,0.727v2.181h-2.182c-0.401,0-0.727,0.326-0.727,0.727v1.455
			c0,0.401,0.326,0.727,0.727,0.727h2.181v2.181c0,0.401,0.326,0.727,0.727,0.727h1.455c0.401,0,0.727-0.326,0.727-0.727v-2.18
			h2.181c0.401,0,0.727-0.326,0.727-0.727v-1.455C-458.636,279.871-458.962,279.545-459.364,279.545 M-459.364,281.727h-2.909v2.909
			h-1.454v-2.909h-2.909v-1.454h2.909v-2.909h1.455v2.909h2.909v1.454H-459.364z"/>
	</g>
</g>
</svg>
