<?xml version="1.0" encoding="utf-8"?>
<!-- Generator: Adobe Illustrator 19.1.0, SVG Export Plug-In . SVG Version: 6.00 Build 0)  -->
<svg version="1.1" id="Layer_1" xmlns="http://www.w3.org/2000/svg" xmlns:xlink="http://www.w3.org/1999/xlink" x="0px" y="0px"
	 viewBox="0 0 16 16" enable-background="new 0 0 16 16" xml:space="preserve">
<g>
	<defs>
		<rect id="SVGID_1_" width="16" height="16"/>
	</defs>
	<clipPath id="SVGID_2_">
		<use xlink:href="#SVGID_1_"  overflow="visible"/>
	</clipPath>
	<rect opacity="0" clip-path="url(#SVGID_2_)" fill="#FFFFFF" width="16" height="16"/>
	<path clip-path="url(#SVGID_2_)" fill-rule="evenodd" clip-rule="evenodd" fill="#53585F" d="M14.532,0.264
		c-0.03-0.104-0.104-0.189-0.204-0.233c-0.099-0.044-0.212-0.041-0.309,0.007C13.991,0.053,11.15,1.454,8,1.454
		c-3.144,0-5.991-1.402-6.019-1.416C1.884-0.01,1.771-0.013,1.672,0.031C1.573,0.075,1.499,0.16,1.469,0.264
		C1.454,0.316,0,4.727,0,9.091c0,4.612,7.608,6.841,7.932,6.903C7.955,15.998,7.978,16,8,16c0.023,0,0.046-0.002,0.068-0.006
		C8.392,15.932,16,13.703,16,9.091C16,4.727,14.546,0.316,14.532,0.264 M8,15.265c-0.744-0.156-7.273-2.367-7.273-6.174
		c0-3.554,0.993-6.927,1.33-8.217C2.979,1.274,5.357,2.182,8,2.182c2.643,0,5.021-0.907,5.943-1.308
		c0.337,1.289,1.33,4.661,1.33,8.217C15.273,12.894,8.743,15.109,8,15.265 M9.228,6.533L7.989,3.25l-1.24,3.283H3.444L6.13,8.622
		l-1.24,3.718l3.099-2.272l3.099,2.272l-1.24-3.718l2.686-2.089H9.228z M9.159,8.852l0.517,1.551L8.419,9.482l-0.43-0.315
		l-0.43,0.315l-1.257,0.921l0.517-1.551l0.163-0.489L6.576,8.048L5.564,7.261h1.688l0.178-0.47l0.559-1.481l0.559,1.481l0.177,0.47
		h1.689L9.401,8.048L8.996,8.364L9.159,8.852z"/>
</g>
</svg>
