<?xml version="1.0" encoding="utf-8"?>
<!-- Generator: Adobe Illustrator 19.1.0, SVG Export Plug-In . SVG Version: 6.00 Build 0)  -->
<svg version="1.1" id="Layer_1" xmlns="http://www.w3.org/2000/svg" xmlns:xlink="http://www.w3.org/1999/xlink" x="0px" y="0px"
	 viewBox="-471 273 16 16" enable-background="new -471 273 16 16" xml:space="preserve">
<g>
	<g>
		<defs>
			<rect id="SVGID_1_" x="-471" y="273" width="16" height="16"/>
		</defs>
		<clipPath id="SVGID_2_">
			<use xlink:href="#SVGID_1_"  overflow="visible"/>
		</clipPath>
		<rect x="-471" y="273" clip-path="url(#SVGID_2_)" fill="#FFFFFF" fill-opacity="0" width="16" height="16"/>
	</g>
	<g>
		<defs>
			<rect id="SVGID_3_" x="-471" y="273" width="16" height="16"/>
		</defs>
		<clipPath id="SVGID_4_">
			<use xlink:href="#SVGID_3_"  overflow="visible"/>
		</clipPath>
		<path clip-path="url(#SVGID_4_)" fill="#FFFFFF" d="M-456.468,273.264c-0.03-0.104-0.104-0.189-0.204-0.233
			c-0.099-0.044-0.212-0.041-0.309,0.007c-0.028,0.015-2.869,1.416-6.019,1.416c-3.144,0-5.991-1.402-6.019-1.416
			c-0.097-0.048-0.21-0.051-0.309-0.007s-0.173,0.129-0.203,0.233c-0.015,0.052-1.469,4.463-1.469,8.827
			c0,4.612,7.608,6.841,7.932,6.903c0.023,0.004,0.046,0.006,0.068,0.006c0.023,0,0.046-0.002,0.068-0.006
			c0.324-0.062,7.932-2.291,7.932-6.903C-455,277.727-456.454,273.316-456.468,273.264 M-463,288.265
			c-0.744-0.156-7.273-2.367-7.273-6.174c0-3.554,0.993-6.927,1.33-8.217c0.922,0.4,3.3,1.308,5.943,1.308s5.021-0.907,5.943-1.308
			c0.337,1.289,1.33,4.661,1.33,8.217C-455.727,285.894-462.257,288.109-463,288.265 M-461.772,279.533l-1.239-3.283l-1.24,3.283
			h-3.305l2.686,2.089l-1.24,3.718l3.099-2.272l3.099,2.272l-1.24-3.718l2.686-2.089H-461.772z M-461.841,281.852l0.517,1.551
			l-1.257-0.921l-0.43-0.315l-0.43,0.315l-1.257,0.921l0.517-1.551l0.163-0.489l-0.406-0.315l-1.012-0.787h1.688l0.178-0.47
			l0.559-1.481l0.559,1.481l0.177,0.47h1.689l-1.013,0.787l-0.405,0.316L-461.841,281.852z"/>
	</g>
</g>
</svg>
