<?xml version="1.0" encoding="utf-8"?>
<!-- Generator: Adobe Illustrator 19.1.0, SVG Export Plug-In . SVG Version: 6.00 Build 0)  -->
<svg version="1.1" id="Layer_1" xmlns="http://www.w3.org/2000/svg" xmlns:xlink="http://www.w3.org/1999/xlink" x="0px" y="0px"
	 viewBox="0 0 16 13" enable-background="new 0 0 16 13" xml:space="preserve">
<g>
	<defs>
		<rect id="SVGID_1_" width="16" height="13"/>
	</defs>
	<clipPath id="SVGID_2_">
		<use xlink:href="#SVGID_1_"  overflow="visible"/>
	</clipPath>
	<rect opacity="0" clip-path="url(#SVGID_2_)" fill="#FFFFFF" width="16" height="13"/>
	<path clip-path="url(#SVGID_2_)" fill-rule="evenodd" clip-rule="evenodd" fill="#53585F" d="M1.091,7.222
		C0.488,7.222,0,7.708,0,8.306c0,0.598,0.488,1.083,1.091,1.083c0.602,0,1.09-0.485,1.09-1.083C2.181,7.708,1.693,7.222,1.091,7.222
		 M1.091,3.611C0.488,3.611,0,4.097,0,4.694c0,0.598,0.488,1.083,1.091,1.083c0.602,0,1.09-0.485,1.09-1.083
		C2.181,4.097,1.693,3.611,1.091,3.611 M1.091,10.833C0.488,10.833,0,11.318,0,11.917C0,12.515,0.488,13,1.091,13
		c0.602,0,1.09-0.485,1.09-1.083C2.181,11.318,1.693,10.833,1.091,10.833 M4,1.444h11.636C15.837,1.444,16,1.283,16,1.083
		c0-0.199-0.163-0.361-0.364-0.361H4c-0.201,0-0.364,0.162-0.364,0.361C3.636,1.283,3.799,1.444,4,1.444 M15.636,11.556H4
		c-0.201,0-0.364,0.162-0.364,0.361c0,0.2,0.163,0.361,0.364,0.361h11.636c0.201,0,0.364-0.161,0.364-0.361
		C16,11.717,15.837,11.556,15.636,11.556 M1.091,0C0.488,0,0,0.486,0,1.083c0,0.598,0.488,1.083,1.091,1.083
		c0.602,0,1.09-0.485,1.09-1.083C2.181,0.486,1.693,0,1.091,0 M15.636,4.333H4c-0.201,0-0.364,0.162-0.364,0.361
		c0,0.2,0.163,0.362,0.364,0.362h11.636C15.837,5.056,16,4.894,16,4.694C16,4.495,15.837,4.333,15.636,4.333 M15.636,7.944H4
		c-0.201,0-0.364,0.162-0.364,0.361c0,0.2,0.163,0.361,0.364,0.361h11.636C15.837,8.667,16,8.505,16,8.306
		C16,8.106,15.837,7.944,15.636,7.944"/>
</g>
</svg>
