<?xml version="1.0" encoding="utf-8"?>
<!-- Generator: Adobe Illustrator 19.1.0, SVG Export Plug-In . SVG Version: 6.00 Build 0)  -->
<svg version="1.1" id="Layer_1" xmlns="http://www.w3.org/2000/svg" xmlns:xlink="http://www.w3.org/1999/xlink" x="0px" y="0px"
	 viewBox="-503 378 16 13" enable-background="new -503 378 16 13" xml:space="preserve">
<g>
	<g>
		<defs>
			<rect id="SVGID_1_" x="-503" y="378" width="16" height="13"/>
		</defs>
		<clipPath id="SVGID_2_">
			<use xlink:href="#SVGID_1_"  overflow="visible"/>
		</clipPath>
		<rect x="-503" y="378" clip-path="url(#SVGID_2_)" fill="#FFFFFF" fill-opacity="0" width="16" height="13"/>
	</g>
	<g>
		<defs>
			<rect id="SVGID_3_" x="-503" y="378" width="16" height="13"/>
		</defs>
		<clipPath id="SVGID_4_">
			<use xlink:href="#SVGID_3_"  overflow="visible"/>
		</clipPath>
		<path clip-path="url(#SVGID_4_)" fill="#FFFFFF" d="M-501.909,385.222c-0.603,0-1.091,0.486-1.091,1.084s0.488,1.083,1.091,1.083
			c0.602,0,1.09-0.485,1.09-1.083S-501.307,385.222-501.909,385.222 M-501.909,381.611c-0.603,0-1.091,0.486-1.091,1.083
			c0,0.598,0.488,1.083,1.091,1.083c0.602,0,1.09-0.485,1.09-1.083C-500.819,382.097-501.307,381.611-501.909,381.611
			 M-501.909,388.833c-0.603,0-1.091,0.485-1.091,1.084c0,0.598,0.488,1.083,1.091,1.083c0.602,0,1.09-0.485,1.09-1.083
			C-500.819,389.318-501.307,388.833-501.909,388.833 M-499,379.444h11.636c0.201,0,0.364-0.161,0.364-0.361
			c0-0.199-0.163-0.361-0.364-0.361H-499c-0.201,0-0.364,0.162-0.364,0.361C-499.364,379.283-499.201,379.444-499,379.444
			 M-487.364,389.556H-499c-0.201,0-0.364,0.162-0.364,0.361c0,0.2,0.163,0.361,0.364,0.361h11.636c0.201,0,0.364-0.161,0.364-0.361
			C-487,389.717-487.163,389.556-487.364,389.556 M-501.909,378c-0.603,0-1.091,0.486-1.091,1.083c0,0.598,0.488,1.083,1.091,1.083
			c0.602,0,1.09-0.485,1.09-1.083C-500.819,378.486-501.307,378-501.909,378 M-487.364,382.333H-499
			c-0.201,0-0.364,0.162-0.364,0.361c0,0.2,0.163,0.362,0.364,0.362h11.636c0.201,0,0.364-0.162,0.364-0.362
			C-487,382.495-487.163,382.333-487.364,382.333 M-487.364,385.944H-499c-0.201,0-0.364,0.162-0.364,0.361
			c0,0.2,0.163,0.361,0.364,0.361h11.636c0.201,0.001,0.364-0.161,0.364-0.36C-487,386.106-487.163,385.944-487.364,385.944"/>
	</g>
</g>
</svg>
