<?xml version="1.0" encoding="utf-8"?>
<!-- Generator: Adobe Illustrator 19.1.0, SVG Export Plug-In . SVG Version: 6.00 Build 0)  -->
<svg version="1.1" id="Layer_1" xmlns="http://www.w3.org/2000/svg" xmlns:xlink="http://www.w3.org/1999/xlink" x="0px" y="0px"
	 viewBox="0 0 16 16" enable-background="new 0 0 16 16" xml:space="preserve">
<g>
	<defs>
		<rect id="SVGID_1_" width="16" height="16"/>
	</defs>
	<clipPath id="SVGID_2_">
		<use xlink:href="#SVGID_1_"  overflow="visible"/>
	</clipPath>
	<rect opacity="0" clip-path="url(#SVGID_2_)" fill="#FFFFFF" width="16" height="16"/>
	<path clip-path="url(#SVGID_2_)" fill-rule="evenodd" clip-rule="evenodd" fill="#53585F" d="M9.091,6.545h3.636
		c0.201,0,0.364-0.162,0.364-0.364c0-0.2-0.163-0.363-0.364-0.363H9.091c-0.201,0-0.364,0.163-0.364,0.363
		C8.727,6.383,8.89,6.545,9.091,6.545 M9.091,5.091h2.181c0.201,0,0.364-0.163,0.364-0.364s-0.163-0.364-0.364-0.364H9.091
		c-0.201,0-0.364,0.163-0.364,0.364S8.89,5.091,9.091,5.091 M9.091,8h1.454c0.201,0,0.364-0.163,0.364-0.364
		c0-0.201-0.163-0.364-0.364-0.364H9.091c-0.201,0-0.364,0.163-0.364,0.364C8.727,7.837,8.89,8,9.091,8 M3.636,9.455h2.909
		c0.401,0,0.727-0.325,0.727-0.727V5.091c0-0.401-0.326-0.727-0.727-0.727H3.636c-0.401,0-0.727,0.326-0.727,0.727v3.636
		C2.909,9.13,3.235,9.455,3.636,9.455 M3.636,5.091h2.909v3.636H3.636V5.091z M9.091,9.455h3.636c0.201,0,0.364-0.163,0.364-0.364
		c0-0.201-0.163-0.364-0.364-0.364H9.091c-0.201,0-0.364,0.163-0.364,0.364C8.727,9.292,8.89,9.455,9.091,9.455 M15.273,0.727H8.727
		C8.727,0.326,8.401,0,8,0C7.599,0,7.273,0.326,7.273,0.727H0.727C0.326,0.727,0,1.053,0,1.455v0.727
		c0,0.402,0.326,0.727,0.727,0.727v8.727c0,0.402,0.326,0.727,0.727,0.727h6.181v0.94l-2.076,2.076
		c-0.065,0.066-0.106,0.157-0.106,0.257C5.455,15.837,5.618,16,5.819,16c0.1,0,0.191-0.041,0.257-0.107L8,13.969l1.924,1.924
		C9.99,15.959,10.081,16,10.181,16c0.201,0,0.364-0.163,0.364-0.364c0-0.1-0.041-0.191-0.106-0.257l-2.076-2.076v-0.94h6.181
		c0.401,0,0.727-0.325,0.727-0.727V2.909C15.674,2.909,16,2.584,16,2.181V1.455C16,1.053,15.674,0.727,15.273,0.727 M14.545,11.636
		H1.455V2.909h13.09V11.636z M15.273,2.181H0.727V1.455h14.545V2.181z"/>
</g>
</svg>
