<?xml version="1.0" encoding="utf-8"?>
<!-- Generator: Adobe Illustrator 19.1.0, SVG Export Plug-In . SVG Version: 6.00 Build 0)  -->
<svg version="1.1" id="Layer_1" xmlns="http://www.w3.org/2000/svg" xmlns:xlink="http://www.w3.org/1999/xlink" x="0px" y="0px"
	 viewBox="-503 377 16 16" enable-background="new -503 377 16 16" xml:space="preserve">
<g>
	<g>
		<defs>
			<rect id="SVGID_1_" x="-503" y="377" width="16" height="16"/>
		</defs>
		<clipPath id="SVGID_2_">
			<use xlink:href="#SVGID_1_"  overflow="visible"/>
		</clipPath>
		<rect x="-503" y="377" clip-path="url(#SVGID_2_)" fill="#FFFFFF" fill-opacity="0" width="16" height="16"/>
	</g>
	<g>
		<defs>
			<rect id="SVGID_3_" x="-503" y="377" width="16" height="16"/>
		</defs>
		<clipPath id="SVGID_4_">
			<use xlink:href="#SVGID_3_"  overflow="visible"/>
		</clipPath>
		<path clip-path="url(#SVGID_4_)" fill="#FFFFFF" d="M-493.909,383.545h3.636c0.201,0,0.364-0.162,0.364-0.364
			c0-0.2-0.163-0.363-0.364-0.363h-3.636c-0.201,0-0.364,0.163-0.364,0.363C-494.273,383.383-494.11,383.545-493.909,383.545
			 M-493.909,382.091h2.181c0.201,0,0.364-0.163,0.364-0.364c0-0.201-0.163-0.364-0.364-0.364h-2.181
			c-0.201,0-0.364,0.163-0.364,0.364C-494.273,381.928-494.11,382.091-493.909,382.091 M-493.909,385h1.454
			c0.201,0,0.364-0.163,0.364-0.364c0-0.201-0.163-0.364-0.364-0.364h-1.454c-0.201,0-0.364,0.163-0.364,0.364
			C-494.273,384.837-494.11,385-493.909,385 M-499.364,386.455h2.909c0.401,0,0.727-0.325,0.727-0.727v-3.637
			c0-0.401-0.326-0.727-0.727-0.727h-2.909c-0.401,0-0.727,0.326-0.727,0.727v3.636
			C-500.091,386.13-499.765,386.455-499.364,386.455 M-499.364,382.091h2.909v3.636h-2.909V382.091z M-493.909,386.455h3.636
			c0.201,0,0.364-0.163,0.364-0.364s-0.163-0.364-0.364-0.364h-3.636c-0.201,0-0.364,0.163-0.364,0.364
			S-494.11,386.455-493.909,386.455 M-487.727,377.727h-6.546c0-0.401-0.326-0.727-0.727-0.727s-0.727,0.326-0.727,0.727h-6.546
			c-0.401,0-0.727,0.326-0.727,0.728v0.727c0,0.402,0.326,0.727,0.727,0.727v8.727c0,0.402,0.326,0.727,0.727,0.727h6.181v0.94
			l-2.076,2.076c-0.065,0.066-0.106,0.157-0.106,0.257c0.002,0.201,0.165,0.364,0.366,0.364c0.1,0,0.191-0.041,0.257-0.107
			l1.924-1.924l1.924,1.924c0.066,0.066,0.157,0.107,0.257,0.107c0.201,0,0.364-0.163,0.364-0.364c0-0.1-0.041-0.191-0.106-0.257
			l-2.076-2.076v-0.94h6.181c0.401,0,0.727-0.325,0.727-0.727v-8.727c0.403,0,0.729-0.325,0.729-0.728v-0.726
			C-487,378.053-487.326,377.727-487.727,377.727 M-488.455,388.636h-13.09v-8.727h13.09V388.636z M-487.727,379.181h-14.546v-0.726
			h14.545v0.726H-487.727z"/>
	</g>
</g>
</svg>
