<?xml version="1.0" encoding="utf-8"?>
<!-- Generator: Adobe Illustrator 19.1.0, SVG Export Plug-In . SVG Version: 6.00 Build 0)  -->
<svg version="1.1" id="Layer_1" xmlns="http://www.w3.org/2000/svg" xmlns:xlink="http://www.w3.org/1999/xlink" x="0px" y="0px"
	 viewBox="-471 273 16 16" enable-background="new -471 273 16 16" xml:space="preserve">
<g>
	<g>
		<defs>
			<rect id="SVGID_1_" x="-471" y="273" width="16" height="16"/>
		</defs>
		<clipPath id="SVGID_2_">
			<use xlink:href="#SVGID_1_"  overflow="visible"/>
		</clipPath>
		<rect x="-471" y="273" clip-path="url(#SVGID_2_)" fill="#FFFFFF" fill-opacity="0" width="16" height="16"/>
	</g>
	<g>
		<defs>
			<rect id="SVGID_3_" x="-471" y="273" width="16" height="16"/>
		</defs>
		<clipPath id="SVGID_4_">
			<use xlink:href="#SVGID_3_"  overflow="visible"/>
		</clipPath>
		<path clip-path="url(#SVGID_4_)" fill="#FFFFFF" d="M-466.269,275.189c-1.407,0-2.547,1.14-2.547,2.546
			c0,1.407,1.141,2.547,2.547,2.547c1.406,0,2.547-1.141,2.547-2.547C-463.722,276.329-464.863,275.189-466.269,275.189
			 M-466.269,279.549c-1.005,0-1.82-0.815-1.82-1.82s0.815-1.82,1.82-1.82c1.005,0,1.819,0.815,1.819,1.82
			S-465.264,279.549-466.269,279.549 M-459.289,280.999c0.058,0.034,0.122,0.05,0.184,0.05c0.125,0,0.246-0.064,0.314-0.179
			c0.108-0.184,0.245-0.374,0.406-0.566c0.129-0.154,0.109-0.384-0.045-0.513c-0.155-0.13-0.384-0.109-0.513,0.045
			c-0.187,0.221-0.346,0.446-0.476,0.663C-459.519,280.673-459.462,280.896-459.289,280.999 M-465.917,286.467
			c-0.003-0.199-0.164-0.359-0.363-0.359c-0.201,0-0.364,0.163-0.364,0.364c0,0.034,0.004,0.219,0.101,0.479
			c0.054,0.147,0.193,0.238,0.341,0.238c0.042,0,0.085-0.007,0.126-0.023c0.189-0.07,0.285-0.279,0.215-0.467
			C-465.91,286.566-465.916,286.475-465.917,286.467 M-462.268,288.273c-0.252-0.013-0.497-0.034-0.728-0.063
			c-0.2-0.03-0.381,0.116-0.406,0.316s0.117,0.381,0.316,0.406c0.248,0.031,0.511,0.054,0.78,0.069c0.007,0,0.013,0,0.019,0
			c0.192,0,0.353-0.15,0.363-0.344C-461.913,288.454-462.067,288.283-462.268,288.273 M-464.391,287.896
			c-0.231-0.083-0.441-0.18-0.625-0.287c-0.174-0.103-0.396-0.043-0.498,0.13c-0.103,0.173-0.044,0.397,0.129,0.498
			c0.223,0.13,0.474,0.247,0.748,0.345c0.041,0.014,0.082,0.021,0.123,0.021c0.149,0,0.289-0.092,0.343-0.241
			C-464.104,288.172-464.202,287.963-464.391,287.896 M-460.073,288.194c-0.231,0.033-0.475,0.058-0.725,0.073
			c-0.201,0.013-0.353,0.187-0.34,0.387c0.013,0.193,0.172,0.34,0.363,0.34c0.008,0,0.016-0.001,0.024-0.001
			c0.268-0.018,0.531-0.044,0.78-0.079c0.199-0.028,0.337-0.213,0.309-0.412C-459.69,288.304-459.873,288.164-460.073,288.194
			 M-457.186,278.264c-0.203,0.146-0.412,0.305-0.62,0.473c-0.156,0.127-0.179,0.356-0.052,0.512
			c0.072,0.089,0.177,0.134,0.282,0.134c0.08,0,0.162-0.027,0.229-0.081c0.195-0.159,0.393-0.309,0.585-0.446
			c0.163-0.117,0.201-0.344,0.083-0.507C-456.795,278.184-457.022,278.147-457.186,278.264 M-457.134,285.508
			c-0.196,0.041-0.323,0.233-0.282,0.43c0.024,0.117,0.037,0.233,0.037,0.342c0,0.09-0.009,0.179-0.025,0.265
			c-0.039,0.198,0.091,0.388,0.288,0.426c0.024,0.005,0.047,0.007,0.07,0.007c0.171,0,0.323-0.121,0.357-0.295
			c0.026-0.131,0.039-0.266,0.039-0.403c0-0.159-0.018-0.324-0.052-0.49C-456.745,285.593-456.938,285.468-457.134,285.508
			 M-455.041,277.391c-0.092-0.179-0.311-0.249-0.49-0.156c0,0-0.124,0.064-0.331,0.181c-0.175,0.099-0.236,0.321-0.136,0.496
			c0.067,0.118,0.19,0.184,0.317,0.184c0.062,0,0.123-0.016,0.18-0.048c0.187-0.106,0.301-0.165,0.304-0.167
			C-455.019,277.79-454.949,277.57-455.041,277.391 M-457.439,284.299c-0.155-0.202-0.331-0.404-0.528-0.604
			c-0.14-0.143-0.371-0.144-0.515-0.004c-0.143,0.141-0.144,0.371-0.003,0.515c0.175,0.177,0.332,0.358,0.468,0.535
			c0.072,0.093,0.18,0.142,0.289,0.142c0.077,0,0.155-0.024,0.221-0.075C-457.347,284.687-457.317,284.459-457.439,284.299
			 M-458.925,282.661c-0.104-0.187-0.167-0.38-0.189-0.576c-0.022-0.2-0.196-0.344-0.401-0.323c-0.2,0.022-0.345,0.201-0.323,0.401
			c0.031,0.294,0.125,0.581,0.277,0.853c0.066,0.119,0.19,0.186,0.317,0.186c0.061,0,0.121-0.015,0.178-0.047
			C-458.889,283.058-458.826,282.836-458.925,282.661 M-458.102,287.521c-0.171,0.119-0.372,0.226-0.597,0.318
			c-0.186,0.077-0.274,0.29-0.198,0.476c0.057,0.141,0.193,0.225,0.336,0.225c0.046,0,0.094-0.009,0.138-0.027
			c0.273-0.113,0.521-0.245,0.735-0.393c0.166-0.115,0.207-0.341,0.092-0.507C-457.709,287.448-457.937,287.407-458.102,287.521
			 M-466.269,273c-2.613,0-4.731,2.133-4.731,4.763c0,3.87,4.731,7.608,4.731,7.608s4.731-3.738,4.731-7.608
			C-461.539,275.133-463.657,273-466.269,273 M-466.27,284.414c-0.433-0.386-1.12-1.039-1.806-1.862
			c-1.002-1.202-2.196-3.008-2.196-4.789c0-2.224,1.796-4.036,4.003-4.036s4.002,1.811,4.002,4.036
			C-462.267,280.561-465.138,283.403-466.27,284.414"/>
	</g>
</g>
</svg>
