<?xml version="1.0" encoding="utf-8"?>
<!-- Generator: Adobe Illustrator 19.1.0, SVG Export Plug-In . SVG Version: 6.00 Build 0)  -->
<svg version="1.1" id="Layer_1" xmlns="http://www.w3.org/2000/svg" xmlns:xlink="http://www.w3.org/1999/xlink" x="0px" y="0px"
	 viewBox="0 0 16 16" enable-background="new 0 0 16 16" xml:space="preserve">
<g>
	<defs>
		<rect id="SVGID_1_" width="16" height="16"/>
	</defs>
	<clipPath id="SVGID_2_">
		<use xlink:href="#SVGID_1_"  overflow="visible"/>
	</clipPath>
	<rect opacity="0" clip-path="url(#SVGID_2_)" fill="#FFFFFF" width="16" height="16"/>
	<path clip-path="url(#SVGID_2_)" fill-rule="evenodd" clip-rule="evenodd" fill="#53585F" d="M4.731,2.189
		c-1.407,0-2.547,1.14-2.547,2.546c0,1.407,1.141,2.547,2.547,2.547s2.547-1.141,2.547-2.547C7.278,3.329,6.137,2.189,4.731,2.189
		 M4.731,6.549c-1.005,0-1.82-0.815-1.82-1.82c0-1.005,0.815-1.82,1.82-1.82c1.005,0,1.819,0.815,1.819,1.82
		C6.55,5.734,5.736,6.549,4.731,6.549 M11.711,7.999c0.058,0.034,0.122,0.05,0.184,0.05c0.125,0,0.246-0.064,0.314-0.179
		c0.108-0.184,0.245-0.374,0.406-0.566c0.129-0.154,0.109-0.384-0.045-0.513c-0.155-0.13-0.384-0.109-0.513,0.045
		c-0.187,0.221-0.346,0.446-0.476,0.663C11.481,7.673,11.538,7.896,11.711,7.999 M5.083,13.467
		c-0.003-0.199-0.164-0.359-0.363-0.359c-0.201,0-0.364,0.163-0.364,0.364c0,0.034,0.004,0.219,0.101,0.479
		c0.054,0.147,0.193,0.238,0.341,0.238c0.042,0,0.085-0.007,0.126-0.023c0.189-0.07,0.285-0.279,0.215-0.467
		C5.09,13.566,5.084,13.475,5.083,13.467 M8.732,15.273c-0.252-0.013-0.497-0.034-0.728-0.063c-0.2-0.03-0.381,0.116-0.406,0.316
		c-0.025,0.2,0.117,0.381,0.316,0.406c0.248,0.031,0.511,0.054,0.78,0.069c0.007,0,0.013,0,0.019,0c0.192,0,0.353-0.15,0.363-0.344
		C9.087,15.454,8.933,15.283,8.732,15.273 M6.609,14.896c-0.231-0.083-0.441-0.18-0.625-0.287c-0.174-0.103-0.396-0.043-0.498,0.13
		c-0.103,0.173-0.044,0.397,0.129,0.498c0.223,0.13,0.474,0.247,0.748,0.345c0.041,0.014,0.082,0.021,0.123,0.021
		c0.149,0,0.289-0.092,0.343-0.241C6.896,15.172,6.798,14.963,6.609,14.896 M10.927,15.194c-0.231,0.033-0.475,0.058-0.725,0.073
		c-0.201,0.013-0.353,0.187-0.34,0.387c0.013,0.193,0.172,0.34,0.363,0.34c0.008,0,0.016-0.001,0.024-0.001
		c0.268-0.018,0.531-0.044,0.78-0.079c0.199-0.028,0.337-0.213,0.309-0.412C11.31,15.304,11.127,15.164,10.927,15.194 M13.814,5.264
		c-0.203,0.146-0.412,0.305-0.62,0.473c-0.156,0.127-0.179,0.356-0.052,0.512c0.072,0.089,0.177,0.134,0.282,0.134
		c0.08,0,0.162-0.027,0.229-0.081c0.195-0.159,0.393-0.309,0.585-0.446c0.163-0.117,0.201-0.344,0.083-0.507
		C14.205,5.184,13.978,5.147,13.814,5.264 M13.866,12.508c-0.196,0.041-0.323,0.233-0.282,0.43c0.024,0.117,0.037,0.233,0.037,0.342
		c0,0.09-0.009,0.179-0.025,0.265c-0.039,0.198,0.091,0.388,0.288,0.426c0.024,0.005,0.047,0.007,0.07,0.007
		c0.171,0,0.323-0.121,0.357-0.295c0.026-0.131,0.039-0.266,0.039-0.403c0-0.159-0.018-0.324-0.052-0.49
		C14.255,12.593,14.062,12.468,13.866,12.508 M15.959,4.391c-0.092-0.179-0.311-0.249-0.49-0.156c0,0-0.124,0.064-0.331,0.181
		c-0.175,0.099-0.236,0.321-0.136,0.496c0.067,0.118,0.19,0.184,0.317,0.184c0.062,0,0.123-0.016,0.18-0.048
		c0.187-0.106,0.301-0.165,0.304-0.167C15.981,4.79,16.051,4.57,15.959,4.391 M13.561,11.299c-0.155-0.202-0.331-0.404-0.528-0.604
		c-0.14-0.143-0.371-0.144-0.515-0.004c-0.143,0.141-0.144,0.371-0.003,0.515c0.175,0.177,0.332,0.358,0.468,0.535
		c0.072,0.093,0.18,0.142,0.289,0.142c0.077,0,0.155-0.024,0.221-0.075C13.653,11.687,13.683,11.459,13.561,11.299 M12.075,9.661
		c-0.104-0.187-0.167-0.38-0.189-0.576c-0.022-0.2-0.196-0.344-0.401-0.323c-0.2,0.022-0.345,0.201-0.323,0.401
		c0.031,0.294,0.125,0.581,0.277,0.853c0.066,0.119,0.19,0.186,0.317,0.186c0.061,0,0.121-0.015,0.178-0.047
		C12.111,10.058,12.174,9.836,12.075,9.661 M12.898,14.521c-0.171,0.119-0.372,0.226-0.597,0.318
		c-0.186,0.077-0.274,0.29-0.198,0.476c0.057,0.141,0.193,0.225,0.336,0.225c0.046,0,0.094-0.009,0.138-0.027
		c0.273-0.113,0.521-0.245,0.735-0.393c0.166-0.115,0.207-0.341,0.092-0.507C13.291,14.448,13.063,14.407,12.898,14.521 M4.731,0
		C2.118,0,0,2.133,0,4.763c0,3.87,4.731,7.608,4.731,7.608s4.731-3.738,4.731-7.608C9.461,2.133,7.343,0,4.731,0 M4.73,11.414
		c-0.433-0.386-1.12-1.039-1.806-1.862C1.922,8.35,0.728,6.544,0.728,4.763c0-2.224,1.796-4.036,4.003-4.036
		s4.002,1.811,4.002,4.036C8.733,7.561,5.862,10.403,4.73,11.414"/>
</g>
</svg>
