<?xml version="1.0" encoding="utf-8"?>
<!-- Generator: Adobe Illustrator 22.1.0, SVG Export Plug-In . SVG Version: 6.00 Build 0)  -->
<svg version="1.1" id="Layer_1" xmlns="http://www.w3.org/2000/svg" xmlns:xlink="http://www.w3.org/1999/xlink" x="0px" y="0px"
	 viewBox="0 0 458 458" enable-background="new 0 0 458 458" xml:space="preserve">
<title>FDS LogoFDS-Seal copy</title>
<g id="Layer_1_1_">
	<path fill="#14477B" stroke="#B5ADA5" stroke-width="8" stroke-miterlimit="10" d="M229.19,7.25c-121.51,0-220,98.5-220,220
		s98.49,220,220,220s220-98.5,220-220S350.69,7.25,229.19,7.25z M229.19,388.75c-89.194,0-161.5-72.306-161.5-161.5
		s72.306-161.5,161.5-161.5s161.5,72.306,161.5,161.5S318.384,388.75,229.19,388.75z"/>
</g>
<g id="Text">
	<path fill="#FFFFFF" d="M38.86,260.17l2.31,11.53c0.079,0.236-0.047,0.491-0.283,0.57c-0.028,0.01-0.057,0.016-0.087,0.02
		l-0.92,0.19c-0.246,0.062-0.496-0.087-0.558-0.334c-0.005-0.022-0.009-0.044-0.012-0.066l-2.65-13.2
		c-0.084-0.228,0.033-0.481,0.261-0.565c0.035-0.013,0.072-0.021,0.109-0.025l15.53-3.12c0.232-0.072,0.479,0.058,0.551,0.29
		c0.011,0.036,0.018,0.073,0.019,0.11l0.24,1.17c0.084,0.228-0.033,0.481-0.261,0.565c-0.035,0.013-0.072,0.021-0.109,0.025
		L38.86,260.17z"/>
	<path fill="#FFFFFF" d="M41.61,280.45c-0.69-2.35,0-3.74,2.28-4.4l5.53-1.63c2.25-0.67,3.61,0.11,4.3,2.46l1.54,5.23
		c0.64,2.16,0,3.48-2.11,4.1l-3.32,1c-0.206,0.079-0.438-0.024-0.517-0.23c-0.011-0.029-0.019-0.059-0.023-0.09l-2.79-9.44
		l-1.82,0.54c-1.49,0.44-1.71,0.88-1.18,2.7l1.3,4.4c0.28,0.94,0.69,1.32,1.52,1.08l0.3-0.09c0.198-0.085,0.427,0.008,0.512,0.206
		c0.014,0.033,0.024,0.068,0.028,0.104l0.31,1c0.092,0.201,0.004,0.438-0.197,0.53c-0.03,0.014-0.061,0.024-0.093,0.03l0,0
		c-2.15,0.63-3.32-0.05-4-2.28L41.61,280.45z M48.11,276.96l2.35,8l2.31-0.67c0.92-0.28,1-0.84,0.76-1.81l-1.28-4.35
		c-0.53-1.82-1-2.07-2.46-1.63L48.11,276.96z"/>
	<path fill="#FFFFFF" d="M56.93,288.85c0.19-0.18,0.39-0.18,0.48,0l0.52,1.35c0.146,0.238,0.09,0.548-0.13,0.72l-8.18,8.1
		l11.51,0.46c0.282-0.021,0.535,0.173,0.59,0.45l0.48,1.25c0.09,0.22-0.06,0.36-0.32,0.36l-12.95-0.71c-0.31,0-0.45-0.11-0.58-0.45
		l-0.62-1.58c-0.14-0.247-0.09-0.558,0.12-0.75L56.93,288.85z"/>
	<path fill="#FFFFFF" d="M54,313.49c-1.08-2.2-0.6-3.69,1.51-4.72l5.18-2.53c2.11-1,3.57-0.49,4.65,1.71l2.39,4.89
		c1,2,0.56,3.44-1.4,4.4l-3.1,1.52c-0.188,0.115-0.435,0.056-0.55-0.132c-0.017-0.027-0.03-0.057-0.04-0.088l-4.32-8.84l-1.71,0.83
		c-1.4,0.69-1.54,1.16-0.71,2.86l2,4.12c0.44,0.88,0.91,1.19,1.68,0.81l0.28-0.14c0.18-0.118,0.422-0.069,0.54,0.111
		c0.022,0.034,0.039,0.07,0.05,0.109l0.48,1c0.125,0.182,0.078,0.431-0.105,0.556c-0.026,0.018-0.055,0.033-0.085,0.044h-0.05
		c-2,1-3.27,0.51-4.3-1.58L54,313.49z M59.83,308.96l3.64,7.46l2.16-1.05c0.86-0.43,0.9-1,0.46-1.91l-2-4.08
		c-0.83-1.7-1.29-1.88-2.69-1.19L59.83,308.96z"/>
	<path fill="#FFFFFF" d="M73,326c-1.3-2.24-2.68-2.55-4.63-1.42l-6.18,3.6c-0.173,0.129-0.417,0.093-0.546-0.079
		c-0.023-0.031-0.041-0.065-0.054-0.101l-0.58-1c-0.14-0.171-0.115-0.423,0.056-0.563c0.028-0.023,0.06-0.042,0.094-0.057
		l10.16-5.91c0.173-0.129,0.417-0.093,0.546,0.079c0.023,0.031,0.041,0.065,0.054,0.101l0.42,0.72
		c0.142,0.155,0.131,0.395-0.023,0.537c-0.034,0.031-0.074,0.056-0.117,0.073l-1.52,0.88c1.48-0.33,2.73,0.36,3.7,2l0.71,1.22
		c0.142,0.155,0.131,0.395-0.023,0.537c-0.034,0.031-0.074,0.056-0.117,0.073l-0.77,0.45c-0.173,0.129-0.417,0.093-0.546-0.079
		c-0.023-0.031-0.041-0.065-0.054-0.101L73,326z"/>
	<path fill="#FFFFFF" d="M69.23,334.64l0.69-0.47c2-1.36,3.17-1,4.52,0.95l3.86,5.64l1.44-1c1.29-0.88,1.37-1.37,0.29-2.93
		l-2.27-3.33c-0.54-0.79-1-1.06-1.78-0.55l-0.36,0.24c-0.162,0.141-0.409,0.125-0.55-0.038c-0.024-0.028-0.044-0.059-0.06-0.092
		l-0.61-0.9c-0.149-0.163-0.139-0.416,0.024-0.565c0.023-0.021,0.049-0.04,0.076-0.055l0.14-0.09c1.84-1.26,3.17-1,4.48,0.94
		l2.78,4.06c1.37,2,1.13,3.57-0.81,4.89l-5.65,3.86c-0.264,0.126-0.376,0.442-0.251,0.706c0.027,0.057,0.065,0.109,0.111,0.154
		l0.08,0.12c0.151,0.154,0.149,0.401-0.005,0.552c-0.028,0.027-0.06,0.051-0.095,0.068l-0.73,0.5
		c-0.162,0.141-0.409,0.125-0.55-0.038c-0.024-0.028-0.044-0.059-0.06-0.092l-0.4-0.58c-0.61-0.647-0.581-1.665,0.065-2.276
		c0.117-0.111,0.25-0.203,0.395-0.274l0.24-0.17c-1.43,0.37-2.72-0.23-3.77-1.77l-2-2.91C67.13,337.23,67.24,336,69.23,334.64z
		 M76,342.33l0.91-0.62l-3.78-5.53c-0.51-0.75-1-1-1.74-0.49l-1.22,0.84c-0.72,0.48-0.71,1-0.17,1.79l2.09,3.06
		C73.32,343.18,74.46,343.39,76,342.33L76,342.33z"/>
	<path fill="#FFFFFF" d="M79.9,349.4l4.45-3.67c1.81-1.5,3.35-1.33,4.92,0.58l2.17,2.63c1.16,1.4,1.39,2.77,0.73,4l1.2-1
		c0.15-0.155,0.397-0.159,0.551-0.009c0.027,0.026,0.05,0.056,0.069,0.089l0.58,0.7c0.174,0.136,0.205,0.388,0.068,0.562
		c-0.02,0.026-0.043,0.049-0.068,0.068l-10.35,8.54c-1.86,1.53-3.68,1.32-5.28-0.63l-3.16-3.83c-1.47-1.78-1.45-3.07,0.27-4.5
		l0.12-0.09c0.149-0.155,0.396-0.16,0.551-0.011c0.022,0.021,0.042,0.045,0.059,0.071l0.7,0.85c0.163,0.149,0.175,0.402,0.026,0.565
		c-0.023,0.025-0.048,0.047-0.076,0.065l-0.27,0.23c-0.67,0.55-0.6,1.09,0,1.84l2.63,3.19c1.27,1.54,1.93,1.58,3.22,0.52l2.08-1.72
		c-1.348,0.2-2.689-0.406-3.43-1.55l-2.11-2.56C78,352.43,78.09,350.89,79.9,349.4z M85.5,347.46l-4.12,3.39
		c-1.2,1-1.23,1.49,0,2.95l1.89,2.3c1.39,1.68,2.52,1.77,4,0.58l2.89-2.38c1.44-1.19,1.57-2.32,0.18-4L88.4,348
		C87.19,346.53,86.7,346.47,85.5,347.46z"/>
	<path fill="#FFFFFF" d="M98.28,357.38c0.127-0.174,0.371-0.212,0.545-0.085c0.033,0.024,0.061,0.052,0.085,0.085l0.79,0.84
		c0.174,0.127,0.212,0.371,0.085,0.545c-0.024,0.033-0.052,0.061-0.085,0.085l-8.56,8.06c-0.121,0.171-0.359,0.212-0.53,0.09
		c-0.035-0.025-0.065-0.055-0.09-0.09l-0.79-0.83c-0.174-0.127-0.212-0.371-0.085-0.545c0.024-0.033,0.052-0.061,0.085-0.085
		L98.28,357.38z M102.02,353.86c0.127-0.174,0.371-0.212,0.545-0.085c0.033,0.024,0.061,0.052,0.085,0.085l0.79,0.84
		c0.174,0.127,0.212,0.371,0.085,0.545c-0.024,0.033-0.052,0.061-0.085,0.085l-1.31,1.23c-0.121,0.171-0.359,0.212-0.53,0.09
		c-0.035-0.025-0.065-0.055-0.09-0.09l-0.79-0.84c-0.174-0.127-0.212-0.371-0.085-0.545c0.024-0.033,0.052-0.061,0.085-0.085
		L102.02,353.86z"/>
	<path fill="#FFFFFF" d="M108.67,372.09c1.06-1.14,1-1.63-0.36-2.93l-2-1.84c-1.61-1.51-2.75-1.45-4-0.08L97,372.92
		c-0.127,0.174-0.371,0.212-0.545,0.085c-0.033-0.024-0.061-0.052-0.085-0.085l-0.84-0.79c-0.171-0.121-0.212-0.359-0.09-0.53
		c0.025-0.035,0.055-0.065,0.09-0.09l8-8.62c0.127-0.174,0.371-0.212,0.545-0.085c0.033,0.024,0.061,0.052,0.085,0.085l0.65,0.6
		c0.174,0.127,0.212,0.371,0.085,0.545c-0.024,0.033-0.052,0.061-0.085,0.085l-1.09,1.18c1.28-0.65,2.63-0.34,4,0.92l2.32,2.16
		c1.81,1.68,1.88,3.22,0.28,4.95l-6,6.41c-0.14,0.171-0.392,0.197-0.563,0.057c-0.021-0.017-0.04-0.036-0.057-0.057l-0.85-0.79
		c-0.171-0.131-0.204-0.375-0.073-0.547c0.021-0.028,0.046-0.052,0.073-0.073L108.67,372.09z"/>
	<path fill="#FFFFFF" d="M110.75,381.25l3.51-4.56c1.44-1.87,3-2.05,4.93-0.54l2.7,2.08c1.44,1.11,2,2.39,1.6,3.74l0.95-1.23
		c0.1-0.185,0.33-0.253,0.515-0.154c0.04,0.021,0.075,0.05,0.105,0.084l0.72,0.56c0.192,0.099,0.267,0.334,0.168,0.525
		c-0.018,0.035-0.041,0.067-0.068,0.095l-8.18,10.63c-1.46,1.9-3.28,2.1-5.28,0.56l-3.93-3c-1.83-1.4-2.1-2.67-0.74-4.43l0.09-0.12
		c0.109-0.186,0.348-0.248,0.534-0.138c0.028,0.016,0.053,0.036,0.076,0.058l0.87,0.68c0.193,0.107,0.262,0.351,0.155,0.544
		c-0.015,0.027-0.034,0.053-0.055,0.076l-0.22,0.28c-0.53,0.69-0.34,1.19,0.44,1.79l3.27,2.52c1.58,1.21,2.23,1.11,3.25-0.22
		l1.64-2.13c-1.271,0.495-2.713,0.201-3.69-0.75l-2.62-2C109.53,384.64,109.32,383.11,110.75,381.25z M115.75,378.12l-3.24,4.22
		c-1,1.23-0.87,1.72,0.63,2.88l2.36,1.78c1.74,1.33,2.86,1.17,4-0.31l2.28-3c1.14-1.48,1-2.61-0.71-3.94l-2.36-1.75
		c-1.5-1.17-1.99-1.12-2.95,0.12H115.75z"/>
	<path fill="#FFFFFF" d="M149.31,390.87c2.82,1.55,3.7,4.28,2.21,7l-3.22,5.85c-1.49,2.71-4.27,3.43-7.09,1.88l-9.06-5
		c-0.228-0.085-0.344-0.338-0.259-0.566c0.012-0.033,0.029-0.065,0.049-0.094l7.63-13.88c0.1-0.227,0.366-0.331,0.593-0.23
		c0.031,0.014,0.06,0.03,0.087,0.05L149.31,390.87z M134.56,399.76l6.54,3.6c2.71,1.49,4.24,1.15,5.48-1.12l2.78-5
		c1.25-2.28,0.72-3.75-2-5.24l-6.54-3.6L134.56,399.76z"/>
	<path fill="#FFFFFF" d="M152.23,407.56l0.32-0.78c0.92-2.21,2.11-2.57,4.31-1.66l6.31,2.63l0.68-1.62c0.6-1.44,0.39-1.88-1.36-2.61
		l-3.72-1.52c-0.89-0.36-1.45-0.31-1.79,0.5l-0.17,0.4c-0.054,0.209-0.266,0.334-0.475,0.281c-0.041-0.01-0.08-0.028-0.115-0.051
		l-1-0.42c-0.214-0.053-0.345-0.27-0.292-0.485c0.007-0.03,0.018-0.058,0.032-0.085l0.06-0.16c0.86-2.06,2.13-2.54,4.28-1.65
		l4.54,1.89c2.24,0.94,2.89,2.38,2,4.55L163.2,413c-0.15,0.38-0.07,0.62,0.35,0.8l0.13,0.05c0.215,0.051,0.348,0.266,0.298,0.481
		c-0.008,0.035-0.021,0.068-0.038,0.099l-0.35,0.82c-0.053,0.203-0.26,0.325-0.463,0.273c-0.042-0.011-0.081-0.029-0.117-0.053
		l-0.65-0.27c-0.864-0.211-1.393-1.082-1.182-1.946c0.038-0.156,0.1-0.306,0.182-0.444l0.11-0.27c-1,1.09-2.41,1.29-4.13,0.57
		l-3.26-1.36C151.89,410.88,151.3,409.77,152.23,407.56z M162.1,410.32l0.43-1l-6.19-2.57c-0.84-0.35-1.37-0.32-1.72,0.52
		l-0.58,1.38c-0.33,0.8,0,1.23,0.85,1.6l3.41,1.42C160.31,412.49,161.38,412.05,162.1,410.32L162.1,410.32z"/>
	<path fill="#FFFFFF" d="M174.52,407.91l-2.25,6.94c-0.49,1.51-0.29,1.82,1,2.24l1.67,0.54c0.3,0.1,0.39,0.28,0.3,0.55L175,419
		c-0.048,0.216-0.262,0.351-0.478,0.303c-0.032-0.007-0.063-0.018-0.092-0.033l-2.1-0.69c-2.21-0.71-2.8-1.86-2.12-4l2.4-7.38
		l-1.58-0.51c-0.218-0.038-0.363-0.245-0.326-0.462c0.005-0.03,0.014-0.059,0.026-0.087l0.28-0.84
		c0.046-0.216,0.258-0.354,0.474-0.309c0.03,0.006,0.058,0.016,0.086,0.029l1.58,0.52L174,403c0.034-0.207,0.23-0.347,0.437-0.313
		c0.036,0.006,0.07,0.017,0.103,0.033l1.12,0.36c0.218,0.035,0.366,0.241,0.331,0.459c-0.006,0.035-0.016,0.069-0.031,0.101
		l-0.86,2.64l3.22,1.05c0.3,0.1,0.39,0.28,0.3,0.55l-0.27,0.85c-0.048,0.216-0.262,0.351-0.478,0.303
		c-0.032-0.007-0.063-0.018-0.092-0.033L174.52,407.91z"/>
	<path fill="#FFFFFF" d="M180.16,417.74l0.19-0.81c0.56-2.34,1.68-2.89,4-2.34l6.65,1.59l0.41-1.71c0.36-1.52,0.08-1.93-1.76-2.36
		l-3.92-0.94c-0.94-0.22-1.49-0.08-1.69,0.78l-0.1,0.43c-0.07,0.27-0.24,0.38-0.55,0.31l-1-0.25
		c-0.22-0.021-0.381-0.216-0.361-0.436c0.003-0.032,0.01-0.064,0.021-0.094v-0.16c0.51-2.17,1.69-2.85,4-2.32l4.79,1.14
		c2.36,0.56,3.23,1.88,2.68,4.17l-1.58,6.65c-0.09,0.4,0,0.63,0.47,0.73h0.14c0.3,0.08,0.41,0.25,0.34,0.53l-0.2,0.86
		c-0.027,0.219-0.227,0.375-0.446,0.347c-0.036-0.004-0.07-0.014-0.104-0.027l-0.67-0.16c-0.887-0.064-1.554-0.835-1.489-1.722
		c0.012-0.164,0.049-0.325,0.109-0.478l0.07-0.28c-0.82,1.23-2.17,1.65-4,1.22l-3.44-0.82C180.35,421.07,179.6,420.08,180.16,417.74
		z M190.35,418.88l0.25-1.07l-6.51-1.55c-0.89-0.21-1.41-0.09-1.62,0.8l-0.35,1.45c-0.2,0.84,0.16,1.22,1.09,1.44l3.6,0.85
		C188.93,421.31,189.91,420.71,190.35,418.88z"/>
	<path fill="#FFFFFF" d="M206.61,423l0.07-0.84c0.21-2.39,1.23-3.1,3.6-2.89l6.81,0.59l0.15-1.75c0.14-1.55-0.19-1.92-2.08-2.08
		l-4-0.35c-0.95-0.08-1.48,0.14-1.55,1v0.43c0.007,0.215-0.161,0.396-0.377,0.403c-0.038,0.001-0.076-0.003-0.113-0.013l-1.12-0.1
		c-0.22,0.015-0.411-0.152-0.425-0.373c-0.002-0.033,0-0.065,0.005-0.097v-0.17c0.19-2.22,1.25-3.07,3.57-2.87l4.9,0.43
		c2.42,0.2,3.47,1.38,3.27,3.72l-0.59,6.82c0,0.4,0.12,0.61,0.57,0.65h0.15c0.31,0,0.44,0.18,0.41,0.47l-0.07,0.88
		c0.007,0.215-0.161,0.396-0.377,0.403c-0.038,0.001-0.076-0.003-0.113-0.013l-0.7-0.05c-0.887,0.066-1.659-0.6-1.725-1.487
		c-0.013-0.172,0.002-0.346,0.045-0.513v-0.29c-0.62,1.35-1.9,2-3.77,1.8l-3.51-0.31C207.29,426.23,206.4,425.36,206.61,423z
		 M216.86,422.63l0.09-1.1l-6.67-0.58c-0.91-0.07-1.41,0.12-1.49,1l-0.12,1.48c-0.08,0.86,0.33,1.19,1.28,1.27l3.69,0.32
		c2.17,0.19,3.05-0.56,3.22-2.42V422.63z"/>
	<path fill="#FFFFFF" d="M226.64,419.08c0,0.87,0.48,1.15,1.44,1.13l5.37-0.09c2.38,0,3.35,0.73,3.4,3.13v0.84
		c0,2.41-0.91,3.21-3.28,3.25l-5.79,0.1c-2.32,0-3.32-0.88-3.36-3.11v-0.17c-0.018-0.226,0.151-0.423,0.377-0.441
		c0.024-0.002,0.049-0.002,0.073,0.001H226c0.32,0,0.46,0.13,0.47,0.42v0.43c0,0.87,0.5,1.15,1.49,1.13l5.49-0.1
		c1,0,1.42-0.31,1.4-1.17v-1.49c0-0.86-0.48-1.14-1.44-1.13l-5.4,0.09c-2.35,0.05-3.33-0.73-3.37-3.13v-0.7
		c0-2.4,0.91-3.21,3.26-3.25l5.25-0.09c2.31,0,3.31,0.88,3.35,3.12V418c0.031,0.213-0.118,0.411-0.331,0.441
		c-0.04,0.006-0.08,0.005-0.119-0.001h-1.08c-0.29,0-0.46-0.13-0.46-0.42v-0.43c0-0.87-0.5-1.15-1.46-1.13l-4.94,0.08
		c-1,0-1.42,0.32-1.4,1.18L226.64,419.08z"/>
	<path fill="#FFFFFF" d="M250.72,423.05l-0.13-0.83c-0.36-2.37,0.46-3.3,2.81-3.66l6.76-1.05l-0.27-1.73
		c-0.24-1.54-0.64-1.82-2.52-1.53l-4,0.62c-0.95,0.14-1.41,0.48-1.27,1.36l0.07,0.43c0.055,0.208-0.069,0.422-0.277,0.477
		c-0.037,0.01-0.075,0.014-0.113,0.013l-1.07,0.17c-0.205,0.066-0.425-0.046-0.491-0.251c-0.011-0.035-0.018-0.072-0.019-0.109
		v-0.17c-0.34-2.2,0.49-3.28,2.79-3.63l4.86-0.75c2.4-0.37,3.7,0.52,4.06,2.84l1,6.76c0.06,0.4,0.26,0.57,0.71,0.5h0.14
		c0.31-0.05,0.47,0.07,0.52,0.35l0.13,0.88c0.05,0.29-0.07,0.45-0.38,0.5l-0.69,0.1c-0.847,0.271-1.753-0.197-2.024-1.044
		c-0.049-0.154-0.075-0.315-0.076-0.476v-0.28c-0.28,1.45-1.38,2.35-3.23,2.64l-3.49,0.53
		C252.16,426.06,251.09,425.42,250.72,423.05z M260.58,420.26l-0.16-1.09l-6.62,1c-0.9,0.14-1.34,0.45-1.2,1.35l0.23,1.47
		c0.13,0.86,0.6,1.08,1.55,0.93l3.65-0.56C260.19,423,260.87,422.11,260.58,420.26L260.58,420.26z"/>
	<path fill="#FFFFFF" d="M278.41,416.14c0.219-0.105,0.482-0.013,0.587,0.206c0.014,0.03,0.025,0.062,0.033,0.094l0.15,0.46
		c0.132,0.829,0.911,1.394,1.74,1.262c0.168-0.027,0.33-0.081,0.48-0.162l7.22-2.31c2-0.65,2.28-1.16,1.74-2.83l-0.4-1.26
		c-0.53-1.66-1-1.94-3.06-1.29l-7.2,2.31c-2.4,0.76-3.93,0-4.66-2.29l-0.63-2c-0.73-2.28,0.07-3.8,2.47-4.57l7.7-2.46
		c2.66-0.85,4-0.18,4.84,2.36l0.12,0.37c0.092,0.231-0.02,0.493-0.251,0.585c-0.029,0.011-0.058,0.02-0.089,0.025l-1.09,0.35
		c-0.217,0.109-0.482,0.022-0.591-0.195c-0.018-0.036-0.031-0.075-0.039-0.115l-0.15-0.45c-0.35-1.12-1-1.49-2.24-1.1l-6.69,2.14
		c-2,0.64-2.28,1.16-1.75,2.82l0.35,1.1c0.54,1.67,1.05,1.94,3.06,1.29l7.2-2.3c2.4-0.773,3.963-0.013,4.69,2.28l0.68,2.13
		c0.73,2.28-0.09,3.8-2.49,4.57l-8.23,2.63c-2.63,0.84-4,0.18-4.84-2.36l-0.12-0.36c-0.092-0.231,0.02-0.493,0.251-0.585
		c0.029-0.011,0.058-0.02,0.089-0.025L278.41,416.14z"/>
	<path fill="#FFFFFF" d="M297.56,402.66l2.84,6.72c0.61,1.46,1,1.57,2.21,1.05l1.61-0.68c0.29-0.12,0.48-0.05,0.59,0.22l0.34,0.82
		c0.12,0.26,0,0.45-0.25,0.57l-2,0.86c-2.14,0.91-3.34,0.42-4.2-1.61l-3-7.14l-1.52,0.64c-0.188,0.115-0.435,0.056-0.55-0.132
		c-0.017-0.027-0.03-0.057-0.04-0.088l-0.34-0.82c-0.105-0.188-0.038-0.426,0.15-0.531c0.031-0.018,0.065-0.031,0.1-0.039l1.52-0.65
		l-1.08-2.56c-0.111-0.178-0.057-0.412,0.121-0.524c0.034-0.021,0.071-0.037,0.109-0.046l1.08-0.46
		c0.188-0.115,0.435-0.056,0.55,0.132c0.017,0.027,0.03,0.057,0.04,0.088l1.08,2.57l3.12-1.32c0.18-0.118,0.422-0.069,0.54,0.111
		c0.022,0.034,0.039,0.07,0.05,0.109l0.35,0.82c0.11,0.27,0,0.45-0.26,0.58L297.56,402.66z"/>
	<path fill="#FFFFFF" d="M310.33,396.69c-2.31,1.16-2.71,2.51-1.7,4.53l3.19,6.4c0.118,0.18,0.069,0.422-0.111,0.54
		c-0.034,0.022-0.07,0.039-0.109,0.05l-1,0.51c-0.173,0.129-0.417,0.093-0.546-0.079c-0.023-0.031-0.041-0.065-0.054-0.101
		L304.72,398c-0.118-0.18-0.069-0.422,0.111-0.54c0.034-0.022,0.07-0.039,0.109-0.05l0.75-0.38c0.173-0.129,0.417-0.093,0.546,0.079
		c0.023,0.031,0.041,0.065,0.054,0.101l0.78,1.57c-0.23-1.49,0.53-2.7,2.25-3.56l1.26-0.63c0.28-0.14,0.48-0.08,0.6,0.18l0.4,0.8
		c0.12,0.179,0.072,0.421-0.107,0.541c-0.032,0.021-0.066,0.038-0.103,0.049L310.33,396.69z"/>
	<path fill="#FFFFFF" d="M318.77,401l-0.44-0.72c-1.23-2.06-0.82-3.23,1.22-4.45l5.85-3.53l-0.9-1.5c-0.8-1.34-1.29-1.44-2.91-0.46
		l-3.45,2.08c-0.82,0.49-1.12,1-0.66,1.74l0.22,0.37c0.133,0.162,0.109,0.402-0.053,0.535c-0.035,0.029-0.074,0.051-0.117,0.065
		l-0.92,0.56c-0.177,0.142-0.435,0.113-0.576-0.063c-0.017-0.021-0.031-0.043-0.044-0.067l-0.08-0.15c-1.15-1.91-0.79-3.22,1.2-4.42
		l4.21-2.54c2.08-1.25,3.62-0.92,4.83,1.1l3.53,5.86c0.21,0.35,0.46,0.42,0.85,0.19l0.12-0.08c0.164-0.14,0.41-0.12,0.55,0.044
		c0.025,0.029,0.045,0.061,0.06,0.096l0.46,0.76c0.133,0.162,0.109,0.402-0.053,0.535c-0.035,0.029-0.074,0.051-0.117,0.065
		l-0.59,0.36c-0.677,0.576-1.694,0.494-2.269-0.184c-0.108-0.128-0.196-0.271-0.261-0.426l-0.14-0.24c0.28,1.45-0.4,2.7-2,3.66
		l-3,1.82C321.24,403.22,320,403,318.77,401z M326.84,394.68l-0.57-0.94l-5.74,3.45c-0.78,0.47-1.06,0.92-0.59,1.7l0.76,1.28
		c0.45,0.74,1,0.76,1.79,0.27l3.16-1.91c1.88-1.14,2.15-2.26,1.19-3.87V394.68z"/>
	<path fill="#FFFFFF" d="M332.28,383.23l4.24,5.94c0.92,1.29,1.29,1.32,2.39,0.54l1.42-1c0.26-0.18,0.46-0.15,0.62,0.09l0.52,0.72
		c0.17,0.23,0.13,0.43-0.12,0.62l-1.8,1.28c-1.89,1.35-3.16,1.14-4.44-0.66l-4.5-6.31l-1.35,1c-0.152,0.153-0.399,0.154-0.552,0.002
		c-0.027-0.027-0.05-0.058-0.068-0.092l-0.52-0.72c-0.143-0.161-0.129-0.407,0.032-0.551c0.027-0.024,0.056-0.044,0.088-0.059
		l1.35-1l-1.59-2.29c-0.145-0.152-0.14-0.392,0.012-0.537c0.026-0.025,0.056-0.046,0.088-0.063l1-0.69
		c0.161-0.151,0.414-0.144,0.565,0.017c0.021,0.022,0.039,0.047,0.055,0.073l1.62,2.27l2.75-2c0.26-0.18,0.46-0.15,0.62,0.09
		l0.52,0.72c0.147,0.157,0.139,0.404-0.018,0.551c-0.03,0.028-0.064,0.051-0.102,0.069L332.28,383.23z"/>
	<path fill="#FFFFFF" d="M348.55,384.51c-1.88,1.57-3.44,1.46-4.95-0.34l-3.69-4.42c-1.51-1.8-1.34-3.36,0.54-4.93l4.18-3.49
		c1.73-1.45,3.21-1.37,4.61,0.31l2.22,2.65c0.154,0.159,0.149,0.412-0.009,0.566c-0.021,0.021-0.045,0.039-0.07,0.054l-7.55,6.32
		l1.22,1.45c1,1.2,1.49,1.22,2.94,0l3.52-2.94c0.76-0.63,0.94-1.16,0.39-1.83l-0.2-0.24c-0.158-0.138-0.173-0.379-0.035-0.536
		c0.03-0.034,0.065-0.062,0.105-0.084l0.83-0.69c0.136-0.174,0.388-0.205,0.562-0.068c0.026,0.02,0.049,0.043,0.068,0.068l0,0
		c1.43,1.72,1.27,3.07-0.51,4.56L348.55,384.51z M342.75,379.94l6.38-5.33l-1.54-1.84c-0.62-0.74-1.19-0.64-2,0l-3.48,2.91
		c-1.46,1.22-1.52,1.7-0.52,2.9L342.75,379.94z"/>
	<path fill="#FFFFFF" d="M357.14,372.53l-4.08-4.06c-1.67-1.66-1.66-3.2,0.09-5l2.4-2.42c1.29-1.29,2.63-1.65,3.92-1.11l-1.11-1.1
		c-0.174-0.127-0.212-0.371-0.085-0.545c0.024-0.033,0.052-0.061,0.085-0.085l0.64-0.65c0.145-0.174,0.403-0.198,0.577-0.053
		c0.019,0.016,0.037,0.033,0.053,0.053l9.51,9.46c1.7,1.7,1.67,3.53-0.11,5.31l-3.5,3.53c-1.62,1.63-2.91,1.74-4.5,0.16l-0.1-0.1
		c-0.168-0.134-0.196-0.38-0.062-0.548c0.018-0.023,0.039-0.044,0.062-0.062l0.78-0.78c0.127-0.174,0.371-0.212,0.545-0.085
		c0.033,0.024,0.061,0.052,0.085,0.085l0.25,0.25c0.61,0.61,1.14,0.49,1.83-0.21l2.91-2.92c1.41-1.42,1.39-2.08,0.2-3.26l-1.91-1.9
		c0.337,1.325-0.137,2.723-1.21,3.57l-2.33,2.35C360.35,374.17,358.81,374.19,357.14,372.53z M354.67,367.16l3.77,3.76
		c1.11,1.1,1.6,1.08,2.94-0.27l2.1-2.11c1.54-1.54,1.52-2.68,0.19-4L361,361.9c-1.33-1.32-2.47-1.33-4,0.21l-2.1,2.11
		C353.58,365.57,353.56,366.06,354.67,367.16z"/>
	<path fill="#FFFFFF" d="M359.4,350.08c-0.171-0.121-0.212-0.359-0.09-0.53c0.025-0.035,0.055-0.065,0.09-0.09l0.76-0.87
		c0.103-0.183,0.335-0.247,0.518-0.144c0.039,0.022,0.073,0.05,0.102,0.084l1.36,1.18c0.174,0.127,0.212,0.371,0.085,0.545
		c-0.024,0.033-0.052,0.061-0.085,0.085l-0.76,0.87c-0.118,0.187-0.365,0.243-0.552,0.125c-0.029-0.018-0.055-0.04-0.078-0.065
		L359.4,350.08z M363.27,353.46c-0.174-0.127-0.212-0.371-0.085-0.545c0.024-0.033,0.052-0.061,0.085-0.085L364,352
		c0.112-0.184,0.353-0.241,0.536-0.129c0.031,0.019,0.059,0.042,0.084,0.069l8.87,7.73c0.171,0.121,0.212,0.359,0.09,0.53
		c-0.025,0.035-0.055,0.065-0.09,0.09l-0.76,0.87c-0.103,0.183-0.335,0.247-0.518,0.144c-0.039-0.022-0.073-0.05-0.102-0.084
		L363.27,353.46z"/>
	<path fill="#FFFFFF" d="M381.11,345c-0.187-0.118-0.243-0.365-0.125-0.552c0.018-0.029,0.04-0.055,0.065-0.078l0.65-0.86
		c0.107-0.193,0.351-0.262,0.544-0.155c0.027,0.015,0.053,0.034,0.076,0.055l0.39,0.3c1.77,1.35,1.91,2.7,0.5,4.55l-3.33,4.35
		c-1.48,1.94-3,2.18-4.9,0.75l-4.57-3.5c-1.87-1.43-2-3-0.55-4.93l3.32-4.34c1.42-1.85,2.76-2.06,4.53-0.71l0.38,0.3
		c0.187,0.118,0.242,0.365,0.124,0.552c-0.016,0.025-0.034,0.047-0.054,0.068l-0.66,0.86c-0.107,0.193-0.351,0.262-0.544,0.155
		c-0.027-0.015-0.053-0.034-0.076-0.055l-0.59-0.46c-0.68-0.52-1.2-0.31-1.8,0.47l-2.79,3.64c-1.15,1.5-1.1,2,0.14,2.94l4.23,3.24
		c1.24,0.95,1.72,0.87,2.87-0.64l2.79-3.64c0.6-0.78,0.66-1.34,0-1.86L381.11,345z"/>
	<path fill="#FFFFFF" d="M396.56,319.86l-5.24,9.31l2.2,3.11c0.194,0.239,0.194,0.581,0,0.82l-0.65,1.15
		c-0.14,0.25-0.37,0.23-0.53,0l-10.05-14.55c-0.193-0.236-0.193-0.574,0-0.81l0.83-1.47c0.115-0.287,0.417-0.451,0.72-0.39l17.65,1
		c0.3,0,0.42,0.21,0.3,0.44l-0.7,1.24c-0.111,0.29-0.417,0.455-0.72,0.39L396.56,319.86z M390.15,327.49l4.36-7.76l-10.27-0.68
		L390.15,327.49z"/>
	<path fill="#FFFFFF" d="M396.89,309c0.79,0.35,1.24,0.05,1.63-0.83l2.18-4.91c1-2.17,2.08-2.73,4.27-1.76l0.77,0.34
		c2.19,1,2.53,2.18,1.56,4.35l-2.3,5.29c-0.95,2.13-2.2,2.65-4.24,1.74l-0.15-0.07c-0.206-0.063-0.322-0.281-0.259-0.487
		c0.011-0.037,0.028-0.071,0.049-0.103l0.43-1c0.13-0.28,0.32-0.36,0.58-0.24l0.4,0.18c0.79,0.35,1.25,0,1.64-0.88l2.23-5
		c0.39-0.88,0.32-1.41-0.48-1.76l-1.35-0.61c-0.79-0.35-1.24-0.05-1.63,0.83L400,309c-1,2.15-2.07,2.71-4.26,1.73l-0.64-0.28
		c-2.19-1-2.53-2.17-1.58-4.32l2.14-4.81c0.93-2.11,2.19-2.62,4.23-1.72l0.15,0.07c0.206,0.063,0.322,0.281,0.259,0.487
		c-0.011,0.037-0.028,0.071-0.049,0.103l-0.44,1c-0.06,0.213-0.281,0.336-0.494,0.276c-0.03-0.009-0.059-0.02-0.086-0.036
		l-0.39-0.18c-0.79-0.35-1.25,0-1.64,0.85l-2,4.52c-0.39,0.88-0.31,1.42,0.48,1.77L396.89,309z"/>
	<path fill="#FFFFFF" d="M403.35,293.58c0.81,0.28,1.23-0.05,1.55-1l1.77-5.07c0.78-2.25,1.84-2.89,4.11-2.1l0.79,0.27
		c2.26,0.79,2.7,2,1.92,4.2l-1.91,5.46c-0.76,2.2-2,2.82-4.08,2.09l-0.15-0.06c-0.211-0.045-0.345-0.252-0.3-0.463
		c0.008-0.038,0.021-0.074,0.04-0.107l0.35-1c0.032-0.213,0.231-0.359,0.444-0.327c0.04,0.006,0.079,0.019,0.116,0.037l0.41,0.14
		c0.82,0.29,1.24-0.07,1.57-1l1.8-5.19c0.32-0.91,0.2-1.43-0.62-1.72l-1.4-0.48c-0.82-0.29-1.24,0.05-1.56,1l-1.77,5.1
		c-0.77,2.22-1.84,2.87-4.1,2.08l-0.66-0.23c-2.27-0.79-2.7-1.95-1.93-4.18l1.73-5c0.76-2.17,2-2.79,4.07-2.06h0.16
		c0.28,0.1,0.36,0.28,0.26,0.58l-0.35,1c-0.048,0.221-0.267,0.361-0.488,0.313c-0.025-0.005-0.049-0.013-0.072-0.023l-0.41-0.15
		c-0.82-0.28-1.24,0.08-1.56,1l-1.63,4.67c-0.31,0.91-0.19,1.43,0.63,1.72L403.35,293.58z"/>
	<path fill="#FFFFFF" d="M417.05,278.06c-0.61,2.38-1.94,3.2-4.22,2.62l-5.58-1.43c-2.27-0.58-3-1.95-2.43-4.32l1.35-5.28
		c0.56-2.18,1.8-3,3.92-2.44l3.34,0.86c0.219,0.033,0.369,0.236,0.337,0.455c-0.005,0.033-0.014,0.065-0.027,0.095l-2.44,9.53
		l1.84,0.47c1.51,0.39,1.92,0.13,2.39-1.71l1.14-4.44c0.24-1,0.08-1.49-0.75-1.71l-0.31-0.08c-0.208-0.024-0.358-0.213-0.334-0.421
		c0.005-0.041,0.016-0.081,0.034-0.119l0.27-1.05c0.021-0.22,0.216-0.381,0.436-0.361c0.032,0.003,0.064,0.01,0.094,0.021l0,0
		c2.17,0.55,2.83,1.74,2.25,4L417.05,278.06z M409.67,277.74l2.06-8.05l-2.32-0.59c-0.93-0.24-1.34,0.17-1.59,1.15l-1.12,4.4
		c-0.47,1.83-0.24,2.27,1.28,2.65L409.67,277.74z"/>
	<path fill="#FFFFFF" d="M410.2,259l7.18,1.31c1.56,0.28,1.84,0,2.08-1.28l0.32-1.72c0.05-0.31,0.22-0.43,0.5-0.37l0.88,0.15
		c0.215,0.013,0.379,0.198,0.366,0.413c-0.002,0.04-0.011,0.08-0.026,0.117l-0.39,2.17c-0.42,2.29-1.48,3-3.65,2.63l-7.63-1.42
		l-0.3,1.63c-0.009,0.221-0.196,0.392-0.417,0.382c-0.028-0.001-0.056-0.005-0.083-0.012l-0.88-0.16
		c-0.22-0.021-0.381-0.216-0.361-0.436c0.003-0.032,0.01-0.064,0.021-0.094l0.3-1.62l-2.74-0.5c-0.215-0.012-0.38-0.195-0.369-0.41
		c0.002-0.034,0.008-0.067,0.019-0.1l0.21-1.15c0.06-0.29,0.23-0.43,0.51-0.37l2.74,0.5l0.6-3.33c0.06-0.31,0.23-0.43,0.51-0.37
		l0.88,0.16c0.28,0.05,0.39,0.21,0.34,0.52L410.2,259z"/>
	<path fill="#FFFFFF" d="M45.3,163l4.6-12.33c0.091-0.398,0.488-0.647,0.887-0.556c0.039,0.009,0.077,0.021,0.113,0.036l3.84,1.44
		c0.382,0.128,0.588,0.542,0.46,0.924c-0.009,0.026-0.019,0.051-0.03,0.076L50.57,165l7.84,2.93
		c0.386,0.116,0.605,0.523,0.489,0.909c-0.015,0.049-0.034,0.096-0.059,0.141l-1.9,5.08c-0.083,0.383-0.461,0.626-0.844,0.543
		c-0.054-0.012-0.106-0.03-0.156-0.053l-21.51-8c-0.377-0.108-0.595-0.501-0.488-0.878c0.012-0.042,0.028-0.083,0.048-0.122
		l7.76-20.79c0.083-0.383,0.461-0.626,0.844-0.543c0.054,0.012,0.106,0.03,0.156,0.053l3.84,1.44
		c0.377,0.108,0.595,0.501,0.488,0.878c-0.012,0.042-0.028,0.083-0.048,0.122l-5.57,14.92L45.3,163z"/>
	<path fill="#FFFFFF" d="M68.92,145.23c-1.74,3.19-3.82,3.85-6.89,2.17l-7.37-4c-3.07-1.67-3.64-3.78-1.89-7l4.64-8.51
		c1.67-3,3.6-3.66,6.52-2.07l4.61,2.52c0.329,0.13,0.49,0.502,0.359,0.831c-0.024,0.061-0.058,0.118-0.099,0.169l-6.11,11.18
		l0.77,0.42c1.35,0.74,1.73,0.63,2.62-1l2.11-3.87c0.229-0.255,0.207-0.647-0.048-0.876c-0.062-0.055-0.134-0.098-0.212-0.124
		L67.81,135c-0.326-0.121-0.493-0.483-0.372-0.81c0.026-0.07,0.064-0.134,0.112-0.19l2.26-4.14c0.109-0.336,0.469-0.521,0.806-0.412
		c0.07,0.023,0.136,0.057,0.194,0.102l1,0.55c2.92,1.59,3.44,3.56,1.78,6.6L68.92,145.23z M60.11,139.09l3.44-6.29l-1.57-0.86
		c-0.391-0.26-0.919-0.153-1.178,0.238c-0.038,0.057-0.069,0.118-0.092,0.182l-1.94,3.57c-0.89,1.62-0.78,2,0.57,2.74L60.11,139.09z
		"/>
	<path fill="#FFFFFF" d="M84.44,114.71c1.43,1.77,1.4,3.75-0.29,6l-2.36,3.17c-2.18,2.92-4.32,3.29-7.13,1.2l-6.74-5
		c-2.81-2.09-3.07-4.25-0.9-7.17l2.17-2.92c1.4-1.88,2.95-2.61,4.61-2.33l-7.3-5.43c-0.304-0.201-0.388-0.61-0.187-0.914
		c0.02-0.03,0.043-0.059,0.067-0.086l2.92-3.93c0.166-0.312,0.553-0.431,0.865-0.266c0.049,0.026,0.094,0.058,0.135,0.096L90,111.75
		c0.303,0.192,0.393,0.594,0.201,0.897c-0.023,0.037-0.051,0.071-0.081,0.103l-2.51,3.37c-0.183,0.315-0.587,0.422-0.902,0.239
		c-0.035-0.02-0.067-0.043-0.098-0.069L84.44,114.71z M73.27,116.13l3.65,2.71c1.23,0.92,1.62,0.86,2.73-0.63l1.46-2
		c1.07-1.43,0.89-2.48-0.32-3.38l-2.92-2.17c-1.2-0.9-2.26-0.77-3.33,0.66l-1.46,2C72,114.82,72,115.21,73.27,116.13z"/>
	<path fill="#FFFFFF" d="M97.79,104.23c-2.56,2.59-4.73,2.65-7.23,0.2l-6-5.9c-2.49-2.46-2.45-4.64,0.1-7.23l6.81-6.9
		c2.44-2.47,4.47-2.53,6.83-0.2l3.74,3.69c0.276,0.212,0.328,0.607,0.117,0.883c-0.034,0.044-0.073,0.083-0.117,0.117L93.09,98
		l0.63,0.62c1.09,1.08,1.49,1.08,2.79-0.24l3.1-3.14c0.276-0.212,0.328-0.607,0.117-0.883c-0.034-0.044-0.073-0.083-0.117-0.117
		l-0.1-0.1c-0.276-0.212-0.328-0.607-0.117-0.883c0.034-0.044,0.073-0.083,0.117-0.117l3.31-3.36c0.221-0.276,0.623-0.321,0.9-0.1
		c0.037,0.03,0.071,0.063,0.1,0.1l0.82,0.82c2.37,2.33,2.33,4.36-0.1,6.83L97.79,104.23z M91,95.91l5-5.11l-1.27-1.25
		c-0.305-0.357-0.841-0.4-1.198-0.095c-0.053,0.046-0.101,0.098-0.142,0.155l-2.85,2.89c-1.3,1.32-1.3,1.71-0.2,2.79L91,95.91z"/>
	<path fill="#FFFFFF" d="M112.22,73.35c-2.1,1.68-2.1,3.75-0.68,5.52l5.45,6.8c0.248,0.252,0.245,0.657-0.007,0.905
		c-0.037,0.037-0.078,0.068-0.123,0.095L113,89.74c-0.241,0.259-0.646,0.273-0.905,0.032c-0.036-0.034-0.068-0.071-0.095-0.112
		l-10.65-13.27c-0.245-0.263-0.23-0.674,0.032-0.919c0.033-0.031,0.069-0.058,0.108-0.081l3.28-2.63
		c0.252-0.256,0.664-0.259,0.919-0.007c0.03,0.03,0.057,0.062,0.081,0.097l1.9,2.38c-1.19-2.28-0.65-4.28,1.89-6.32l0.6-0.48
		c0.234-0.257,0.633-0.276,0.89-0.042c0.043,0.039,0.08,0.083,0.11,0.132l2.32,2.89c0.249,0.243,0.255,0.642,0.012,0.891
		c-0.042,0.043-0.09,0.08-0.142,0.109L112.22,73.35z"/>
	<path fill="#FFFFFF" d="M122.57,76.19l-0.72-1.16c-2-3.11-1.32-4.67,1.62-6.51l7.09-4.44l-0.47-0.74c-0.82-1.3-1.23-1.37-2.77-0.41
		l-3,1.86c-0.45,0.28-0.51,0.57-0.25,1l0.07,0.12c0.225,0.272,0.187,0.676-0.085,0.901c-0.05,0.041-0.105,0.074-0.165,0.099l-4,2.52
		c-0.274,0.232-0.684,0.199-0.916-0.074c-0.033-0.038-0.061-0.081-0.084-0.126l-0.61-1c-1.77-2.82-1.26-4.78,1.67-6.62l7.48-4.69
		c3.08-1.93,5.22-1.49,7.08,1.48l4.07,6.49c0.137,0.283,0.478,0.402,0.761,0.266c0.047-0.023,0.09-0.051,0.129-0.086l0.18-0.11
		c0.266-0.232,0.671-0.205,0.903,0.061c0.039,0.045,0.072,0.095,0.097,0.149l2,3.14c0.225,0.272,0.187,0.676-0.085,0.901
		c-0.05,0.041-0.105,0.074-0.165,0.099L139.64,71c-2,1.25-3.51,1-4.6-0.54c0.46,2-0.36,3.65-2.61,5.06l-3.29,2.06
		C126.2,79.41,124.34,79,122.57,76.19z M132.34,66.93l-0.22-0.36l-4.87,3.05c-0.474,0.184-0.709,0.716-0.525,1.19
		c0.035,0.09,0.084,0.175,0.145,0.25l0.36,0.56c0.207,0.458,0.746,0.661,1.204,0.454c0.09-0.041,0.173-0.096,0.246-0.164l2.7-1.7
		C132.93,69.25,133.14,68.21,132.34,66.93L132.34,66.93z"/>
	<path fill="#FFFFFF" d="M152.1,58.92c0.289-0.213,0.696-0.152,0.909,0.137c0.039,0.053,0.07,0.111,0.091,0.173l1.62,3.33
		c0.207,0.293,0.138,0.699-0.155,0.906c-0.059,0.042-0.125,0.074-0.195,0.094l-2.87,1.39c-3.11,1.52-4.95,0.93-6.41-2.06l-9-18.46
		c-0.201-0.31-0.113-0.725,0.198-0.927c0.047-0.031,0.099-0.055,0.152-0.073l4.41-2.14c0.289-0.213,0.696-0.152,0.909,0.137
		c0.039,0.053,0.07,0.111,0.091,0.173l8.4,17.4c0.129,0.364,0.53,0.555,0.894,0.425c0.059-0.021,0.115-0.05,0.166-0.085L152.1,58.92
		z"/>
	<path fill="#FFFFFF" d="M182.27,28.15c4.71-1.24,8.17,0.63,9.37,5.17l2.48,9.41c1.19,4.53-0.89,7.87-5.6,9.11l-16.78,4.43
		c-0.364,0.16-0.789-0.005-0.949-0.369c-0.024-0.055-0.041-0.112-0.051-0.171l-5.86-22.2c-0.161-0.357-0.003-0.778,0.355-0.939
		c0.074-0.034,0.154-0.054,0.235-0.061L182.27,28.15z M176.36,49.22l8.25-2.18c2.27-0.6,2.94-1.5,2.43-3.42L185,36
		c-0.5-1.89-1.53-2.38-3.8-1.78l-8.2,2.21L176.36,49.22z"/>
	<path fill="#FFFFFF" d="M200.1,44.65l-0.14-1.36c-0.37-3.66,0.89-4.77,4.34-5.12l8.32-0.84l-0.09-0.87
		c-0.15-1.53-0.5-1.78-2.31-1.6l-3.48,0.36c-0.52,0-0.71,0.28-0.66,0.77v0.14c0.066,0.353-0.166,0.693-0.518,0.759
		c-0.047,0.009-0.094,0.012-0.142,0.011l-4.74,0.48c-0.356,0.077-0.708-0.149-0.785-0.505c-0.009-0.041-0.014-0.083-0.015-0.125
		l-0.12-1.15c-0.33-3.3,1-4.84,4.44-5.19l8.77-0.89c3.62-0.37,5.34,1,5.69,4.45l0.77,7.63c0.007,0.326,0.277,0.584,0.603,0.577
		c0.043-0.001,0.085-0.007,0.127-0.017h0.21c0.342-0.088,0.691,0.117,0.78,0.46c0.014,0.052,0.02,0.106,0.02,0.16l0.37,3.69
		c0.05,0.45-0.17,0.72-0.66,0.77l-3.2,0.32c-2.33,0.24-3.59-0.65-3.88-2.52c-0.47,2-1.94,3.11-4.58,3.38l-3.87,0.39
		C201.93,49.14,200.43,48,200.1,44.65z M212.96,40.65v-0.42l-5.71,0.58c-0.74,0.08-1,0.43-1,1.12l0.07,0.66
		c0.07,0.7,0.45,1,1.18,0.9l3.17-0.32c1.79-0.17,2.44-1,2.33-2.5L212.96,40.65z"/>
	<path fill="#FFFFFF" d="M233.3,34.06l-0.12,7.17c0,0.7,0.34,1,1.07,1h2.76c0.356-0.046,0.682,0.205,0.728,0.561
		c0.006,0.049,0.007,0.099,0.002,0.149l-0.06,3.71c0,0.45-0.26,0.69-0.75,0.69l-5-0.08c-3.64-0.06-5.22-1.59-5.16-5.09l0.13-8.29
		h-1.33c-0.357,0.04-0.679-0.216-0.719-0.573c-0.005-0.046-0.005-0.092-0.001-0.137l0.06-3.71c-0.027-0.352,0.238-0.66,0.59-0.686
		c0.05-0.004,0.1-0.002,0.15,0.006h1.33l0.07-4c-0.026-0.358,0.244-0.669,0.602-0.695c0.046-0.003,0.092-0.002,0.138,0.005l4.9,0.08
		c0.49,0,0.73,0.26,0.72,0.71l-0.06,4l3.85,0.06c0.49,0,0.73,0.26,0.72,0.71l-0.06,3.71c0.039,0.346-0.21,0.658-0.556,0.696
		c-0.061,0.007-0.124,0.005-0.184-0.006L233.3,34.06z"/>
	<path fill="#FFFFFF" d="M242.46,42.84l0.18-1.35c0.46-3.65,1.94-4.45,5.37-4l8.3,1.06l0.11-0.87c0.19-1.53-0.08-1.85-1.89-2.08
		l-3.47-0.44c-0.52-0.06-0.75,0.12-0.82,0.6v0.14c-0.008,0.353-0.301,0.634-0.654,0.626c-0.056-0.001-0.112-0.01-0.166-0.026
		l-4.72-0.6c-0.359,0.002-0.651-0.288-0.653-0.647c0-0.045,0.004-0.089,0.013-0.133l0.14-1.15c0.42-3.29,2.06-4.5,5.49-4.06
		l8.75,1.11c3.61,0.46,5,2.15,4.54,5.62l-1,7.6c-0.072,0.312,0.123,0.623,0.435,0.695c0.048,0.011,0.096,0.016,0.145,0.015h0.2
		c0.353-0.014,0.651,0.261,0.665,0.614c0.002,0.056-0.003,0.112-0.015,0.166l-0.47,3.68c-0.002,0.353-0.291,0.638-0.644,0.636
		c-0.06,0-0.119-0.009-0.176-0.026l-3.19-0.41c-2.33-0.3-3.35-1.45-3.21-3.34c-0.9,1.83-2.59,2.6-5.23,2.27l-3.85-0.49
		C243.23,47.63,242.05,46.14,242.46,42.84z M255.89,41.84l0.05-0.42l-5.69-0.72c-0.73-0.09-1.12,0.17-1.21,0.87l-0.08,0.66
		c-0.09,0.69,0.22,1,1,1.14l3.16,0.4c1.75,0.23,2.58-0.41,2.77-1.9L255.89,41.84z"/>
	<path fill="#FFFFFF" d="M287,48.56c0.387,0.091,0.627,0.479,0.536,0.866c-0.011,0.046-0.026,0.091-0.046,0.134l-0.07,0.19
		c-0.24,0.497-0.031,1.095,0.466,1.335c0.068,0.033,0.14,0.058,0.214,0.075l8.94,3.26c1.09,0.4,1.54,0.19,1.84-0.63l0.54-1.48
		c0.3-0.82,0.09-1.27-1-1.67l-10.65-3.89c-3.88-1.42-4.91-3.58-3.57-7.27l1.25-3.42c1.34-3.68,3.53-4.67,7.41-3.25l12.89,4.71
		c4,1.46,4.89,3.23,3.48,7.12l-0.5,1.34c-0.103,0.378-0.493,0.602-0.871,0.499c-0.044-0.012-0.087-0.028-0.129-0.049l-4.93-1.8
		c-0.383-0.083-0.626-0.461-0.543-0.844c0.012-0.054,0.03-0.106,0.053-0.156l0.07-0.2c0.25-0.69,0.08-1.13-0.71-1.41l-8.16-3
		c-1.08-0.4-1.53-0.19-1.83,0.63L291.2,41c-0.3,0.82-0.09,1.27,1,1.66l10.65,3.89c3.88,1.42,4.91,3.59,3.57,7.27l-1.32,3.62
		c-1.35,3.68-3.53,4.67-7.41,3.25l-13.65-5c-4.05-1.48-4.89-3.24-3.48-7.12l0.5-1.35c0.103-0.378,0.493-0.602,0.871-0.499
		c0.044,0.012,0.087,0.028,0.129,0.049L287,48.56z"/>
	<path fill="#FFFFFF" d="M320,56.61L316.63,63c-0.32,0.62-0.15,1.06,0.5,1.41l2.45,1.28c0.338,0.104,0.527,0.462,0.423,0.8
		c-0.022,0.072-0.057,0.14-0.103,0.2l-1.71,3.28c-0.122,0.332-0.489,0.502-0.821,0.381c-0.065-0.024-0.125-0.058-0.179-0.101
		l-4.4-2.3c-3.23-1.68-4-3.76-2.34-6.86l3.84-7.36l-1.18-0.61c-0.345-0.118-0.529-0.493-0.412-0.838
		c0.02-0.058,0.047-0.112,0.082-0.162l1.72-3.29c0.139-0.337,0.525-0.497,0.862-0.358c0.049,0.02,0.095,0.046,0.138,0.078l1.18,0.61
		l1.84-3.53c0.139-0.337,0.525-0.497,0.862-0.358c0.049,0.02,0.095,0.046,0.138,0.078l4.34,2.27c0.336,0.09,0.535,0.436,0.445,0.772
		c-0.022,0.083-0.061,0.161-0.115,0.228l-1.85,3.53l3.42,1.79c0.338,0.104,0.527,0.462,0.423,0.8c-0.022,0.072-0.057,0.14-0.103,0.2
		l-1.72,3.29c-0.122,0.332-0.489,0.502-0.821,0.381c-0.065-0.024-0.125-0.058-0.179-0.101L320,56.61z"/>
	<path fill="#FFFFFF" d="M338.21,67.61c-2.26-1.47-4.23-0.82-5.46,1.09L328,76c-0.158,0.316-0.543,0.444-0.859,0.286
		c-0.051-0.026-0.099-0.058-0.141-0.096l-4.12-2.66c-0.327-0.147-0.473-0.532-0.326-0.859c0.023-0.05,0.052-0.098,0.086-0.141
		l9.24-14.28c0.158-0.316,0.543-0.444,0.859-0.286c0.051,0.026,0.099,0.058,0.141,0.096l3.53,2.28
		c0.327,0.147,0.473,0.532,0.326,0.859c-0.023,0.05-0.052,0.098-0.086,0.141L335,63.91c1.78-1.85,3.86-2,6.59-0.2l0.65,0.42
		c0.327,0.147,0.473,0.532,0.326,0.859c-0.023,0.05-0.052,0.098-0.086,0.141l-2,3.12c-0.162,0.314-0.548,0.438-0.862,0.276
		c-0.05-0.026-0.096-0.058-0.138-0.096L338.21,67.61z"/>
	<path fill="#FFFFFF" d="M338.74,78.31l0.87-1.05c2.34-2.83,4-2.72,6.69-0.51l6.44,5.33l0.56-0.68c1-1.18,0.92-1.6-0.49-2.76
		l-2.69-2.23c-0.23-0.261-0.628-0.287-0.889-0.058c-0.043,0.037-0.08,0.08-0.111,0.128l-0.08,0.11
		c-0.209,0.292-0.615,0.36-0.907,0.151c-0.034-0.024-0.065-0.051-0.093-0.081l-3.67-3c-0.304-0.201-0.388-0.61-0.187-0.914
		c0.02-0.03,0.043-0.059,0.067-0.086l0.74-0.89c2.12-2.56,4.14-2.7,6.81-0.5l6.8,5.62c2.81,2.32,3.06,4.48,0.83,7.18l-4.88,5.91
		c-0.228,0.225-0.23,0.592-0.004,0.82c0.034,0.035,0.073,0.065,0.114,0.09l0.16,0.13c0.302,0.183,0.398,0.577,0.215,0.879
		c-0.027,0.044-0.059,0.084-0.095,0.121l-2.36,2.86c-0.2,0.291-0.598,0.366-0.89,0.166c-0.04-0.028-0.077-0.06-0.11-0.096l-2.48-2
		c-1.81-1.49-2.05-3-0.93-4.54c-1.74,1.07-3.58,0.82-5.63-0.88l-3-2.47C336.83,82.77,336.62,80.88,338.74,78.31z M350.6,84.67
		l0.27-0.33l-4.42-3.65c-0.321-0.394-0.901-0.452-1.294-0.131c-0.077,0.063-0.143,0.137-0.195,0.221l-0.42,0.51
		c-0.371,0.347-0.39,0.93-0.043,1.3c0.067,0.072,0.146,0.133,0.233,0.18l2.46,2C348.59,86,349.65,85.83,350.6,84.67L350.6,84.67z"/>
	<path fill="#FFFFFF" d="M369.58,94.46l-5.17,5c-0.411,0.298-0.503,0.873-0.205,1.285c0.057,0.079,0.126,0.148,0.205,0.205l1.91,2
		c0.276,0.221,0.321,0.623,0.1,0.9c-0.03,0.037-0.063,0.071-0.1,0.1l-2.68,2.57c-0.221,0.276-0.623,0.321-0.9,0.1
		c-0.037-0.03-0.071-0.063-0.1-0.1l-3.44-3.59c-2.53-2.62-2.56-4.82,0-7.25l6-5.75l-0.92-1c-0.276-0.229-0.314-0.639-0.085-0.915
		c0.026-0.031,0.054-0.059,0.085-0.085l2.68-2.57c0.229-0.276,0.639-0.314,0.915-0.085c0.031,0.026,0.059,0.054,0.085,0.085l0.92,1
		l2.88-2.77c0.242-0.265,0.654-0.283,0.918-0.04c0.03,0.027,0.057,0.058,0.082,0.09l3.4,3.53c0.276,0.212,0.328,0.607,0.117,0.883
		c-0.034,0.044-0.073,0.083-0.117,0.117l-2.87,2.77l2.67,2.77c0.276,0.221,0.321,0.623,0.1,0.9c-0.03,0.037-0.063,0.071-0.1,0.1
		l-2.67,2.57c-0.221,0.276-0.623,0.321-0.9,0.1c-0.037-0.03-0.071-0.063-0.1-0.1L369.58,94.46z"/>
	<path fill="#FFFFFF" d="M369.48,114.47c-2.21-2.89-2-5.05,0.82-7.18l6.7-5.09c2.78-2.12,4.93-1.78,7.14,1.11L390,111
		c2.1,2.76,1.88,4.77-0.77,6.79l-4.17,3.21c-0.249,0.243-0.647,0.239-0.891-0.009c-0.044-0.045-0.08-0.095-0.109-0.151l-7.73-10.13
		l-0.69,0.53c-1.23,0.94-1.28,1.33-0.16,2.8l2.68,3.51c0.151,0.307,0.522,0.434,0.83,0.283c0.063-0.031,0.121-0.073,0.17-0.123
		l0.11-0.08c0.249-0.243,0.647-0.239,0.891,0.009c0.044,0.045,0.08,0.095,0.109,0.151l2.87,3.75
		c0.252,0.248,0.256,0.653,0.008,0.905c-0.036,0.036-0.075,0.068-0.118,0.095l-0.92,0.7c-2.64,2-4.65,1.7-6.75-1.06L369.48,114.47z
		 M378.67,108.92l4.35,5.71l1.42-1.09c0.396-0.253,0.511-0.779,0.258-1.174c-0.036-0.057-0.079-0.109-0.128-0.156l-2.46-3.21
		c-1.13-1.47-1.52-1.52-2.75-0.59L378.67,108.92z"/>
	<path fill="#FFFFFF" d="M385.53,127.91l7.32-4.12c3-1.71,5.14-1.08,6.92,2.09l1.94,3.45c1.39,2.47,1.17,4.44-0.51,6l2.35-1.33
		c0.296-0.212,0.709-0.144,0.921,0.153c0.033,0.045,0.059,0.095,0.079,0.147l2.06,3.66c0.225,0.272,0.187,0.676-0.085,0.901
		c-0.05,0.041-0.105,0.074-0.165,0.099l-16.71,9.4c-3.27,1.83-5.94,1-7.84-2.38l-4.24-7.54c-1.68-3-1.18-5,1.72-6.58l0.36-0.21
		c0.279-0.217,0.681-0.168,0.898,0.111c0.044,0.057,0.079,0.121,0.102,0.189l2.32,4.12c0.225,0.272,0.187,0.676-0.085,0.901
		c-0.05,0.041-0.105,0.074-0.165,0.099c-0.34,0.19-0.4,0.43-0.2,0.79l2.09,3.73c0.81,1.43,1.36,1.56,2.58,0.87l2.63-1.47
		c-1.69,0.06-3.1-0.87-4.25-2.91l-1.78-3.18C381.94,131.73,382.48,129.62,385.53,127.91z M394.3,130.29l-4,2.22
		c-1.34,0.76-1.45,1.14-0.54,2.76l1.2,2.13c0.88,1.56,1.91,1.82,3.22,1.08l3.17-1.78c1.32-0.74,1.63-1.75,0.75-3.31l-1.2-2.14
		C396,129.64,395.64,129.53,394.3,130.29L394.3,130.29z"/>
	<path fill="#FFFFFF" d="M401.91,160.71c0.65,1.66,1.63,2.07,3,1.52l9.62-3.75c0.305-0.167,0.688-0.055,0.855,0.251
		c0.031,0.056,0.053,0.117,0.065,0.179l1.78,4.56c0.174,0.314,0.06,0.71-0.254,0.884c-0.043,0.024-0.089,0.043-0.136,0.056l-17.86,7
		c-3.49,1.36-6,0.17-7.44-3.45l-2.93-7.54c-1.26-3.22-0.49-5.1,2.61-6.31l0.39-0.15c0.314-0.163,0.7-0.041,0.863,0.273
		c0.026,0.05,0.045,0.102,0.057,0.157l1.72,4.4c0.174,0.314,0.06,0.71-0.254,0.884c-0.043,0.024-0.089,0.043-0.136,0.056
		c-0.273,0.069-0.438,0.347-0.369,0.62c0.013,0.049,0.032,0.097,0.059,0.14l1.35,3.45c0.6,1.54,1.14,1.78,2.45,1.27l2.8-1.1
		c-1.68-0.17-2.94-1.29-3.8-3.47l-1.11-2.87c-1.33-3.39-0.51-5.44,2.75-6.71l11.84-4.62c0.33-0.155,0.723-0.014,0.878,0.315
		c0.017,0.037,0.031,0.075,0.042,0.115l1.78,4.57c0.177,0.306,0.073,0.697-0.232,0.875c-0.049,0.029-0.102,0.051-0.158,0.065
		l-10,3.91c-1.44,0.56-1.58,1-0.92,2.65L401.91,160.71z"/>
</g>
<g id="Layer_7">
	<path fill="#4B5559" d="M229,338.61c-2.26-3.609-3.903-7.57-4.86-11.72c-1.647,3.136-3.753,6.008-6.25,8.52
		c-1.435-4.069-2.152-8.356-2.12-12.67c-2.329,2.77-5.079,5.155-8.15,7.07c-0.441-4.012-0.197-8.07,0.72-12
		c-2.643,1.952-5.566,3.493-8.67,4.57c0.79-8.59,6.46-18.69,13.81-26.29v-2.79h7.16c6,0,6.76,7.35,8.36,11.84
		c1.6-4.49,2.4-11.84,8.36-11.84h7.16v2.81c7.35,7.6,13,17.71,13.81,26.29c-3.104-1.077-6.027-2.618-8.67-4.57
		c0.917,3.93,1.161,7.988,0.72,12c-3.071-1.915-5.821-4.3-8.15-7.07c0.033,4.314-0.684,8.601-2.12,12.67
		c-2.497-2.512-4.603-5.384-6.25-8.52C232.901,331.053,231.258,335.007,229,338.61z"/>
	<path fill="#4B5559" d="M196.38,271.46c-13.71,4.79-7.07,18.88-23.6,25.21c-8.38-6-12-4.84-21.74,3c-2.93,2.36-0.38,7,3,6.44
		c-2.46,5.94,3.19,9.44,7.73,6.72c0.91,2.543,3.709,3.867,6.252,2.957c0.721-0.258,1.371-0.682,1.898-1.237
		c0.822-0.86,1.455-1.882,1.86-3c4.57-11.26,4.51-12.16,17.6-12.16c10.85,0,15.9-0.82,20.71-6.09h-4.77
		c-4.92-0.033-8.902-4.01-8.94-8.93L196.38,271.46L196.38,271.46z"/>
	<path fill="#4B5559" d="M261.62,271.46c13.71,4.79,7.06,18.88,23.6,25.21c8.38-6,12-4.84,21.74,3c2.93,2.36,0.38,7-3,6.44
		c2.46,5.94-3.19,9.44-7.73,6.72c-0.91,2.543-3.709,3.867-6.252,2.957c-0.721-0.258-1.371-0.682-1.898-1.237
		c-0.822-0.86-1.455-1.882-1.86-3c-4.57-11.26-4.51-12.16-17.6-12.16c-10.85,0-15.9-0.82-20.71-6.09h4.77
		c4.924-0.033,8.907-4.016,8.94-8.94V271.46z"/>
	<path fill="#4B5559" d="M285.38,182.89c20.83-15.65,42.92-33,53.46-57c0.86-1.94,2.9-1.79,3.31,0.33c1.54,7.93-3.32,17.64-7.45,24
		c-3.923,6.184-8.555,11.889-13.8,17c11.2-8,21.25-17.26,28.5-28.73c1.13-1.79,3.13-1.34,3.22,0.82c0.35,8.07-5.9,17-10.93,22.63
		c-4.755,5.465-10.124,10.364-16,14.6c11.55-5.93,22.2-13.21,30.68-22.82c1.41-1.59,3.31-0.83,3.06,1.32
		c-0.94,8-8.52,15.8-14.39,20.6c-4.778,3.972-9.924,7.478-15.37,10.47c11.08-3.69,21.56-8.69,30.63-15.87
		c1.67-1.32,3.4-0.24,2.77,1.83c-2.34,7.73-11.18,14.05-17.8,17.74c-4.496,2.523-9.176,4.703-14,6.52
		c9.935-1.124,19.63-3.807,28.73-7.95c1.92-0.91,3.36,0.54,2.28,2.42c-4,7-14.09,11.13-21.37,13.21
		c-4.388,1.283-8.854,2.281-13.37,2.99c8.961,0.628,17.965-0.073,26.72-2.08c2-0.49,3.09,1.17,1.69,2.73
		c-5.19,5.85-15.53,7.81-22.84,8.36c-6.121,0.507-12.277,0.414-18.38-0.28c9.65,2.677,19.669,3.781,29.67,3.27
		c2.05-0.13,2.83,1.69,1.19,3c-6.13,4.85-16.65,5-23.95,4.25c-6.171-0.563-12.27-1.735-18.21-3.5
		c9.008,4.329,18.655,7.179,28.57,8.44c2,0.23,2.49,2.15,0.65,3.15c-6.88,3.71-17.26,2-24.32,0c-5.5-1.493-10.855-3.478-16-5.93
		c7.882,5.513,16.577,9.761,25.77,12.59c2,0.58,2.08,2.56,0.1,3.22c-7.42,2.46-17.35-1-24-4.19c-3.862-1.852-7.603-3.946-11.2-6.27
		c6.158,5.78,13.103,10.659,20.63,14.49c1.84,0.91,1.61,2.88-0.47,3.18c-7.73,1.13-16.91-4-22.87-8.29
		c-1.96-1.407-3.8-2.817-5.52-4.23c4.155,4.892,8.852,9.297,14,13.13c1.65,1.22,1.08,3.12-1,3.06c-7.81-0.23-16-6.88-21.08-12.14
		c-0.85-0.86-1.66-1.72-2.44-2.57c2.728,4.216,5.838,8.173,9.29,11.82c1.41,1.49,0.52,3.26-1.53,2.84
		c-3.916-0.939-7.49-2.955-10.32-5.82v-19.64c11.56-0.52,21.94-11,16.76-24.09c-4.7-11.92-2.43-15.53,7-22.61H285.38z"/>
	<path fill="#4B5559" d="M172.62,182.89c-20.83-15.65-42.92-33-53.46-57c-0.86-1.94-2.9-1.8-3.31,0.33
		c-1.55,7.93,3.32,17.64,7.45,24c3.917,6.188,8.549,11.894,13.8,17c-11.2-8-21.25-17.26-28.5-28.73c-1.13-1.79-3.13-1.34-3.22,0.82
		c-0.35,8.07,5.9,17,10.93,22.63c4.755,5.465,10.124,10.364,16,14.6c-11.55-5.93-22.2-13.21-30.68-22.82
		c-1.41-1.59-3.31-0.83-3.06,1.32c0.94,8,8.52,15.8,14.39,20.6c4.778,3.972,9.924,7.478,15.37,10.47
		c-11.08-3.69-21.56-8.69-30.63-15.87c-1.67-1.32-3.4-0.24-2.78,1.83c2.35,7.73,11.19,14.05,17.81,17.74
		c4.493,2.527,9.174,4.707,14,6.52c-9.935-1.123-19.631-3.806-28.73-7.95c-1.93-0.91-3.37,0.54-2.28,2.42
		c4,7,14.09,11.13,21.37,13.21c4.388,1.283,8.854,2.281,13.37,2.99c-8.961,0.628-17.965-0.073-26.72-2.08
		c-2-0.49-3.09,1.17-1.7,2.74c5.2,5.84,15.54,7.8,22.85,8.35c6.121,0.507,12.277,0.414,18.38-0.28
		c-9.65,2.677-19.669,3.781-29.67,3.27c-2.06-0.13-2.83,1.69-1.19,3c6.13,4.85,16.65,5,24,4.25c6.172-0.561,12.272-1.737,18.21-3.51
		c-9.022,4.342-18.687,7.196-28.62,8.45c-2,0.23-2.49,2.15-0.65,3.15c6.88,3.71,17.26,2,24.32,0c5.5-1.493,10.855-3.478,16-5.93
		c-7.882,5.513-16.577,9.761-25.77,12.59c-2,0.58-2.08,2.56-0.1,3.22c7.42,2.46,17.35-1,24-4.19c3.862-1.852,7.603-3.946,11.2-6.27
		c-6.159,5.778-13.105,10.656-20.63,14.49c-1.84,0.91-1.61,2.88,0.46,3.18c7.74,1.13,16.92-4,22.88-8.29
		c1.96-1.407,3.8-2.817,5.52-4.23c-4.155,4.892-8.852,9.297-14,13.13c-1.66,1.22-1.08,3.12,1,3.06c7.82-0.23,16-6.88,21.08-12.14
		c0.85-0.86,1.66-1.72,2.44-2.58c-2.725,4.221-5.835,8.182-9.29,11.83c-1.41,1.49-0.52,3.26,1.53,2.84
		c3.916-0.939,7.49-2.955,10.32-5.82v-19.64c-11.56-0.52-21.94-11-16.76-24.09c4.7-11.92,2.43-15.53-7-22.61H172.62z"/>
	<path fill="#4B5559" d="M248,217.18c-4.68-11.84,0.16-29.49-7.19-37.91c-6.19-7.08-21.2-6.05-26.28,1.74c-3.86,1.39-5.89,2-8.26,4
		c-4.6,3.74-0.36,9.71,1.75,12.32c-0.31-1.67-0.51-4.29,1.38-5.29c3.46-1.83,6.52-0.89,8.27,2.15c2.65,4.6-4.28,16.53-9,23
		L248,217.18z"/>
	<path fill="#14477B" d="M227.12,297.05c-1-2.91-2-4.68-6.48-4.68h-15.32c-4.418,0-8-3.582-8-8v-66.24h63.38v66.23
		c0,4.418-3.582,8-8,8h-15.34c-4.49,0-5.44,1.77-6.48,4.68l-1.88,5.3L227.12,297.05z"/>
	<path fill="#FFFFFF" d="M258.69,220.13v64.23c0,3.314-2.686,6-6,6h-15.33c-5.66,0-7.18,2.71-8.36,6c-1.18-3.3-2.7-6-8.36-6h-15.32
		c-3.314,0-6-2.686-6-6v-64.23h59.38 M262.7,216.13h-67.39v68.23c0,5.523,4.477,10,10,10h15.32c3.23,0,3.71,0.86,4.59,3.35
		l3.78,10.6l3.77-10.59c0.88-2.49,1.36-3.35,4.59-3.35h15.32c5.523,0,10-4.477,10-10v-68.24H262.7z"/>
	<rect x="202.75" y="271.75" fill="#FFFFFF" width="3.41" height="20.53"/>
	<rect x="209.74" y="266.67" fill="#FFFFFF" width="3.41" height="25.61"/>
	<rect x="216.74" y="261.6" fill="#FFFFFF" width="3.41" height="30.69"/>
	<polygon fill="#FFFFFF" points="227.13,295.05 223.73,292.28 223.73,266.67 227.13,266.67 	"/>
	<polygon fill="#FFFFFF" points="234.13,292.28 230.72,293.21 230.72,256.99 234.13,256.99 	"/>
	<rect x="237.71" y="249.14" fill="#FFFFFF" width="3.41" height="43.14"/>
	<rect x="244.7" y="241.3" fill="#FFFFFF" width="3.41" height="50.99"/>
	<rect x="251.69" y="227.91" fill="#FFFFFF" width="3.41" height="64.37"/>
	<rect x="210.28" y="231.39" fill="#FFFFFF" width="14.76" height="14.76"/>
	<rect x="207" y="228.11" fill="none" stroke="#FFFFFF" stroke-width="2" stroke-miterlimit="10" width="21.31" height="21.31"/>
	<line fill="none" stroke="#FFFFFF" stroke-width="2" stroke-miterlimit="10" x1="207" y1="234.97" x2="202.44" y2="234.97"/>
	<line fill="none" stroke="#FFFFFF" stroke-width="2" stroke-miterlimit="10" x1="207" y1="242.58" x2="202.44" y2="242.58"/>
	<line fill="none" stroke="#FFFFFF" stroke-width="2" stroke-miterlimit="10" x1="232.88" y1="234.97" x2="228.31" y2="234.97"/>
	<line fill="none" stroke="#FFFFFF" stroke-width="2" stroke-miterlimit="10" x1="232.88" y1="242.58" x2="228.31" y2="242.58"/>
	<line fill="none" stroke="#FFFFFF" stroke-width="2" stroke-miterlimit="10" x1="221.46" y1="228.11" x2="221.46" y2="223.55"/>
	<line fill="none" stroke="#FFFFFF" stroke-width="2" stroke-miterlimit="10" x1="213.85" y1="228.11" x2="213.85" y2="223.55"/>
	<line fill="none" stroke="#FFFFFF" stroke-width="2" stroke-miterlimit="10" x1="221.46" y1="253.99" x2="221.46" y2="249.43"/>
	<line fill="none" stroke="#FFFFFF" stroke-width="2" stroke-miterlimit="10" x1="213.85" y1="253.99" x2="213.85" y2="249.43"/>
	<path fill="#FFFFFF" stroke="#C52026" stroke-width="4" stroke-miterlimit="10" d="M164.92,333.18
		c9.439-9.447,9.432-24.757-0.016-34.196c-4.533-4.528-10.677-7.073-17.084-7.074v24.17L164.92,333.18z"/>
	<path fill="#FFFFFF" stroke="#C52026" stroke-width="4" stroke-miterlimit="10" d="M164.92,333.18l-17.1-17.1l-17.1,17.1
		C140.166,342.62,155.474,342.62,164.92,333.18L164.92,333.18z"/>
	<path fill="#C52026" stroke="#C52026" stroke-width="4" stroke-miterlimit="10" d="M143,289.32
		c-13.354,0.003-24.177,10.831-24.174,24.186c0.002,6.407,2.546,12.552,7.074,17.084l17.1-17.1V289.32z"/>
	<path fill="#FFFFFF" stroke="#C52026" stroke-width="4" stroke-miterlimit="10" d="M277.86,321c0,5.43,5.61,9.84,12.52,10.43h41.72
		c6.91-0.59,12.52-5,12.52-10.43s-5.61-9.84-12.52-9.84c-0.26,0-0.5,0-0.75,0.06c-1.7-3.84-11.14-7.13-15.34-3.63
		c-3.58,3,2.09-2.91,1.38-2.81c-2.87-4-8.25-6.73-14.5-6.73c-9.21,0-16.69,5.87-16.69,13.11c0,0.2,0.07,0.39,0.08,0.59
		C281.39,313.09,277.86,316.7,277.86,321z"/>
</g>
</svg>
