<?xml version="1.0" encoding="utf-8"?>
<!-- Generator: Adobe Illustrator 22.1.0, SVG Export Plug-In . SVG Version: 6.00 Build 0)  -->
<svg version="1.1" id="Layer_1" xmlns="http://www.w3.org/2000/svg" xmlns:xlink="http://www.w3.org/1999/xlink" x="0px" y="0px"
	 viewBox="0 0 1287 259.4" style="enable-background:new 0 0 1287 259.4;" xml:space="preserve">
<style type="text/css">
	.st0{fill:#4B5559;}
	.st1{fill:#14477B;}
	.st2{fill:#FFFFFF;}
	.st3{fill:none;stroke:#FFFFFF;stroke-width:2;stroke-miterlimit:10;}
	.st4{fill:#FFFFFF;stroke:#C52026;stroke-width:4;stroke-miterlimit:10;}
	.st5{fill:#C52026;stroke:#C52026;stroke-width:4;stroke-miterlimit:10;}
	.st6{fill:#112E51;}
	.st7{fill:#C52026;}
</style>
<title>FDS LogoFDS-Seal copy</title>
<g id="Layer_7">
	<path class="st0" d="M146,236.4c-2.3-3.6-3.9-7.6-4.9-11.7c-1.6,3.1-3.8,6-6.2,8.5c-1.4-4.1-2.2-8.4-2.1-12.7
		c-2.3,2.8-5.1,5.2-8.1,7.1c-0.4-4-0.2-8.1,0.7-12c-2.6,2-5.6,3.5-8.7,4.6c0.8-8.6,6.5-18.7,13.8-26.3v-2.8h7.2
		c6,0,6.8,7.4,8.4,11.8c1.6-4.5,2.4-11.8,8.4-11.8h7.2v2.8c7.4,7.6,13,17.7,13.8,26.3c-3.1-1.1-6-2.6-8.7-4.6c0.9,3.9,1.2,8,0.7,12
		c-3.1-1.9-5.8-4.3-8.1-7.1c0,4.3-0.7,8.6-2.1,12.7c-2.5-2.5-4.6-5.4-6.2-8.5C149.9,228.9,148.3,232.8,146,236.4z"/>
	<path class="st0" d="M113.4,169.3c-13.7,4.8-7.1,18.9-23.6,25.2c-8.4-6-12-4.8-21.7,3c-2.9,2.4-0.4,7,3,6.4
		c-2.5,5.9,3.2,9.4,7.7,6.7c0.9,2.5,3.7,3.9,6.3,3c0.7-0.3,1.4-0.7,1.9-1.2c0.8-0.9,1.5-1.9,1.9-3c4.6-11.3,4.5-12.2,17.6-12.2
		c10.9,0,15.9-0.8,20.7-6.1h-4.8c-4.9,0-8.9-4-8.9-8.9L113.4,169.3L113.4,169.3z"/>
	<path class="st0" d="M178.6,169.3c13.7,4.8,7.1,18.9,23.6,25.2c8.4-6,12-4.8,21.7,3c2.9,2.4,0.4,7-3,6.4c2.5,5.9-3.2,9.4-7.7,6.7
		c-0.9,2.5-3.7,3.9-6.3,3c-0.7-0.3-1.4-0.7-1.9-1.2c-0.8-0.9-1.5-1.9-1.9-3c-4.6-11.3-4.5-12.2-17.6-12.2c-10.9,0-15.9-0.8-20.7-6.1
		h4.8c4.9,0,8.9-4,8.9-8.9V169.3z"/>
	<path class="st0" d="M202.4,80.7c20.8-15.6,42.9-33,53.5-57c0.9-1.9,2.9-1.8,3.3,0.3c1.5,7.9-3.3,17.6-7.5,24
		c-3.9,6.2-8.6,11.9-13.8,17c11.2-8,21.2-17.3,28.5-28.7c1.1-1.8,3.1-1.3,3.2,0.8c0.4,8.1-5.9,17-10.9,22.6
		c-4.8,5.5-10.1,10.4-16,14.6c11.5-5.9,22.2-13.2,30.7-22.8c1.4-1.6,3.3-0.8,3.1,1.3c-0.9,8-8.5,15.8-14.4,20.6
		c-4.8,4-9.9,7.5-15.4,10.5c11.1-3.7,21.6-8.7,30.6-15.9c1.7-1.3,3.4-0.2,2.8,1.8c-2.3,7.7-11.2,14.1-17.8,17.7
		c-4.5,2.5-9.2,4.7-14,6.5c9.9-1.1,19.6-3.8,28.7-8c1.9-0.9,3.4,0.5,2.3,2.4c-4,7-14.1,11.1-21.4,13.2c-4.4,1.3-8.9,2.3-13.4,3
		c9,0.6,18-0.1,26.7-2.1c2-0.5,3.1,1.2,1.7,2.7c-5.2,5.9-15.5,7.8-22.8,8.4c-6.1,0.5-12.3,0.4-18.4-0.3c9.7,2.7,19.7,3.8,29.7,3.3
		c2-0.1,2.8,1.7,1.2,3c-6.1,4.9-16.6,5-24,4.2c-6.2-0.6-12.3-1.7-18.2-3.5c9,4.3,18.7,7.2,28.6,8.4c2,0.2,2.5,2.1,0.6,3.1
		c-6.9,3.7-17.3,2-24.3,0c-5.5-1.5-10.9-3.5-16-5.9c7.9,5.5,16.6,9.8,25.8,12.6c2,0.6,2.1,2.6,0.1,3.2c-7.4,2.5-17.4-1-24-4.2
		c-3.9-1.9-7.6-3.9-11.2-6.3c6.2,5.8,13.1,10.7,20.6,14.5c1.8,0.9,1.6,2.9-0.5,3.2c-7.7,1.1-16.9-4-22.9-8.3c-2-1.4-3.8-2.8-5.5-4.2
		c4.2,4.9,8.9,9.3,14,13.1c1.6,1.2,1.1,3.1-1,3.1c-7.8-0.2-16-6.9-21.1-12.1c-0.9-0.9-1.7-1.7-2.4-2.6c2.7,4.2,5.8,8.2,9.3,11.8
		c1.4,1.5,0.5,3.3-1.5,2.8c-3.9-0.9-7.5-3-10.3-5.8v-19.6c11.6-0.5,21.9-11,16.8-24.1C190.8,91.4,193,87.8,202.4,80.7L202.4,80.7z"
		/>
	<path class="st0" d="M89.6,80.7c-20.8-15.6-42.9-33-53.5-57c-0.9-1.9-2.9-1.8-3.3,0.3c-1.6,7.9,3.3,17.6,7.4,24
		c3.9,6.2,8.5,11.9,13.8,17c-11.2-8-21.2-17.3-28.5-28.7c-1.1-1.8-3.1-1.3-3.2,0.8c-0.4,8.1,5.9,17,10.9,22.6
		c4.8,5.5,10.1,10.4,16,14.6c-11.6-5.9-22.2-13.2-30.7-22.8c-1.4-1.6-3.3-0.8-3.1,1.3c0.9,8,8.5,15.8,14.4,20.6
		c4.8,4,9.9,7.5,15.4,10.5C34.2,80.2,23.8,75.2,14.7,68c-1.7-1.3-3.4-0.2-2.8,1.8c2.4,7.7,11.2,14.1,17.8,17.7
		c4.5,2.5,9.2,4.7,14,6.5c-9.9-1.1-19.6-3.8-28.7-8c-1.9-0.9-3.4,0.5-2.3,2.4c4,7,14.1,11.1,21.4,13.2c4.4,1.3,8.9,2.3,13.4,3
		c-9,0.6-18-0.1-26.7-2.1c-2-0.5-3.1,1.2-1.7,2.7c5.2,5.8,15.5,7.8,22.9,8.4c6.1,0.5,12.3,0.4,18.4-0.3c-9.7,2.7-19.7,3.8-29.7,3.3
		c-2.1-0.1-2.8,1.7-1.2,3c6.1,4.9,16.6,5,24,4.2c6.2-0.6,12.3-1.7,18.2-3.5c-9,4.3-18.7,7.2-28.6,8.5c-2,0.2-2.5,2.1-0.6,3.1
		c6.9,3.7,17.3,2,24.3,0c5.5-1.5,10.9-3.5,16-5.9c-7.9,5.5-16.6,9.8-25.8,12.6c-2,0.6-2.1,2.6-0.1,3.2c7.4,2.5,17.4-1,24-4.2
		c3.9-1.9,7.6-3.9,11.2-6.3c-6.2,5.8-13.1,10.7-20.6,14.5c-1.8,0.9-1.6,2.9,0.5,3.2c7.7,1.1,16.9-4,22.9-8.3c2-1.4,3.8-2.8,5.5-4.2
		c-4.2,4.9-8.9,9.3-14,13.1c-1.7,1.2-1.1,3.1,1,3.1c7.8-0.2,16-6.9,21.1-12.1c0.9-0.9,1.7-1.7,2.4-2.6c-2.7,4.2-5.8,8.2-9.3,11.8
		c-1.4,1.5-0.5,3.3,1.5,2.8c3.9-0.9,7.5-3,10.3-5.8v-19.6c-11.6-0.5-21.9-11-16.8-24.1C101.3,91.4,99,87.8,89.6,80.7L89.6,80.7z"/>
	<path class="st0" d="M165,115c-4.7-11.8,0.2-29.5-7.2-37.9c-6.2-7.1-21.2-6.1-26.3,1.7c-3.9,1.4-5.9,2-8.3,4
		c-4.6,3.7-0.4,9.7,1.8,12.3c-0.3-1.7-0.5-4.3,1.4-5.3c3.5-1.8,6.5-0.9,8.3,2.1c2.6,4.6-4.3,16.5-9,23L165,115z"/>
	<path class="st1" d="M144.1,194.9c-1-2.9-2-4.7-6.5-4.7h-15.3c-4.4,0-8-3.6-8-8v-66.2h63.4v66.2c0,4.4-3.6,8-8,8h-15.3
		c-4.5,0-5.4,1.8-6.5,4.7l-1.9,5.3L144.1,194.9z"/>
	<path class="st2" d="M175.7,117.9v64.2c0,3.3-2.7,6-6,6h-15.3c-5.7,0-7.2,2.7-8.4,6c-1.2-3.3-2.7-6-8.4-6h-15.3c-3.3,0-6-2.7-6-6
		v-64.2H175.7 M179.7,113.9h-67.4v68.2c0,5.5,4.5,10,10,10h15.3c3.2,0,3.7,0.9,4.6,3.4l3.8,10.6l3.8-10.6c0.9-2.5,1.4-3.4,4.6-3.4
		h15.3c5.5,0,10-4.5,10-10L179.7,113.9L179.7,113.9z"/>
	<rect x="119.8" y="169.6" class="st2" width="3.4" height="20.5"/>
	<rect x="126.7" y="164.5" class="st2" width="3.4" height="25.6"/>
	<rect x="133.7" y="159.4" class="st2" width="3.4" height="30.7"/>
	<polygon class="st2" points="144.1,192.9 140.7,190.1 140.7,164.5 144.1,164.5 	"/>
	<polygon class="st2" points="151.1,190.1 147.7,191 147.7,154.8 151.1,154.8 	"/>
	<rect x="154.7" y="146.9" class="st2" width="3.4" height="43.1"/>
	<rect x="161.7" y="139.1" class="st2" width="3.4" height="51"/>
	<rect x="168.7" y="125.7" class="st2" width="3.4" height="64.4"/>
	<rect x="127.3" y="129.2" class="st2" width="14.8" height="14.8"/>
	<rect x="124" y="125.9" class="st3" width="21.3" height="21.3"/>
	<line class="st3" x1="124" y1="132.8" x2="119.4" y2="132.8"/>
	<line class="st3" x1="124" y1="140.4" x2="119.4" y2="140.4"/>
	<line class="st3" x1="149.9" y1="132.8" x2="145.3" y2="132.8"/>
	<line class="st3" x1="149.9" y1="140.4" x2="145.3" y2="140.4"/>
	<line class="st3" x1="138.5" y1="125.9" x2="138.5" y2="121.4"/>
	<line class="st3" x1="130.9" y1="125.9" x2="130.9" y2="121.4"/>
	<line class="st3" x1="138.5" y1="151.8" x2="138.5" y2="147.2"/>
	<line class="st3" x1="130.9" y1="151.8" x2="130.9" y2="147.2"/>
	<path class="st4" d="M81.9,231c9.4-9.4,9.4-24.8,0-34.2c-4.5-4.5-10.7-7.1-17.1-7.1v24.2L81.9,231z"/>
	<path class="st4" d="M81.9,231l-17.1-17.1L47.7,231C57.2,240.4,72.5,240.4,81.9,231L81.9,231z"/>
	<path class="st5" d="M60,187.1c-13.4,0-24.2,10.8-24.2,24.2c0,6.4,2.5,12.6,7.1,17.1L60,211.3V187.1z"/>
	<path class="st4" d="M194.9,218.8c0,5.4,5.6,9.8,12.5,10.4h41.7c6.9-0.6,12.5-5,12.5-10.4s-5.6-9.8-12.5-9.8c-0.3,0-0.5,0-0.8,0.1
		c-1.7-3.8-11.1-7.1-15.3-3.6c-3.6,3,2.1-2.9,1.4-2.8c-2.9-4-8.2-6.7-14.5-6.7c-9.2,0-16.7,5.9-16.7,13.1c0,0.2,0.1,0.4,0.1,0.6
		C198.4,210.9,194.9,214.5,194.9,218.8z"/>
</g>
<g>
	<path class="st6" d="M355,126.9V61.9h41.4v11.5h-28.3v19.1h23.1v11.5h-23.1v22.9H355z"/>
	<path class="st6" d="M415.8,114.8c1.5,1.3,3.6,2,6.4,2c5.9,0,11.2-0.2,15.9-0.6l2.7-0.3l0.2,9.5c-7.3,1.8-13.9,2.7-19.9,2.7
		c-7.2,0-12.4-1.9-15.7-5.7c-3.2-3.8-4.9-10-4.9-18.6c0-17.1,7-25.7,21.1-25.7c13.9,0,20.8,7.2,20.8,21.6l-1,8.9h-28.1
		C413.5,111.4,414.3,113.5,415.8,114.8z M429.9,98.7c0-3.8-0.6-6.5-1.8-8c-1.2-1.5-3.3-2.2-6.4-2.2c-3,0-5.2,0.8-6.4,2.3
		c-1.2,1.6-1.9,4.2-2,7.9H429.9z"/>
	<path class="st6" d="M492.3,60v66.9h-12.7v-2c-4.5,2.1-8.3,3.2-11.6,3.2c-6.9,0-11.8-2-14.5-6c-2.7-4-4.1-10.4-4.1-19.1
		s1.6-15,4.9-19c3.3-4,8.2-6,14.9-6c2,0,4.9,0.3,8.5,1l1.8,0.4V60H492.3z M478.1,115.4l1.3-0.3V90c-3.5-0.6-6.6-1-9.4-1
		c-5.2,0-7.7,4.6-7.7,13.8c0,5,0.6,8.5,1.7,10.6c1.1,2.1,3,3.2,5.7,3.2S475.2,116.2,478.1,115.4z"/>
	<path class="st6" d="M517,114.8c1.5,1.3,3.6,2,6.4,2c5.9,0,11.2-0.2,15.9-0.6l2.7-0.3l0.2,9.5c-7.3,1.8-13.9,2.7-19.9,2.7
		c-7.2,0-12.4-1.9-15.7-5.7c-3.2-3.8-4.9-10-4.9-18.6c0-17.1,7-25.7,21.1-25.7c13.9,0,20.8,7.2,20.8,21.6l-1,8.9h-28.1
		C514.7,111.4,515.5,113.5,517,114.8z M531,98.7c0-3.8-0.6-6.5-1.8-8c-1.2-1.5-3.3-2.2-6.4-2.2s-5.2,0.8-6.4,2.3
		c-1.2,1.6-1.9,4.2-2,7.9H531z"/>
	<path class="st6" d="M552.8,126.9V79.1h12.7v5.1c5.3-3.2,10.4-5.3,15.3-6.2v12.9c-5.2,1.1-9.6,2.2-13.3,3.3l-1.9,0.7v32H552.8z"/>
	<path class="st6" d="M624.9,94v19.9c0.1,1.5,0.4,2.6,0.8,3.2c0.4,0.6,1.2,1,2.4,1.3l-0.4,9.6c-3.2,0-5.8-0.2-7.8-0.7
		c-1.9-0.4-3.9-1.3-5.9-2.7c-4.6,2.2-9.3,3.3-14,3.3c-9.9,0-14.8-5.2-14.8-15.7c0-5.1,1.4-8.7,4.1-10.8c2.7-2.1,6.9-3.4,12.6-3.8
		l10.2-0.8v-3c0-2-0.4-3.3-1.3-4.1c-0.9-0.7-2.3-1.1-4.3-1.1l-18,0.8l-0.4-8.9c6.8-1.8,13.3-2.8,19.4-2.8c6.1,0,10.6,1.3,13.3,3.8
		C623.6,84.3,624.9,88.4,624.9,94z M603.4,106.6c-3.6,0.3-5.3,2.2-5.3,5.7c0,3.5,1.6,5.3,4.7,5.3c2.4,0,5.1-0.4,7.9-1.1l1.4-0.4
		v-10.2L603.4,106.6z"/>
	<path class="st6" d="M637.7,126.9V60h12.8v66.9H637.7z"/>
	<path class="st6" d="M707,126.9h-21.9V61.9H707c5.6,0,10.2,0.6,13.8,1.8c3.6,1.2,6.4,3.1,8.5,5.8c2,2.7,3.4,5.9,4.2,9.6
		c0.8,3.7,1.1,8.4,1.1,14.3c0,5.9-0.3,10.7-1,14.6c-0.7,3.9-2,7.3-4,10.3c-1.9,3-4.8,5.2-8.5,6.6C717.4,126.2,712.7,126.9,707,126.9
		z M720.8,101.1c0.1-2,0.2-4.9,0.2-8.5s-0.1-6.5-0.4-8.6c-0.3-2.2-0.9-4.1-1.8-5.9c-1-1.8-2.4-3-4.3-3.7c-1.9-0.7-4.4-1-7.6-1h-8.7
		v42h8.7c4.8,0,8.2-1.2,10.4-3.6C719.2,109.8,720.4,106.2,720.8,101.1z"/>
	<path class="st6" d="M781.4,94v19.9c0.1,1.5,0.4,2.6,0.8,3.2c0.4,0.6,1.2,1,2.4,1.3l-0.4,9.6c-3.2,0-5.8-0.2-7.8-0.7
		c-1.9-0.4-3.9-1.3-5.9-2.7c-4.6,2.2-9.3,3.3-14,3.3c-9.9,0-14.8-5.2-14.8-15.7c0-5.1,1.4-8.7,4.1-10.8c2.7-2.1,6.9-3.4,12.6-3.8
		l10.2-0.8v-3c0-2-0.4-3.3-1.3-4.1c-0.9-0.7-2.3-1.1-4.3-1.1l-18,0.8l-0.4-8.9c6.8-1.8,13.3-2.8,19.4-2.8c6.1,0,10.6,1.3,13.3,3.8
		C780.1,84.3,781.4,88.4,781.4,94z M760,106.6c-3.6,0.3-5.3,2.2-5.3,5.7c0,3.5,1.6,5.3,4.7,5.3c2.4,0,5.1-0.4,7.9-1.1l1.4-0.4v-10.2
		L760,106.6z"/>
	<path class="st6" d="M820.1,90h-11.7v19.6c0,1.9,0,3.3,0.1,4.1c0.1,0.8,0.4,1.5,1,2.1c0.6,0.6,1.5,0.9,2.8,0.9l7.3-0.2l0.6,10.2
		c-4.3,1-7.5,1.4-9.7,1.4c-5.7,0-9.6-1.3-11.7-3.9c-2.1-2.6-3.2-7.3-3.2-14.3V90h-5.6V79.1h5.6V65.8h12.8v13.3h11.7V90z"/>
	<path class="st6" d="M865,94v19.9c0.1,1.5,0.4,2.6,0.8,3.2c0.4,0.6,1.2,1,2.4,1.3l-0.4,9.6c-3.2,0-5.8-0.2-7.8-0.7
		c-1.9-0.4-3.9-1.3-5.9-2.7c-4.6,2.2-9.3,3.3-14,3.3c-9.9,0-14.8-5.2-14.8-15.7c0-5.1,1.4-8.7,4.1-10.8c2.7-2.1,6.9-3.4,12.6-3.8
		l10.2-0.8v-3c0-2-0.4-3.3-1.3-4.1c-0.9-0.7-2.3-1.1-4.3-1.1l-18,0.8l-0.4-8.9c6.8-1.8,13.3-2.8,19.4-2.8c6.1,0,10.6,1.3,13.3,3.8
		C863.7,84.3,865,88.4,865,94z M843.5,106.6c-3.6,0.3-5.3,2.2-5.3,5.7c0,3.5,1.6,5.3,4.7,5.3c2.4,0,5.1-0.4,7.9-1.1l1.4-0.4v-10.2
		L843.5,106.6z"/>
	<path class="st6" d="M919.3,72.2c-6.9,0-10.4,2.3-10.4,6.9c0,2,0.9,3.6,2.6,4.7c1.7,1.1,5.7,2.6,12.1,4.7c6.3,2,10.8,4.3,13.3,6.9
		c2.5,2.6,3.8,6.5,3.8,11.9c0,6.8-2.1,12-6.2,15.5c-4.1,3.5-9.6,5.3-16.2,5.3c-5,0-11-0.8-18.2-2.3l-3.4-0.7l1.3-10.2
		c8.5,1.1,15.1,1.7,19.6,1.7c6.7,0,10.1-2.8,10.1-8.4c0-2-0.8-3.6-2.3-4.8c-1.6-1.1-4.7-2.4-9.3-3.7c-7.4-2.1-12.6-4.6-15.6-7.5
		c-3-2.9-4.5-6.9-4.5-12.1c0-6.5,2-11.3,5.9-14.5c3.9-3.2,9.4-4.8,16.2-4.8c4.7,0,10.7,0.6,18,1.9l3.4,0.7l-1.1,10.4
		C929.4,72.7,923,72.2,919.3,72.2z"/>
	<path class="st6" d="M976.2,90h-11.7v19.6c0,1.9,0,3.3,0.1,4.1c0.1,0.8,0.4,1.5,1,2.1c0.6,0.6,1.5,0.9,2.8,0.9l7.3-0.2l0.6,10.2
		c-4.3,1-7.5,1.4-9.7,1.4c-5.7,0-9.6-1.3-11.7-3.9c-2.1-2.6-3.2-7.3-3.2-14.3V90H946V79.1h5.6V65.8h12.8v13.3h11.7V90z"/>
	<path class="st6" d="M984.5,126.9V79.1h12.7v5.1c5.3-3.2,10.4-5.3,15.3-6.2v12.9c-5.2,1.1-9.6,2.2-13.3,3.3l-1.9,0.7v32H984.5z"/>
	<path class="st6" d="M1056.6,94v19.9c0.1,1.5,0.4,2.6,0.8,3.2c0.4,0.6,1.2,1,2.4,1.3l-0.4,9.6c-3.2,0-5.8-0.2-7.8-0.7
		c-1.9-0.4-3.9-1.3-5.9-2.7c-4.6,2.2-9.3,3.3-14,3.3c-9.9,0-14.8-5.2-14.8-15.7c0-5.1,1.4-8.7,4.1-10.8c2.7-2.1,6.9-3.4,12.6-3.8
		l10.2-0.8v-3c0-2-0.4-3.3-1.3-4.1c-0.9-0.7-2.3-1.1-4.3-1.1l-18,0.8l-0.4-8.9c6.8-1.8,13.3-2.8,19.4-2.8c6.1,0,10.6,1.3,13.3,3.8
		C1055.2,84.3,1056.6,88.4,1056.6,94z M1035.1,106.6c-3.6,0.3-5.3,2.2-5.3,5.7c0,3.5,1.6,5.3,4.7,5.3c2.4,0,5.1-0.4,7.9-1.1l1.4-0.4
		v-10.2L1035.1,106.6z"/>
	<path class="st6" d="M1095.3,90h-11.7v19.6c0,1.9,0,3.3,0.1,4.1c0.1,0.8,0.4,1.5,1,2.1c0.6,0.6,1.5,0.9,2.8,0.9l7.3-0.2l0.6,10.2
		c-4.3,1-7.5,1.4-9.7,1.4c-5.7,0-9.6-1.3-11.7-3.9c-2.1-2.6-3.2-7.3-3.2-14.3V90h-5.6V79.1h5.6V65.8h12.8v13.3h11.7V90z"/>
	<path class="st6" d="M1116.4,114.8c1.5,1.3,3.6,2,6.4,2c5.9,0,11.2-0.2,15.9-0.6l2.7-0.3l0.2,9.5c-7.3,1.8-13.9,2.7-19.9,2.7
		c-7.2,0-12.4-1.9-15.7-5.7c-3.2-3.8-4.9-10-4.9-18.6c0-17.1,7-25.7,21.1-25.7c13.9,0,20.8,7.2,20.8,21.6l-1,8.9h-28.1
		C1114.1,111.4,1114.9,113.5,1116.4,114.8z M1130.5,98.7c0-3.8-0.6-6.5-1.8-8c-1.2-1.5-3.3-2.2-6.4-2.2c-3,0-5.2,0.8-6.4,2.3
		c-1.2,1.6-1.9,4.2-2,7.9H1130.5z"/>
	<path class="st6" d="M1195.5,132.8c0,5.4-2.1,9.5-6.3,12.1c-4.2,2.6-9.9,3.9-17,3.9s-12.7-1-16.5-2.9c-3.9-1.9-5.8-5.4-5.8-10.4
		c0-4,2.3-7.8,6.9-11.4c-2.4-1.6-3.5-4-3.5-7.3c0-1.3,1-3.4,2.9-6.3l0.9-1.3c-4.3-3.1-6.5-7.7-6.5-13.8c0-6.1,1.8-10.5,5.5-13.2
		c3.7-2.7,8.5-4.1,14.6-4.1c2.7,0,5.4,0.3,8.1,1l1.5,0.3l15.4-0.5v10.2l-7.2-0.6c1.4,2.2,2.1,4.3,2.1,6.5c0,6.4-1.6,10.8-4.9,13.2
		c-3.2,2.4-8.3,3.6-15.3,3.6c-1.5,0-2.8-0.1-3.9-0.4c-0.6,1.7-1,3-1,4.1c0,1.1,0.5,1.8,1.6,2.1s3.6,0.6,7.6,0.7
		c8,0.1,13.5,1.1,16.4,3.2C1194.1,123.6,1195.5,127.4,1195.5,132.8z M1162.5,134.2c0,2.7,3.4,4.1,10.1,4.1c6.7,0,10.1-1.6,10.1-4.8
		c0-1.7-0.6-2.8-1.7-3.3c-1.1-0.5-3.6-0.7-7.3-0.8l-8.6-0.7C1163.3,130.5,1162.5,132.3,1162.5,134.2z M1163.2,95.1
		c0,4.7,2.4,7,7.3,7s7.3-2.3,7.3-7c0-4.7-2.4-7-7.3-7S1163.2,90.4,1163.2,95.1z"/>
	<path class="st6" d="M1198.9,79.1h12.6l8.7,36.9h2.2l8.7-36.9h12.6l-16.8,67.8h-12.5l5.3-20.1h-9L1198.9,79.1z"/>
</g>
<g>
	<path class="st7" d="M377.3,196.9H355v-40.4h4.5v36.4h17.7V196.9z"/>
	<path class="st7" d="M401.8,193.3l1.7-0.2l0.1,3.4c-4.4,0.6-8.2,0.9-11.4,0.9c-4.2,0-7.2-1.2-8.9-3.6c-1.8-2.4-2.6-6.2-2.6-11.4
		c0-10.2,4.1-15.3,12.2-15.3c3.9,0,6.9,1.1,8.8,3.3c1.9,2.2,2.9,5.7,2.9,10.4l-0.2,3.3h-19.3c0,3.2,0.6,5.6,1.7,7.2
		c1.2,1.6,3.2,2.3,6.1,2.3C395.8,193.6,398.8,193.5,401.8,193.3z M400.2,180.6c0-3.6-0.6-6.1-1.7-7.6c-1.1-1.5-3-2.2-5.6-2.2
		s-4.5,0.8-5.8,2.3c-1.3,1.6-2,4-2,7.5H400.2z"/>
	<path class="st7" d="M408.2,167.7h4.7l6.8,25.4h2.2l7.1-25.4h4.5l-8.2,29.2h-8.8L408.2,167.7z"/>
	<path class="st7" d="M458.3,193.3l1.7-0.2l0.1,3.4c-4.4,0.6-8.2,0.9-11.4,0.9c-4.2,0-7.2-1.2-8.9-3.6c-1.8-2.4-2.6-6.2-2.6-11.4
		c0-10.2,4.1-15.3,12.2-15.3c3.9,0,6.9,1.1,8.8,3.3c1.9,2.2,2.9,5.7,2.9,10.4l-0.2,3.3h-19.3c0,3.2,0.6,5.6,1.7,7.2
		c1.2,1.6,3.2,2.3,6.1,2.3C452.4,193.6,455.3,193.5,458.3,193.3z M456.8,180.6c0-3.6-0.6-6.1-1.7-7.6c-1.1-1.5-3-2.2-5.6-2.2
		s-4.5,0.8-5.8,2.3c-1.3,1.6-2,4-2,7.5H456.8z"/>
	<path class="st7" d="M468,196.9v-29.2h4.3v4c3.4-2.3,6.9-3.9,10.7-4.6v4.4c-1.6,0.3-3.3,0.8-5.1,1.5c-1.8,0.7-3.1,1.2-4.1,1.8
		l-1.5,0.8v21.4H468z"/>
	<path class="st7" d="M508.8,176.5v14.9c0.1,1.4,1.2,2.3,3.4,2.6l-0.2,3.4c-3.1,0-5.4-0.8-6.9-2.3c-3.5,1.6-7,2.3-10.5,2.3
		c-2.7,0-4.7-0.8-6.1-2.3c-1.4-1.5-2.1-3.7-2.1-6.5c0-2.8,0.7-4.9,2.2-6.3c1.4-1.3,3.7-2.2,6.8-2.5l9.2-0.9v-2.5
		c0-2-0.4-3.4-1.3-4.3c-0.9-0.9-2-1.3-3.5-1.3c-3.1,0-6.3,0.2-9.7,0.6l-1.8,0.2l-0.2-3.3c4.3-0.9,8.1-1.3,11.4-1.3
		c3.3,0,5.7,0.8,7.2,2.3C508,170.9,508.8,173.3,508.8,176.5z M490.8,188.4c0,3.6,1.5,5.4,4.4,5.4c2.6,0,5.3-0.4,7.8-1.3l1.3-0.5
		v-9.6l-8.6,0.8c-1.8,0.2-3,0.7-3.8,1.5C491.2,185.6,490.8,186.8,490.8,188.4z"/>
	<path class="st7" d="M528.7,210.6c-4.7,0-7.9-0.6-9.8-1.9c-1.8-1.3-2.8-3.6-2.8-6.9c0-1.6,0.4-2.9,1.1-3.9c0.7-1,1.9-2.1,3.6-3.4
		c-1.1-0.7-1.6-2.1-1.6-4c0-0.7,0.5-1.9,1.5-3.7l0.5-0.9c-3.1-1.4-4.6-4.3-4.6-8.8c0-6.7,3.6-10,10.9-10c1.9,0,3.6,0.2,5.2,0.6
		l0.9,0.2l8.6-0.2v3.7l-5.5-0.1c1.3,1.3,1.9,3.2,1.9,5.8c0,3.7-0.9,6.2-2.7,7.7c-1.8,1.5-4.7,2.2-8.5,2.2c-1.1,0-2-0.1-2.9-0.2
		c-0.7,1.7-1.1,2.8-1.1,3.3c0,1.2,0.4,2,1.1,2.2s3,0.4,6.7,0.4s6.4,0.6,8.1,1.8c1.6,1.2,2.5,3.4,2.5,6.8
		C541.6,207.5,537.3,210.6,528.7,210.6z M520.4,201.4c0,2.1,0.6,3.5,1.7,4.3c1.1,0.8,3.3,1.2,6.4,1.2s5.3-0.4,6.7-1.3
		c1.3-0.9,2-2.3,2-4.3c0-2-0.5-3.3-1.5-3.9c-1-0.6-2.9-0.9-5.7-0.9l-6.3-0.3c-1.3,0.9-2.2,1.8-2.6,2.5
		C520.7,199.5,520.4,200.4,520.4,201.4z M520.8,177.1c0,2.3,0.5,3.9,1.5,4.9c1,1,2.7,1.5,5.1,1.5c2.4,0,4.1-0.5,5.1-1.5
		c1-1,1.5-2.6,1.5-4.9c0-2.3-0.5-4-1.5-4.9c-1-1-2.7-1.5-5.1-1.5c-2.4,0-4.1,0.5-5.1,1.5C521.4,173.2,520.8,174.8,520.8,177.1z"/>
	<path class="st7" d="M547.4,161.1V156h4.4v5.1H547.4z M547.4,196.9v-29.2h4.4v29.2H547.4z"/>
	<path class="st7" d="M564.6,196.9h-4.4v-29.2h4.3v2c3.2-1.8,6.2-2.6,9-2.6c3.9,0,6.5,1.1,7.8,3.2c1.3,2.1,2,5.8,2,11.2v15.4h-4.3
		v-15.3c0-4-0.4-6.8-1.2-8.3c-0.8-1.5-2.5-2.2-5.1-2.2c-1.2,0-2.6,0.2-3.9,0.6c-1.4,0.4-2.4,0.7-3.2,1.1l-1.1,0.5V196.9z"/>
	<path class="st7" d="M602.8,210.6c-4.7,0-7.9-0.6-9.8-1.9c-1.8-1.3-2.8-3.6-2.8-6.9c0-1.6,0.4-2.9,1.1-3.9c0.7-1,1.9-2.1,3.6-3.4
		c-1.1-0.7-1.6-2.1-1.6-4c0-0.7,0.5-1.9,1.5-3.7l0.5-0.9c-3.1-1.4-4.6-4.3-4.6-8.8c0-6.7,3.6-10,10.9-10c1.9,0,3.6,0.2,5.2,0.6
		l0.9,0.2l8.6-0.2v3.7l-5.5-0.1c1.3,1.3,1.9,3.2,1.9,5.8c0,3.7-0.9,6.2-2.7,7.7c-1.8,1.5-4.7,2.2-8.5,2.2c-1.1,0-2-0.1-2.9-0.2
		c-0.7,1.7-1.1,2.8-1.1,3.3c0,1.2,0.4,2,1.1,2.2s3,0.4,6.7,0.4s6.4,0.6,8.1,1.8c1.6,1.2,2.5,3.4,2.5,6.8
		C615.7,207.5,611.4,210.6,602.8,210.6z M594.6,201.4c0,2.1,0.6,3.5,1.7,4.3c1.1,0.8,3.3,1.2,6.4,1.2c3.1,0,5.3-0.4,6.7-1.3
		c1.3-0.9,2-2.3,2-4.3c0-2-0.5-3.3-1.5-3.9c-1-0.6-2.9-0.9-5.7-0.9l-6.3-0.3c-1.3,0.9-2.2,1.8-2.6,2.5
		C594.8,199.5,594.6,200.4,594.6,201.4z M595,177.1c0,2.3,0.5,3.9,1.5,4.9c1,1,2.7,1.5,5.1,1.5c2.4,0,4.1-0.5,5.1-1.5
		c1-1,1.5-2.6,1.5-4.9c0-2.3-0.5-4-1.5-4.9c-1-1-2.7-1.5-5.1-1.5c-2.4,0-4.1,0.5-5.1,1.5C595.5,173.2,595,174.8,595,177.1z"/>
	<path class="st7" d="M649.5,196.9h-14.4v-40.4h14.4c6.6,0,10.9,2.6,13.1,7.8c1.2,3,1.9,6.9,1.9,11.8c0,10.2-2.5,16.6-7.6,19.2
		C654.9,196.4,652.4,196.9,649.5,196.9z M659.9,176.1c0-7.7-1.7-12.6-5.2-14.5c-1.4-0.8-3.1-1.2-5.1-1.2h-9.9v32.4h9.9
		C656.4,192.9,659.9,187.3,659.9,176.1z"/>
	<path class="st7" d="M692.6,176.5v14.9c0.1,1.4,1.2,2.3,3.4,2.6l-0.2,3.4c-3.1,0-5.4-0.8-6.9-2.3c-3.5,1.6-7,2.3-10.5,2.3
		c-2.7,0-4.7-0.8-6.1-2.3c-1.4-1.5-2.1-3.7-2.1-6.5c0-2.8,0.7-4.9,2.2-6.3c1.4-1.3,3.7-2.2,6.8-2.5l9.2-0.9v-2.5
		c0-2-0.4-3.4-1.3-4.3c-0.9-0.9-2-1.3-3.5-1.3c-3.1,0-6.3,0.2-9.7,0.6l-1.8,0.2l-0.2-3.3c4.3-0.9,8.1-1.3,11.4-1.3
		c3.3,0,5.7,0.8,7.2,2.3C691.8,170.9,692.6,173.3,692.6,176.5z M674.6,188.4c0,3.6,1.5,5.4,4.4,5.4c2.6,0,5.3-0.4,7.8-1.3l1.3-0.5
		v-9.6l-8.6,0.8c-1.8,0.2-3,0.7-3.8,1.5C675,185.6,674.6,186.8,674.6,188.4z"/>
	<path class="st7" d="M716.3,171.5h-9.3v13.9c0,3.3,0.2,5.5,0.7,6.6c0.5,1.1,1.6,1.6,3.5,1.6l5.2-0.3l0.3,3.6
		c-2.6,0.4-4.6,0.6-6,0.6c-3,0-5.1-0.7-6.3-2.2c-1.2-1.5-1.8-4.3-1.8-8.5v-15.3h-4.1v-3.8h4.1v-8.9h4.3v8.9h9.3V171.5z"/>
	<path class="st7" d="M742.3,176.5v14.9c0.1,1.4,1.2,2.3,3.4,2.6l-0.2,3.4c-3.1,0-5.4-0.8-6.9-2.3c-3.5,1.6-7,2.3-10.5,2.3
		c-2.7,0-4.7-0.8-6.1-2.3c-1.4-1.5-2.1-3.7-2.1-6.5c0-2.8,0.7-4.9,2.2-6.3c1.4-1.3,3.7-2.2,6.8-2.5l9.2-0.9v-2.5
		c0-2-0.4-3.4-1.3-4.3c-0.9-0.9-2-1.3-3.5-1.3c-3.1,0-6.3,0.2-9.7,0.6l-1.8,0.2l-0.2-3.3c4.3-0.9,8.1-1.3,11.4-1.3
		c3.3,0,5.7,0.8,7.2,2.3C741.6,170.9,742.3,173.3,742.3,176.5z M724.3,188.4c0,3.6,1.5,5.4,4.4,5.4c2.6,0,5.3-0.4,7.8-1.3l1.3-0.5
		v-9.6l-8.6,0.8c-1.8,0.2-3,0.7-3.8,1.5C724.7,185.6,724.3,186.8,724.3,188.4z"/>
	<path class="st7" d="M784.4,176.5v14.9c0.1,1.4,1.2,2.3,3.4,2.6l-0.2,3.4c-3.1,0-5.4-0.8-6.9-2.3c-3.5,1.6-7,2.3-10.5,2.3
		c-2.7,0-4.7-0.8-6.1-2.3c-1.4-1.5-2.1-3.7-2.1-6.5c0-2.8,0.7-4.9,2.2-6.3c1.4-1.3,3.7-2.2,6.8-2.5l9.2-0.9v-2.5
		c0-2-0.4-3.4-1.3-4.3c-0.9-0.9-2-1.3-3.5-1.3c-3.1,0-6.3,0.2-9.7,0.6l-1.8,0.2l-0.2-3.3c4.3-0.9,8.1-1.3,11.4-1.3
		c3.3,0,5.7,0.8,7.2,2.3C783.6,170.9,784.4,173.3,784.4,176.5z M766.4,188.4c0,3.6,1.5,5.4,4.4,5.4c2.6,0,5.3-0.4,7.8-1.3l1.3-0.5
		v-9.6l-8.6,0.8c-1.8,0.2-3,0.7-3.8,1.5C766.8,185.6,766.4,186.8,766.4,188.4z"/>
	<path class="st7" d="M802.2,171c-4.2,0-6.4,1.5-6.4,4.4c0,1.4,0.5,2.3,1.5,2.9c1,0.6,3.2,1.1,6.7,1.7c3.5,0.6,5.9,1.5,7.4,2.5
		c1.4,1.1,2.2,3.1,2.2,6.1c0,3-1,5.2-2.9,6.6c-1.9,1.4-4.7,2.1-8.4,2.1c-2.4,0-5.3-0.3-8.5-0.8l-1.8-0.3l0.2-3.8c4.4,0.7,7.8,1,10,1
		c2.3,0,4-0.4,5.2-1.1c1.2-0.7,1.8-1.9,1.8-3.6c0-1.7-0.5-2.8-1.5-3.4c-1-0.6-3.2-1.2-6.7-1.7c-3.4-0.5-5.9-1.3-7.3-2.4
		c-1.4-1.1-2.2-3-2.2-5.8c0-2.8,1-4.9,3-6.3c2-1.4,4.5-2,7.5-2c2.4,0,5.3,0.3,8.9,0.8l1.6,0.3l-0.1,3.7
		C808.1,171.3,804.7,171,802.2,171z"/>
	<path class="st7" d="M853.6,176.5v14.9c0.1,1.4,1.2,2.3,3.4,2.6l-0.2,3.4c-3.1,0-5.4-0.8-6.9-2.3c-3.5,1.6-7,2.3-10.5,2.3
		c-2.7,0-4.7-0.8-6.1-2.3c-1.4-1.5-2.1-3.7-2.1-6.5c0-2.8,0.7-4.9,2.2-6.3c1.4-1.3,3.7-2.2,6.8-2.5l9.2-0.9v-2.5
		c0-2-0.4-3.4-1.3-4.3c-0.9-0.9-2-1.3-3.5-1.3c-3.1,0-6.3,0.2-9.7,0.6l-1.8,0.2l-0.2-3.3c4.3-0.9,8.1-1.3,11.4-1.3
		c3.3,0,5.7,0.8,7.2,2.3C852.9,170.9,853.6,173.3,853.6,176.5z M835.6,188.4c0,3.6,1.5,5.4,4.4,5.4c2.6,0,5.3-0.4,7.8-1.3l1.3-0.5
		v-9.6l-8.6,0.8c-1.8,0.2-3,0.7-3.8,1.5C836,185.6,835.6,186.8,835.6,188.4z"/>
	<path class="st7" d="M887,159.8c-5.8,0-8.8,2.2-8.8,6.6c0,2.5,0.7,4.1,2,5c1.3,0.9,4.1,1.8,8.2,2.7c4.1,0.9,7,2.1,8.7,3.6
		c1.7,1.5,2.6,3.9,2.6,7.2c0,8.3-4.3,12.4-12.9,12.4c-2.8,0-6.4-0.3-10.7-1l-2.1-0.3l0.5-3.7c5.3,0.7,9.3,1.1,12.1,1.1
		c5.8,0,8.6-2.7,8.6-8.1c0-2.2-0.6-3.7-1.9-4.7c-1.3-1-3.6-1.8-7.1-2.4c-4.6-1-7.8-2.2-9.7-3.8c-1.9-1.5-2.9-4.1-2.9-7.7
		c0-7.2,4.3-10.9,13-10.9c2.8,0,6.2,0.3,10.2,0.9l2,0.3l-0.4,3.8C893.1,160.2,889.2,159.8,887,159.8z"/>
	<path class="st7" d="M921.3,171.5H912v13.9c0,3.3,0.2,5.5,0.7,6.6c0.5,1.1,1.6,1.6,3.5,1.6l5.2-0.3l0.3,3.6c-2.6,0.4-4.6,0.6-6,0.6
		c-3,0-5.1-0.7-6.3-2.2c-1.2-1.5-1.8-4.3-1.8-8.5v-15.3h-4.1v-3.8h4.1v-8.9h4.3v8.9h9.3V171.5z"/>
	<path class="st7" d="M926.7,196.9v-29.2h4.3v4c3.4-2.3,6.9-3.9,10.7-4.6v4.4c-1.6,0.3-3.3,0.8-5.1,1.5c-1.8,0.7-3.1,1.2-4.1,1.8
		l-1.5,0.8v21.4H926.7z"/>
	<path class="st7" d="M967.5,176.5v14.9c0.1,1.4,1.2,2.3,3.4,2.6l-0.2,3.4c-3.1,0-5.4-0.8-6.9-2.3c-3.5,1.6-7,2.3-10.5,2.3
		c-2.7,0-4.7-0.8-6.1-2.3c-1.4-1.5-2.1-3.7-2.1-6.5c0-2.8,0.7-4.9,2.2-6.3c1.4-1.3,3.7-2.2,6.8-2.5l9.2-0.9v-2.5
		c0-2-0.4-3.4-1.3-4.3c-0.9-0.9-2-1.3-3.5-1.3c-3.1,0-6.3,0.2-9.7,0.6l-1.8,0.2l-0.2-3.3c4.3-0.9,8.1-1.3,11.4-1.3
		c3.3,0,5.7,0.8,7.2,2.3C966.7,170.9,967.5,173.3,967.5,176.5z M949.5,188.4c0,3.6,1.5,5.4,4.4,5.4c2.6,0,5.3-0.4,7.8-1.3l1.3-0.5
		v-9.6l-8.6,0.8c-1.8,0.2-3,0.7-3.8,1.5C949.9,185.6,949.5,186.8,949.5,188.4z"/>
	<path class="st7" d="M991.2,171.5h-9.3v13.9c0,3.3,0.2,5.5,0.7,6.6c0.5,1.1,1.6,1.6,3.5,1.6l5.2-0.3l0.3,3.6
		c-2.6,0.4-4.6,0.6-6,0.6c-3,0-5.1-0.7-6.3-2.2c-1.2-1.5-1.8-4.3-1.8-8.5v-15.3h-4.1v-3.8h4.1v-8.9h4.3v8.9h9.3V171.5z"/>
	<path class="st7" d="M1016.4,193.3l1.7-0.2l0.1,3.4c-4.4,0.6-8.2,0.9-11.4,0.9c-4.2,0-7.2-1.2-8.9-3.6c-1.8-2.4-2.6-6.2-2.6-11.4
		c0-10.2,4.1-15.3,12.2-15.3c3.9,0,6.9,1.1,8.8,3.3c1.9,2.2,2.9,5.7,2.9,10.4l-0.2,3.3h-19.3c0,3.2,0.6,5.6,1.7,7.2
		c1.2,1.6,3.2,2.3,6.1,2.3C1010.5,193.6,1013.4,193.5,1016.4,193.3z M1014.9,180.6c0-3.6-0.6-6.1-1.7-7.6c-1.1-1.5-3-2.2-5.6-2.2
		c-2.6,0-4.5,0.8-5.8,2.3c-1.3,1.6-2,4-2,7.5H1014.9z"/>
	<path class="st7" d="M1037.3,210.6c-4.7,0-7.9-0.6-9.8-1.9c-1.8-1.3-2.8-3.6-2.8-6.9c0-1.6,0.4-2.9,1.1-3.9c0.7-1,1.9-2.1,3.6-3.4
		c-1.1-0.7-1.6-2.1-1.6-4c0-0.7,0.5-1.9,1.5-3.7l0.5-0.9c-3.1-1.4-4.6-4.3-4.6-8.8c0-6.7,3.6-10,10.9-10c1.9,0,3.6,0.2,5.2,0.6
		l0.9,0.2l8.6-0.2v3.7l-5.5-0.1c1.3,1.3,1.9,3.2,1.9,5.8c0,3.7-0.9,6.2-2.7,7.7c-1.8,1.5-4.7,2.2-8.5,2.2c-1.1,0-2-0.1-2.9-0.2
		c-0.7,1.7-1.1,2.8-1.1,3.3c0,1.2,0.4,2,1.1,2.2s3,0.4,6.7,0.4c3.7,0,6.4,0.6,8.1,1.8c1.6,1.2,2.5,3.4,2.5,6.8
		C1050.3,207.5,1046,210.6,1037.3,210.6z M1029.1,201.4c0,2.1,0.6,3.5,1.7,4.3c1.1,0.8,3.3,1.2,6.4,1.2c3.1,0,5.3-0.4,6.7-1.3
		c1.3-0.9,2-2.3,2-4.3c0-2-0.5-3.3-1.5-3.9c-1-0.6-2.9-0.9-5.7-0.9l-6.3-0.3c-1.3,0.9-2.2,1.8-2.6,2.5
		C1029.3,199.5,1029.1,200.4,1029.1,201.4z M1029.5,177.1c0,2.3,0.5,3.9,1.5,4.9c1,1,2.7,1.5,5.1,1.5c2.4,0,4.1-0.5,5.1-1.5
		c1-1,1.5-2.6,1.5-4.9c0-2.3-0.5-4-1.5-4.9c-1-1-2.7-1.5-5.1-1.5c-2.4,0-4.1,0.5-5.1,1.5C1030,173.2,1029.5,174.8,1029.5,177.1z"/>
	<path class="st7" d="M1056.1,161.1V156h4.4v5.1H1056.1z M1056.1,196.9v-29.2h4.4v29.2H1056.1z"/>
	<path class="st7" d="M1079.8,167.1c1.3,0,3.5,0.2,6.5,0.7l1.4,0.2l-0.2,3.6c-3.1-0.4-5.4-0.5-6.9-0.5c-3.3,0-5.6,0.8-6.7,2.4
		c-1.2,1.6-1.8,4.5-1.8,8.8s0.6,7.2,1.7,8.9c1.1,1.7,3.4,2.5,6.9,2.5l6.9-0.5l0.2,3.6c-3.6,0.5-6.3,0.8-8.1,0.8
		c-4.6,0-7.7-1.2-9.4-3.5c-1.7-2.3-2.6-6.3-2.6-11.8c0-5.5,0.9-9.4,2.8-11.7C1072.3,168.2,1075.4,167.1,1079.8,167.1z"/>
	<path class="st7" d="M1104.3,196.9l11.1-40.4h9.8l11.1,40.4h-4.4l-2.9-10.4h-17.3l-2.9,10.4H1104.3z M1118.8,160.4l-6.1,22.1h15.3
		l-6.1-22.1H1118.8z"/>
	<path class="st7" d="M1151.1,171c-4.2,0-6.4,1.5-6.4,4.4c0,1.4,0.5,2.3,1.5,2.9c1,0.6,3.2,1.1,6.7,1.7c3.5,0.6,5.9,1.5,7.4,2.5
		c1.4,1.1,2.2,3.1,2.2,6.1c0,3-1,5.2-2.9,6.6c-1.9,1.4-4.7,2.1-8.4,2.1c-2.4,0-5.3-0.3-8.5-0.8l-1.8-0.3l0.2-3.8c4.4,0.7,7.8,1,10,1
		c2.3,0,4-0.4,5.2-1.1c1.2-0.7,1.8-1.9,1.8-3.6c0-1.7-0.5-2.8-1.5-3.4c-1-0.6-3.2-1.2-6.7-1.7c-3.4-0.5-5.9-1.3-7.3-2.4
		c-1.4-1.1-2.2-3-2.2-5.8c0-2.8,1-4.9,3-6.3c2-1.4,4.5-2,7.5-2c2.4,0,5.3,0.3,8.9,0.8l1.6,0.3l-0.1,3.7
		C1157,171.3,1153.6,171,1151.1,171z"/>
	<path class="st7" d="M1178.2,171c-4.2,0-6.4,1.5-6.4,4.4c0,1.4,0.5,2.3,1.5,2.9c1,0.6,3.2,1.1,6.7,1.7c3.5,0.6,5.9,1.5,7.4,2.5
		c1.4,1.1,2.2,3.1,2.2,6.1c0,3-1,5.2-2.9,6.6c-1.9,1.4-4.7,2.1-8.4,2.1c-2.4,0-5.3-0.3-8.5-0.8l-1.8-0.3l0.2-3.8c4.4,0.7,7.8,1,10,1
		s4-0.4,5.2-1.1c1.2-0.7,1.8-1.9,1.8-3.6c0-1.7-0.5-2.8-1.5-3.4c-1-0.6-3.2-1.2-6.7-1.7c-3.4-0.5-5.9-1.3-7.3-2.4
		c-1.4-1.1-2.2-3-2.2-5.8c0-2.8,1-4.9,3-6.3c2-1.4,4.5-2,7.5-2c2.4,0,5.3,0.3,8.9,0.8l1.6,0.3l-0.1,3.7
		C1184.1,171.3,1180.7,171,1178.2,171z"/>
	<path class="st7" d="M1216,193.3l1.7-0.2l0.1,3.4c-4.4,0.6-8.2,0.9-11.4,0.9c-4.2,0-7.2-1.2-8.9-3.6c-1.8-2.4-2.6-6.2-2.6-11.4
		c0-10.2,4.1-15.3,12.2-15.3c3.9,0,6.9,1.1,8.8,3.3c1.9,2.2,2.9,5.7,2.9,10.4l-0.2,3.3h-19.3c0,3.2,0.6,5.6,1.7,7.2
		c1.2,1.6,3.2,2.3,6.1,2.3C1210.1,193.6,1213,193.5,1216,193.3z M1214.5,180.6c0-3.6-0.6-6.1-1.7-7.6c-1.1-1.5-3-2.2-5.6-2.2
		c-2.6,0-4.5,0.8-5.8,2.3c-1.3,1.6-2,4-2,7.5H1214.5z"/>
	<path class="st7" d="M1240.6,171.5h-9.3v13.9c0,3.3,0.2,5.5,0.7,6.6s1.6,1.6,3.5,1.6l5.2-0.3l0.3,3.6c-2.6,0.4-4.6,0.6-6,0.6
		c-3,0-5.1-0.7-6.3-2.2c-1.2-1.5-1.8-4.3-1.8-8.5v-15.3h-4.1v-3.8h4.1v-8.9h4.3v8.9h9.3V171.5z"/>
</g>
</svg>
