<?xml version="1.0" encoding="utf-8"?>
<!-- Generator: Adobe Illustrator 23.0.2, SVG Export Plug-In . SVG Version: 6.00 Build 0)  -->
<svg version="1.1" id="Layer_1" xmlns="http://www.w3.org/2000/svg" xmlns:xlink="http://www.w3.org/1999/xlink" x="0px" y="0px"
	 viewBox="0 0 287.026 508.475" enable-background="new 0 0 287.026 508.475" xml:space="preserve">
<rect x="-10.41" y="-43.853" fill="#112E51" width="430.769" height="834.615"/>
<line fill="none" stroke="#FFFFFF" stroke-width="4" stroke-miterlimit="10" x1="45" y1="-0.109" x2="45" y2="508.891"/>
<g>
	<g>
		<defs>
			<rect id="SVGID_1_" x="76.297" y="57.625" width="41.6" height="33.8"/>
		</defs>
		<clipPath id="SVGID_2_">
			<use xlink:href="#SVGID_1_"  overflow="visible"/>
		</clipPath>
		<rect x="76.297" y="57.625" clip-path="url(#SVGID_2_)" fill="#FFFFFF" fill-opacity="0" width="41.6" height="33.8"/>
	</g>
	<g>
		<defs>
			<rect id="SVGID_3_" x="76.297" y="57.625" width="41.6" height="33.8"/>
		</defs>
		<clipPath id="SVGID_4_">
			<use xlink:href="#SVGID_3_"  overflow="visible"/>
		</clipPath>
		<path clip-path="url(#SVGID_4_)" fill="#FFFFFF" d="M79.133,76.402c-1.568,0-2.837,1.264-2.837,2.818
			c0,1.555,1.269,2.816,2.837,2.816c1.565,0,2.834-1.261,2.834-2.816C81.967,77.666,80.699,76.402,79.133,76.402 M79.133,67.014
			c-1.568,0-2.837,1.264-2.837,2.816c0,1.555,1.269,2.816,2.837,2.816c1.565,0,2.834-1.261,2.834-2.816
			C81.967,68.277,80.699,67.014,79.133,67.014 M79.133,85.791c-1.568,0-2.837,1.261-2.837,2.818c0,1.555,1.269,2.816,2.837,2.816
			c1.565,0,2.834-1.261,2.834-2.816C81.967,87.052,80.699,85.791,79.133,85.791 M86.697,61.379h30.254
			c0.523,0,0.946-0.419,0.946-0.939c0-0.517-0.424-0.939-0.946-0.939H86.697c-0.523,0-0.946,0.421-0.946,0.939
			C85.75,60.961,86.174,61.379,86.697,61.379 M116.95,87.671H86.697c-0.523,0-0.946,0.421-0.946,0.939
			c0,0.52,0.424,0.939,0.946,0.939h30.254c0.523,0,0.946-0.419,0.946-0.939S117.473,87.671,116.95,87.671 M79.133,57.625
			c-1.568,0-2.837,1.264-2.837,2.816c0,1.555,1.269,2.816,2.837,2.816c1.565,0,2.834-1.261,2.834-2.816
			C81.967,58.889,80.699,57.625,79.133,57.625 M116.95,68.891H86.697c-0.523,0-0.946,0.421-0.946,0.939
			c0,0.52,0.424,0.941,0.946,0.941h30.254c0.523,0,0.946-0.421,0.946-0.941C117.897,69.312,117.473,68.891,116.95,68.891
			 M116.95,78.279H86.697c-0.523,0-0.946,0.421-0.946,0.939c0,0.52,0.424,0.939,0.946,0.939h30.254
			c0.523,0.003,0.946-0.419,0.946-0.936C117.897,78.701,117.473,78.279,116.95,78.279"/>
	</g>
</g>
<g>
	<g>
		<defs>
			<rect id="SVGID_5_" x="80.197" y="172.748" width="33.8" height="41.6"/>
		</defs>
		<clipPath id="SVGID_6_">
			<use xlink:href="#SVGID_5_"  overflow="visible"/>
		</clipPath>
		<rect x="80.197" y="172.748" clip-path="url(#SVGID_6_)" fill="#FFFFFF" fill-opacity="0" width="33.8" height="41.6"/>
	</g>
	<g>
		<defs>
			<rect id="SVGID_7_" x="80.197" y="172.748" width="33.8" height="41.6"/>
		</defs>
		<clipPath id="SVGID_8_">
			<use xlink:href="#SVGID_7_"  overflow="visible"/>
		</clipPath>
		<path clip-path="url(#SVGID_8_)" fill="#FFFFFF" d="M98.035,201.112H86.77c-0.52,0-0.939,0.424-0.939,0.946
			s0.419,0.946,0.939,0.946h11.266c0.52,0,0.939-0.421,0.939-0.946C98.974,201.536,98.555,201.112,98.035,201.112 M94.281,206.785
			H86.77c-0.52,0-0.939,0.424-0.939,0.946s0.419,0.946,0.939,0.946h7.511c0.52,0,0.939-0.424,0.939-0.946
			S94.798,206.785,94.281,206.785 M86.77,191.658h3.754c0.52,0,0.939-0.421,0.939-0.946c0-0.523-0.419-0.946-0.939-0.946H86.77
			c-0.52,0-0.939,0.424-0.939,0.946S86.25,191.658,86.77,191.658 M85.831,196.385c0,0.523,0.419,0.946,0.939,0.946h11.266
			c0.52,0,0.939-0.424,0.939-0.946s-0.419-0.946-0.939-0.946H86.77C86.25,195.439,85.831,195.862,85.831,196.385 M107.424,172.748
			H93.342c-2.075,0-3.757,1.693-3.757,3.783v2.834c0,0.523,0.419,0.946,0.939,0.946c0.52,0,0.939-0.421,0.939-0.946v-2.834
			c0-1.043,0.842-1.89,1.877-1.89h11.266v5.671c0,1.043,0.842,1.89,1.877,1.89h5.634v18.91c0,1.043-0.842,1.89-1.877,1.89h-2.816
			c-0.52,0-0.939,0.424-0.939,0.946s0.419,0.946,0.939,0.946h2.816c2.072,0,3.754-1.693,3.754-3.783v-20.8L107.424,172.748z
			 M106.485,180.312v-5.525l4.896,5.525H106.485z M83.951,182.202c-2.072,0-3.754,1.693-3.754,3.783v24.58
			c0,2.09,1.682,3.783,3.754,3.783h16.9c2.072,0,3.754-1.693,3.754-3.783v-20.8l-6.57-7.563H83.951z M102.731,210.565
			c0,1.045-0.842,1.89-1.877,1.89h-16.9c-1.035,0-1.877-0.845-1.877-1.89v-24.58c0-1.043,0.842-1.89,1.877-1.89H95.22v5.671
			c0,1.043,0.842,1.89,1.877,1.89h5.634V210.565z M97.097,189.765v-5.525l4.896,5.525H97.097z"/>
	</g>
</g>
<g>
	<path fill="#FFFFFF" d="M110.242,291.772H83.951c-2.072,0-3.754,1.693-3.754,3.783v34.034c0,2.088,1.682,3.783,3.754,3.783h26.289
		c2.075,0,3.757-1.695,3.757-3.783v-34.034C113.997,293.464,112.315,291.772,110.242,291.772 M102.731,293.662h3.754v6.617
		l-1.877-1.89l-1.877,1.893V293.662z M87.708,331.479h-3.757c-1.035,0-1.877-0.845-1.877-1.89v-34.034
		c0-1.043,0.842-1.89,1.877-1.89h3.754v37.814H87.708z M112.12,329.589c0,1.043-0.842,1.89-1.877,1.89H89.585v-37.817h11.266v11.344
		l3.754-3.78l3.754,3.78v-11.344h1.877c1.035,0,1.877,0.848,1.877,1.89v34.037H112.12z"/>
</g>
<g>
	<g>
		<defs>
			<rect id="SVGID_9_" x="76.297" y="410.795" width="41.6" height="41.6"/>
		</defs>
		<clipPath id="SVGID_10_">
			<use xlink:href="#SVGID_9_"  overflow="visible"/>
		</clipPath>
		<rect x="76.297" y="410.795" clip-path="url(#SVGID_10_)" fill="#FFFFFF" fill-opacity="0" width="41.6" height="41.6"/>
	</g>
	<g>
		<defs>
			<rect id="SVGID_11_" x="76.297" y="410.795" width="41.6" height="41.6"/>
		</defs>
		<clipPath id="SVGID_12_">
			<use xlink:href="#SVGID_11_"  overflow="visible"/>
		</clipPath>
		<path clip-path="url(#SVGID_12_)" fill="#FFFFFF" d="M99.933,427.812h9.454c0.523,0,0.946-0.421,0.946-0.946
			c0-0.52-0.424-0.944-0.946-0.944h-9.454c-0.523,0-0.946,0.424-0.946,0.944C98.987,427.391,99.411,427.812,99.933,427.812
			 M99.933,424.032h5.671c0.523,0,0.946-0.424,0.946-0.946c0-0.523-0.424-0.946-0.946-0.946h-5.671
			c-0.523,0-0.946,0.424-0.946,0.946C98.987,423.608,99.411,424.032,99.933,424.032 M99.933,431.595h3.78
			c0.523,0,0.946-0.424,0.946-0.946c0-0.523-0.424-0.946-0.946-0.946h-3.78c-0.523,0-0.946,0.424-0.946,0.946
			C98.987,431.171,99.411,431.595,99.933,431.595 M85.75,435.378h7.563c1.043,0,1.89-0.845,1.89-1.89v-9.456
			c0-1.043-0.848-1.89-1.89-1.89H85.75c-1.043,0-1.89,0.848-1.89,1.89v9.454C83.86,434.533,84.708,435.378,85.75,435.378
			 M85.75,424.032h7.563v9.454H85.75V424.032z M99.933,435.378h9.454c0.523,0,0.946-0.424,0.946-0.946
			c0-0.523-0.424-0.946-0.946-0.946h-9.454c-0.523,0-0.946,0.424-0.946,0.946C98.987,434.954,99.411,435.378,99.933,435.378
			 M116.007,412.685h-17.02c0-1.043-0.848-1.89-1.89-1.89c-1.043,0-1.89,0.848-1.89,1.89h-17.02c-1.043,0-1.89,0.848-1.89,1.893
			v1.89c0,1.045,0.848,1.89,1.89,1.89v22.69c0,1.045,0.848,1.89,1.89,1.89h16.071v2.444l-5.398,5.398
			c-0.169,0.172-0.276,0.408-0.276,0.668c0.005,0.523,0.429,0.946,0.952,0.946c0.26,0,0.497-0.107,0.668-0.278l5.002-5.002
			l5.002,5.002c0.172,0.172,0.408,0.278,0.668,0.278c0.523,0,0.946-0.424,0.946-0.946c0-0.26-0.107-0.497-0.276-0.668l-5.398-5.398
			v-2.444h16.071c1.043,0,1.89-0.845,1.89-1.89v-22.69c1.048,0,1.895-0.845,1.895-1.893v-1.888
			C117.897,413.533,117.049,412.685,116.007,412.685 M114.114,441.049H80.08v-22.69h34.034V441.049z M116.007,416.466h-37.82v-1.888
			h37.817v1.888H116.007z"/>
	</g>
</g>
<circle fill="#B2B2B2" cx="45.25" cy="74.525" r="7.927"/>
<circle fill="#B2B2B2" cx="45.25" cy="193.548" r="7.927"/>
<circle fill="#C40000" cx="45.25" cy="312.572" r="7.927"/>
<circle fill="#B2B2B2" cx="45.25" cy="431.595" r="7.927"/>
<g>
	<rect x="136.296" y="58.031" fill="none" width="79.268" height="20.122"/>
	<path fill="#B2B2B2" d="M136.568,68.146l1.7-1.258c0.408,0.748,0.986,1.105,1.547,1.105c0.901,0,1.377-0.459,1.377-1.938v-7.19
		h2.499v7.395c0,2.142-1.104,3.893-3.552,3.893C138.455,70.152,137.333,69.489,136.568,68.146z"/>
	<path fill="#B2B2B2" d="M145.969,66.752v-5.235h2.499v4.913c0,1.207,0.323,1.598,1.054,1.598c0.629,0,1.003-0.272,1.496-0.935
		v-5.575h2.499v8.431h-2.04l-0.187-1.173h-0.051c-0.714,0.85-1.496,1.377-2.652,1.377C146.75,70.152,145.969,68.86,145.969,66.752z"
		/>
	<path fill="#B2B2B2" d="M155.709,67.33v-9.298h2.499v9.4c0,0.527,0.238,0.697,0.442,0.697c0.102,0,0.17,0,0.306-0.034l0.306,1.853
		c-0.272,0.119-0.697,0.204-1.258,0.204C156.287,70.152,155.709,69.03,155.709,67.33z"/>
	<path fill="#B2B2B2" d="M160.316,73.076l0.442-1.903c0.153,0.034,0.374,0.102,0.561,0.102c0.833,0,1.258-0.442,1.479-1.104
		l0.119-0.442l-3.247-8.21h2.516l1.207,3.621c0.238,0.765,0.442,1.564,0.663,2.397h0.068c0.187-0.799,0.374-1.598,0.578-2.397
		l1.02-3.621h2.397l-2.924,8.516c-0.799,2.125-1.7,3.213-3.689,3.213C160.996,73.246,160.656,73.178,160.316,73.076z"/>
	<path fill="#B2B2B2" d="M172.352,68.52c2.754-2.601,4.691-4.454,4.691-5.983c0-1.054-0.595-1.632-1.53-1.632
		c-0.782,0-1.377,0.527-1.921,1.105l-1.36-1.343c1.071-1.139,2.074-1.717,3.621-1.717c2.125,0,3.57,1.36,3.57,3.434
		c0,1.819-1.7,3.757-3.451,5.593c0.544-0.068,1.292-0.136,1.802-0.136h2.176v2.108h-7.598V68.52z"/>
	<path fill="#B2B2B2" d="M181.328,64.509c0-3.671,1.547-5.559,3.858-5.559c2.312,0,3.859,1.887,3.859,5.559
		c0,3.671-1.547,5.644-3.859,5.644C182.875,70.152,181.328,68.18,181.328,64.509z M186.683,64.509c0-2.958-0.646-3.621-1.496-3.621
		c-0.833,0-1.496,0.663-1.496,3.621c0,2.941,0.663,3.706,1.496,3.706C186.037,68.214,186.683,67.45,186.683,64.509z"/>
	<path fill="#B2B2B2" d="M190.865,67.925h2.346v-6.238h-2.023V60.14c1.173-0.221,1.921-0.527,2.686-0.986h1.835v8.771h2.023v2.023
		h-6.867V67.925z"/>
	<path fill="#B2B2B2" d="M199.365,67.194c0-1.309,0.816-2.107,1.836-2.651v-0.068c-0.833-0.629-1.445-1.411-1.445-2.549
		c0-1.836,1.445-2.975,3.451-2.975c1.972,0,3.281,1.173,3.281,2.958c0,1.037-0.663,1.87-1.411,2.363v0.068
		c1.037,0.561,1.869,1.394,1.869,2.822c0,1.7-1.529,2.992-3.824,2.992C200.963,70.152,199.365,68.945,199.365,67.194z
		 M204.618,67.076c0-0.952-0.918-1.309-2.278-1.887c-0.476,0.442-0.833,1.054-0.833,1.717c0,0.952,0.766,1.513,1.666,1.513
		C204.006,68.418,204.618,67.976,204.618,67.076z M204.465,62.078c0-0.833-0.493-1.394-1.309-1.394
		c-0.663,0-1.207,0.408-1.207,1.241c0,0.884,0.748,1.309,1.853,1.733C204.227,63.166,204.465,62.639,204.465,62.078z"/>
</g>
<g>
	<rect x="136.296" y="80.153" fill="none" width="129.256" height="51.11"/>
	<path fill="#02BFE7" d="M138.423,83.308c0.406,0,0.753,0.144,1.04,0.431s0.431,0.634,0.431,1.04s-0.144,0.753-0.431,1.04
		s-0.634,0.431-1.04,0.431s-0.753-0.144-1.04-0.431s-0.431-0.634-0.431-1.04s0.143-0.753,0.428-1.04S138.013,83.308,138.423,83.308z
		 M138.423,83.753c-0.285,0-0.527,0.101-0.727,0.302s-0.299,0.442-0.299,0.724c0,0.285,0.101,0.527,0.302,0.727
		s0.442,0.299,0.724,0.299s0.522-0.1,0.724-0.299s0.302-0.441,0.302-0.727c0-0.281-0.1-0.522-0.299-0.724
		S138.708,83.753,138.423,83.753z"/>
	<path fill="#02BFE7" d="M145.875,80.878h1.463c2.183,0,3.334,1.139,3.334,3.07c0,2.854-1.595,4.797-4.257,4.797h-2.111
		L145.875,80.878z M146.415,87.978c2.039,0,3.31-1.631,3.31-3.97c0-1.487-0.839-2.375-2.423-2.375h-0.647l-1.271,6.345H146.415z"/>
	<path fill="#02BFE7" d="M152.523,82.917h0.755l-0.132,1.115h0.048c0.467-0.708,1.079-1.259,1.799-1.259
		c0.216,0,0.384,0.036,0.552,0.108l-0.324,0.815c-0.12-0.06-0.288-0.096-0.504-0.096c-0.576,0-1.223,0.516-1.715,1.463l-0.731,3.682
		h-0.912L152.523,82.917z"/>
	<path fill="#02BFE7" d="M155.44,86.779c0-2.243,1.535-4.006,3.154-4.006c0.624,0,1.127,0.348,1.403,0.875h0.048l0.228-0.731h0.743
		l-1.163,5.829h-0.756l0.096-0.863h-0.048c-0.564,0.6-1.295,1.007-2.027,1.007C156.1,88.889,155.44,88.146,155.44,86.779z
		 M159.29,87.006l0.527-2.603c-0.336-0.611-0.744-0.863-1.187-0.863c-1.164,0-2.243,1.487-2.243,3.094
		c0,1.007,0.42,1.487,1.067,1.487C158.066,88.122,158.714,87.762,159.29,87.006z"/>
	<path fill="#02BFE7" d="M162.951,83.66h-0.755l0.132-0.684l0.779-0.06l0.192-0.972c0.24-1.175,0.864-1.883,1.847-1.883
		c0.42,0,0.731,0.12,1.031,0.276l-0.324,0.671c-0.168-0.108-0.372-0.204-0.647-0.204c-0.528,0-0.852,0.432-0.983,1.115l-0.204,0.996
		h2.003l0.432-1.607h0.78l-0.324,1.607h1.475l-0.144,0.744h-1.499l-0.684,3.334c-0.024,0.144-0.036,0.276-0.036,0.432
		c0,0.48,0.192,0.72,0.744,0.72c0.228,0,0.432-0.096,0.612-0.18l0.192,0.66c-0.252,0.12-0.636,0.264-1.092,0.264
		c-1.019,0-1.391-0.576-1.391-1.295c0-0.24,0.012-0.432,0.06-0.647l0.684-3.286h-1.955l-1.031,5.085h-0.912L162.951,83.66z"/>
	<path fill="#02BFE7" d="M172.539,80.878h2.219c1.476,0,2.471,0.552,2.471,1.919c0,1.931-1.439,2.783-3.442,2.783h-1.259
		l-0.624,3.166h-0.936L172.539,80.878z M173.822,84.824c1.619,0,2.482-0.647,2.482-1.907c0-0.912-0.624-1.295-1.775-1.295h-1.211
		l-0.636,3.202H173.822z"/>
	<path fill="#02BFE7" d="M178.683,82.917h0.755l-0.132,1.115h0.048c0.467-0.708,1.079-1.259,1.799-1.259
		c0.216,0,0.384,0.036,0.552,0.108l-0.324,0.815c-0.12-0.06-0.288-0.096-0.504-0.096c-0.576,0-1.223,0.516-1.715,1.463l-0.731,3.682
		h-0.912L178.683,82.917z"/>
	<path fill="#02BFE7" d="M182.787,82.917h0.923l-1.175,5.829h-0.912L182.787,82.917z M182.966,81.165
		c0-0.396,0.324-0.695,0.696-0.695c0.312,0,0.588,0.204,0.588,0.552c0,0.396-0.324,0.684-0.696,0.684
		C183.242,81.705,182.966,81.514,182.966,81.165z"/>
	<path fill="#02BFE7" d="M185.631,82.917h0.755l-0.083,0.875h0.048c0.647-0.576,1.295-1.02,2.027-1.02
		c0.983,0,1.379,0.552,1.379,1.451c0,0.276-0.024,0.479-0.096,0.804l-0.744,3.718h-0.912l0.72-3.598
		c0.06-0.312,0.096-0.479,0.096-0.684c0-0.587-0.264-0.899-0.864-0.899c-0.456,0-1.02,0.324-1.751,1.055l-0.828,4.126h-0.912
		L185.631,82.917z"/>
	<path fill="#02BFE7" d="M190.839,86.551c0-2.171,1.559-3.778,3.25-3.778c0.696,0,1.164,0.312,1.511,0.708l-0.54,0.576
		c-0.3-0.36-0.576-0.528-1.032-0.528c-1.163,0-2.254,1.367-2.254,2.962c0,1.056,0.456,1.631,1.379,1.631
		c0.516,0,0.936-0.24,1.295-0.516l0.408,0.6c-0.419,0.324-1.02,0.684-1.871,0.684C191.715,88.889,190.839,88.038,190.839,86.551z"/>
	<path fill="#02BFE7" d="M197.15,82.917h0.923l-1.175,5.829h-0.912L197.15,82.917z M197.33,81.165c0-0.396,0.324-0.695,0.696-0.695
		c0.312,0,0.588,0.204,0.588,0.552c0,0.396-0.324,0.684-0.696,0.684C197.606,81.705,197.33,81.514,197.33,81.165z"/>
	<path fill="#02BFE7" d="M199.994,82.917h0.755l-0.072,0.768h0.036c0.588-0.492,1.283-0.912,2.015-0.912
		c1.02,0,1.68,0.755,1.68,2.111c0,2.243-1.535,4.006-3.143,4.006c-0.612,0-1.104-0.348-1.403-0.84h-0.024l-0.216,1.248l-0.372,1.907
		h-0.912L199.994,82.917z M203.461,85.015c0-0.983-0.408-1.475-1.068-1.475c-0.539,0-1.247,0.36-1.799,0.959l-0.552,2.782
		c0.324,0.6,0.732,0.84,1.188,0.84C202.393,88.122,203.461,86.635,203.461,85.015z"/>
	<path fill="#02BFE7" d="M205.407,88.134c0-0.132,0.023-0.3,0.071-0.503l1.476-7.424h0.924l-1.5,7.472
		c-0.023,0.12-0.023,0.18-0.023,0.228c0,0.144,0.084,0.216,0.204,0.216c0.048,0,0.084,0,0.191-0.036l0.012,0.708
		c-0.155,0.06-0.323,0.096-0.575,0.096C205.671,88.889,205.407,88.614,205.407,88.134z"/>
	<path fill="#02BFE7" d="M208.299,86.455c0-2.195,1.595-3.682,3.118-3.682c1.307,0,1.799,0.912,1.799,2.111
		c0,0.456-0.12,0.899-0.204,1.115h-3.79c-0.216,1.523,0.564,2.159,1.583,2.159c0.456,0,0.936-0.228,1.308-0.503l0.36,0.612
		c-0.468,0.335-1.128,0.624-1.884,0.624C209.21,88.889,208.299,88.014,208.299,86.455z M212.376,85.375
		c0.036-0.18,0.061-0.36,0.061-0.576c0-0.66-0.288-1.295-1.128-1.295c-0.852,0-1.69,0.744-1.99,1.871H212.376z"/>
	<path fill="#02BFE7" d="M213.579,87.786l0.575-0.456c0.36,0.503,0.888,0.852,1.499,0.852c0.672,0,1.235-0.408,1.235-0.972
		c0-0.42-0.264-0.647-1.163-1.151c-0.731-0.42-1.235-0.888-1.235-1.547c0-1.031,0.876-1.739,1.931-1.739
		c0.731,0,1.331,0.312,1.775,0.792l-0.552,0.48c-0.3-0.312-0.708-0.552-1.235-0.552c-0.611,0-1.043,0.419-1.043,0.911
		c0,0.48,0.516,0.744,1.031,1.032c0.983,0.552,1.367,0.947,1.367,1.655c0,1.092-0.947,1.799-2.183,1.799
		C214.802,88.889,213.975,88.433,213.579,87.786z"/>
	<path fill="#02BFE7" d="M136.935,98.938c0-0.41,0.146-0.76,0.437-1.049s0.64-0.434,1.046-0.434c0.41,0,0.761,0.145,1.052,0.434
		s0.437,0.639,0.437,1.049s-0.146,0.761-0.437,1.052s-0.642,0.437-1.052,0.437c-0.406,0-0.755-0.146-1.046-0.437
		S136.935,99.348,136.935,98.938z"/>
	<path fill="#02BFE7" d="M143.449,99.284c0-2.591,1.715-4.102,3.694-4.102c1.007,0,1.823,0.479,2.351,1.019l-0.935,1.127
		c-0.396-0.36-0.816-0.624-1.379-0.624c-1.067,0-1.919,0.947-1.919,2.519c0,1.607,0.744,2.542,1.895,2.542
		c0.636,0,1.139-0.324,1.523-0.731l0.936,1.104c-0.647,0.755-1.511,1.151-2.531,1.151
		C145.104,103.289,143.449,101.91,143.449,99.284z"/>
	<path fill="#02BFE7" d="M150.385,101.49c0-1.247,0.995-1.931,3.346-2.17c-0.036-0.528-0.288-0.864-0.936-0.864
		c-0.504,0-0.996,0.204-1.571,0.54l-0.636-1.163c0.756-0.456,1.607-0.78,2.542-0.78c1.523,0,2.363,0.864,2.363,2.687v3.406h-1.439
		l-0.12-0.612h-0.048c-0.504,0.444-1.056,0.756-1.727,0.756C151.069,103.289,150.385,102.498,150.385,101.49z M153.731,101.418
		v-1.043c-1.248,0.168-1.655,0.528-1.655,0.983c0,0.384,0.264,0.564,0.684,0.564C153.156,101.922,153.419,101.73,153.731,101.418z"
		/>
	<path fill="#02BFE7" d="M156.985,101.298v-6.56h1.763v6.632c0,0.372,0.168,0.492,0.312,0.492c0.072,0,0.12,0,0.216-0.024
		l0.216,1.307c-0.192,0.084-0.492,0.144-0.888,0.144C157.393,103.289,156.985,102.498,156.985,101.298z"/>
	<path fill="#02BFE7" d="M160.417,101.298v-6.56h1.763v6.632c0,0.372,0.168,0.492,0.312,0.492c0.072,0,0.12,0,0.216-0.024
		l0.216,1.307c-0.192,0.084-0.492,0.144-0.887,0.144C160.825,103.289,160.417,102.498,160.417,101.298z"/>
	<path fill="#02BFE7" d="M166.549,98.576h-0.792v-1.308l0.792-0.06v-0.324c0-1.259,0.587-2.291,2.195-2.291
		c0.492,0,0.923,0.12,1.187,0.216l-0.324,1.295c-0.204-0.072-0.42-0.12-0.612-0.12c-0.432,0-0.684,0.24-0.684,0.852v0.36h1.067
		v1.379h-1.067v4.569h-1.763V98.576z"/>
	<path fill="#02BFE7" d="M169.873,100.171c0-1.979,1.391-3.119,2.902-3.119c1.5,0,2.891,1.14,2.891,3.119
		c0,1.979-1.391,3.118-2.891,3.118C171.264,103.289,169.873,102.15,169.873,100.171z M173.867,100.171
		c0-1.032-0.372-1.691-1.092-1.691c-0.731,0-1.091,0.66-1.091,1.691c0,1.031,0.36,1.691,1.091,1.691
		C173.495,101.862,173.867,101.202,173.867,100.171z"/>
	<path fill="#02BFE7" d="M176.88,97.197h1.439l0.12,1.043h0.048c0.432-0.804,1.08-1.188,1.691-1.188c0.336,0,0.54,0.048,0.708,0.12
		l-0.288,1.523c-0.216-0.06-0.396-0.096-0.647-0.096c-0.444,0-0.996,0.288-1.308,1.091v3.454h-1.763V97.197z"/>
	<path fill="#02BFE7" d="M184.2,95.326h2.675c1.619,0,2.878,0.444,2.878,1.943c0,0.696-0.384,1.451-1.02,1.691v0.048
		c0.792,0.204,1.403,0.792,1.403,1.835c0,1.595-1.343,2.303-3.035,2.303H184.2V95.326z M186.791,98.456
		c0.863,0,1.235-0.36,1.235-0.923c0-0.612-0.396-0.84-1.224-0.84h-0.839v1.763H186.791z M186.958,101.778
		c0.959,0,1.451-0.336,1.451-1.056c0-0.684-0.48-0.959-1.451-0.959h-0.996v2.015H186.958z"/>
	<path fill="#02BFE7" d="M190.968,100.171c0-1.931,1.379-3.119,2.807-3.119c1.691,0,2.531,1.235,2.531,2.854
		c0,0.312-0.036,0.636-0.072,0.78h-3.562c0.156,0.863,0.756,1.259,1.547,1.259c0.444,0,0.852-0.132,1.283-0.396l0.587,1.067
		c-0.611,0.42-1.403,0.672-2.111,0.672C192.275,103.289,190.968,102.138,190.968,100.171z M194.806,99.523
		c0-0.66-0.288-1.127-0.995-1.127c-0.552,0-1.032,0.372-1.151,1.127H194.806z"/>
	<path fill="#02BFE7" d="M197.004,102.462l0.792-1.104c0.54,0.408,1.031,0.624,1.535,0.624c0.528,0,0.755-0.192,0.755-0.503
		c0-0.396-0.6-0.576-1.211-0.815c-0.72-0.276-1.547-0.768-1.547-1.751c0-1.103,0.912-1.859,2.279-1.859
		c0.912,0,1.596,0.372,2.099,0.756l-0.792,1.055c-0.419-0.312-0.839-0.503-1.247-0.503c-0.456,0-0.684,0.167-0.684,0.467
		c0,0.384,0.527,0.528,1.139,0.756c0.756,0.276,1.607,0.696,1.607,1.787c0,1.079-0.852,1.919-2.447,1.919
		C198.503,103.289,197.604,102.953,197.004,102.462z"/>
	<path fill="#02BFE7" d="M202.848,100.987v-2.411h-0.815v-1.308l0.911-0.072l0.204-1.583h1.463v1.583h1.428v1.379h-1.428v2.387
		c0,0.671,0.301,0.947,0.768,0.947c0.192,0,0.408-0.06,0.564-0.12l0.275,1.284c-0.312,0.096-0.743,0.216-1.319,0.216
		C203.424,103.289,202.848,102.366,202.848,100.987z"/>
	<path fill="#02BFE7" d="M209.748,95.326h2.687c1.715,0,3.106,0.624,3.106,2.519c0,1.835-1.403,2.651-3.059,2.651h-0.972v2.65
		h-1.763V95.326z M212.374,99.092c0.972,0,1.439-0.432,1.439-1.248c0-0.815-0.527-1.115-1.487-1.115h-0.815v2.363H212.374z"/>
	<path fill="#02BFE7" d="M216.756,97.197h1.439l0.12,1.043h0.048c0.432-0.804,1.079-1.188,1.69-1.188c0.336,0,0.54,0.048,0.708,0.12
		l-0.288,1.523c-0.216-0.06-0.396-0.096-0.647-0.096c-0.443,0-0.995,0.288-1.308,1.091v3.454h-1.763V97.197z"/>
	<path fill="#02BFE7" d="M220.92,101.49c0-1.247,0.995-1.931,3.347-2.17c-0.036-0.528-0.288-0.864-0.936-0.864
		c-0.504,0-0.996,0.204-1.571,0.54l-0.636-1.163c0.756-0.456,1.607-0.78,2.542-0.78c1.523,0,2.363,0.864,2.363,2.687v3.406h-1.439
		l-0.12-0.612h-0.048c-0.504,0.444-1.056,0.756-1.727,0.756C221.604,103.289,220.92,102.498,220.92,101.49z M224.267,101.418v-1.043
		c-1.248,0.168-1.655,0.528-1.655,0.983c0,0.384,0.264,0.564,0.684,0.564C223.69,101.922,223.954,101.73,224.267,101.418z"/>
	<path fill="#02BFE7" d="M227.172,100.171c0-1.979,1.451-3.119,3.094-3.119c0.732,0,1.296,0.264,1.739,0.636l-0.827,1.139
		c-0.288-0.24-0.528-0.348-0.804-0.348c-0.852,0-1.392,0.66-1.392,1.691c0,1.031,0.564,1.691,1.332,1.691
		c0.384,0,0.755-0.192,1.067-0.432l0.695,1.151c-0.588,0.516-1.319,0.708-1.967,0.708
		C228.455,103.289,227.172,102.15,227.172,100.171z"/>
	<path fill="#02BFE7" d="M233.243,100.987v-2.411h-0.815v-1.308l0.911-0.072l0.204-1.583h1.463v1.583h1.428v1.379h-1.428v2.387
		c0,0.671,0.301,0.947,0.768,0.947c0.192,0,0.408-0.06,0.564-0.12l0.275,1.284c-0.312,0.096-0.743,0.216-1.319,0.216
		C233.819,103.289,233.243,102.366,233.243,100.987z"/>
	<path fill="#02BFE7" d="M237.479,95.398c0-0.552,0.408-0.924,0.996-0.924c0.587,0,0.995,0.372,0.995,0.924
		c0,0.563-0.408,0.923-0.995,0.923C237.888,96.321,237.479,95.961,237.479,95.398z M237.6,97.197h1.763v5.949H237.6V97.197z"/>
	<path fill="#02BFE7" d="M240.563,100.171c0-1.979,1.451-3.119,3.095-3.119c0.731,0,1.295,0.264,1.739,0.636l-0.828,1.139
		c-0.287-0.24-0.527-0.348-0.804-0.348c-0.852,0-1.391,0.66-1.391,1.691c0,1.031,0.563,1.691,1.331,1.691
		c0.384,0,0.756-0.192,1.067-0.432l0.695,1.151c-0.587,0.516-1.319,0.708-1.967,0.708
		C241.847,103.289,240.563,102.15,240.563,100.171z"/>
	<path fill="#02BFE7" d="M245.832,100.171c0-1.931,1.379-3.119,2.807-3.119c1.69,0,2.53,1.235,2.53,2.854
		c0,0.312-0.036,0.636-0.072,0.78h-3.562c0.155,0.863,0.756,1.259,1.547,1.259c0.443,0,0.852-0.132,1.283-0.396l0.588,1.067
		c-0.611,0.42-1.403,0.672-2.111,0.672C247.14,103.289,245.832,102.138,245.832,100.171z M249.67,99.523
		c0-0.66-0.288-1.127-0.995-1.127c-0.552,0-1.032,0.372-1.151,1.127H249.67z"/>
	<path fill="#02BFE7" d="M251.868,102.462l0.791-1.104c0.54,0.408,1.031,0.624,1.535,0.624c0.528,0,0.756-0.192,0.756-0.503
		c0-0.396-0.6-0.576-1.211-0.815c-0.72-0.276-1.548-0.768-1.548-1.751c0-1.103,0.912-1.859,2.279-1.859
		c0.911,0,1.595,0.372,2.099,0.756l-0.792,1.055c-0.42-0.312-0.839-0.503-1.247-0.503c-0.456,0-0.684,0.167-0.684,0.467
		c0,0.384,0.527,0.528,1.14,0.756c0.755,0.276,1.606,0.696,1.606,1.787c0,1.079-0.852,1.919-2.446,1.919
		C253.367,103.289,252.468,102.953,251.868,102.462z"/>
</g>
<g>
	<g>
		<path fill="#B2B2B2" d="M137.078,179.073c0-3.621,2.04-5.694,5.032-5.694s5.031,2.09,5.031,5.694c0,3.621-2.04,5.796-5.031,5.796
			S137.078,182.694,137.078,179.073z M144.575,179.073c0-2.21-0.952-3.536-2.465-3.536s-2.465,1.326-2.465,3.536
			c0,2.227,0.952,3.638,2.465,3.638S144.575,181.3,144.575,179.073z"/>
		<path fill="#B2B2B2" d="M148.536,180.45c0-2.805,2.057-4.42,4.386-4.42c1.037,0,1.836,0.374,2.465,0.901l-1.173,1.615
			c-0.408-0.34-0.748-0.493-1.139-0.493c-1.207,0-1.972,0.935-1.972,2.397c0,1.461,0.799,2.396,1.887,2.396
			c0.544,0,1.071-0.272,1.513-0.612l0.986,1.632c-0.833,0.731-1.87,1.003-2.788,1.003
			C150.355,184.869,148.536,183.255,148.536,180.45z"/>
		<path fill="#B2B2B2" d="M157.138,181.606v-3.417h-1.156v-1.853l1.292-0.102l0.289-2.244h2.074v2.244h2.023v1.955h-2.023v3.383
			c0,0.952,0.425,1.343,1.088,1.343c0.272,0,0.578-0.085,0.799-0.17l0.391,1.819c-0.442,0.136-1.054,0.306-1.87,0.306
			C157.954,184.869,157.138,183.56,157.138,181.606z"/>
		<path fill="#B2B2B2" d="M162.51,180.45c0-2.805,1.972-4.42,4.114-4.42c2.125,0,4.097,1.615,4.097,4.42
			c0,2.805-1.972,4.419-4.097,4.419C164.482,184.869,162.51,183.255,162.51,180.45z M168.171,180.45
			c0-1.462-0.527-2.397-1.547-2.397c-1.037,0-1.547,0.935-1.547,2.397c0,1.461,0.51,2.396,1.547,2.396
			C167.644,182.847,168.171,181.911,168.171,180.45z"/>
		<path fill="#B2B2B2" d="M174.665,183.764h-0.068l-0.204,0.901h-1.955v-11.916h2.499v2.924l-0.068,1.292
			c0.646-0.578,1.445-0.935,2.227-0.935c2.04,0,3.315,1.683,3.315,4.267c0,2.907-1.734,4.573-3.553,4.573
			C176.11,184.869,175.328,184.495,174.665,183.764z M177.844,180.348c0-1.513-0.459-2.278-1.462-2.278
			c-0.51,0-0.969,0.238-1.445,0.765v3.451c0.442,0.408,0.918,0.544,1.343,0.544C177.147,182.829,177.844,182.082,177.844,180.348z"
			/>
		<path fill="#B2B2B2" d="M181.686,180.45c0-2.737,1.955-4.42,3.978-4.42c2.397,0,3.587,1.751,3.587,4.046
			c0,0.442-0.051,0.901-0.102,1.104H184.1c0.221,1.224,1.071,1.785,2.192,1.785c0.629,0,1.207-0.187,1.819-0.561l0.833,1.513
			c-0.867,0.595-1.989,0.952-2.992,0.952C183.539,184.869,181.686,183.238,181.686,180.45z M187.125,179.532
			c0-0.935-0.408-1.598-1.411-1.598c-0.782,0-1.462,0.527-1.632,1.598H187.125z"/>
		<path fill="#B2B2B2" d="M190.985,176.234h2.04l0.17,1.479h0.068c0.612-1.139,1.53-1.683,2.396-1.683
			c0.476,0,0.765,0.068,1.003,0.17l-0.408,2.159c-0.306-0.085-0.561-0.136-0.918-0.136c-0.629,0-1.411,0.408-1.853,1.547v4.896
			h-2.499V176.234z"/>
		<path fill="#B2B2B2" d="M200.675,183.238c2.754-2.601,4.691-4.454,4.691-5.983c0-1.054-0.595-1.632-1.529-1.632
			c-0.782,0-1.377,0.527-1.921,1.105l-1.36-1.343c1.071-1.139,2.074-1.717,3.621-1.717c2.125,0,3.569,1.36,3.569,3.434
			c0,1.819-1.699,3.757-3.45,5.593c0.544-0.068,1.292-0.136,1.802-0.136h2.176v2.108h-7.599V183.238z"/>
		<path fill="#B2B2B2" d="M209.651,179.226c0-3.671,1.547-5.559,3.858-5.559s3.858,1.887,3.858,5.559s-1.547,5.644-3.858,5.644
			S209.651,182.897,209.651,179.226z M215.006,179.226c0-2.958-0.646-3.621-1.496-3.621c-0.833,0-1.496,0.663-1.496,3.621
			c0,2.941,0.663,3.706,1.496,3.706C214.359,182.931,215.006,182.167,215.006,179.226z"/>
		<path fill="#B2B2B2" d="M219.188,182.642h2.346v-6.238h-2.023v-1.547c1.173-0.221,1.921-0.527,2.687-0.986h1.835v8.771h2.023
			v2.023h-6.867V182.642z"/>
		<path fill="#B2B2B2" d="M227.688,181.911c0-1.309,0.815-2.107,1.836-2.651v-0.068c-0.833-0.629-1.445-1.411-1.445-2.549
			c0-1.836,1.445-2.975,3.451-2.975c1.972,0,3.28,1.173,3.28,2.958c0,1.037-0.663,1.87-1.411,2.363v0.068
			c1.037,0.561,1.87,1.394,1.87,2.822c0,1.7-1.53,2.992-3.824,2.992C229.286,184.869,227.688,183.662,227.688,181.911z
			 M232.94,181.793c0-0.952-0.918-1.309-2.277-1.887c-0.476,0.442-0.833,1.054-0.833,1.717c0,0.952,0.765,1.513,1.666,1.513
			C232.329,183.136,232.94,182.694,232.94,181.793z M232.788,176.795c0-0.833-0.493-1.394-1.31-1.394
			c-0.662,0-1.206,0.408-1.206,1.241c0,0.884,0.747,1.309,1.853,1.733C232.55,177.883,232.788,177.356,232.788,176.795z"/>
	</g>
</g>
<g>
	<rect x="136.296" y="192.87" fill="none" width="129.256" height="51.11"/>
	<path fill="#02BFE7" d="M136.935,197.256c0-0.41,0.146-0.76,0.437-1.049s0.64-0.434,1.046-0.434c0.41,0,0.761,0.145,1.052,0.434
		s0.437,0.639,0.437,1.049s-0.146,0.761-0.437,1.052s-0.642,0.437-1.052,0.437c-0.406,0-0.755-0.146-1.046-0.437
		S136.935,197.666,136.935,197.256z"/>
	<path fill="#02BFE7" d="M143.821,193.643h2.687c1.715,0,3.106,0.624,3.106,2.519c0,1.835-1.403,2.651-3.058,2.651h-0.972v2.65
		h-1.763V193.643z M146.447,197.409c0.972,0,1.439-0.432,1.439-1.248c0-0.815-0.528-1.115-1.487-1.115h-0.815v2.363H146.447z"/>
	<path fill="#02BFE7" d="M150.829,195.514h1.439l0.12,1.043h0.048c0.432-0.804,1.08-1.188,1.691-1.188
		c0.336,0,0.54,0.048,0.708,0.12l-0.288,1.523c-0.216-0.06-0.396-0.096-0.647-0.096c-0.444,0-0.996,0.288-1.308,1.091v3.454h-1.763
		V195.514z"/>
	<path fill="#02BFE7" d="M155.485,193.715c0-0.552,0.408-0.924,0.996-0.924c0.587,0,0.995,0.372,0.995,0.924
		c0,0.563-0.408,0.923-0.995,0.923C155.893,194.639,155.485,194.279,155.485,193.715z M155.605,195.514h1.763v5.949h-1.763V195.514z
		"/>
	<path fill="#02BFE7" d="M158.917,195.514h1.439l0.12,0.755h0.048c0.504-0.479,1.104-0.899,1.907-0.899
		c1.295,0,1.847,0.912,1.847,2.399v3.694h-1.763v-3.466c0-0.863-0.228-1.127-0.731-1.127c-0.444,0-0.72,0.204-1.104,0.576v4.018
		h-1.763V195.514z"/>
	<path fill="#02BFE7" d="M165.433,198.488c0-1.979,1.451-3.118,3.094-3.118c0.732,0,1.295,0.264,1.739,0.636l-0.828,1.14
		c-0.288-0.24-0.528-0.348-0.804-0.348c-0.852,0-1.391,0.66-1.391,1.691c0,1.032,0.564,1.691,1.332,1.691
		c0.384,0,0.755-0.192,1.067-0.432l0.695,1.151c-0.587,0.516-1.319,0.708-1.967,0.708
		C166.716,201.607,165.433,200.467,165.433,198.488z"/>
	<path fill="#02BFE7" d="M171.265,193.715c0-0.552,0.408-0.924,0.996-0.924c0.587,0,0.995,0.372,0.995,0.924
		c0,0.563-0.408,0.923-0.995,0.923C171.672,194.639,171.265,194.279,171.265,193.715z M171.385,195.514h1.763v5.949h-1.763V195.514z
		"/>
	<path fill="#02BFE7" d="M174.697,195.514h1.439l0.12,0.588h0.048c0.468-0.42,1.067-0.732,1.691-0.732
		c1.439,0,2.327,1.188,2.327,3.022c0,2.039-1.223,3.214-2.506,3.214c-0.516,0-0.996-0.228-1.416-0.624l0.06,0.947v1.739h-1.763
		V195.514z M178.51,198.416c0-1.067-0.324-1.607-1.031-1.607c-0.36,0-0.671,0.168-1.02,0.54v2.435
		c0.312,0.288,0.648,0.384,0.948,0.384C178.019,200.167,178.51,199.639,178.51,198.416z"/>
	<path fill="#02BFE7" d="M181.573,199.616v-6.56h1.763v6.632c0,0.372,0.168,0.492,0.312,0.492c0.072,0,0.12,0,0.216-0.024
		l0.216,1.307c-0.192,0.084-0.492,0.144-0.888,0.144C181.98,201.607,181.573,200.815,181.573,199.616z"/>
	<path fill="#02BFE7" d="M184.657,198.488c0-1.931,1.379-3.118,2.807-3.118c1.691,0,2.531,1.235,2.531,2.854
		c0,0.312-0.036,0.636-0.072,0.78h-3.562c0.156,0.863,0.756,1.259,1.547,1.259c0.443,0,0.852-0.132,1.283-0.396l0.587,1.067
		c-0.611,0.42-1.403,0.672-2.111,0.672C185.964,201.607,184.657,200.455,184.657,198.488z M188.495,197.841
		c0-0.66-0.288-1.127-0.995-1.127c-0.552,0-1.032,0.372-1.151,1.127H188.495z"/>
	<path fill="#02BFE7" d="M190.693,200.779l0.792-1.104c0.54,0.408,1.031,0.624,1.535,0.624c0.528,0,0.755-0.192,0.755-0.503
		c0-0.396-0.6-0.576-1.211-0.815c-0.72-0.276-1.547-0.768-1.547-1.751c0-1.103,0.912-1.859,2.279-1.859
		c0.912,0,1.595,0.372,2.099,0.756l-0.792,1.055c-0.42-0.312-0.839-0.503-1.247-0.503c-0.456,0-0.684,0.167-0.684,0.468
		c0,0.384,0.527,0.527,1.139,0.755c0.755,0.276,1.607,0.696,1.607,1.787c0,1.079-0.852,1.919-2.446,1.919
		C192.192,201.607,191.292,201.271,190.693,200.779z"/>
	<path fill="#02BFE7" d="M138.423,210.425c0.406,0,0.753,0.144,1.04,0.431s0.431,0.634,0.431,1.04s-0.144,0.753-0.431,1.04
		s-0.634,0.431-1.04,0.431s-0.753-0.144-1.04-0.431s-0.431-0.634-0.431-1.04s0.143-0.753,0.428-1.04
		S138.013,210.425,138.423,210.425z M138.423,210.87c-0.285,0-0.527,0.101-0.727,0.302s-0.299,0.442-0.299,0.724
		c0,0.285,0.101,0.527,0.302,0.727s0.442,0.299,0.724,0.299s0.522-0.1,0.724-0.299s0.302-0.441,0.302-0.727
		c0-0.281-0.1-0.522-0.299-0.724S138.708,210.87,138.423,210.87z"/>
	<path fill="#02BFE7" d="M145.875,207.995h1.463c2.183,0,3.334,1.139,3.334,3.07c0,2.854-1.595,4.797-4.257,4.797h-2.111
		L145.875,207.995z M146.415,215.095c2.039,0,3.31-1.631,3.31-3.97c0-1.487-0.839-2.375-2.423-2.375h-0.647l-1.271,6.345H146.415z"
		/>
	<path fill="#02BFE7" d="M152.523,210.034h0.755l-0.132,1.115h0.048c0.467-0.708,1.079-1.259,1.799-1.259
		c0.216,0,0.384,0.036,0.552,0.108l-0.324,0.815c-0.12-0.06-0.288-0.096-0.504-0.096c-0.576,0-1.223,0.516-1.715,1.463l-0.731,3.682
		h-0.912L152.523,210.034z"/>
	<path fill="#02BFE7" d="M155.44,213.896c0-2.243,1.535-4.006,3.154-4.006c0.624,0,1.127,0.348,1.403,0.875h0.048l0.228-0.731h0.743
		l-1.163,5.829h-0.756l0.096-0.864h-0.048c-0.564,0.6-1.295,1.008-2.027,1.008C156.1,216.007,155.44,215.263,155.44,213.896z
		 M159.29,214.123l0.527-2.603c-0.336-0.611-0.744-0.863-1.187-0.863c-1.164,0-2.243,1.487-2.243,3.094
		c0,1.007,0.42,1.487,1.067,1.487C158.066,215.239,158.714,214.879,159.29,214.123z"/>
	<path fill="#02BFE7" d="M162.951,210.777h-0.755l0.132-0.684l0.779-0.06l0.192-0.972c0.24-1.175,0.864-1.883,1.847-1.883
		c0.42,0,0.731,0.12,1.031,0.276l-0.324,0.671c-0.168-0.108-0.372-0.204-0.647-0.204c-0.528,0-0.852,0.432-0.983,1.115l-0.204,0.996
		h2.003l0.432-1.607h0.78l-0.324,1.607h1.475l-0.144,0.743h-1.499l-0.684,3.334c-0.024,0.144-0.036,0.276-0.036,0.432
		c0,0.48,0.192,0.72,0.744,0.72c0.228,0,0.432-0.096,0.612-0.18l0.192,0.66c-0.252,0.12-0.636,0.264-1.092,0.264
		c-1.019,0-1.391-0.576-1.391-1.295c0-0.24,0.012-0.432,0.06-0.647l0.684-3.287h-1.955l-1.031,5.085h-0.912L162.951,210.777z"/>
	<path fill="#02BFE7" d="M172.539,207.995h2.219c1.476,0,2.471,0.552,2.471,1.919c0,1.931-1.439,2.782-3.442,2.782h-1.259
		l-0.624,3.167h-0.936L172.539,207.995z M173.822,211.941c1.619,0,2.482-0.647,2.482-1.907c0-0.912-0.624-1.295-1.775-1.295h-1.211
		l-0.636,3.202H173.822z"/>
	<path fill="#02BFE7" d="M178.683,210.034h0.755l-0.132,1.115h0.048c0.467-0.708,1.079-1.259,1.799-1.259
		c0.216,0,0.384,0.036,0.552,0.108l-0.324,0.815c-0.12-0.06-0.288-0.096-0.504-0.096c-0.576,0-1.223,0.516-1.715,1.463l-0.731,3.682
		h-0.912L178.683,210.034z"/>
	<path fill="#02BFE7" d="M181.6,213.896c0-2.243,1.535-4.006,3.154-4.006c0.624,0,1.127,0.348,1.403,0.875h0.048l0.228-0.731h0.744
		l-1.164,5.829h-0.755l0.096-0.864h-0.048c-0.564,0.6-1.295,1.008-2.027,1.008C182.259,216.007,181.6,215.263,181.6,213.896z
		 M185.449,214.123l0.528-2.603c-0.335-0.611-0.744-0.863-1.187-0.863c-1.164,0-2.243,1.487-2.243,3.094
		c0,1.007,0.42,1.487,1.067,1.487C184.226,215.239,184.874,214.879,185.449,214.123z"/>
	<path fill="#02BFE7" d="M188.02,213.668c0-2.171,1.559-3.778,3.25-3.778c0.696,0,1.164,0.312,1.511,0.708l-0.54,0.576
		c-0.3-0.36-0.576-0.528-1.032-0.528c-1.163,0-2.254,1.367-2.254,2.962c0,1.056,0.456,1.631,1.379,1.631
		c0.516,0,0.936-0.24,1.295-0.516l0.408,0.6c-0.419,0.324-1.02,0.684-1.871,0.684C188.895,216.007,188.02,215.155,188.02,213.668z"
		/>
	<path fill="#02BFE7" d="M193.623,214.711c0-0.24,0.036-0.432,0.06-0.647l0.684-3.287h-0.852l0.132-0.684l0.912-0.06l0.432-1.607
		h0.779l-0.324,1.607h1.475l-0.144,0.743h-1.5l-0.684,3.334c-0.024,0.144-0.036,0.276-0.036,0.432c0,0.48,0.192,0.72,0.744,0.72
		c0.228,0,0.432-0.096,0.611-0.18l0.204,0.66c-0.264,0.12-0.648,0.264-1.104,0.264C193.995,216.007,193.623,215.431,193.623,214.711
		z"/>
	<path fill="#02BFE7" d="M198.23,210.034h0.923l-1.175,5.829h-0.912L198.23,210.034z M198.41,208.283
		c0-0.396,0.324-0.696,0.696-0.696c0.312,0,0.588,0.204,0.588,0.552c0,0.396-0.324,0.684-0.696,0.684
		C198.686,208.823,198.41,208.631,198.41,208.283z"/>
	<path fill="#02BFE7" d="M199.983,213.668c0-2.171,1.56-3.778,3.25-3.778c0.696,0,1.164,0.312,1.512,0.708l-0.54,0.576
		c-0.3-0.36-0.575-0.528-1.031-0.528c-1.163,0-2.255,1.367-2.255,2.962c0,1.056,0.456,1.631,1.379,1.631
		c0.517,0,0.936-0.24,1.296-0.516l0.407,0.6c-0.419,0.324-1.02,0.684-1.871,0.684C200.859,216.007,199.983,215.155,199.983,213.668z
		"/>
	<path fill="#02BFE7" d="M205.023,213.572c0-2.195,1.595-3.682,3.118-3.682c1.307,0,1.799,0.912,1.799,2.111
		c0,0.456-0.12,0.899-0.204,1.115h-3.79c-0.216,1.523,0.564,2.159,1.583,2.159c0.456,0,0.936-0.228,1.308-0.503l0.36,0.611
		c-0.468,0.336-1.128,0.624-1.884,0.624C205.935,216.007,205.023,215.131,205.023,213.572z M209.101,212.493
		c0.036-0.18,0.061-0.36,0.061-0.576c0-0.66-0.288-1.295-1.128-1.295c-0.852,0-1.69,0.744-1.99,1.871H209.101z"/>
	<path fill="#02BFE7" d="M210.304,214.903l0.575-0.456c0.36,0.503,0.888,0.852,1.499,0.852c0.672,0,1.235-0.408,1.235-0.972
		c0-0.42-0.264-0.647-1.163-1.151c-0.731-0.42-1.235-0.888-1.235-1.547c0-1.031,0.876-1.739,1.931-1.739
		c0.731,0,1.331,0.312,1.775,0.792l-0.552,0.479c-0.3-0.312-0.708-0.551-1.235-0.551c-0.611,0-1.043,0.419-1.043,0.911
		c0,0.48,0.516,0.744,1.031,1.032c0.983,0.552,1.367,0.947,1.367,1.655c0,1.092-0.947,1.799-2.183,1.799
		C211.526,216.007,210.699,215.551,210.304,214.903z"/>
</g>
<g>
	<rect x="136.296" y="291.772" fill="none" width="143.704" height="20.122"/>
	<path fill="#C40000" d="M137.605,292.606h2.736l1.785,4.93c0.221,0.646,0.425,1.36,0.646,2.04h0.068
		c0.221-0.68,0.408-1.394,0.629-2.04l1.751-4.93h2.72v11.083h-2.278v-4.062c0-1.088,0.204-2.703,0.323-3.774h-0.068l-0.901,2.635
		l-1.581,4.233h-1.377l-1.581-4.233l-0.884-2.635h-0.068c0.119,1.071,0.323,2.686,0.323,3.774v4.062h-2.244V292.606z"/>
	<path fill="#C40000" d="M149.964,301.343c0-1.768,1.411-2.737,4.743-3.077c-0.051-0.748-0.408-1.224-1.326-1.224
		c-0.714,0-1.411,0.289-2.227,0.765l-0.901-1.649c1.071-0.646,2.278-1.105,3.604-1.105c2.159,0,3.349,1.224,3.349,3.808v4.828h-2.04
		l-0.17-0.867h-0.068c-0.714,0.629-1.496,1.071-2.448,1.071C150.933,303.893,149.964,302.771,149.964,301.343z M154.707,301.241
		v-1.479c-1.768,0.238-2.346,0.748-2.346,1.394c0,0.544,0.374,0.799,0.969,0.799C153.891,301.955,154.265,301.683,154.707,301.241z"
		/>
	<path fill="#C40000" d="M159.059,306.816l0.442-1.903c0.153,0.034,0.374,0.102,0.561,0.102c0.833,0,1.258-0.442,1.479-1.104
		l0.119-0.442l-3.247-8.21h2.516l1.207,3.621c0.238,0.765,0.442,1.564,0.663,2.397h0.068c0.187-0.799,0.374-1.598,0.578-2.397
		l1.02-3.621h2.397l-2.924,8.516c-0.799,2.125-1.7,3.213-3.688,3.213C159.739,306.987,159.399,306.918,159.059,306.816z"/>
	<path fill="#C40000" d="M171.095,302.261c2.754-2.601,4.691-4.454,4.691-5.983c0-1.054-0.595-1.632-1.53-1.632
		c-0.782,0-1.377,0.527-1.921,1.105l-1.36-1.343c1.071-1.139,2.074-1.717,3.621-1.717c2.125,0,3.57,1.36,3.57,3.434
		c0,1.819-1.7,3.757-3.451,5.593c0.544-0.068,1.292-0.136,1.802-0.136h2.176v2.108h-7.598V302.261z"/>
	<path fill="#C40000" d="M180.071,298.249c0-3.671,1.547-5.559,3.859-5.559c2.312,0,3.858,1.887,3.858,5.559
		s-1.547,5.644-3.858,5.644C181.618,303.893,180.071,301.921,180.071,298.249z M185.425,298.249c0-2.958-0.646-3.621-1.496-3.621
		c-0.833,0-1.496,0.663-1.496,3.621c0,2.941,0.663,3.706,1.496,3.706C184.779,301.955,185.425,301.19,185.425,298.249z"/>
	<path fill="#C40000" d="M189.608,301.666h2.346v-6.238h-2.023v-1.547c1.173-0.221,1.921-0.527,2.686-0.986h1.835v8.771h2.023v2.023
		h-6.867V301.666z"/>
	<path fill="#C40000" d="M198.125,302.601l1.326-1.496c0.357,0.408,1.037,0.765,1.667,0.765c1.207,0,2.142-0.85,2.227-3.366
		c-0.561,0.714-1.496,1.139-2.159,1.139c-1.836,0-3.212-1.054-3.212-3.332c0-2.244,1.632-3.621,3.586-3.621
		c2.091,0,4.097,1.564,4.097,5.354c0,4.029-2.107,5.848-4.368,5.848C199.859,303.893,198.805,303.281,198.125,302.601z
		 M201.678,297.875c0.562,0,1.19-0.306,1.615-1.071c-0.222-1.7-0.918-2.244-1.684-2.244c-0.73,0-1.359,0.527-1.359,1.75
		C200.25,297.451,200.862,297.875,201.678,297.875z"/>
</g>
<g>
	<rect x="136.296" y="311.894" fill="none" width="129.256" height="51.11"/>
	<path fill="#02BFE7" d="M136.935,316.279c0-0.41,0.146-0.76,0.437-1.049s0.64-0.434,1.046-0.434c0.41,0,0.761,0.145,1.052,0.434
		s0.437,0.639,0.437,1.049s-0.146,0.761-0.437,1.052s-0.642,0.437-1.052,0.437c-0.406,0-0.755-0.146-1.046-0.437
		S136.935,316.689,136.935,316.279z"/>
	<path fill="#02BFE7" d="M143.821,312.666h4.929v1.487h-3.166v1.811h2.71v1.487h-2.71v3.034h-1.763V312.666z"/>
	<path fill="#02BFE7" d="M149.401,317.511c0-1.931,1.379-3.118,2.807-3.118c1.691,0,2.531,1.235,2.531,2.854
		c0,0.312-0.036,0.636-0.072,0.78h-3.562c0.156,0.863,0.756,1.259,1.547,1.259c0.444,0,0.852-0.132,1.283-0.396l0.587,1.067
		c-0.611,0.42-1.403,0.672-2.111,0.672C150.709,320.63,149.401,319.478,149.401,317.511z M153.239,316.864
		c0-0.66-0.288-1.127-0.995-1.127c-0.552,0-1.032,0.372-1.151,1.127H153.239z"/>
	<path fill="#02BFE7" d="M155.653,317.511c0-1.943,1.211-3.118,2.471-3.118c0.66,0,1.055,0.24,1.463,0.624l-0.072-0.912v-2.027
		h1.763v8.407h-1.439l-0.12-0.588h-0.048c-0.419,0.42-1.007,0.732-1.583,0.732C156.613,320.63,155.653,319.454,155.653,317.511z
		 M159.515,318.651v-2.435c-0.312-0.288-0.66-0.384-0.983-0.384c-0.564,0-1.067,0.527-1.067,1.655c0,1.175,0.396,1.703,1.08,1.703
		C158.928,319.19,159.228,319.046,159.515,318.651z"/>
	<path fill="#02BFE7" d="M162.493,317.511c0-1.931,1.379-3.118,2.807-3.118c1.691,0,2.531,1.235,2.531,2.854
		c0,0.312-0.036,0.636-0.072,0.78h-3.562c0.156,0.863,0.756,1.259,1.547,1.259c0.444,0,0.852-0.132,1.283-0.396l0.587,1.067
		c-0.611,0.42-1.403,0.672-2.111,0.672C163.801,320.63,162.493,319.478,162.493,317.511z M166.331,316.864
		c0-0.66-0.288-1.127-0.995-1.127c-0.552,0-1.032,0.372-1.151,1.127H166.331z"/>
	<path fill="#02BFE7" d="M169.057,314.537h1.439l0.12,1.043h0.048c0.432-0.804,1.08-1.188,1.691-1.188
		c0.336,0,0.54,0.048,0.708,0.12l-0.288,1.523c-0.216-0.06-0.396-0.096-0.647-0.096c-0.444,0-0.996,0.288-1.308,1.091v3.454h-1.763
		V314.537z"/>
	<path fill="#02BFE7" d="M173.221,318.83c0-1.247,0.995-1.931,3.346-2.17c-0.036-0.528-0.288-0.864-0.936-0.864
		c-0.504,0-0.996,0.204-1.571,0.54l-0.636-1.163c0.756-0.456,1.607-0.78,2.542-0.78c1.523,0,2.363,0.864,2.363,2.687v3.406h-1.439
		l-0.12-0.612h-0.048c-0.504,0.444-1.056,0.756-1.727,0.756C173.905,320.63,173.221,319.838,173.221,318.83z M176.567,318.759
		v-1.043c-1.248,0.168-1.655,0.528-1.655,0.983c0,0.384,0.264,0.564,0.684,0.564C175.992,319.263,176.255,319.071,176.567,318.759z"
		/>
	<path fill="#02BFE7" d="M179.821,318.639v-6.56h1.763v6.632c0,0.372,0.168,0.492,0.312,0.492c0.072,0,0.12,0,0.216-0.024
		l0.216,1.307c-0.192,0.084-0.492,0.144-0.888,0.144C180.229,320.63,179.821,319.838,179.821,318.639z"/>
	<path fill="#02BFE7" d="M185.796,312.666h2.207c2.387,0,3.922,1.188,3.922,3.874s-1.535,3.946-3.826,3.946h-2.303V312.666z
		 M187.896,319.058c1.331,0,2.219-0.647,2.219-2.519s-0.888-2.447-2.219-2.447h-0.336v4.965H187.896z"/>
	<path fill="#02BFE7" d="M192.997,318.83c0-1.247,0.995-1.931,3.346-2.17c-0.036-0.528-0.288-0.864-0.936-0.864
		c-0.504,0-0.996,0.204-1.571,0.54l-0.636-1.163c0.756-0.456,1.607-0.78,2.542-0.78c1.523,0,2.363,0.864,2.363,2.687v3.406h-1.439
		l-0.12-0.612h-0.048c-0.504,0.444-1.056,0.756-1.727,0.756C193.681,320.63,192.997,319.838,192.997,318.83z M196.343,318.759
		v-1.043c-1.248,0.168-1.655,0.528-1.655,0.983c0,0.384,0.264,0.564,0.684,0.564C195.768,319.263,196.031,319.071,196.343,318.759z"
		/>
	<path fill="#02BFE7" d="M199.621,318.327v-2.411h-0.815v-1.308l0.911-0.072l0.204-1.583h1.463v1.583h1.427v1.379h-1.427v2.387
		c0,0.671,0.3,0.947,0.768,0.947c0.191,0,0.408-0.06,0.563-0.12l0.276,1.284c-0.312,0.096-0.744,0.216-1.319,0.216
		C200.196,320.63,199.621,319.706,199.621,318.327z"/>
	<path fill="#02BFE7" d="M203.461,318.83c0-1.247,0.995-1.931,3.347-2.17c-0.036-0.528-0.288-0.864-0.936-0.864
		c-0.504,0-0.996,0.204-1.571,0.54l-0.636-1.163c0.756-0.456,1.607-0.78,2.542-0.78c1.523,0,2.363,0.864,2.363,2.687v3.406h-1.439
		l-0.12-0.612h-0.048c-0.504,0.444-1.056,0.756-1.727,0.756C204.145,320.63,203.461,319.838,203.461,318.83z M206.808,318.759
		v-1.043c-1.248,0.168-1.655,0.528-1.655,0.983c0,0.384,0.264,0.564,0.684,0.564C206.231,319.263,206.495,319.071,206.808,318.759z"
		/>
	<path fill="#02BFE7" d="M212.101,319.502l1.008-1.211c0.563,0.48,1.283,0.815,1.931,0.815c0.731,0,1.092-0.288,1.092-0.755
		c0-0.492-0.444-0.647-1.128-0.936l-1.02-0.432c-0.804-0.324-1.571-0.996-1.571-2.135c0-1.295,1.151-2.327,2.783-2.327
		c0.899,0,1.847,0.36,2.519,1.032l-0.899,1.115c-0.516-0.396-0.996-0.624-1.619-0.624c-0.612,0-0.996,0.264-0.996,0.708
		c0,0.48,0.516,0.648,1.188,0.923l1.008,0.408c0.947,0.384,1.547,1.019,1.547,2.123c0,1.295-1.079,2.423-2.95,2.423
		C213.972,320.63,212.893,320.246,212.101,319.502z"/>
	<path fill="#02BFE7" d="M219.036,318.327v-2.411h-0.815v-1.308l0.911-0.072l0.204-1.583h1.463v1.583h1.428v1.379h-1.428v2.387
		c0,0.671,0.301,0.947,0.768,0.947c0.192,0,0.408-0.06,0.564-0.12l0.275,1.284c-0.312,0.096-0.743,0.216-1.319,0.216
		C219.612,320.63,219.036,319.706,219.036,318.327z"/>
	<path fill="#02BFE7" d="M223.393,314.537h1.438l0.12,1.043h0.048c0.432-0.804,1.08-1.188,1.691-1.188
		c0.336,0,0.54,0.048,0.707,0.12l-0.287,1.523c-0.216-0.06-0.396-0.096-0.647-0.096c-0.444,0-0.996,0.288-1.308,1.091v3.454h-1.763
		V314.537z"/>
	<path fill="#02BFE7" d="M227.557,318.83c0-1.247,0.995-1.931,3.346-2.17c-0.036-0.528-0.288-0.864-0.936-0.864
		c-0.504,0-0.995,0.204-1.571,0.54l-0.636-1.163c0.756-0.456,1.607-0.78,2.543-0.78c1.523,0,2.362,0.864,2.362,2.687v3.406h-1.438
		l-0.12-0.612h-0.048c-0.504,0.444-1.056,0.756-1.728,0.756C228.24,320.63,227.557,319.838,227.557,318.83z M230.902,318.759v-1.043
		c-1.247,0.168-1.655,0.528-1.655,0.983c0,0.384,0.264,0.564,0.684,0.564C230.327,319.263,230.591,319.071,230.902,318.759z"/>
	<path fill="#02BFE7" d="M234.18,318.327v-2.411h-0.815v-1.308l0.911-0.072l0.204-1.583h1.463v1.583h1.428v1.379h-1.428v2.387
		c0,0.671,0.301,0.947,0.768,0.947c0.192,0,0.408-0.06,0.564-0.12l0.275,1.284c-0.312,0.096-0.743,0.216-1.319,0.216
		C234.756,320.63,234.18,319.706,234.18,318.327z"/>
	<path fill="#02BFE7" d="M237.972,317.511c0-1.931,1.38-3.118,2.807-3.118c1.691,0,2.531,1.235,2.531,2.854
		c0,0.312-0.036,0.636-0.072,0.78h-3.562c0.156,0.863,0.756,1.259,1.548,1.259c0.443,0,0.852-0.132,1.283-0.396l0.587,1.067
		c-0.611,0.42-1.402,0.672-2.11,0.672C239.279,320.63,237.972,319.478,237.972,317.511z M241.81,316.864
		c0-0.66-0.287-1.127-0.995-1.127c-0.552,0-1.031,0.372-1.151,1.127H241.81z"/>
	<path fill="#02BFE7" d="M244.044,321.505c0-0.492,0.3-0.888,0.852-1.199v-0.048c-0.312-0.204-0.552-0.516-0.552-1.007
		c0-0.432,0.288-0.852,0.672-1.115v-0.048c-0.42-0.288-0.804-0.852-0.804-1.547c0-1.427,1.175-2.147,2.458-2.147
		c0.336,0,0.66,0.048,0.924,0.144h2.171v1.283h-0.947c0.107,0.18,0.191,0.468,0.191,0.78c0,1.367-1.031,2.003-2.339,2.003
		c-0.216,0-0.455-0.036-0.719-0.12c-0.156,0.132-0.217,0.24-0.217,0.444c0,0.3,0.24,0.444,0.9,0.444h0.959
		c1.463,0,2.267,0.443,2.267,1.511c0,1.235-1.283,2.135-3.322,2.135C245.147,323.016,244.044,322.56,244.044,321.505z
		 M248.182,321.181c0-0.372-0.324-0.468-0.912-0.468h-0.611c-0.407,0-0.647-0.024-0.84-0.072c-0.216,0.192-0.323,0.372-0.323,0.588
		c0,0.444,0.527,0.684,1.319,0.684C247.605,321.913,248.182,321.589,248.182,321.181z M247.486,316.54
		c0-0.624-0.349-0.959-0.816-0.959s-0.815,0.324-0.815,0.959c0,0.66,0.348,0.996,0.815,0.996S247.486,317.2,247.486,316.54z"/>
	<path fill="#02BFE7" d="M250.691,322.693l0.312-1.344c0.107,0.024,0.264,0.072,0.396,0.072c0.588,0,0.888-0.312,1.043-0.78
		l0.084-0.312l-2.29-5.793h1.774l0.852,2.555c0.168,0.54,0.312,1.104,0.468,1.691h0.048c0.132-0.563,0.264-1.127,0.408-1.691
		l0.72-2.555h1.69l-2.062,6.009c-0.563,1.499-1.199,2.267-2.603,2.267C251.172,322.812,250.932,322.764,250.691,322.693z"/>
	<path fill="#02BFE7" d="M141.599,330.627c0-1.936,0.539-3.521,1.452-4.995l0.561,0.264c-0.847,1.397-1.265,3.059-1.265,4.73
		c0,1.672,0.418,3.333,1.265,4.731l-0.561,0.264C142.138,334.148,141.599,332.564,141.599,330.627z"/>
	<path fill="#02BFE7" d="M145.02,326.469h2.057c1.617,0,2.707,0.539,2.707,2.123c0,1.518-1.078,2.233-2.663,2.233h-1.188v2.86
		h-0.913V326.469z M147.011,330.077c1.254,0,1.859-0.462,1.859-1.485c0-1.045-0.638-1.386-1.903-1.386h-1.034v2.872H147.011z"/>
	<path fill="#02BFE7" d="M151.158,328.339h0.748l0.077,0.968h0.033c0.363-0.671,0.913-1.101,1.518-1.101
		c0.231,0,0.396,0.033,0.572,0.11l-0.176,0.792c-0.176-0.055-0.297-0.088-0.517-0.088c-0.451,0-0.99,0.33-1.353,1.232v3.433h-0.902
		V328.339z"/>
	<path fill="#02BFE7" d="M154.832,326.645c0-0.352,0.253-0.594,0.605-0.594s0.605,0.242,0.605,0.594
		c0,0.363-0.253,0.594-0.605,0.594S154.832,327.008,154.832,326.645z M154.975,328.339h0.902v5.347h-0.902V328.339z"/>
	<path fill="#02BFE7" d="M157.681,328.339h0.748l0.077,0.77h0.033c0.506-0.506,1.056-0.902,1.793-0.902
		c1.122,0,1.628,0.726,1.628,2.09v3.389h-0.902v-3.268c0-1.001-0.308-1.43-1.012-1.43c-0.55,0-0.924,0.286-1.463,0.825v3.873h-0.902
		V328.339z"/>
	<path fill="#02BFE7" d="M163.302,331.023c0-1.793,1.199-2.816,2.575-2.816c0.704,0,1.188,0.286,1.562,0.627l-0.462,0.594
		c-0.308-0.275-0.638-0.473-1.067-0.473c-0.968,0-1.672,0.836-1.672,2.068c0,1.221,0.671,2.046,1.65,2.046
		c0.495,0,0.924-0.242,1.254-0.539l0.396,0.605c-0.484,0.429-1.089,0.682-1.727,0.682
		C164.391,333.818,163.302,332.795,163.302,331.023z"/>
	<path fill="#02BFE7" d="M168.571,326.645c0-0.352,0.253-0.594,0.605-0.594s0.605,0.242,0.605,0.594
		c0,0.363-0.253,0.594-0.605,0.594S168.571,327.008,168.571,326.645z M168.714,328.339h0.902v5.347h-0.902V328.339z"/>
	<path fill="#02BFE7" d="M171.42,328.339h0.748l0.077,0.616h0.033c0.484-0.407,1.078-0.749,1.705-0.749
		c1.375,0,2.112,1.067,2.112,2.729c0,1.815-1.089,2.882-2.31,2.882c-0.495,0-0.99-0.231-1.485-0.616l0.022,0.935v1.804h-0.902
		V328.339z M175.161,330.935c0-1.177-0.396-1.969-1.408-1.969c-0.451,0-0.902,0.253-1.43,0.726v2.806
		c0.484,0.407,0.957,0.561,1.309,0.561C174.512,333.059,175.161,332.256,175.161,330.935z"/>
	<path fill="#02BFE7" d="M177.525,332.608v-6.755h0.902v6.821c0,0.286,0.121,0.396,0.253,0.396c0.055,0,0.099,0,0.198-0.022
		L179,333.73c-0.121,0.055-0.275,0.088-0.517,0.088C177.8,333.818,177.525,333.389,177.525,332.608z"/>
	<path fill="#02BFE7" d="M179.934,331.023c0-1.749,1.177-2.816,2.398-2.816c1.364,0,2.134,0.979,2.134,2.509
		c0,0.187-0.011,0.385-0.033,0.517h-3.609c0.066,1.133,0.759,1.859,1.783,1.859c0.506,0,0.935-0.165,1.331-0.418l0.319,0.594
		c-0.462,0.297-1.034,0.55-1.76,0.55C181.067,333.818,179.934,332.773,179.934,331.023z M183.674,330.583
		c0-1.078-0.484-1.661-1.32-1.661c-0.748,0-1.43,0.605-1.54,1.661H183.674z"/>
	<path fill="#02BFE7" d="M185.192,333.081l0.451-0.605c0.462,0.374,0.935,0.638,1.573,0.638c0.704,0,1.056-0.374,1.056-0.836
		c0-0.55-0.638-0.792-1.221-1.012c-0.759-0.275-1.562-0.638-1.562-1.54c0-0.858,0.682-1.519,1.848-1.519
		c0.66,0,1.243,0.275,1.662,0.605l-0.44,0.572c-0.363-0.275-0.748-0.473-1.221-0.473c-0.671,0-0.979,0.363-0.979,0.771
		c0,0.506,0.55,0.693,1.155,0.924c0.77,0.286,1.628,0.605,1.628,1.617c0,0.869-0.693,1.595-1.958,1.595
		C186.424,333.818,185.698,333.499,185.192,333.081z"/>
	<path fill="#02BFE7" d="M192.045,331.816c0-0.968,0.682-1.573,1.419-2.08c-0.297-0.594-0.473-1.166-0.473-1.694
		c0-0.957,0.671-1.705,1.672-1.705c0.891,0,1.419,0.583,1.419,1.43c0,0.946-0.825,1.551-1.628,2.134
		c0.473,0.737,1.145,1.452,1.827,2.024c0.44-0.594,0.792-1.309,1.012-2.134h0.847c-0.286,0.946-0.693,1.826-1.265,2.585
		c0.495,0.341,0.957,0.583,1.354,0.693l-0.242,0.748c-0.506-0.143-1.078-0.418-1.661-0.825c-0.55,0.495-1.232,0.825-2.08,0.825
		C192.936,333.818,192.045,332.982,192.045,331.816z M194.344,333.092c0.495,0,0.957-0.22,1.375-0.583
		c-0.704-0.616-1.386-1.364-1.892-2.145c-0.506,0.407-0.902,0.836-0.902,1.397C192.925,332.564,193.552,333.092,194.344,333.092z
		 M194.113,329.296c0.66-0.44,1.232-0.88,1.232-1.518c0-0.418-0.198-0.792-0.682-0.792c-0.539,0-0.891,0.451-0.891,1.045
		C193.772,328.427,193.904,328.856,194.113,329.296z"/>
	<path fill="#02BFE7" d="M201.582,326.469h2.058c1.617,0,2.706,0.539,2.706,2.123c0,1.518-1.078,2.233-2.662,2.233h-1.188v2.86
		h-0.913V326.469z M203.573,330.077c1.255,0,1.859-0.462,1.859-1.485c0-1.045-0.638-1.386-1.903-1.386h-1.034v2.872H203.573z"/>
	<path fill="#02BFE7" d="M207.721,328.339h0.748l0.076,0.968h0.033c0.363-0.671,0.913-1.101,1.519-1.101
		c0.23,0,0.396,0.033,0.572,0.11l-0.177,0.792c-0.176-0.055-0.297-0.088-0.517-0.088c-0.451,0-0.99,0.33-1.354,1.232v3.433h-0.901
		V328.339z"/>
	<path fill="#02BFE7" d="M210.943,332.3c0-1.166,1.001-1.749,3.278-2.002c0-0.682-0.22-1.342-1.1-1.342
		c-0.616,0-1.178,0.286-1.596,0.572l-0.352-0.627c0.495-0.319,1.243-0.693,2.101-0.693c1.31,0,1.859,0.869,1.859,2.201v3.278h-0.748
		l-0.077-0.638h-0.032c-0.507,0.418-1.101,0.77-1.771,0.77C211.614,333.818,210.943,333.257,210.943,332.3z M214.222,332.377v-1.485
		c-1.782,0.22-2.398,0.66-2.398,1.342c0,0.605,0.418,0.858,0.946,0.858C213.287,333.092,213.705,332.839,214.222,332.377z"/>
	<path fill="#02BFE7" d="M216.421,331.023c0-1.793,1.199-2.816,2.575-2.816c0.704,0,1.188,0.286,1.562,0.627l-0.462,0.594
		c-0.308-0.275-0.638-0.473-1.067-0.473c-0.968,0-1.672,0.836-1.672,2.068c0,1.221,0.671,2.046,1.65,2.046
		c0.495,0,0.924-0.242,1.254-0.539l0.396,0.605c-0.484,0.429-1.09,0.682-1.728,0.682
		C217.511,333.818,216.421,332.795,216.421,331.023z"/>
	<path fill="#02BFE7" d="M221.877,332.035v-2.959h-0.792v-0.682l0.836-0.055l0.11-1.496h0.759v1.496h1.441v0.737h-1.441v2.971
		c0,0.66,0.209,1.034,0.825,1.034c0.188,0,0.43-0.077,0.605-0.143l0.176,0.682c-0.297,0.099-0.66,0.198-0.99,0.198
		C222.263,333.818,221.877,333.092,221.877,332.035z"/>
	<path fill="#02BFE7" d="M225.298,326.645c0-0.352,0.253-0.594,0.605-0.594c0.352,0,0.604,0.242,0.604,0.594
		c0,0.363-0.253,0.594-0.604,0.594C225.551,327.239,225.298,327.008,225.298,326.645z M225.441,328.339h0.901v5.347h-0.901V328.339z
		"/>
	<path fill="#02BFE7" d="M227.751,331.023c0-1.793,1.199-2.816,2.574-2.816c0.704,0,1.188,0.286,1.562,0.627l-0.462,0.594
		c-0.309-0.275-0.639-0.473-1.067-0.473c-0.968,0-1.672,0.836-1.672,2.068c0,1.221,0.671,2.046,1.649,2.046
		c0.495,0,0.925-0.242,1.255-0.539l0.396,0.605c-0.483,0.429-1.089,0.682-1.727,0.682
		C228.84,333.818,227.751,332.795,227.751,331.023z"/>
	<path fill="#02BFE7" d="M232.536,331.023c0-1.749,1.177-2.816,2.398-2.816c1.364,0,2.134,0.979,2.134,2.509
		c0,0.187-0.011,0.385-0.032,0.517h-3.609c0.066,1.133,0.76,1.859,1.783,1.859c0.506,0,0.935-0.165,1.331-0.418l0.318,0.594
		c-0.462,0.297-1.034,0.55-1.76,0.55C233.669,333.818,232.536,332.773,232.536,331.023z M236.276,330.583
		c0-1.078-0.483-1.661-1.32-1.661c-0.748,0-1.43,0.605-1.54,1.661H236.276z"/>
	<path fill="#02BFE7" d="M237.794,333.081l0.451-0.605c0.462,0.374,0.936,0.638,1.573,0.638c0.704,0,1.057-0.374,1.057-0.836
		c0-0.55-0.639-0.792-1.222-1.012c-0.759-0.275-1.562-0.638-1.562-1.54c0-0.858,0.683-1.519,1.849-1.519
		c0.66,0,1.243,0.275,1.661,0.605l-0.44,0.572c-0.362-0.275-0.748-0.473-1.221-0.473c-0.671,0-0.979,0.363-0.979,0.771
		c0,0.506,0.551,0.693,1.155,0.924c0.771,0.286,1.629,0.605,1.629,1.617c0,0.869-0.693,1.595-1.959,1.595
		C239.026,333.818,238.3,333.499,237.794,333.081z"/>
	<path fill="#02BFE7" d="M242.513,335.358c0.848-1.397,1.266-3.059,1.266-4.731c0-1.672-0.418-3.333-1.266-4.73l0.562-0.264
		c0.913,1.474,1.452,3.059,1.452,4.995c0,1.937-0.539,3.521-1.452,4.995L242.513,335.358z"/>
	<path fill="#02BFE7" d="M138.423,342.648c0.406,0,0.753,0.144,1.04,0.431s0.431,0.634,0.431,1.04s-0.144,0.753-0.431,1.04
		s-0.634,0.431-1.04,0.431s-0.753-0.144-1.04-0.431s-0.431-0.634-0.431-1.04s0.143-0.753,0.428-1.04
		S138.013,342.648,138.423,342.648z M138.423,343.094c-0.285,0-0.527,0.101-0.727,0.302s-0.299,0.442-0.299,0.724
		c0,0.285,0.101,0.527,0.302,0.727s0.442,0.299,0.724,0.299s0.522-0.1,0.724-0.299s0.302-0.441,0.302-0.727
		c0-0.281-0.1-0.522-0.299-0.724S138.708,343.094,138.423,343.094z"/>
	<path fill="#02BFE7" d="M145.875,340.218h1.463c2.183,0,3.334,1.139,3.334,3.07c0,2.854-1.595,4.797-4.257,4.797h-2.111
		L145.875,340.218z M146.415,347.318c2.039,0,3.31-1.631,3.31-3.97c0-1.487-0.839-2.375-2.423-2.375h-0.647l-1.271,6.345H146.415z"
		/>
	<path fill="#02BFE7" d="M152.523,342.257h0.755l-0.132,1.115h0.048c0.467-0.708,1.079-1.259,1.799-1.259
		c0.216,0,0.384,0.036,0.552,0.108l-0.324,0.815c-0.12-0.06-0.288-0.096-0.504-0.096c-0.576,0-1.223,0.516-1.715,1.463l-0.731,3.682
		h-0.912L152.523,342.257z"/>
	<path fill="#02BFE7" d="M155.44,346.119c0-2.243,1.535-4.006,3.154-4.006c0.624,0,1.127,0.348,1.403,0.875h0.048l0.228-0.731h0.743
		l-1.163,5.829h-0.756l0.096-0.864h-0.048c-0.564,0.6-1.295,1.008-2.027,1.008C156.1,348.23,155.44,347.486,155.44,346.119z
		 M159.29,346.347l0.527-2.603c-0.336-0.611-0.744-0.863-1.187-0.863c-1.164,0-2.243,1.487-2.243,3.094
		c0,1.007,0.42,1.487,1.067,1.487C158.066,347.462,158.714,347.102,159.29,346.347z"/>
	<path fill="#02BFE7" d="M162.951,343h-0.755l0.132-0.684l0.779-0.06l0.192-0.972c0.24-1.175,0.864-1.883,1.847-1.883
		c0.42,0,0.731,0.12,1.031,0.276l-0.324,0.671c-0.168-0.108-0.372-0.204-0.647-0.204c-0.528,0-0.852,0.432-0.983,1.115l-0.204,0.996
		h2.003l0.432-1.607h0.78l-0.324,1.607h1.475L168.24,343h-1.499l-0.684,3.334c-0.024,0.144-0.036,0.276-0.036,0.432
		c0,0.48,0.192,0.72,0.744,0.72c0.228,0,0.432-0.096,0.612-0.18l0.192,0.66c-0.252,0.12-0.636,0.264-1.092,0.264
		c-1.019,0-1.391-0.576-1.391-1.295c0-0.24,0.012-0.432,0.06-0.647L165.83,343h-1.955l-1.031,5.085h-0.912L162.951,343z"/>
	<path fill="#02BFE7" d="M172.827,345.015l-1.283-4.797h0.959l0.54,2.267c0.144,0.576,0.252,1.116,0.396,1.715h0.036
		c0.36-0.588,0.708-1.151,1.091-1.727l1.487-2.255h0.996l-3.286,4.797l-0.624,3.07h-0.924L172.827,345.015z"/>
	<path fill="#02BFE7" d="M176.032,345.795c0-2.195,1.595-3.682,3.118-3.682c1.307,0,1.799,0.912,1.799,2.111
		c0,0.456-0.12,0.899-0.204,1.115h-3.79c-0.216,1.523,0.564,2.159,1.583,2.159c0.456,0,0.936-0.228,1.308-0.503l0.36,0.611
		c-0.468,0.336-1.127,0.624-1.883,0.624C176.944,348.23,176.032,347.354,176.032,345.795z M180.11,344.716
		c0.036-0.18,0.06-0.36,0.06-0.576c0-0.66-0.288-1.295-1.127-1.295c-0.852,0-1.691,0.744-1.991,1.871H180.11z"/>
	<path fill="#02BFE7" d="M181.828,346.119c0-2.243,1.535-4.006,3.154-4.006c0.624,0,1.127,0.348,1.403,0.875h0.048l0.228-0.731
		h0.744l-1.164,5.829h-0.755l0.096-0.864h-0.048c-0.564,0.6-1.295,1.008-2.027,1.008
		C182.488,348.23,181.828,347.486,181.828,346.119z M185.678,346.347l0.528-2.603c-0.335-0.611-0.744-0.863-1.187-0.863
		c-1.164,0-2.243,1.487-2.243,3.094c0,1.007,0.42,1.487,1.067,1.487C184.455,347.462,185.103,347.102,185.678,346.347z"/>
	<path fill="#02BFE7" d="M189.339,342.257h0.755l-0.132,1.115h0.048c0.468-0.708,1.08-1.259,1.799-1.259
		c0.216,0,0.384,0.036,0.552,0.108l-0.324,0.815c-0.12-0.06-0.288-0.096-0.504-0.096c-0.576,0-1.223,0.516-1.715,1.463l-0.732,3.682
		h-0.912L189.339,342.257z"/>
	<path fill="#02BFE7" d="M194.776,347.318h1.667l1.151-5.733h-1.355l0.12-0.6c0.684-0.096,1.235-0.276,1.679-0.552h0.708
		l-1.391,6.884h1.559l-0.144,0.768h-4.149L194.776,347.318z"/>
	<path fill="#02BFE7" d="M206.102,340.218h1.08l0.911,7.868h-0.972l-0.216-2.458h-2.782l-1.259,2.458h-1.032L206.102,340.218z
		 M204.495,344.908h2.339l-0.12-1.343c-0.072-0.828-0.156-1.667-0.216-2.566h-0.048c-0.42,0.911-0.816,1.703-1.26,2.566
		L204.495,344.908z"/>
	<path fill="#02BFE7" d="M209.032,345.891c0-2.171,1.559-3.778,3.25-3.778c0.695,0,1.163,0.312,1.511,0.708l-0.539,0.576
		c-0.3-0.36-0.576-0.528-1.032-0.528c-1.163,0-2.254,1.367-2.254,2.962c0,1.056,0.455,1.631,1.379,1.631
		c0.516,0,0.936-0.24,1.295-0.516l0.408,0.6c-0.42,0.324-1.02,0.684-1.871,0.684C209.907,348.23,209.032,347.378,209.032,345.891z"
		/>
	<path fill="#02BFE7" d="M214.636,346.934c0-0.24,0.036-0.432,0.061-0.647L215.38,343h-0.852l0.132-0.684l0.911-0.06l0.432-1.607
		h0.779l-0.323,1.607h1.475L217.79,343h-1.499l-0.684,3.334c-0.024,0.144-0.036,0.276-0.036,0.432c0,0.48,0.192,0.72,0.744,0.72
		c0.228,0,0.432-0.096,0.611-0.18l0.204,0.66c-0.265,0.12-0.648,0.264-1.104,0.264C215.008,348.23,214.636,347.654,214.636,346.934z
		"/>
	<path fill="#02BFE7" d="M219.243,342.257h0.924l-1.176,5.829h-0.911L219.243,342.257z M219.423,340.506
		c0-0.396,0.324-0.696,0.696-0.696c0.312,0,0.588,0.204,0.588,0.552c0,0.396-0.324,0.684-0.696,0.684
		C219.699,341.046,219.423,340.854,219.423,340.506z"/>
	<path fill="#02BFE7" d="M221.021,345.891c0-2.207,1.547-3.778,3.142-3.778c1.26,0,2.087,0.887,2.087,2.339
		c0,2.207-1.559,3.778-3.154,3.778C221.836,348.23,221.021,347.342,221.021,345.891z M225.313,344.512
		c0-1.055-0.443-1.643-1.247-1.643c-1.067,0-2.123,1.332-2.123,2.962c0,1.056,0.444,1.631,1.248,1.631
		C224.271,347.462,225.313,346.143,225.313,344.512z"/>
	<path fill="#02BFE7" d="M228.268,342.257h0.756l-0.084,0.875h0.048c0.647-0.576,1.295-1.02,2.027-1.02
		c0.983,0,1.379,0.552,1.379,1.451c0,0.276-0.024,0.479-0.096,0.804l-0.744,3.718h-0.911l0.72-3.598
		c0.06-0.312,0.096-0.479,0.096-0.684c0-0.587-0.264-0.899-0.863-0.899c-0.456,0-1.02,0.324-1.751,1.056l-0.828,4.125h-0.911
		L228.268,342.257z"/>
	<path fill="#02BFE7" d="M237.423,340.218h2.219c1.476,0,2.471,0.552,2.471,1.919c0,1.931-1.438,2.782-3.441,2.782h-1.26
		l-0.623,3.167h-0.936L237.423,340.218z M238.707,344.164c1.618,0,2.482-0.647,2.482-1.907c0-0.912-0.624-1.295-1.775-1.295h-1.211
		l-0.636,3.202H238.707z"/>
	<path fill="#02BFE7" d="M242.56,347.474c0-0.132,0.024-0.3,0.072-0.503l1.475-7.424h0.924l-1.499,7.472
		c-0.024,0.12-0.024,0.18-0.024,0.228c0,0.144,0.084,0.216,0.204,0.216c0.048,0,0.084,0,0.192-0.036l0.012,0.708
		c-0.156,0.06-0.324,0.096-0.576,0.096C242.823,348.23,242.56,347.954,242.56,347.474z"/>
	<path fill="#02BFE7" d="M245.476,346.119c0-2.243,1.535-4.006,3.154-4.006c0.623,0,1.127,0.348,1.403,0.875h0.048l0.228-0.731
		h0.743l-1.163,5.829h-0.756l0.097-0.864h-0.048c-0.564,0.6-1.296,1.008-2.027,1.008
		C246.135,348.23,245.476,347.486,245.476,346.119z M249.325,346.347l0.527-2.603c-0.336-0.611-0.743-0.863-1.187-0.863
		c-1.164,0-2.243,1.487-2.243,3.094c0,1.007,0.42,1.487,1.067,1.487C248.102,347.462,248.749,347.102,249.325,346.347z"/>
	<path fill="#02BFE7" d="M252.986,342.257h0.756l-0.084,0.875h0.048c0.647-0.576,1.295-1.02,2.027-1.02
		c0.983,0,1.379,0.552,1.379,1.451c0,0.276-0.024,0.479-0.096,0.804l-0.744,3.718h-0.911l0.72-3.598
		c0.06-0.312,0.096-0.479,0.096-0.684c0-0.587-0.264-0.899-0.863-0.899c-0.456,0-1.02,0.324-1.751,1.056l-0.828,4.125h-0.911
		L252.986,342.257z"/>
</g>
<g>
	<g>
		<path fill="#B2B2B2" d="M139.662,409.942h3.009l3.467,11.083h-2.651l-0.68-2.635h-3.382l-0.68,2.635h-2.55L139.662,409.942z
			 M139.934,416.436h2.363l-0.255-1.021c-0.306-1.104-0.612-2.414-0.901-3.569h-0.068c-0.272,1.172-0.561,2.465-0.867,3.569
			L139.934,416.436z"/>
		<path fill="#B2B2B2" d="M147.057,417.828v-5.234h2.499v4.912c0,1.207,0.323,1.598,1.054,1.598c0.629,0,1.002-0.271,1.496-0.935
			v-5.575h2.499v8.431h-2.04l-0.187-1.173h-0.051c-0.714,0.85-1.496,1.377-2.652,1.377
			C147.839,421.229,147.057,419.937,147.057,417.828z"/>
		<path fill="#B2B2B2" d="M156.271,422.469c0-0.696,0.425-1.258,1.207-1.699v-0.068c-0.442-0.289-0.782-0.73-0.782-1.428
			c0-0.611,0.408-1.207,0.952-1.58v-0.068c-0.595-0.408-1.139-1.207-1.139-2.193c0-2.022,1.666-3.043,3.485-3.043
			c0.476,0,0.935,0.068,1.309,0.205h3.077v1.818h-1.343c0.153,0.255,0.272,0.663,0.272,1.105c0,1.938-1.462,2.838-3.314,2.838
			c-0.306,0-0.646-0.051-1.02-0.17c-0.221,0.188-0.306,0.34-0.306,0.629c0,0.426,0.34,0.629,1.275,0.629h1.36
			c2.074,0,3.213,0.629,3.213,2.143c0,1.75-1.819,3.025-4.708,3.025C157.834,424.612,156.271,423.965,156.271,422.469z
			 M162.135,422.01c0-0.526-0.459-0.662-1.292-0.662h-0.867c-0.578,0-0.918-0.034-1.19-0.102c-0.306,0.271-0.459,0.526-0.459,0.832
			c0,0.629,0.748,0.969,1.87,0.969C161.319,423.047,162.135,422.588,162.135,422.01z M161.149,415.432
			c0-0.884-0.493-1.359-1.156-1.359c-0.663,0-1.156,0.459-1.156,1.359c0,0.936,0.493,1.411,1.156,1.411
			C160.656,416.843,161.149,416.368,161.149,415.432z"/>
		<path fill="#B2B2B2" d="M165.791,417.828v-5.234h2.499v4.912c0,1.207,0.323,1.598,1.054,1.598c0.629,0,1.003-0.271,1.496-0.935
			v-5.575h2.499v8.431h-2.04l-0.187-1.173h-0.051c-0.714,0.85-1.496,1.377-2.652,1.377
			C166.573,421.229,165.791,419.937,165.791,417.828z"/>
		<path fill="#B2B2B2" d="M174.784,420.056l1.122-1.563c0.765,0.578,1.462,0.883,2.176,0.883c0.748,0,1.071-0.271,1.071-0.713
			c0-0.562-0.85-0.816-1.717-1.156c-1.02-0.391-2.193-1.088-2.193-2.482c0-1.563,1.292-2.635,3.229-2.635
			c1.292,0,2.261,0.527,2.975,1.071l-1.122,1.496c-0.595-0.442-1.19-0.714-1.768-0.714c-0.646,0-0.969,0.238-0.969,0.663
			c0,0.544,0.748,0.747,1.615,1.071c1.071,0.391,2.278,0.985,2.278,2.532c0,1.53-1.207,2.72-3.468,2.72
			C176.909,421.229,175.634,420.752,174.784,420.056z"/>
		<path fill="#B2B2B2" d="M183.062,417.965v-3.417h-1.156v-1.853l1.292-0.102l0.289-2.244h2.074v2.244h2.022v1.954h-2.022v3.383
			c0,0.952,0.425,1.343,1.088,1.343c0.271,0,0.578-0.085,0.799-0.17l0.391,1.818c-0.442,0.137-1.054,0.307-1.87,0.307
			C183.878,421.229,183.062,419.92,183.062,417.965z"/>
		<path fill="#B2B2B2" d="M192.157,419.597c2.754-2.601,4.691-4.454,4.691-5.983c0-1.055-0.595-1.632-1.53-1.632
			c-0.782,0-1.377,0.526-1.921,1.104l-1.36-1.343c1.071-1.139,2.074-1.717,3.621-1.717c2.125,0,3.57,1.36,3.57,3.434
			c0,1.819-1.7,3.757-3.451,5.593c0.544-0.068,1.292-0.137,1.802-0.137h2.176v2.108h-7.598V419.597z"/>
		<path fill="#B2B2B2" d="M201.134,415.585c0-3.672,1.547-5.559,3.858-5.559s3.858,1.887,3.858,5.559s-1.547,5.644-3.858,5.644
			S201.134,419.257,201.134,415.585z M206.488,415.585c0-2.958-0.646-3.62-1.496-3.62c-0.833,0-1.496,0.662-1.496,3.62
			c0,2.94,0.663,3.706,1.496,3.706C205.842,419.291,206.488,418.526,206.488,415.585z"/>
		<path fill="#B2B2B2" d="M210.671,419.002h2.346v-6.238h-2.023v-1.547c1.173-0.221,1.921-0.527,2.687-0.986h1.835v8.771h2.023
			v2.022h-6.867V419.002z"/>
		<path fill="#B2B2B2" d="M219.188,419.937l1.326-1.496c0.356,0.408,1.037,0.765,1.666,0.765c1.207,0,2.142-0.85,2.227-3.365
			c-0.561,0.714-1.496,1.139-2.159,1.139c-1.836,0-3.212-1.054-3.212-3.332c0-2.243,1.632-3.62,3.586-3.62
			c2.091,0,4.097,1.563,4.097,5.354c0,4.029-2.107,5.848-4.368,5.848C220.922,421.229,219.867,420.617,219.188,419.937z
			 M222.74,415.211c0.562,0,1.19-0.306,1.615-1.07c-0.222-1.7-0.918-2.244-1.684-2.244c-0.73,0-1.359,0.527-1.359,1.75
			C221.312,414.786,221.925,415.211,222.74,415.211z"/>
	</g>
</g>
<g>
	<rect x="136.296" y="429.229" fill="none" width="129.256" height="51.11"/>
	<path fill="#02BFE7" d="M136.935,433.615c0-0.41,0.146-0.76,0.437-1.049s0.64-0.434,1.046-0.434c0.41,0,0.761,0.145,1.052,0.434
		s0.437,0.639,0.437,1.049s-0.146,0.761-0.437,1.052s-0.642,0.437-1.052,0.437c-0.406,0-0.755-0.146-1.046-0.437
		S136.935,434.025,136.935,433.615z"/>
	<path fill="#02BFE7" d="M145.164,435.039l-2.362-5.038h1.895l0.696,1.8c0.216,0.587,0.42,1.127,0.636,1.727h0.048
		c0.228-0.6,0.444-1.14,0.66-1.727l0.708-1.8h1.847l-2.363,5.038v2.782h-1.763V435.039z"/>
	<path fill="#02BFE7" d="M148.969,434.847c0-1.931,1.379-3.118,2.807-3.118c1.691,0,2.531,1.235,2.531,2.854
		c0,0.312-0.036,0.636-0.072,0.779h-3.562c0.156,0.863,0.756,1.26,1.547,1.26c0.444,0,0.852-0.132,1.283-0.396l0.587,1.067
		c-0.611,0.42-1.403,0.672-2.111,0.672C150.276,437.965,148.969,436.814,148.969,434.847z M152.807,434.2
		c0-0.66-0.288-1.128-0.995-1.128c-0.552,0-1.032,0.372-1.151,1.128H152.807z"/>
	<path fill="#02BFE7" d="M155.125,436.166c0-1.247,0.995-1.931,3.346-2.171c-0.036-0.527-0.288-0.863-0.936-0.863
		c-0.504,0-0.996,0.204-1.571,0.539l-0.636-1.163c0.756-0.456,1.607-0.779,2.542-0.779c1.523,0,2.363,0.863,2.363,2.687v3.406
		h-1.439l-0.12-0.612h-0.048c-0.504,0.444-1.056,0.756-1.727,0.756C155.809,437.965,155.125,437.174,155.125,436.166z
		 M158.471,436.094v-1.043c-1.248,0.168-1.655,0.527-1.655,0.983c0,0.384,0.264,0.563,0.684,0.563
		C157.896,436.598,158.159,436.407,158.471,436.094z"/>
	<path fill="#02BFE7" d="M161.725,431.872h1.439l0.12,1.044h0.048c0.432-0.804,1.08-1.188,1.691-1.188
		c0.336,0,0.54,0.048,0.708,0.12l-0.288,1.522c-0.216-0.06-0.396-0.096-0.647-0.096c-0.444,0-0.996,0.288-1.308,1.092v3.454h-1.763
		V431.872z"/>
	<path fill="#02BFE7" d="M168.96,436.394h1.655v-4.401h-1.427v-1.092c0.828-0.155,1.355-0.371,1.895-0.695h1.295v6.188h1.427v1.428
		h-4.846V436.394z"/>
	<path fill="#02BFE7" d="M179.231,430.001h2.123l2.447,7.82h-1.871l-0.48-1.859h-2.386l-0.48,1.859h-1.799L179.231,430.001z
		 M179.423,434.583h1.667l-0.18-0.72c-0.216-0.779-0.432-1.703-0.636-2.519h-0.048c-0.192,0.827-0.396,1.739-0.612,2.519
		L179.423,434.583z"/>
	<path fill="#02BFE7" d="M184.164,434.847c0-1.979,1.451-3.118,3.094-3.118c0.732,0,1.295,0.264,1.739,0.636l-0.828,1.14
		c-0.288-0.24-0.528-0.349-0.804-0.349c-0.852,0-1.391,0.66-1.391,1.691s0.564,1.691,1.332,1.691c0.384,0,0.755-0.192,1.067-0.432
		l0.695,1.151c-0.587,0.516-1.319,0.707-1.967,0.707C185.447,437.965,184.164,436.826,184.164,434.847z"/>
	<path fill="#02BFE7" d="M190.236,435.662v-2.41h-0.815v-1.308l0.911-0.072l0.204-1.583h1.463v1.583h1.427v1.38h-1.427v2.387
		c0,0.671,0.3,0.947,0.768,0.947c0.192,0,0.408-0.061,0.564-0.12l0.276,1.283c-0.312,0.096-0.744,0.216-1.319,0.216
		C190.812,437.965,190.236,437.041,190.236,435.662z"/>
	<path fill="#02BFE7" d="M194.473,430.074c0-0.552,0.408-0.924,0.996-0.924c0.587,0,0.995,0.372,0.995,0.924
		c0,0.563-0.408,0.924-0.995,0.924C194.88,430.997,194.473,430.637,194.473,430.074z M194.593,431.872h1.763v5.949h-1.763V431.872z"
		/>
	<path fill="#02BFE7" d="M197.557,434.847c0-1.979,1.392-3.118,2.902-3.118c1.5,0,2.891,1.14,2.891,3.118s-1.391,3.118-2.891,3.118
		C198.948,437.965,197.557,436.826,197.557,434.847z M201.551,434.847c0-1.031-0.372-1.691-1.092-1.691
		c-0.731,0-1.091,0.66-1.091,1.691s0.36,1.691,1.091,1.691C201.179,436.538,201.551,435.878,201.551,434.847z"/>
	<path fill="#02BFE7" d="M204.564,431.872h1.439l0.12,0.756h0.048c0.504-0.479,1.104-0.899,1.906-0.899
		c1.296,0,1.848,0.911,1.848,2.398v3.694h-1.764v-3.467c0-0.863-0.228-1.127-0.731-1.127c-0.443,0-0.72,0.204-1.104,0.576v4.018
		h-1.763V431.872z"/>
	<path fill="#02BFE7" d="M213.972,430.001h2.687c1.716,0,3.106,0.624,3.106,2.519c0,1.835-1.403,2.651-3.058,2.651h-0.972v2.65
		h-1.764V430.001z M216.599,433.768c0.972,0,1.439-0.432,1.439-1.248c0-0.815-0.528-1.115-1.487-1.115h-0.815v2.363H216.599z"/>
	<path fill="#02BFE7" d="M220.98,435.974v-6.56h1.763v6.632c0,0.372,0.168,0.492,0.312,0.492c0.072,0,0.12,0,0.216-0.024
		l0.216,1.308c-0.191,0.084-0.491,0.144-0.888,0.144C221.388,437.965,220.98,437.174,220.98,435.974z"/>
	<path fill="#02BFE7" d="M224.137,436.166c0-1.247,0.995-1.931,3.346-2.171c-0.036-0.527-0.288-0.863-0.936-0.863
		c-0.504,0-0.995,0.204-1.571,0.539l-0.636-1.163c0.756-0.456,1.607-0.779,2.543-0.779c1.523,0,2.362,0.863,2.362,2.687v3.406
		h-1.438l-0.12-0.612h-0.048c-0.504,0.444-1.056,0.756-1.728,0.756C224.82,437.965,224.137,437.174,224.137,436.166z
		 M227.482,436.094v-1.043c-1.247,0.168-1.655,0.527-1.655,0.983c0,0.384,0.264,0.563,0.684,0.563
		C226.907,436.598,227.171,436.407,227.482,436.094z"/>
	<path fill="#02BFE7" d="M230.736,431.872h1.438l0.12,0.756h0.048c0.504-0.479,1.104-0.899,1.907-0.899
		c1.295,0,1.847,0.911,1.847,2.398v3.694h-1.763v-3.467c0-0.863-0.228-1.127-0.731-1.127c-0.444,0-0.72,0.204-1.104,0.576v4.018
		h-1.763V431.872z"/>
</g>
<g>
</g>
<g>
</g>
<g>
</g>
<g>
</g>
<g>
</g>
<g>
</g>
<g>
</g>
<g>
</g>
<g>
</g>
<g>
</g>
<g>
</g>
<g>
</g>
<g>
</g>
<g>
</g>
<g>
</g>
</svg>
