<?xml version="1.0" encoding="utf-8"?>
<!-- Generator: Adobe Illustrator 24.0.0, SVG Export Plug-In . SVG Version: 6.00 Build 0)  -->
<svg version="1.1" id="Layer_1" xmlns="http://www.w3.org/2000/svg" xmlns:xlink="http://www.w3.org/1999/xlink" x="0px" y="0px"
	 viewBox="0 0 1024 200" enable-background="new 0 0 1024 200" xml:space="preserve">
<rect x="-9.977" y="-19.241" fill="#112E51" width="1072.599" height="234.814"/>
<line fill="none" stroke="#FFFFFF" stroke-width="4" stroke-miterlimit="10" x1="-1" y1="100" x2="1023" y2="100"/>
<g>
	<g>
		<defs>
			<rect id="SVGID_1_" x="152.834" y="31.127" width="41.6" height="33.8"/>
		</defs>
		<clipPath id="SVGID_2_">
			<use xlink:href="#SVGID_1_"  overflow="visible"/>
		</clipPath>
		<rect x="152.834" y="31.127" clip-path="url(#SVGID_2_)" fill="#FFFFFF" fill-opacity="0" width="41.6" height="33.8"/>
	</g>
	<g>
		<defs>
			<rect id="SVGID_3_" x="152.834" y="31.127" width="41.6" height="33.8"/>
		</defs>
		<clipPath id="SVGID_4_">
			<use xlink:href="#SVGID_3_"  overflow="visible"/>
		</clipPath>
		<path clip-path="url(#SVGID_4_)" fill="#FFFFFF" d="M155.671,49.904c-1.568,0-2.837,1.264-2.837,2.818s1.269,2.816,2.837,2.816
			c1.565,0,2.834-1.261,2.834-2.816C158.505,51.167,157.236,49.904,155.671,49.904 M155.671,40.515
			c-1.568,0-2.837,1.264-2.837,2.816c0,1.555,1.269,2.816,2.837,2.816c1.565,0,2.834-1.261,2.834-2.816
			C158.505,41.779,157.236,40.515,155.671,40.515 M155.671,59.292c-1.568,0-2.837,1.261-2.837,2.818
			c0,1.555,1.269,2.816,2.837,2.816c1.565,0,2.834-1.261,2.834-2.816C158.505,60.553,157.236,59.292,155.671,59.292 M163.234,34.881
			h30.254c0.523,0,0.946-0.419,0.946-0.939c0-0.517-0.424-0.939-0.946-0.939h-30.254c-0.523,0-0.946,0.421-0.946,0.939
			C162.288,34.462,162.712,34.881,163.234,34.881 M193.488,61.172h-30.254c-0.523,0-0.946,0.421-0.946,0.939
			c0,0.52,0.424,0.939,0.946,0.939h30.254c0.523,0,0.946-0.419,0.946-0.939C194.434,61.591,194.01,61.172,193.488,61.172
			 M155.671,31.127c-1.568,0-2.837,1.264-2.837,2.816c0,1.555,1.269,2.816,2.837,2.816c1.565,0,2.834-1.261,2.834-2.816
			C158.505,32.39,157.236,31.127,155.671,31.127 M193.488,42.392h-30.254c-0.523,0-0.946,0.421-0.946,0.939
			c0,0.52,0.424,0.941,0.946,0.941h30.254c0.523,0,0.946-0.421,0.946-0.941C194.434,42.814,194.01,42.392,193.488,42.392
			 M193.488,51.781h-30.254c-0.523,0-0.946,0.421-0.946,0.939c0,0.52,0.424,0.939,0.946,0.939h30.254
			c0.523,0.003,0.946-0.419,0.946-0.936C194.434,52.202,194.01,51.781,193.488,51.781"/>
	</g>
</g>
<g>
	<g>
		<defs>
			<rect id="SVGID_5_" x="365.6" y="27.227" width="33.8" height="41.6"/>
		</defs>
		<clipPath id="SVGID_6_">
			<use xlink:href="#SVGID_5_"  overflow="visible"/>
		</clipPath>
		<rect x="365.6" y="27.227" clip-path="url(#SVGID_6_)" fill="#FFFFFF" fill-opacity="0" width="33.8" height="41.6"/>
	</g>
	<g>
		<defs>
			<rect id="SVGID_7_" x="365.6" y="27.227" width="33.8" height="41.6"/>
		</defs>
		<clipPath id="SVGID_8_">
			<use xlink:href="#SVGID_7_"  overflow="visible"/>
		</clipPath>
		<path clip-path="url(#SVGID_8_)" fill="#FFFFFF" d="M383.439,55.59h-11.266c-0.52,0-0.939,0.424-0.939,0.946
			c0,0.523,0.419,0.946,0.939,0.946h11.266c0.52,0,0.939-0.421,0.939-0.946C384.377,56.014,383.959,55.59,383.439,55.59
			 M379.684,61.263h-7.511c-0.52,0-0.939,0.424-0.939,0.946c0,0.523,0.419,0.946,0.939,0.946h7.511c0.52,0,0.939-0.424,0.939-0.946
			C380.623,61.687,380.202,61.263,379.684,61.263 M372.173,46.136h3.754c0.52,0,0.939-0.421,0.939-0.946
			c0-0.523-0.419-0.946-0.939-0.946h-3.754c-0.52,0-0.939,0.424-0.939,0.946C371.234,45.713,371.653,46.136,372.173,46.136
			 M371.234,50.863c0,0.523,0.419,0.946,0.939,0.946h11.266c0.52,0,0.939-0.424,0.939-0.946c0-0.523-0.419-0.946-0.939-0.946
			h-11.266C371.653,49.917,371.234,50.341,371.234,50.863 M392.827,27.227h-14.082c-2.075,0-3.757,1.693-3.757,3.783v2.834
			c0,0.523,0.419,0.946,0.939,0.946c0.52,0,0.939-0.421,0.939-0.946V31.01c0-1.043,0.842-1.89,1.877-1.89h11.266v5.671
			c0,1.043,0.842,1.89,1.877,1.89h5.634v18.91c0,1.043-0.842,1.89-1.877,1.89h-2.816c-0.52,0-0.939,0.424-0.939,0.946
			c0,0.523,0.419,0.946,0.939,0.946h2.816c2.072,0,3.754-1.693,3.754-3.783v-20.8L392.827,27.227z M391.889,34.79v-5.525
			l4.896,5.525H391.889z M369.354,36.68c-2.072,0-3.754,1.693-3.754,3.783v24.58c0,2.09,1.682,3.783,3.754,3.783h16.9
			c2.072,0,3.754-1.693,3.754-3.783v-20.8l-6.57-7.563H369.354z M388.134,65.044c0,1.045-0.842,1.89-1.877,1.89h-16.9
			c-1.035,0-1.877-0.845-1.877-1.89v-24.58c0-1.043,0.842-1.89,1.877-1.89h11.266v5.671c0,1.043,0.842,1.89,1.877,1.89h5.634V65.044
			z M382.5,44.244v-5.525l4.896,5.525H382.5z"/>
	</g>
</g>
<g>
	<path fill="#FFFFFF" d="M604.987,27.227h-26.291c-2.072,0-3.754,1.693-3.754,3.783v34.034c0,2.088,1.682,3.783,3.754,3.783h26.289
		c2.075,0,3.757-1.695,3.757-3.783V31.01C608.741,28.919,607.059,27.227,604.987,27.227 M597.476,29.117h3.754v6.617l-1.877-1.89
		l-1.877,1.893V29.117z M582.453,66.934h-3.757c-1.035,0-1.877-0.845-1.877-1.89V31.01c0-1.043,0.842-1.89,1.877-1.89h3.754v37.814
		H582.453z M606.864,65.044c0,1.043-0.842,1.89-1.877,1.89H584.33V29.117h11.266v11.344l3.754-3.78l3.754,3.78V29.117h1.877
		c1.035,0,1.877,0.848,1.877,1.89v34.037H606.864z"/>
</g>
<g>
	<g>
		<defs>
			<rect id="SVGID_9_" x="785.266" y="30.226" width="41.6" height="41.6"/>
		</defs>
		<clipPath id="SVGID_10_">
			<use xlink:href="#SVGID_9_"  overflow="visible"/>
		</clipPath>
		<rect x="785.266" y="30.226" clip-path="url(#SVGID_10_)" fill="#FFFFFF" fill-opacity="0" width="41.6" height="41.6"/>
	</g>
	<g>
		<defs>
			<rect id="SVGID_11_" x="785.266" y="30.226" width="41.6" height="41.6"/>
		</defs>
		<clipPath id="SVGID_12_">
			<use xlink:href="#SVGID_11_"  overflow="visible"/>
		</clipPath>
		<path clip-path="url(#SVGID_12_)" fill="#FFFFFF" d="M808.902,47.243h9.454c0.523,0,0.946-0.421,0.946-0.946
			c0-0.52-0.424-0.944-0.946-0.944h-9.454c-0.523,0-0.946,0.424-0.946,0.944C807.956,46.821,808.38,47.243,808.902,47.243
			 M808.902,43.462h5.671c0.523,0,0.946-0.424,0.946-0.946s-0.424-0.946-0.946-0.946h-5.671c-0.523,0-0.946,0.424-0.946,0.946
			S808.38,43.462,808.902,43.462 M808.902,51.026h3.78c0.523,0,0.946-0.424,0.946-0.946c0-0.523-0.424-0.946-0.946-0.946h-3.78
			c-0.523,0-0.946,0.424-0.946,0.946S808.38,51.026,808.902,51.026 M794.719,54.809h7.563c1.043,0,1.89-0.845,1.89-1.89v-9.456
			c0-1.043-0.848-1.89-1.89-1.89h-7.563c-1.043,0-1.89,0.848-1.89,1.89v9.454C792.829,53.964,793.677,54.809,794.719,54.809
			 M794.719,43.462h7.563v9.454h-7.563V43.462z M808.902,54.809h9.454c0.523,0,0.946-0.424,0.946-0.946
			c0-0.523-0.424-0.946-0.946-0.946h-9.454c-0.523,0-0.946,0.424-0.946,0.946C807.956,54.385,808.38,54.809,808.902,54.809
			 M824.976,32.116h-17.02c0-1.043-0.848-1.89-1.89-1.89c-1.043,0-1.89,0.848-1.89,1.89h-17.02c-1.043,0-1.89,0.848-1.89,1.893v1.89
			c0,1.045,0.848,1.89,1.89,1.89v22.69c0,1.045,0.848,1.89,1.89,1.89h16.071v2.444l-5.398,5.398
			c-0.169,0.172-0.276,0.408-0.276,0.668c0.005,0.523,0.429,0.946,0.952,0.946c0.26,0,0.497-0.107,0.668-0.278l5.002-5.002
			l5.002,5.002c0.172,0.172,0.408,0.278,0.668,0.278c0.523,0,0.946-0.424,0.946-0.946c0-0.26-0.107-0.497-0.276-0.668l-5.398-5.398
			v-2.444h16.071c1.043,0,1.89-0.845,1.89-1.89v-22.69c1.048,0,1.895-0.845,1.895-1.893v-1.888
			C826.866,32.963,826.018,32.116,824.976,32.116 M823.083,60.479h-34.034v-22.69h34.034V60.479z M824.976,35.896h-37.82v-1.888
			h37.817v1.888H824.976z"/>
	</g>
</g>
<g>
	<rect x="137.744" y="116.768" fill="none" width="79.268" height="20.122"/>
	<path fill="#B2B2B2" d="M138.05,126.781l1.666-1.139c0.306,0.595,0.867,0.935,1.462,0.935c0.952,0,1.428-0.459,1.428-1.972v-7.021
		h2.635v7.241c0,2.21-1.19,4.029-3.791,4.029C139.869,128.855,138.764,128.209,138.05,126.781z"/>
	<path fill="#B2B2B2" d="M147.434,125.438v-5.235h2.635v4.896c0,1.173,0.306,1.513,0.986,1.513c0.595,0,0.952-0.238,1.411-0.867
		v-5.541h2.635v8.448h-2.142l-0.187-1.156h-0.068c-0.697,0.833-1.496,1.36-2.635,1.36
		C148.215,128.855,147.434,127.546,147.434,125.438z"/>
	<path fill="#B2B2B2" d="M157.242,125.914v-9.145h2.618v9.247c0,0.544,0.272,0.714,0.476,0.714c0.102,0,0.17,0,0.306-0.034
		l0.306,1.938c-0.289,0.119-0.731,0.222-1.309,0.222C157.837,128.855,157.242,127.683,157.242,125.914z"/>
	<path fill="#B2B2B2" d="M161.985,131.711l0.459-1.938c0.272,0.067,0.391,0.085,0.561,0.085c0.816,0,1.224-0.426,1.428-1.037
		l0.119-0.408l-3.247-8.21h2.635l1.156,3.502c0.238,0.781,0.425,1.563,0.646,2.396h0.068c0.187-0.799,0.357-1.598,0.578-2.396
		l0.969-3.502h2.516l-2.907,8.465c-0.833,2.176-1.734,3.247-3.756,3.247C162.665,131.915,162.325,131.847,161.985,131.711z"/>
	<path fill="#B2B2B2" d="M174.106,127.036c2.652-2.346,4.624-4.267,4.624-5.763c0-1.02-0.561-1.547-1.462-1.547
		c-0.748,0-1.343,0.511-1.87,1.071l-1.36-1.359c1.054-1.19,2.057-1.785,3.586-1.785c2.142,0,3.621,1.377,3.621,3.45
		c0,1.938-1.768,3.689-3.586,5.457c0.561-0.051,1.309-0.119,1.802-0.119h2.312v2.21h-7.666V127.036z"/>
	<path fill="#B2B2B2" d="M183.133,123.212c0-3.688,1.564-5.559,3.91-5.559s3.91,1.887,3.91,5.559c0,3.671-1.564,5.644-3.91,5.644
		S183.133,126.883,183.133,123.212z M188.47,123.212c0-2.924-0.646-3.519-1.428-3.519c-0.799,0-1.428,0.595-1.428,3.519
		c0,2.906,0.629,3.62,1.428,3.62C187.825,126.832,188.47,126.118,188.47,123.212z"/>
	<path fill="#B2B2B2" d="M192.721,126.526h2.346v-6.034h-2.022v-1.632c1.173-0.222,1.955-0.51,2.72-1.003h1.938v8.669h2.006v2.125
		h-6.986V126.526z"/>
	<path fill="#B2B2B2" d="M201.323,125.897c0-1.292,0.799-2.074,1.819-2.618v-0.067c-0.85-0.629-1.445-1.428-1.445-2.55
		c0-1.853,1.462-3.009,3.501-3.009c1.989,0,3.315,1.173,3.315,2.975c0,1.02-0.663,1.836-1.411,2.329v0.067
		c1.037,0.562,1.87,1.395,1.87,2.822c0,1.717-1.547,3.009-3.859,3.009C202.938,128.855,201.323,127.648,201.323,125.897z
		 M206.524,125.762c0-0.901-0.867-1.241-2.193-1.802c-0.425,0.407-0.748,1.003-0.748,1.632c0,0.918,0.731,1.444,1.581,1.444
		C205.929,127.036,206.524,126.646,206.524,125.762z M206.371,120.814c0-0.815-0.458-1.343-1.241-1.343
		c-0.612,0-1.122,0.392-1.122,1.19c0,0.833,0.697,1.24,1.768,1.666C206.167,121.835,206.371,121.342,206.371,120.814z"/>
</g>
<circle fill="#B2B2B2" cx="177.378" cy="99.756" r="7.927"/>
<g>
	<g>
		<path fill="#B2B2B2" d="M328.019,125.075c0-3.637,2.057-5.694,5.065-5.694s5.065,2.074,5.065,5.694c0,3.621-2.057,5.78-5.065,5.78
			S328.019,128.696,328.019,125.075z M335.447,125.075c0-2.158-0.901-3.416-2.363-3.416c-1.445,0-2.363,1.258-2.363,3.416
			c0,2.143,0.918,3.502,2.363,3.502C334.546,128.577,335.447,127.218,335.447,125.075z"/>
		<path fill="#B2B2B2" d="M339.527,126.419c0-2.805,2.091-4.42,4.437-4.42c1.037,0,1.835,0.356,2.464,0.9l-1.224,1.615
			c-0.391-0.289-0.714-0.408-1.088-0.408c-1.173,0-1.904,0.918-1.904,2.312c0,1.41,0.782,2.312,1.819,2.312
			c0.561,0,1.037-0.204,1.462-0.527l1.02,1.649c-0.816,0.748-1.887,1.003-2.788,1.003
			C341.346,130.855,339.527,129.224,339.527,126.419z"/>
		<path fill="#B2B2B2" d="M348.146,127.523v-3.264h-1.139v-1.972l1.292-0.085l0.306-2.584h2.176v2.584h1.989v2.057h-1.989v3.229
			c0,0.952,0.442,1.309,1.071,1.309c0.272,0,0.561-0.033,0.782-0.118l0.408,1.835c-0.442,0.171-1.088,0.341-1.92,0.341
			C349.013,130.855,348.146,129.513,348.146,127.523z"/>
		<path fill="#B2B2B2" d="M353.603,126.419c0-2.805,1.989-4.42,4.131-4.42c2.159,0,4.147,1.615,4.147,4.42s-1.989,4.437-4.147,4.437
			C355.592,130.855,353.603,129.224,353.603,126.419z M359.179,126.419c0-1.395-0.459-2.312-1.445-2.312s-1.445,0.918-1.445,2.312
			c0,1.41,0.459,2.312,1.445,2.312S359.179,127.829,359.179,126.419z"/>
		<path fill="#B2B2B2" d="M365.877,129.75h-0.068l-0.204,0.901h-2.057V118.77h2.618v2.855l-0.051,1.274
			c0.629-0.561,1.394-0.9,2.176-0.9c2.04,0,3.314,1.683,3.314,4.283c0,2.907-1.717,4.573-3.536,4.573
			C367.305,130.855,366.54,130.481,365.877,129.75z M368.902,126.316c0-1.479-0.442-2.176-1.377-2.176
			c-0.493,0-0.901,0.221-1.36,0.714v3.349c0.425,0.374,0.867,0.493,1.275,0.493C368.256,128.696,368.902,128.033,368.902,126.316z"
			/>
		<path fill="#B2B2B2" d="M372.847,126.419c0-2.737,1.972-4.42,3.995-4.42c2.448,0,3.638,1.768,3.638,4.062
			c0,0.476-0.051,0.918-0.102,1.156h-4.98c0.238,1.139,1.037,1.632,2.108,1.632c0.612,0,1.224-0.188,1.819-0.527l0.85,1.581
			c-0.884,0.629-2.04,0.952-3.043,0.952C374.717,130.855,372.847,129.24,372.847,126.419z M378.235,125.449
			c0-0.832-0.374-1.462-1.326-1.462c-0.748,0-1.377,0.477-1.547,1.462H378.235z"/>
		<path fill="#B2B2B2" d="M382.163,122.203h2.142l0.187,1.462h0.068c0.612-1.139,1.547-1.666,2.396-1.666
			c0.493,0,0.782,0.051,1.02,0.17l-0.493,2.227c-0.306-0.067-0.493-0.102-0.867-0.102c-0.629,0-1.394,0.408-1.836,1.529v4.828
			h-2.618V122.203z"/>
		<path fill="#B2B2B2" d="M392.005,129.036c2.652-2.346,4.624-4.267,4.624-5.763c0-1.02-0.561-1.547-1.462-1.547
			c-0.748,0-1.343,0.511-1.87,1.071l-1.36-1.359c1.054-1.19,2.057-1.785,3.586-1.785c2.142,0,3.621,1.377,3.621,3.45
			c0,1.938-1.768,3.689-3.586,5.457c0.561-0.051,1.309-0.119,1.802-0.119h2.312v2.21h-7.667V129.036z"/>
		<path fill="#B2B2B2" d="M401.032,125.212c0-3.688,1.564-5.559,3.91-5.559s3.91,1.887,3.91,5.559c0,3.671-1.564,5.644-3.91,5.644
			S401.032,128.883,401.032,125.212z M406.37,125.212c0-2.924-0.646-3.519-1.428-3.519c-0.799,0-1.428,0.595-1.428,3.519
			c0,2.906,0.629,3.62,1.428,3.62C405.724,128.832,406.37,128.118,406.37,125.212z"/>
		<path fill="#B2B2B2" d="M410.62,128.526h2.346v-6.034h-2.022v-1.632c1.173-0.222,1.955-0.51,2.72-1.003h1.938v8.669h2.006v2.125
			h-6.986V128.526z"/>
		<path fill="#B2B2B2" d="M419.222,127.897c0-1.292,0.799-2.074,1.819-2.618v-0.067c-0.85-0.629-1.445-1.428-1.445-2.55
			c0-1.853,1.462-3.009,3.501-3.009c1.989,0,3.315,1.173,3.315,2.975c0,1.02-0.663,1.836-1.411,2.329v0.067
			c1.037,0.562,1.87,1.395,1.87,2.822c0,1.717-1.547,3.009-3.859,3.009C420.837,130.855,419.222,129.648,419.222,127.897z
			 M424.424,127.762c0-0.901-0.867-1.241-2.193-1.802c-0.425,0.407-0.748,1.003-0.748,1.632c0,0.918,0.731,1.444,1.581,1.444
			C423.829,129.036,424.424,128.646,424.424,127.762z M424.271,122.814c0-0.815-0.459-1.343-1.241-1.343
			c-0.612,0-1.122,0.392-1.122,1.19c0,0.833,0.697,1.24,1.768,1.666C424.067,123.835,424.271,123.342,424.271,122.814z"/>
	</g>
</g>
<circle fill="#B2B2B2" cx="379.869" cy="99.756" r="7.927"/>
<g>
	<g>
		<path fill="#C40000" d="M539.979,128.782l1.666-1.14c0.306,0.596,0.867,0.936,1.462,0.936c0.952,0,1.428-0.459,1.428-1.972v-7.021
			h2.635v7.241c0,2.21-1.19,4.028-3.791,4.028C541.799,130.855,540.693,130.21,539.979,128.782z"/>
		<path fill="#C40000" d="M549.363,127.438v-5.235h2.635v4.896c0,1.173,0.307,1.513,0.986,1.513c0.595,0,0.952-0.237,1.411-0.866
			v-5.542h2.635v8.448h-2.143l-0.187-1.155h-0.068c-0.696,0.833-1.495,1.359-2.635,1.359
			C550.146,130.855,549.363,129.547,549.363,127.438z"/>
		<path fill="#C40000" d="M559.172,122.203h2.143l0.187,1.055h0.068c0.696-0.681,1.547-1.259,2.702-1.259
			c1.836,0,2.618,1.31,2.618,3.417v5.235h-2.635v-4.896c0-1.173-0.306-1.529-0.986-1.529c-0.595,0-0.951,0.289-1.479,0.765v5.66
			h-2.618V122.203z"/>
		<path fill="#C40000" d="M568.471,126.419c0-2.736,1.973-4.42,3.995-4.42c2.447,0,3.638,1.769,3.638,4.063
			c0,0.476-0.051,0.917-0.103,1.155h-4.98c0.238,1.139,1.037,1.632,2.108,1.632c0.611,0,1.224-0.187,1.818-0.526l0.851,1.58
			c-0.885,0.629-2.04,0.952-3.043,0.952C570.341,130.855,568.471,129.241,568.471,126.419z M573.859,125.45
			c0-0.833-0.374-1.462-1.325-1.462c-0.748,0-1.377,0.476-1.547,1.462H573.859z"/>
		<path fill="#C40000" d="M580.745,129.037c2.651-2.346,4.623-4.267,4.623-5.763c0-1.02-0.561-1.547-1.462-1.547
			c-0.748,0-1.343,0.51-1.869,1.071l-1.36-1.36c1.054-1.189,2.057-1.785,3.587-1.785c2.142,0,3.62,1.377,3.62,3.451
			c0,1.938-1.768,3.688-3.586,5.456c0.561-0.051,1.309-0.119,1.802-0.119h2.312v2.21h-7.666V129.037z"/>
		<path fill="#C40000" d="M589.771,125.212c0-3.688,1.564-5.559,3.91-5.559s3.909,1.887,3.909,5.559s-1.563,5.644-3.909,5.644
			S589.771,128.884,589.771,125.212z M595.109,125.212c0-2.924-0.646-3.519-1.428-3.519c-0.799,0-1.428,0.595-1.428,3.519
			c0,2.907,0.629,3.621,1.428,3.621C594.464,128.833,595.109,128.119,595.109,125.212z"/>
		<path fill="#C40000" d="M599.359,128.526h2.346v-6.034h-2.022v-1.632c1.173-0.221,1.955-0.51,2.72-1.003h1.938v8.669h2.006v2.125
			h-6.986V128.526z"/>
		<path fill="#C40000" d="M607.962,129.529l1.394-1.563c0.357,0.408,1.037,0.765,1.649,0.765c1.173,0,2.057-0.815,2.158-3.229
			c-0.561,0.714-1.479,1.122-2.107,1.122c-1.854,0-3.247-1.037-3.247-3.332c0-2.261,1.666-3.638,3.638-3.638
			c2.091,0,4.131,1.547,4.131,5.372c0,3.994-2.108,5.83-4.386,5.83C609.729,130.855,608.658,130.243,607.962,129.529z
			 M611.565,124.771c0.544,0,1.139-0.289,1.547-1.003c-0.238-1.666-0.918-2.142-1.598-2.142c-0.697,0-1.292,0.476-1.292,1.665
			C610.223,124.396,610.801,124.771,611.565,124.771z"/>
	</g>
</g>
<circle fill="#C40000" cx="591.448" cy="99.756" r="7.927"/>
<g>
	<g>
		<path fill="#B2B2B2" d="M767.948,119.586h3.179c3.383,0,5.609,1.648,5.609,5.49c0,3.824-2.227,5.575-5.456,5.575h-3.332V119.586z
			 M770.975,128.526c1.784,0,3.06-0.832,3.06-3.45c0-2.635-1.275-3.365-3.06-3.365h-0.374v6.815H770.975z"/>
		<path fill="#B2B2B2" d="M778.098,126.419c0-2.736,1.972-4.42,3.994-4.42c2.448,0,3.638,1.769,3.638,4.063
			c0,0.476-0.051,0.917-0.102,1.155h-4.98c0.238,1.139,1.037,1.632,2.107,1.632c0.612,0,1.225-0.187,1.819-0.526l0.85,1.58
			c-0.884,0.629-2.04,0.952-3.043,0.952C779.968,130.855,778.098,129.241,778.098,126.419z M783.486,125.45
			c0-0.833-0.374-1.462-1.326-1.462c-0.748,0-1.377,0.476-1.547,1.462H783.486z"/>
		<path fill="#B2B2B2" d="M786.938,126.419c0-2.805,2.091-4.42,4.437-4.42c1.037,0,1.836,0.357,2.465,0.901l-1.224,1.615
			c-0.392-0.289-0.714-0.408-1.088-0.408c-1.173,0-1.904,0.918-1.904,2.312c0,1.411,0.782,2.312,1.819,2.312
			c0.561,0,1.036-0.204,1.462-0.526l1.02,1.648c-0.816,0.748-1.887,1.003-2.788,1.003
			C788.756,130.855,786.938,129.224,786.938,126.419z"/>
		<path fill="#B2B2B2" d="M794.434,126.419c0-2.736,1.973-4.42,3.995-4.42c2.447,0,3.638,1.769,3.638,4.063
			c0,0.476-0.051,0.917-0.103,1.155h-4.98c0.238,1.139,1.037,1.632,2.108,1.632c0.611,0,1.224-0.187,1.818-0.526l0.851,1.58
			c-0.885,0.629-2.04,0.952-3.043,0.952C796.304,130.855,794.434,129.241,794.434,126.419z M799.822,125.45
			c0-0.833-0.374-1.462-1.325-1.462c-0.748,0-1.377,0.476-1.547,1.462H799.822z"/>
		<path fill="#B2B2B2" d="M803.75,122.203h2.142l0.188,1.055h0.067c0.68-0.681,1.428-1.259,2.55-1.259
			c1.173,0,1.904,0.493,2.329,1.395c0.73-0.748,1.513-1.395,2.635-1.395c1.836,0,2.651,1.31,2.651,3.417v5.235h-2.617v-4.896
			c0-1.173-0.323-1.529-0.986-1.529c-0.408,0-0.85,0.255-1.36,0.765v5.66h-2.635v-4.896c0-1.173-0.306-1.529-0.985-1.529
			c-0.391,0-0.85,0.255-1.36,0.765v5.66h-2.617V122.203z"/>
		<path fill="#B2B2B2" d="M820.716,129.751h-0.068l-0.204,0.9h-2.057V118.77h2.617v2.856l-0.051,1.274
			c0.629-0.561,1.395-0.901,2.176-0.901c2.04,0,3.314,1.684,3.314,4.284c0,2.906-1.717,4.572-3.535,4.572
			C822.144,130.855,821.378,130.481,820.716,129.751z M823.741,126.317c0-1.479-0.442-2.176-1.377-2.176
			c-0.493,0-0.901,0.221-1.36,0.714v3.349c0.426,0.374,0.867,0.493,1.275,0.493C823.095,128.697,823.741,128.034,823.741,126.317z"
			/>
		<path fill="#B2B2B2" d="M827.686,126.419c0-2.736,1.972-4.42,3.994-4.42c2.448,0,3.638,1.769,3.638,4.063
			c0,0.476-0.051,0.917-0.102,1.155h-4.98c0.238,1.139,1.037,1.632,2.107,1.632c0.612,0,1.225-0.187,1.819-0.526l0.85,1.58
			c-0.884,0.629-2.04,0.952-3.043,0.952C829.556,130.855,827.686,129.241,827.686,126.419z M833.074,125.45
			c0-0.833-0.374-1.462-1.326-1.462c-0.748,0-1.377,0.476-1.547,1.462H833.074z"/>
		<path fill="#B2B2B2" d="M837.001,122.203h2.143l0.187,1.462h0.068c0.611-1.139,1.547-1.666,2.396-1.666
			c0.493,0,0.782,0.052,1.02,0.171l-0.492,2.227c-0.307-0.068-0.493-0.103-0.867-0.103c-0.629,0-1.395,0.408-1.836,1.53v4.827
			h-2.618V122.203z"/>
		<path fill="#B2B2B2" d="M846.844,129.037c2.652-2.346,4.624-4.267,4.624-5.763c0-1.02-0.562-1.547-1.462-1.547
			c-0.748,0-1.343,0.51-1.87,1.071l-1.359-1.36c1.054-1.189,2.057-1.785,3.586-1.785c2.143,0,3.621,1.377,3.621,3.451
			c0,1.938-1.768,3.688-3.587,5.456c0.562-0.051,1.309-0.119,1.802-0.119h2.312v2.21h-7.667V129.037z"/>
		<path fill="#B2B2B2" d="M855.871,125.212c0-3.688,1.563-5.559,3.909-5.559s3.91,1.887,3.91,5.559s-1.564,5.644-3.91,5.644
			S855.871,128.884,855.871,125.212z M861.208,125.212c0-2.924-0.646-3.519-1.428-3.519c-0.799,0-1.428,0.595-1.428,3.519
			c0,2.907,0.629,3.621,1.428,3.621C860.562,128.833,861.208,128.119,861.208,125.212z"/>
		<path fill="#B2B2B2" d="M865.459,128.526h2.346v-6.034h-2.022v-1.632c1.173-0.221,1.954-0.51,2.72-1.003h1.938v8.669h2.006v2.125
			h-6.986V128.526z"/>
		<path fill="#B2B2B2" d="M874.061,129.529l1.395-1.563c0.356,0.408,1.036,0.765,1.648,0.765c1.173,0,2.057-0.815,2.159-3.229
			c-0.562,0.714-1.479,1.122-2.108,1.122c-1.853,0-3.246-1.037-3.246-3.332c0-2.261,1.665-3.638,3.638-3.638
			c2.091,0,4.13,1.547,4.13,5.372c0,3.994-2.107,5.83-4.385,5.83C875.829,130.855,874.758,130.243,874.061,129.529z
			 M877.664,124.771c0.544,0,1.14-0.289,1.547-1.003c-0.237-1.666-0.918-2.142-1.598-2.142c-0.696,0-1.292,0.476-1.292,1.665
			C876.321,124.396,876.899,124.771,877.664,124.771z"/>
	</g>
</g>
<circle fill="#B2B2B2" cx="806.448" cy="99.756" r="7.927"/>
<g>
	<rect x="137.744" y="138.89" fill="none" width="129.256" height="51.11"/>
	<path fill="#02BFE7" d="M139.871,142.045c0.406,0,0.753,0.144,1.04,0.431s0.431,0.634,0.431,1.04s-0.144,0.753-0.431,1.04
		s-0.634,0.431-1.04,0.431s-0.753-0.144-1.04-0.431s-0.431-0.634-0.431-1.04s0.143-0.753,0.428-1.04
		S139.461,142.045,139.871,142.045z M139.871,142.49c-0.285,0-0.527,0.101-0.727,0.302s-0.299,0.442-0.299,0.724
		c0,0.285,0.101,0.527,0.302,0.727s0.442,0.299,0.724,0.299s0.522-0.1,0.724-0.299s0.302-0.441,0.302-0.727
		c0-0.281-0.1-0.522-0.299-0.724S140.156,142.49,139.871,142.49z"/>
	<path fill="#02BFE7" d="M147.323,139.614h1.487c2.135,0,3.334,1.14,3.334,3.106c0,2.807-1.643,4.762-4.257,4.762h-2.135
		L147.323,139.614z M147.887,146.715c1.991,0,3.298-1.644,3.298-3.934c0-1.523-0.876-2.399-2.411-2.399h-0.671l-1.259,6.333H147.887
		z"/>
	<path fill="#02BFE7" d="M153.995,141.653h0.768l-0.144,1.115h0.048c0.468-0.707,1.08-1.259,1.799-1.259
		c0.216,0,0.408,0.036,0.563,0.107l-0.324,0.804c-0.132-0.06-0.3-0.072-0.504-0.072c-0.587,0-1.223,0.504-1.727,1.464l-0.72,3.67
		h-0.924L153.995,141.653z"/>
	<path fill="#02BFE7" d="M156.912,145.516c0-2.243,1.535-4.006,3.154-4.006c0.624,0,1.127,0.348,1.403,0.875h0.048l0.228-0.731
		h0.755l-1.175,5.829h-0.755l0.083-0.863h-0.036c-0.576,0.6-1.295,1.007-2.027,1.007
		C157.571,147.626,156.912,146.883,156.912,145.516z M160.75,145.743l0.54-2.603c-0.335-0.611-0.744-0.852-1.187-0.852
		c-1.164,0-2.231,1.476-2.231,3.082c0,1.008,0.408,1.476,1.055,1.476C159.538,146.847,160.186,146.499,160.75,145.743z"/>
	<path fill="#02BFE7" d="M164.423,142.397h-0.755l0.132-0.685l0.779-0.06l0.192-0.972c0.24-1.163,0.864-1.883,1.847-1.883
		c0.42,0,0.768,0.12,1.043,0.288l-0.312,0.647c-0.168-0.107-0.384-0.18-0.671-0.18c-0.516,0-0.852,0.432-0.983,1.104l-0.204,0.995
		h2.003l0.492-1.859h0.78l-0.372,1.859h1.475l-0.144,0.744h-1.5l-0.684,3.321c-0.024,0.145-0.036,0.288-0.036,0.433
		c0,0.479,0.204,0.719,0.719,0.719c0.252,0,0.456-0.084,0.636-0.168l0.204,0.648c-0.264,0.132-0.672,0.275-1.116,0.275
		c-1.007,0-1.391-0.575-1.391-1.308c0-0.228,0.024-0.419,0.072-0.635l0.672-3.286h-1.955l-1.02,5.085h-0.923L164.423,142.397z"/>
	<path fill="#02BFE7" d="M174.034,139.614h2.219c1.487,0,2.471,0.552,2.471,1.919c0,1.932-1.427,2.795-3.442,2.795h-1.259
		l-0.624,3.154h-0.936L174.034,139.614z M175.33,143.561c1.607,0,2.471-0.647,2.471-1.907c0-0.899-0.624-1.283-1.775-1.283h-1.211
		l-0.624,3.19H175.33z"/>
	<path fill="#02BFE7" d="M180.19,141.653h0.768l-0.144,1.115h0.048c0.468-0.707,1.08-1.259,1.799-1.259
		c0.216,0,0.408,0.036,0.563,0.107l-0.324,0.804c-0.132-0.06-0.3-0.072-0.504-0.072c-0.587,0-1.223,0.504-1.727,1.464l-0.72,3.67
		h-0.924L180.19,141.653z"/>
	<path fill="#02BFE7" d="M184.294,141.653h0.923l-1.163,5.829h-0.924L184.294,141.653z M184.462,139.902
		c0-0.396,0.324-0.695,0.695-0.695c0.312,0,0.588,0.203,0.588,0.552c0,0.396-0.324,0.684-0.696,0.684
		C184.738,140.442,184.462,140.25,184.462,139.902z"/>
	<path fill="#02BFE7" d="M187.138,141.653h0.768l-0.096,0.876h0.048c0.624-0.576,1.307-1.02,2.027-1.02
		c0.983,0,1.391,0.552,1.391,1.451c0,0.275-0.036,0.479-0.096,0.804l-0.744,3.718h-0.936l0.731-3.599
		c0.06-0.312,0.096-0.479,0.096-0.684c0-0.587-0.264-0.887-0.864-0.887c-0.456,0-1.02,0.323-1.751,1.043l-0.815,4.126h-0.924
		L187.138,141.653z"/>
	<path fill="#02BFE7" d="M192.359,145.287c0-2.171,1.559-3.777,3.25-3.777c0.708,0,1.211,0.312,1.511,0.707l-0.528,0.528
		c-0.276-0.324-0.563-0.468-1.043-0.468c-1.163,0-2.243,1.354-2.243,2.95c0,1.056,0.456,1.631,1.379,1.631
		c0.479,0,0.971-0.239,1.295-0.504l0.396,0.576c-0.408,0.336-1.043,0.695-1.871,0.695
		C193.234,147.626,192.359,146.774,192.359,145.287z"/>
	<path fill="#02BFE7" d="M198.67,141.653h0.923l-1.163,5.829h-0.924L198.67,141.653z M198.838,139.902
		c0-0.396,0.324-0.695,0.695-0.695c0.312,0,0.588,0.203,0.588,0.552c0,0.396-0.324,0.684-0.696,0.684
		C199.114,140.442,198.838,140.25,198.838,139.902z"/>
	<path fill="#02BFE7" d="M201.514,141.653h0.768l-0.072,0.768h0.036c0.588-0.491,1.283-0.911,2.003-0.911
		c1.032,0,1.679,0.755,1.679,2.11c0,2.243-1.535,4.006-3.142,4.006c-0.612,0-1.104-0.348-1.403-0.84h-0.024l-0.216,1.248
		l-0.36,1.906h-0.924L201.514,141.653z M204.98,143.752c0-0.983-0.42-1.463-1.068-1.463c-0.54,0-1.247,0.348-1.787,0.947
		l-0.564,2.782c0.336,0.601,0.732,0.828,1.188,0.828C203.913,146.847,204.98,145.371,204.98,143.752z"/>
	<path fill="#02BFE7" d="M206.927,146.858c0-0.132,0.024-0.3,0.072-0.491l1.475-7.424h0.924l-1.487,7.459
		c-0.024,0.133-0.024,0.192-0.024,0.265c0,0.119,0.072,0.191,0.192,0.191c0.048,0,0.072,0,0.168-0.023l0.072,0.671
		c-0.168,0.072-0.336,0.12-0.563,0.12C207.19,147.626,206.927,147.351,206.927,146.858z"/>
	<path fill="#02BFE7" d="M209.818,145.191c0-2.194,1.595-3.682,3.118-3.682c1.307,0,1.811,0.911,1.811,2.11
		c0,0.468-0.132,0.947-0.216,1.163h-3.778c-0.204,1.476,0.576,2.1,1.571,2.1c0.504,0,0.959-0.192,1.319-0.456l0.336,0.563
		c-0.456,0.36-1.08,0.636-1.823,0.636C210.742,147.626,209.818,146.751,209.818,145.191z M213.884,144.076
		c0.048-0.168,0.072-0.336,0.072-0.54c0-0.659-0.288-1.283-1.127-1.283c-0.852,0-1.691,0.72-1.967,1.823H213.884z"/>
	<path fill="#02BFE7" d="M215.11,146.535l0.503-0.433c0.372,0.504,0.924,0.804,1.547,0.804c0.672,0,1.235-0.407,1.235-0.959
		c0-0.432-0.264-0.647-1.164-1.151c-0.731-0.408-1.235-0.888-1.235-1.571c0-1.008,0.876-1.715,1.943-1.715
		c0.719,0,1.307,0.3,1.751,0.804l-0.492,0.491c-0.324-0.348-0.768-0.575-1.284-0.575c-0.6,0-1.043,0.419-1.043,0.887
		c0,0.456,0.443,0.732,1.043,1.056c0.972,0.528,1.355,0.96,1.355,1.655c0,1.092-0.936,1.799-2.183,1.799
		C216.31,147.626,215.494,147.206,215.11,146.535z"/>
	<path fill="#02BFE7" d="M138.383,157.675c0-0.41,0.146-0.76,0.437-1.049s0.64-0.434,1.046-0.434c0.41,0,0.761,0.145,1.052,0.434
		s0.437,0.639,0.437,1.049s-0.146,0.761-0.437,1.052s-0.642,0.437-1.052,0.437c-0.406,0-0.755-0.146-1.046-0.437
		S138.383,158.085,138.383,157.675z"/>
	<path fill="#02BFE7" d="M144.885,158.032c0-2.603,1.751-4.102,3.718-4.102c1.02,0,1.835,0.455,2.375,1.02l-0.983,1.127
		c-0.384-0.359-0.792-0.54-1.343-0.54c-1.031,0-1.859,0.912-1.859,2.423c0,1.56,0.731,2.459,1.823,2.459
		c0.636,0,1.127-0.252,1.5-0.647l0.971,1.104c-0.684,0.779-1.547,1.151-2.531,1.151
		C146.564,162.026,144.885,160.671,144.885,158.032z"/>
	<path fill="#02BFE7" d="M151.833,160.215c0-1.259,0.972-1.942,3.322-2.183c-0.048-0.492-0.3-0.779-0.912-0.779
		c-0.479,0-0.959,0.168-1.559,0.504l-0.647-1.2c0.779-0.479,1.631-0.779,2.566-0.779c1.535,0,2.399,0.852,2.399,2.723v3.382h-1.511
		l-0.132-0.6h-0.048c-0.492,0.444-1.031,0.744-1.703,0.744C152.517,162.026,151.833,161.211,151.833,160.215z M155.155,160.119
		v-0.947c-1.188,0.155-1.547,0.479-1.547,0.899c0,0.348,0.228,0.516,0.636,0.516C154.616,160.587,154.867,160.407,155.155,160.119z"
		/>
	<path fill="#02BFE7" d="M158.457,159.951v-6.452h1.847v6.524c0,0.384,0.192,0.503,0.336,0.503c0.072,0,0.12,0,0.216-0.023
		l0.216,1.367c-0.204,0.084-0.516,0.156-0.923,0.156C158.876,162.026,158.457,161.198,158.457,159.951z"/>
	<path fill="#02BFE7" d="M161.937,159.951v-6.452h1.847v6.524c0,0.384,0.192,0.503,0.336,0.503c0.072,0,0.12,0,0.216-0.023
		l0.216,1.367c-0.204,0.084-0.516,0.156-0.923,0.156C162.356,162.026,161.937,161.198,161.937,159.951z"/>
	<path fill="#02BFE7" d="M168.128,157.373h-0.792v-1.392l0.792-0.048v-0.252c0-1.26,0.588-2.327,2.255-2.327
		c0.516,0,0.947,0.108,1.211,0.216l-0.348,1.319c-0.204-0.06-0.396-0.084-0.6-0.084c-0.408,0-0.66,0.229-0.66,0.815v0.3h1.056v1.452
		h-1.056v4.509h-1.859V157.373z"/>
	<path fill="#02BFE7" d="M171.525,158.896c0-1.979,1.403-3.118,2.914-3.118c1.523,0,2.927,1.14,2.927,3.118
		c0,1.979-1.403,3.131-2.927,3.131C172.928,162.026,171.525,160.875,171.525,158.896z M175.458,158.896
		c0-0.983-0.324-1.631-1.02-1.631c-0.695,0-1.019,0.647-1.019,1.631c0,0.996,0.324,1.631,1.019,1.631
		C175.135,160.526,175.458,159.892,175.458,158.896z"/>
	<path fill="#02BFE7" d="M178.544,155.921h1.511l0.132,1.032h0.048c0.432-0.804,1.091-1.176,1.691-1.176
		c0.348,0,0.552,0.036,0.72,0.12l-0.348,1.571c-0.216-0.048-0.348-0.072-0.611-0.072c-0.444,0-0.983,0.288-1.295,1.079v3.406h-1.847
		V155.921z"/>
	<path fill="#02BFE7" d="M185.948,154.074h2.723c1.619,0,2.902,0.432,2.902,1.943c0,0.684-0.384,1.438-1.02,1.679v0.048
		c0.792,0.216,1.403,0.792,1.403,1.835c0,1.596-1.367,2.303-3.058,2.303h-2.951V154.074z M188.599,157.181
		c0.803,0,1.151-0.348,1.151-0.888c0-0.563-0.372-0.791-1.14-0.791h-0.792v1.679H188.599z M188.755,160.455
		c0.912,0,1.379-0.336,1.379-0.996c0-0.659-0.456-0.911-1.379-0.911h-0.936v1.907H188.755z"/>
	<path fill="#02BFE7" d="M192.752,158.896c0-1.931,1.391-3.118,2.818-3.118c1.727,0,2.566,1.247,2.566,2.866
		c0,0.336-0.036,0.648-0.072,0.815h-3.514c0.168,0.804,0.731,1.151,1.487,1.151c0.432,0,0.863-0.132,1.283-0.371l0.6,1.115
		c-0.624,0.443-1.439,0.672-2.147,0.672C194.072,162.026,192.752,160.887,192.752,158.896z M196.554,158.212
		c0-0.588-0.264-1.031-0.936-1.031c-0.528,0-0.971,0.336-1.091,1.031H196.554z"/>
	<path fill="#02BFE7" d="M198.812,161.127l0.78-1.044c0.552,0.432,1.091,0.576,1.559,0.576c0.504,0,0.708-0.181,0.708-0.468
		c0-0.36-0.503-0.516-1.139-0.756c-0.852-0.312-1.571-0.852-1.571-1.775c0-1.127,0.912-1.883,2.303-1.883
		c0.875,0,1.619,0.324,2.135,0.756l-0.792,1.043c-0.432-0.312-0.875-0.432-1.283-0.432c-0.432,0-0.636,0.168-0.636,0.432
		c0,0.312,0.336,0.456,1.091,0.696c0.912,0.287,1.631,0.827,1.631,1.811c0,1.092-0.864,1.943-2.483,1.943
		C200.323,162.026,199.412,161.714,198.812,161.127z"/>
	<path fill="#02BFE7" d="M204.68,159.676v-2.303h-0.804v-1.392l0.912-0.061l0.216-1.822h1.535v1.822h1.403v1.452h-1.403v2.278
		c0,0.672,0.312,0.924,0.755,0.924c0.192,0,0.396-0.024,0.552-0.084l0.288,1.295c-0.312,0.12-0.768,0.24-1.355,0.24
		C205.292,162.026,204.68,161.078,204.68,159.676z"/>
	<path fill="#02BFE7" d="M211.64,154.074h2.747c1.715,0,3.118,0.612,3.118,2.531c0,1.87-1.427,2.687-3.07,2.687h-0.923v2.59h-1.871
		V154.074z M214.326,157.816c0.923,0,1.355-0.432,1.355-1.211c0-0.78-0.492-1.056-1.403-1.056h-0.768v2.267H214.326z"/>
	<path fill="#02BFE7" d="M218.695,155.921h1.511l0.132,1.032h0.048c0.432-0.804,1.091-1.176,1.691-1.176
		c0.348,0,0.552,0.036,0.72,0.12l-0.348,1.571c-0.216-0.048-0.348-0.072-0.612-0.072c-0.444,0-0.983,0.288-1.295,1.079v3.406h-1.847
		V155.921z"/>
	<path fill="#02BFE7" d="M222.944,160.215c0-1.259,0.972-1.942,3.322-2.183c-0.048-0.492-0.3-0.779-0.912-0.779
		c-0.479,0-0.959,0.168-1.559,0.504l-0.647-1.2c0.779-0.479,1.631-0.779,2.566-0.779c1.535,0,2.398,0.852,2.398,2.723v3.382h-1.511
		l-0.132-0.6h-0.048c-0.492,0.444-1.031,0.744-1.703,0.744C223.627,162.026,222.944,161.211,222.944,160.215z M226.266,160.119
		v-0.947c-1.188,0.155-1.547,0.479-1.547,0.899c0,0.348,0.228,0.516,0.636,0.516C225.727,160.587,225.978,160.407,226.266,160.119z"
		/>
	<path fill="#02BFE7" d="M229.232,158.896c0-1.979,1.475-3.118,3.13-3.118c0.732,0,1.295,0.252,1.739,0.636l-0.863,1.14
		c-0.276-0.204-0.504-0.288-0.768-0.288c-0.828,0-1.343,0.647-1.343,1.631c0,0.996,0.551,1.631,1.283,1.631
		c0.396,0,0.731-0.144,1.031-0.371l0.72,1.163c-0.576,0.527-1.332,0.708-1.967,0.708
		C230.515,162.026,229.232,160.875,229.232,158.896z"/>
	<path fill="#02BFE7" d="M235.315,159.676v-2.303h-0.804v-1.392l0.912-0.061l0.216-1.822h1.535v1.822h1.403v1.452h-1.403v2.278
		c0,0.672,0.312,0.924,0.755,0.924c0.192,0,0.396-0.024,0.552-0.084l0.288,1.295c-0.312,0.12-0.768,0.24-1.355,0.24
		C235.927,162.026,235.315,161.078,235.315,159.676z"/>
	<path fill="#02BFE7" d="M239.611,154.122c0-0.575,0.432-0.947,1.043-0.947c0.611,0,1.043,0.372,1.043,0.947
		c0,0.588-0.432,0.96-1.043,0.96C240.043,155.082,239.611,154.71,239.611,154.122z M239.731,155.921h1.847v5.961h-1.847V155.921z"/>
	<path fill="#02BFE7" d="M242.755,158.896c0-1.979,1.475-3.118,3.13-3.118c0.732,0,1.295,0.252,1.739,0.636l-0.863,1.14
		c-0.276-0.204-0.504-0.288-0.768-0.288c-0.828,0-1.343,0.647-1.343,1.631c0,0.996,0.551,1.631,1.283,1.631
		c0.396,0,0.731-0.144,1.031-0.371l0.72,1.163c-0.576,0.527-1.332,0.708-1.967,0.708
		C244.039,162.026,242.755,160.875,242.755,158.896z"/>
	<path fill="#02BFE7" d="M248.047,158.896c0-1.931,1.391-3.118,2.818-3.118c1.727,0,2.566,1.247,2.566,2.866
		c0,0.336-0.036,0.648-0.072,0.815h-3.514c0.168,0.804,0.731,1.151,1.487,1.151c0.432,0,0.863-0.132,1.283-0.371l0.6,1.115
		c-0.624,0.443-1.439,0.672-2.147,0.672C249.367,162.026,248.047,160.887,248.047,158.896z M251.849,158.212
		c0-0.588-0.264-1.031-0.936-1.031c-0.528,0-0.971,0.336-1.091,1.031H251.849z"/>
	<path fill="#02BFE7" d="M254.107,161.127l0.78-1.044c0.552,0.432,1.091,0.576,1.559,0.576c0.504,0,0.708-0.181,0.708-0.468
		c0-0.36-0.503-0.516-1.139-0.756c-0.852-0.312-1.571-0.852-1.571-1.775c0-1.127,0.912-1.883,2.303-1.883
		c0.875,0,1.619,0.324,2.135,0.756l-0.792,1.043c-0.432-0.312-0.875-0.432-1.283-0.432c-0.432,0-0.636,0.168-0.636,0.432
		c0,0.312,0.336,0.456,1.091,0.696c0.912,0.287,1.631,0.827,1.631,1.811c0,1.092-0.864,1.943-2.483,1.943
		C255.618,162.026,254.707,161.714,254.107,161.127z"/>
</g>
<g>
	<rect x="327.253" y="138.89" fill="none" width="129.256" height="51.11"/>
	<path fill="#02BFE7" d="M327.892,143.275c0-0.41,0.146-0.76,0.437-1.049s0.64-0.434,1.046-0.434c0.41,0,0.761,0.145,1.052,0.434
		s0.437,0.639,0.437,1.049s-0.146,0.761-0.437,1.052s-0.642,0.437-1.052,0.437c-0.406,0-0.755-0.146-1.046-0.437
		S327.892,143.686,327.892,143.275z"/>
	<path fill="#02BFE7" d="M334.754,139.675h2.747c1.715,0,3.118,0.611,3.118,2.53c0,1.871-1.427,2.687-3.07,2.687h-0.923v2.591
		h-1.871V139.675z M337.44,143.416c0.924,0,1.355-0.432,1.355-1.211s-0.492-1.056-1.403-1.056h-0.768v2.267H337.44z"/>
	<path fill="#02BFE7" d="M341.81,141.521h1.511l0.132,1.031h0.048c0.432-0.804,1.091-1.175,1.691-1.175
		c0.348,0,0.552,0.035,0.72,0.119l-0.348,1.571c-0.216-0.048-0.348-0.071-0.611-0.071c-0.444,0-0.983,0.287-1.295,1.079v3.406
		h-1.847V141.521z"/>
	<path fill="#02BFE7" d="M346.55,139.723c0-0.576,0.432-0.947,1.043-0.947c0.611,0,1.043,0.371,1.043,0.947
		c0,0.588-0.432,0.959-1.043,0.959C346.981,140.682,346.55,140.311,346.55,139.723z M346.669,141.521h1.847v5.961h-1.847V141.521z"
		/>
	<path fill="#02BFE7" d="M350.029,141.521h1.511l0.132,0.743h0.048c0.492-0.479,1.091-0.887,1.907-0.887
		c1.295,0,1.847,0.923,1.847,2.41v3.694h-1.859v-3.454c0-0.828-0.216-1.08-0.696-1.08c-0.42,0-0.672,0.204-1.043,0.54v3.994h-1.847
		V141.521z"/>
	<path fill="#02BFE7" d="M356.594,144.496c0-1.979,1.475-3.118,3.13-3.118c0.732,0,1.295,0.252,1.739,0.636l-0.863,1.139
		c-0.276-0.204-0.504-0.288-0.768-0.288c-0.828,0-1.343,0.648-1.343,1.632c0,0.995,0.551,1.631,1.283,1.631
		c0.396,0,0.731-0.144,1.031-0.372l0.72,1.164c-0.576,0.527-1.332,0.707-1.967,0.707
		C357.877,147.626,356.594,146.475,356.594,144.496z"/>
	<path fill="#02BFE7" d="M362.438,139.723c0-0.576,0.432-0.947,1.043-0.947c0.611,0,1.043,0.371,1.043,0.947
		c0,0.588-0.432,0.959-1.043,0.959C362.869,140.682,362.438,140.311,362.438,139.723z M362.557,141.521h1.847v5.961h-1.847V141.521z
		"/>
	<path fill="#02BFE7" d="M365.917,141.521h1.511l0.132,0.575h0.048c0.456-0.419,1.055-0.719,1.667-0.719
		c1.439,0,2.327,1.187,2.327,3.021c0,2.052-1.211,3.227-2.495,3.227c-0.516,0-0.983-0.216-1.403-0.611l0.06,0.923v1.728h-1.847
		V141.521z M369.695,144.424c0-1.043-0.312-1.535-0.972-1.535c-0.348,0-0.636,0.156-0.959,0.504v2.362
		c0.3,0.264,0.612,0.348,0.899,0.348C369.239,146.103,369.695,145.635,369.695,144.424z"/>
	<path fill="#02BFE7" d="M372.817,145.551v-6.452h1.847v6.524c0,0.384,0.192,0.504,0.336,0.504c0.072,0,0.12,0,0.216-0.024
		l0.216,1.367c-0.204,0.084-0.516,0.156-0.923,0.156C373.237,147.626,372.817,146.799,372.817,145.551z"/>
	<path fill="#02BFE7" d="M375.961,144.496c0-1.932,1.391-3.118,2.818-3.118c1.727,0,2.566,1.247,2.566,2.866
		c0,0.336-0.036,0.647-0.072,0.815h-3.514c0.168,0.804,0.731,1.151,1.487,1.151c0.432,0,0.863-0.132,1.283-0.372l0.6,1.115
		c-0.624,0.444-1.439,0.672-2.147,0.672C377.281,147.626,375.961,146.486,375.961,144.496z M379.763,143.812
		c0-0.588-0.264-1.031-0.936-1.031c-0.528,0-0.971,0.335-1.091,1.031H379.763z"/>
	<path fill="#02BFE7" d="M382.021,146.727l0.78-1.043c0.552,0.432,1.091,0.575,1.559,0.575c0.504,0,0.708-0.18,0.708-0.468
		c0-0.359-0.504-0.516-1.139-0.756c-0.852-0.312-1.571-0.852-1.571-1.774c0-1.128,0.912-1.883,2.303-1.883
		c0.875,0,1.619,0.323,2.135,0.755l-0.792,1.044c-0.432-0.312-0.875-0.432-1.283-0.432c-0.432,0-0.636,0.168-0.636,0.432
		c0,0.312,0.336,0.455,1.091,0.695c0.912,0.288,1.631,0.828,1.631,1.812c0,1.091-0.864,1.942-2.483,1.942
		C383.532,147.626,382.621,147.314,382.021,146.727z"/>
	<path fill="#02BFE7" d="M329.38,156.444c0.406,0,0.753,0.144,1.04,0.431s0.431,0.634,0.431,1.04s-0.144,0.753-0.431,1.04
		s-0.634,0.431-1.04,0.431s-0.753-0.144-1.04-0.431s-0.431-0.634-0.431-1.04s0.143-0.753,0.428-1.04S328.97,156.444,329.38,156.444z
		 M329.38,156.89c-0.285,0-0.527,0.101-0.727,0.302s-0.299,0.442-0.299,0.724c0,0.285,0.101,0.527,0.302,0.727
		s0.442,0.299,0.724,0.299s0.522-0.1,0.724-0.299s0.302-0.441,0.302-0.727c0-0.281-0.1-0.522-0.299-0.724
		S329.666,156.89,329.38,156.89z"/>
	<path fill="#02BFE7" d="M336.832,154.015h1.487c2.135,0,3.334,1.139,3.334,3.106c0,2.806-1.643,4.761-4.257,4.761h-2.135
		L336.832,154.015z M337.396,161.114c1.991,0,3.298-1.643,3.298-3.934c0-1.523-0.876-2.398-2.411-2.398h-0.671l-1.259,6.332H337.396
		z"/>
	<path fill="#02BFE7" d="M343.504,156.054h0.768l-0.144,1.115h0.048c0.468-0.708,1.08-1.26,1.799-1.26
		c0.216,0,0.408,0.036,0.563,0.108l-0.324,0.804c-0.132-0.061-0.3-0.072-0.504-0.072c-0.587,0-1.223,0.504-1.727,1.463l-0.72,3.67
		h-0.924L343.504,156.054z"/>
	<path fill="#02BFE7" d="M346.421,159.915c0-2.242,1.535-4.006,3.154-4.006c0.624,0,1.127,0.348,1.403,0.876h0.048l0.228-0.731
		h0.755l-1.175,5.828h-0.755l0.083-0.863h-0.036c-0.576,0.6-1.295,1.008-2.027,1.008
		C347.081,162.026,346.421,161.282,346.421,159.915z M350.259,160.143l0.54-2.603c-0.335-0.611-0.744-0.852-1.187-0.852
		c-1.164,0-2.231,1.476-2.231,3.083c0,1.007,0.408,1.475,1.055,1.475C349.047,161.246,349.695,160.898,350.259,160.143z"/>
	<path fill="#02BFE7" d="M353.932,156.797h-0.755l0.132-0.684l0.779-0.06l0.192-0.972c0.24-1.163,0.864-1.883,1.847-1.883
		c0.42,0,0.768,0.119,1.043,0.287l-0.312,0.648c-0.168-0.108-0.384-0.181-0.671-0.181c-0.516,0-0.852,0.432-0.983,1.104L355,156.054
		h2.003l0.492-1.859h0.78l-0.372,1.859h1.475l-0.144,0.743h-1.5l-0.684,3.322c-0.024,0.144-0.036,0.288-0.036,0.432
		c0,0.479,0.204,0.72,0.719,0.72c0.252,0,0.456-0.084,0.636-0.168l0.204,0.647c-0.264,0.132-0.672,0.276-1.116,0.276
		c-1.007,0-1.391-0.576-1.391-1.308c0-0.228,0.024-0.42,0.072-0.636l0.672-3.286h-1.955l-1.02,5.085h-0.923L353.932,156.797z"/>
	<path fill="#02BFE7" d="M363.543,154.015h2.219c1.487,0,2.471,0.552,2.471,1.919c0,1.931-1.427,2.794-3.442,2.794h-1.259
		l-0.624,3.154h-0.936L363.543,154.015z M364.839,157.96c1.607,0,2.471-0.647,2.471-1.906c0-0.9-0.624-1.284-1.775-1.284h-1.211
		l-0.624,3.19H364.839z"/>
	<path fill="#02BFE7" d="M369.7,156.054h0.768l-0.144,1.115h0.048c0.468-0.708,1.08-1.26,1.799-1.26
		c0.216,0,0.408,0.036,0.563,0.108l-0.324,0.804c-0.132-0.061-0.3-0.072-0.504-0.072c-0.587,0-1.223,0.504-1.727,1.463l-0.72,3.67
		h-0.924L369.7,156.054z"/>
	<path fill="#02BFE7" d="M372.617,159.915c0-2.242,1.535-4.006,3.154-4.006c0.624,0,1.127,0.348,1.403,0.876h0.048l0.228-0.731
		h0.755l-1.175,5.828h-0.756l0.084-0.863h-0.036c-0.576,0.6-1.295,1.008-2.027,1.008
		C373.276,162.026,372.617,161.282,372.617,159.915z M376.455,160.143l0.54-2.603c-0.336-0.611-0.744-0.852-1.187-0.852
		c-1.164,0-2.231,1.476-2.231,3.083c0,1.007,0.408,1.475,1.055,1.475C375.243,161.246,375.891,160.898,376.455,160.143z"/>
	<path fill="#02BFE7" d="M379.037,159.688c0-2.171,1.559-3.778,3.25-3.778c0.708,0,1.211,0.312,1.511,0.708l-0.528,0.527
		c-0.276-0.323-0.563-0.468-1.043-0.468c-1.163,0-2.243,1.355-2.243,2.95c0,1.056,0.456,1.632,1.379,1.632
		c0.479,0,0.972-0.24,1.295-0.504l0.396,0.575c-0.408,0.336-1.043,0.696-1.871,0.696
		C379.912,162.026,379.037,161.175,379.037,159.688z"/>
	<path fill="#02BFE7" d="M384.641,160.707c0-0.216,0.024-0.408,0.06-0.624l0.684-3.286h-0.852l0.132-0.684l0.912-0.06l0.479-1.859
		h0.78l-0.36,1.859h1.475l-0.156,0.743h-1.487l-0.684,3.322c-0.024,0.144-0.036,0.288-0.036,0.432c0,0.479,0.192,0.72,0.708,0.72
		c0.228,0,0.456-0.06,0.624-0.156l0.216,0.624c-0.264,0.144-0.648,0.288-1.116,0.288
		C385.012,162.026,384.641,161.45,384.641,160.707z"/>
	<path fill="#02BFE7" d="M389.248,156.054h0.923l-1.163,5.828h-0.924L389.248,156.054z M389.416,154.303
		c0-0.396,0.324-0.696,0.695-0.696c0.312,0,0.588,0.204,0.588,0.552c0,0.396-0.324,0.684-0.696,0.684
		C389.692,154.842,389.416,154.65,389.416,154.303z"/>
	<path fill="#02BFE7" d="M391.001,159.688c0-2.171,1.559-3.778,3.25-3.778c0.708,0,1.211,0.312,1.511,0.708l-0.528,0.527
		c-0.276-0.323-0.563-0.468-1.043-0.468c-1.163,0-2.243,1.355-2.243,2.95c0,1.056,0.456,1.632,1.379,1.632
		c0.479,0,0.971-0.24,1.295-0.504l0.396,0.575c-0.408,0.336-1.043,0.696-1.871,0.696
		C391.876,162.026,391.001,161.175,391.001,159.688z"/>
	<path fill="#02BFE7" d="M396.077,159.592c0-2.195,1.595-3.683,3.118-3.683c1.307,0,1.811,0.912,1.811,2.111
		c0,0.468-0.132,0.947-0.216,1.163h-3.778c-0.204,1.476,0.576,2.099,1.571,2.099c0.504,0,0.959-0.191,1.319-0.455l0.336,0.563
		c-0.456,0.359-1.08,0.636-1.823,0.636C397,162.026,396.077,161.15,396.077,159.592z M400.143,158.476
		c0.048-0.168,0.072-0.335,0.072-0.539c0-0.66-0.288-1.283-1.127-1.283c-0.852,0-1.691,0.72-1.967,1.822H400.143z"/>
	<path fill="#02BFE7" d="M401.369,160.935l0.503-0.432c0.372,0.504,0.924,0.804,1.547,0.804c0.672,0,1.235-0.408,1.235-0.96
		c0-0.432-0.264-0.647-1.164-1.151c-0.731-0.407-1.235-0.888-1.235-1.571c0-1.007,0.876-1.715,1.943-1.715
		c0.719,0,1.307,0.3,1.751,0.804l-0.492,0.492c-0.324-0.349-0.768-0.576-1.284-0.576c-0.6,0-1.043,0.42-1.043,0.888
		c0,0.456,0.443,0.731,1.043,1.056c0.972,0.527,1.355,0.959,1.355,1.654c0,1.092-0.936,1.8-2.183,1.8
		C402.568,162.026,401.752,161.606,401.369,160.935z"/>
</g>
<g>
	<rect x="542.236" y="138.89" fill="none" width="129.256" height="51.11"/>
	<path fill="#02BFE7" d="M542.875,143.275c0-0.41,0.146-0.76,0.437-1.049s0.64-0.434,1.046-0.434c0.41,0,0.761,0.145,1.052,0.434
		s0.437,0.639,0.437,1.049s-0.146,0.761-0.437,1.052s-0.642,0.437-1.052,0.437c-0.406,0-0.755-0.146-1.046-0.437
		S542.875,143.686,542.875,143.275z"/>
	<path fill="#02BFE7" d="M549.737,139.675h4.989v1.559h-3.118v1.703h2.662v1.56h-2.662v2.986h-1.871V139.675z"/>
	<path fill="#02BFE7" d="M555.365,144.496c0-1.932,1.392-3.118,2.818-3.118c1.728,0,2.566,1.247,2.566,2.866
		c0,0.336-0.035,0.647-0.071,0.815h-3.515c0.168,0.804,0.731,1.151,1.487,1.151c0.432,0,0.863-0.132,1.283-0.372l0.6,1.115
		c-0.623,0.444-1.438,0.672-2.146,0.672C556.685,147.626,555.365,146.486,555.365,144.496z M559.167,143.812
		c0-0.588-0.264-1.031-0.936-1.031c-0.527,0-0.971,0.335-1.091,1.031H559.167z"/>
	<path fill="#02BFE7" d="M561.641,144.496c0-1.943,1.224-3.118,2.459-3.118c0.66,0,1.056,0.239,1.439,0.611l-0.061-0.888v-2.003
		h1.859v8.384h-1.523l-0.132-0.576h-0.036c-0.419,0.42-1.007,0.72-1.57,0.72C562.601,147.626,561.641,146.438,561.641,144.496z
		 M565.479,145.611v-2.375c-0.287-0.252-0.635-0.348-0.935-0.348c-0.528,0-0.996,0.479-0.996,1.595c0,1.14,0.384,1.619,1.02,1.619
		C564.928,146.103,565.203,145.983,565.479,145.611z"/>
	<path fill="#02BFE7" d="M568.505,144.496c0-1.932,1.392-3.118,2.818-3.118c1.728,0,2.566,1.247,2.566,2.866
		c0,0.336-0.035,0.647-0.071,0.815h-3.515c0.168,0.804,0.731,1.151,1.487,1.151c0.432,0,0.863-0.132,1.283-0.372l0.6,1.115
		c-0.623,0.444-1.438,0.672-2.146,0.672C569.824,147.626,568.505,146.486,568.505,144.496z M572.307,143.812
		c0-0.588-0.264-1.031-0.936-1.031c-0.527,0-0.971,0.335-1.091,1.031H572.307z"/>
	<path fill="#02BFE7" d="M575.08,141.521h1.512l0.132,1.031h0.048c0.432-0.804,1.092-1.175,1.691-1.175
		c0.348,0,0.552,0.035,0.72,0.119l-0.348,1.571c-0.217-0.048-0.349-0.071-0.612-0.071c-0.443,0-0.983,0.287-1.295,1.079v3.406
		h-1.848V141.521z"/>
	<path fill="#02BFE7" d="M579.329,145.815c0-1.26,0.972-1.943,3.322-2.184c-0.048-0.491-0.3-0.779-0.912-0.779
		c-0.479,0-0.959,0.168-1.559,0.504l-0.647-1.199c0.779-0.479,1.631-0.779,2.566-0.779c1.535,0,2.398,0.852,2.398,2.722v3.383
		h-1.511l-0.133-0.6h-0.048c-0.491,0.443-1.031,0.743-1.703,0.743C580.013,147.626,579.329,146.811,579.329,145.815z
		 M582.651,145.719v-0.947c-1.188,0.156-1.548,0.479-1.548,0.899c0,0.348,0.229,0.516,0.636,0.516
		C582.111,146.187,582.363,146.007,582.651,145.719z"/>
	<path fill="#02BFE7" d="M585.952,145.551v-6.452h1.848v6.524c0,0.384,0.191,0.504,0.336,0.504c0.071,0,0.119,0,0.216-0.024
		l0.216,1.367c-0.204,0.084-0.516,0.156-0.924,0.156C586.372,147.626,585.952,146.799,585.952,145.551z"/>
	<path fill="#02BFE7" d="M591.977,139.675h2.242c2.387,0,3.958,1.163,3.958,3.874c0,2.698-1.571,3.934-3.85,3.934h-2.351V139.675z
		 M594.111,145.983c1.259,0,2.159-0.588,2.159-2.435c0-1.859-0.9-2.375-2.159-2.375h-0.264v4.81H594.111z"/>
	<path fill="#02BFE7" d="M599.213,145.815c0-1.26,0.972-1.943,3.322-2.184c-0.048-0.491-0.3-0.779-0.912-0.779
		c-0.479,0-0.959,0.168-1.559,0.504l-0.647-1.199c0.779-0.479,1.631-0.779,2.566-0.779c1.535,0,2.398,0.852,2.398,2.722v3.383
		h-1.511l-0.133-0.6h-0.048c-0.491,0.443-1.031,0.743-1.703,0.743C599.896,147.626,599.213,146.811,599.213,145.815z
		 M602.535,145.719v-0.947c-1.188,0.156-1.548,0.479-1.548,0.899c0,0.348,0.229,0.516,0.636,0.516
		C601.995,146.187,602.247,146.007,602.535,145.719z"/>
	<path fill="#02BFE7" d="M605.849,145.275v-2.303h-0.804v-1.392l0.911-0.06l0.216-1.823h1.535v1.823h1.403v1.451h-1.403v2.278
		c0,0.672,0.312,0.924,0.756,0.924c0.191,0,0.396-0.023,0.552-0.084l0.288,1.296c-0.312,0.119-0.768,0.239-1.355,0.239
		C606.46,147.626,605.849,146.679,605.849,145.275z"/>
	<path fill="#02BFE7" d="M609.76,145.815c0-1.26,0.972-1.943,3.322-2.184c-0.048-0.491-0.3-0.779-0.911-0.779
		c-0.479,0-0.96,0.168-1.56,0.504l-0.647-1.199c0.779-0.479,1.631-0.779,2.566-0.779c1.535,0,2.399,0.852,2.399,2.722v3.383h-1.512
		l-0.132-0.6h-0.048c-0.492,0.443-1.031,0.743-1.703,0.743C610.443,147.626,609.76,146.811,609.76,145.815z M613.082,145.719v-0.947
		c-1.188,0.156-1.547,0.479-1.547,0.899c0,0.348,0.228,0.516,0.636,0.516C612.543,146.187,612.794,146.007,613.082,145.719z"/>
	<path fill="#02BFE7" d="M618.436,146.486l0.983-1.211c0.552,0.479,1.308,0.743,1.968,0.743c0.707,0,1.031-0.264,1.031-0.684
		c0-0.455-0.42-0.6-1.104-0.875l-0.996-0.432c-0.827-0.324-1.583-1.008-1.583-2.135c0-1.308,1.176-2.363,2.831-2.363
		c0.936,0,1.858,0.348,2.53,0.972l-0.972,1.211c-0.527-0.371-1.067-0.575-1.559-0.575c-0.576,0-0.947,0.228-0.947,0.636
		c0,0.456,0.491,0.611,1.187,0.888l0.972,0.396c0.972,0.384,1.547,1.031,1.547,2.123c0,1.307-1.091,2.446-2.974,2.446
		C620.295,147.626,619.251,147.267,618.436,146.486z"/>
	<path fill="#02BFE7" d="M625.372,145.275v-2.303h-0.804v-1.392l0.911-0.06l0.216-1.823h1.535v1.823h1.403v1.451h-1.403v2.278
		c0,0.672,0.312,0.924,0.756,0.924c0.191,0,0.396-0.023,0.552-0.084l0.288,1.296c-0.312,0.119-0.768,0.239-1.355,0.239
		C625.983,147.626,625.372,146.679,625.372,145.275z"/>
	<path fill="#02BFE7" d="M629.787,141.521h1.512l0.132,1.031h0.048c0.432-0.804,1.092-1.175,1.691-1.175
		c0.348,0,0.552,0.035,0.72,0.119l-0.348,1.571c-0.217-0.048-0.349-0.071-0.612-0.071c-0.443,0-0.983,0.287-1.295,1.079v3.406
		h-1.848V141.521z"/>
	<path fill="#02BFE7" d="M634.035,145.815c0-1.26,0.972-1.943,3.322-2.184c-0.048-0.491-0.3-0.779-0.911-0.779
		c-0.479,0-0.96,0.168-1.56,0.504l-0.647-1.199c0.779-0.479,1.631-0.779,2.566-0.779c1.535,0,2.399,0.852,2.399,2.722v3.383h-1.512
		l-0.132-0.6h-0.048c-0.492,0.443-1.031,0.743-1.703,0.743C634.719,147.626,634.035,146.811,634.035,145.815z M637.357,145.719
		v-0.947c-1.188,0.156-1.547,0.479-1.547,0.899c0,0.348,0.228,0.516,0.636,0.516C636.818,146.187,637.069,146.007,637.357,145.719z"
		/>
	<path fill="#02BFE7" d="M640.672,145.275v-2.303h-0.804v-1.392l0.911-0.06l0.216-1.823h1.535v1.823h1.403v1.451h-1.403v2.278
		c0,0.672,0.312,0.924,0.756,0.924c0.191,0,0.396-0.023,0.552-0.084l0.288,1.296c-0.312,0.119-0.768,0.239-1.355,0.239
		C641.283,147.626,640.672,146.679,640.672,145.275z"/>
	<path fill="#02BFE7" d="M644.523,144.496c0-1.932,1.392-3.118,2.818-3.118c1.728,0,2.566,1.247,2.566,2.866
		c0,0.336-0.035,0.647-0.071,0.815h-3.515c0.168,0.804,0.731,1.151,1.487,1.151c0.432,0,0.863-0.132,1.283-0.372l0.6,1.115
		c-0.623,0.444-1.438,0.672-2.146,0.672C645.843,147.626,644.523,146.486,644.523,144.496z M648.325,143.812
		c0-0.588-0.264-1.031-0.936-1.031c-0.527,0-0.971,0.335-1.091,1.031H648.325z"/>
	<path fill="#02BFE7" d="M650.619,148.489c0-0.491,0.288-0.887,0.84-1.175v-0.048c-0.312-0.216-0.54-0.528-0.54-1.02
		c0-0.42,0.276-0.852,0.66-1.128v-0.048c-0.42-0.288-0.804-0.839-0.804-1.535c0-1.451,1.199-2.158,2.494-2.158
		c0.336,0,0.66,0.048,0.936,0.144h2.195v1.343h-0.936c0.096,0.168,0.18,0.444,0.18,0.732c0,1.391-1.056,2.003-2.375,2.003
		c-0.204,0-0.443-0.036-0.707-0.108c-0.132,0.12-0.192,0.216-0.192,0.408c0,0.287,0.24,0.419,0.876,0.419h0.947
		c1.475,0,2.303,0.444,2.303,1.523c0,1.26-1.308,2.147-3.382,2.147C651.734,149.989,650.619,149.557,650.619,148.489z
		 M654.721,148.166c0-0.36-0.312-0.432-0.875-0.432h-0.576c-0.432,0-0.659-0.024-0.839-0.072c-0.192,0.168-0.288,0.336-0.288,0.527
		c0,0.432,0.504,0.648,1.271,0.648C654.169,148.838,654.721,148.55,654.721,148.166z M654.025,143.536
		c0-0.611-0.312-0.923-0.756-0.923c-0.443,0-0.756,0.312-0.756,0.923c0,0.624,0.324,0.947,0.756,0.947
		C653.714,144.483,654.025,144.16,654.025,143.536z"/>
	<path fill="#02BFE7" d="M657.339,149.641l0.324-1.367c0.191,0.048,0.275,0.061,0.396,0.061c0.576,0,0.864-0.3,1.008-0.731
		l0.084-0.288l-2.291-5.793h1.859l0.815,2.471c0.168,0.552,0.3,1.104,0.456,1.691h0.048c0.132-0.564,0.252-1.128,0.407-1.691
		l0.684-2.471h1.775l-2.051,5.973c-0.588,1.535-1.224,2.291-2.65,2.291C657.819,149.785,657.579,149.737,657.339,149.641z"/>
	<path fill="#02BFE7" d="M547.539,157.624c0-1.937,0.539-3.521,1.452-4.995l0.562,0.265c-0.848,1.396-1.255,3.059-1.255,4.73
		s0.407,3.333,1.255,4.73l-0.562,0.265C548.078,161.145,547.539,159.561,547.539,157.624z"/>
	<path fill="#02BFE7" d="M550.971,153.466h2.058c1.617,0,2.717,0.539,2.717,2.123c0,1.529-1.089,2.233-2.673,2.233h-1.178v2.86
		h-0.924V153.466z M552.962,157.074c1.255,0,1.859-0.463,1.859-1.485c0-1.034-0.638-1.375-1.903-1.375h-1.023v2.86H552.962z"/>
	<path fill="#02BFE7" d="M557.12,155.336h0.748l0.076,0.968h0.033c0.374-0.671,0.925-1.101,1.519-1.101
		c0.242,0,0.407,0.033,0.572,0.11l-0.198,0.781c-0.154-0.044-0.275-0.066-0.484-0.066c-0.451,0-0.99,0.319-1.353,1.222v3.433h-0.913
		V155.336z"/>
	<path fill="#02BFE7" d="M560.805,153.642c0-0.353,0.253-0.595,0.605-0.595c0.352,0,0.604,0.242,0.604,0.595
		c0,0.363-0.253,0.594-0.604,0.594C561.058,154.235,560.805,154.005,560.805,153.642z M560.948,155.336h0.913v5.347h-0.913V155.336z
		"/>
	<path fill="#02BFE7" d="M563.665,155.336h0.748l0.076,0.77h0.033c0.506-0.506,1.057-0.902,1.794-0.902
		c1.133,0,1.639,0.727,1.639,2.091v3.389h-0.913v-3.268c0-1.001-0.308-1.419-1.012-1.419c-0.539,0-0.925,0.274-1.452,0.813v3.873
		h-0.913V155.336z"/>
	<path fill="#02BFE7" d="M569.285,158.02c0-1.793,1.199-2.816,2.575-2.816c0.704,0,1.188,0.275,1.562,0.628l-0.451,0.571
		c-0.297-0.274-0.638-0.439-1.066-0.439c-0.969,0-1.673,0.825-1.673,2.057c0,1.222,0.66,2.036,1.64,2.036
		c0.495,0,0.935-0.221,1.254-0.507l0.396,0.583c-0.484,0.44-1.09,0.683-1.728,0.683C570.375,160.814,569.285,159.791,569.285,158.02
		z"/>
	<path fill="#02BFE7" d="M574.555,153.642c0-0.353,0.253-0.595,0.605-0.595c0.352,0,0.604,0.242,0.604,0.595
		c0,0.363-0.253,0.594-0.604,0.594C574.808,154.235,574.555,154.005,574.555,153.642z M574.698,155.336h0.913v5.347h-0.913V155.336z
		"/>
	<path fill="#02BFE7" d="M577.415,155.336h0.748l0.076,0.616h0.033c0.484-0.407,1.09-0.749,1.705-0.749
		c1.376,0,2.124,1.067,2.124,2.729c0,1.815-1.101,2.883-2.321,2.883c-0.484,0-0.99-0.231-1.475-0.616l0.022,0.936v1.804h-0.913
		V155.336z M581.155,157.932c0-1.177-0.407-1.958-1.408-1.958c-0.451,0-0.902,0.242-1.419,0.727v2.794
		c0.483,0.407,0.945,0.55,1.298,0.55C580.506,160.044,581.155,159.252,581.155,157.932z"/>
	<path fill="#02BFE7" d="M583.52,159.604v-6.755h0.913v6.82c0,0.286,0.121,0.386,0.264,0.386c0.056,0,0.1,0,0.188-0.022l0.121,0.683
		c-0.132,0.065-0.297,0.099-0.528,0.099C583.795,160.814,583.52,160.374,583.52,159.604z"/>
	<path fill="#02BFE7" d="M585.928,158.009c0-1.738,1.178-2.806,2.398-2.806c1.364,0,2.146,0.969,2.146,2.509
		c0,0.198-0.011,0.363-0.044,0.539h-3.598c0.077,1.101,0.748,1.826,1.761,1.826c0.517,0,0.968-0.143,1.342-0.396l0.319,0.583
		c-0.462,0.33-1.034,0.55-1.771,0.55C587.051,160.814,585.928,159.78,585.928,158.009z M589.658,157.547
		c0-1.056-0.495-1.617-1.31-1.617c-0.748,0-1.408,0.594-1.519,1.617H589.658z"/>
	<path fill="#02BFE7" d="M591.187,160.044l0.418-0.527c0.462,0.385,0.946,0.583,1.606,0.583c0.704,0,1.045-0.363,1.045-0.825
		c0-0.551-0.595-0.781-1.199-1.001c-0.804-0.286-1.573-0.672-1.573-1.552c0-0.858,0.682-1.519,1.848-1.519
		c0.672,0,1.244,0.254,1.662,0.605l-0.418,0.528c-0.375-0.275-0.76-0.43-1.232-0.43c-0.683,0-0.979,0.375-0.979,0.771
		c0,0.484,0.462,0.683,1.133,0.913c0.837,0.297,1.64,0.66,1.64,1.628c0,0.869-0.693,1.596-1.958,1.596
		C592.396,160.814,591.682,160.528,591.187,160.044z"/>
	<path fill="#02BFE7" d="M598.039,158.812c0-0.969,0.683-1.573,1.42-2.091c-0.298-0.572-0.474-1.155-0.474-1.672
		c0-0.969,0.671-1.717,1.672-1.717c0.892,0,1.42,0.583,1.42,1.431c0,0.946-0.825,1.551-1.617,2.134
		c0.473,0.737,1.133,1.452,1.815,2.014c0.45-0.583,0.792-1.298,1.012-2.123h0.858c-0.275,0.946-0.693,1.826-1.266,2.585
		c0.495,0.33,0.957,0.572,1.354,0.683l-0.253,0.759c-0.507-0.144-1.067-0.418-1.65-0.825c-0.562,0.495-1.243,0.825-2.091,0.825
		C598.931,160.814,598.039,159.979,598.039,158.812z M600.35,160.088c0.484,0,0.946-0.23,1.375-0.583
		c-0.715-0.616-1.396-1.364-1.892-2.145c-0.507,0.406-0.902,0.836-0.902,1.396C598.931,159.561,599.558,160.088,600.35,160.088z
		 M600.118,156.293c0.66-0.44,1.222-0.88,1.222-1.519c0-0.418-0.198-0.792-0.683-0.792c-0.539,0-0.88,0.451-0.88,1.045
		C599.777,155.424,599.898,155.853,600.118,156.293z"/>
	<path fill="#02BFE7" d="M607.588,153.466h2.057c1.617,0,2.718,0.539,2.718,2.123c0,1.529-1.089,2.233-2.674,2.233h-1.177v2.86
		h-0.924V153.466z M609.579,157.074c1.254,0,1.859-0.463,1.859-1.485c0-1.034-0.639-1.375-1.903-1.375h-1.023v2.86H609.579z"/>
	<path fill="#02BFE7" d="M613.736,155.336h0.748l0.077,0.968h0.033c0.374-0.671,0.924-1.101,1.518-1.101
		c0.242,0,0.407,0.033,0.572,0.11l-0.198,0.781c-0.153-0.044-0.274-0.066-0.483-0.066c-0.451,0-0.99,0.319-1.354,1.222v3.433h-0.913
		V155.336z"/>
	<path fill="#02BFE7" d="M616.971,159.296c0-1.188,0.99-1.76,3.278-2.013c-0.011-0.672-0.23-1.32-1.1-1.32
		c-0.616,0-1.178,0.274-1.596,0.55l-0.352-0.616c0.495-0.33,1.243-0.693,2.101-0.693c1.299,0,1.859,0.869,1.859,2.189v3.29h-0.748
		l-0.088-0.639h-0.033c-0.506,0.43-1.089,0.771-1.76,0.771C617.642,160.814,616.971,160.265,616.971,159.296z M620.249,159.384
		v-1.452c-1.804,0.209-2.387,0.616-2.387,1.31c0,0.594,0.406,0.825,0.924,0.825C619.303,160.066,619.732,159.835,620.249,159.384z"
		/>
	<path fill="#02BFE7" d="M622.448,158.02c0-1.793,1.199-2.816,2.575-2.816c0.704,0,1.188,0.275,1.562,0.628l-0.451,0.571
		c-0.297-0.274-0.638-0.439-1.066-0.439c-0.969,0-1.673,0.825-1.673,2.057c0,1.222,0.66,2.036,1.64,2.036
		c0.495,0,0.935-0.221,1.254-0.507l0.396,0.583c-0.484,0.44-1.09,0.683-1.728,0.683C623.538,160.814,622.448,159.791,622.448,158.02
		z"/>
	<path fill="#02BFE7" d="M627.904,159.021v-2.949h-0.792v-0.682l0.836-0.055l0.11-1.717h0.759v1.717h1.452v0.736h-1.452v2.971
		c0,0.649,0.221,1.023,0.825,1.023c0.198,0,0.396-0.033,0.616-0.132l0.188,0.648c-0.286,0.133-0.649,0.231-1.013,0.231
		C628.29,160.814,627.904,160.088,627.904,159.021z"/>
	<path fill="#02BFE7" d="M631.337,153.642c0-0.353,0.253-0.595,0.604-0.595c0.353,0,0.605,0.242,0.605,0.595
		c0,0.363-0.253,0.594-0.605,0.594C631.59,154.235,631.337,154.005,631.337,153.642z M631.479,155.336h0.913v5.347h-0.913V155.336z"
		/>
	<path fill="#02BFE7" d="M633.8,158.02c0-1.793,1.199-2.816,2.575-2.816c0.704,0,1.188,0.275,1.562,0.628l-0.451,0.571
		c-0.297-0.274-0.638-0.439-1.066-0.439c-0.969,0-1.673,0.825-1.673,2.057c0,1.222,0.66,2.036,1.64,2.036
		c0.495,0,0.935-0.221,1.254-0.507l0.396,0.583c-0.484,0.44-1.09,0.683-1.728,0.683C634.89,160.814,633.8,159.791,633.8,158.02z"/>
	<path fill="#02BFE7" d="M638.585,158.009c0-1.738,1.178-2.806,2.398-2.806c1.364,0,2.146,0.969,2.146,2.509
		c0,0.198-0.011,0.363-0.044,0.539h-3.598c0.077,1.101,0.748,1.826,1.761,1.826c0.517,0,0.968-0.143,1.342-0.396l0.319,0.583
		c-0.462,0.33-1.034,0.55-1.771,0.55C639.708,160.814,638.585,159.78,638.585,158.009z M642.315,157.547
		c0-1.056-0.495-1.617-1.31-1.617c-0.748,0-1.408,0.594-1.519,1.617H642.315z"/>
	<path fill="#02BFE7" d="M643.844,160.044l0.418-0.527c0.462,0.385,0.946,0.583,1.606,0.583c0.704,0,1.045-0.363,1.045-0.825
		c0-0.551-0.595-0.781-1.199-1.001c-0.804-0.286-1.573-0.672-1.573-1.552c0-0.858,0.682-1.519,1.848-1.519
		c0.672,0,1.244,0.254,1.662,0.605l-0.418,0.528c-0.375-0.275-0.76-0.43-1.232-0.43c-0.683,0-0.979,0.375-0.979,0.771
		c0,0.484,0.462,0.683,1.133,0.913c0.837,0.297,1.64,0.66,1.64,1.628c0,0.869-0.693,1.596-1.958,1.596
		C645.054,160.814,644.339,160.528,643.844,160.044z"/>
	<path fill="#02BFE7" d="M648.562,162.354c0.847-1.397,1.265-3.059,1.265-4.73s-0.418-3.334-1.265-4.73l0.572-0.265
		c0.913,1.475,1.452,3.059,1.452,4.995s-0.539,3.521-1.452,4.995L648.562,162.354z"/>
	<path fill="#02BFE7" d="M544.363,169.645c0.406,0,0.753,0.144,1.04,0.431s0.431,0.634,0.431,1.04s-0.144,0.753-0.431,1.04
		s-0.634,0.431-1.04,0.431s-0.753-0.144-1.04-0.431s-0.431-0.634-0.431-1.04s0.143-0.753,0.428-1.04
		S543.953,169.645,544.363,169.645z M544.363,170.09c-0.285,0-0.527,0.101-0.727,0.302s-0.299,0.442-0.299,0.724
		c0,0.285,0.101,0.527,0.302,0.727s0.442,0.299,0.724,0.299s0.522-0.1,0.724-0.299s0.302-0.441,0.302-0.727
		c0-0.281-0.1-0.522-0.299-0.724S544.648,170.09,544.363,170.09z"/>
	<path fill="#02BFE7" d="M551.815,167.215h1.487c2.135,0,3.334,1.139,3.334,3.106c0,2.806-1.644,4.761-4.258,4.761h-2.135
		L551.815,167.215z M552.379,174.314c1.991,0,3.299-1.643,3.299-3.934c0-1.523-0.876-2.398-2.411-2.398h-0.672l-1.259,6.332H552.379
		z"/>
	<path fill="#02BFE7" d="M558.487,169.254h0.768l-0.144,1.115h0.048c0.468-0.708,1.079-1.26,1.799-1.26
		c0.216,0,0.408,0.036,0.563,0.108l-0.323,0.804c-0.132-0.061-0.3-0.072-0.504-0.072c-0.588,0-1.224,0.504-1.727,1.463l-0.72,3.67
		h-0.924L558.487,169.254z"/>
	<path fill="#02BFE7" d="M561.404,173.115c0-2.242,1.535-4.006,3.154-4.006c0.623,0,1.127,0.348,1.403,0.876h0.048l0.228-0.731
		h0.756l-1.176,5.828h-0.755l0.083-0.863h-0.035c-0.576,0.6-1.296,1.008-2.027,1.008
		C562.063,175.227,561.404,174.482,561.404,173.115z M565.242,173.343l0.539-2.603c-0.335-0.611-0.743-0.852-1.187-0.852
		c-1.164,0-2.231,1.476-2.231,3.083c0,1.007,0.408,1.475,1.056,1.475C564.03,174.446,564.679,174.099,565.242,173.343z"/>
	<path fill="#02BFE7" d="M568.915,169.997h-0.755l0.132-0.684l0.779-0.06l0.191-0.972c0.24-1.163,0.864-1.883,1.848-1.883
		c0.42,0,0.768,0.119,1.043,0.287l-0.312,0.648c-0.168-0.108-0.384-0.181-0.672-0.181c-0.516,0-0.852,0.432-0.983,1.104
		l-0.204,0.996h2.003l0.492-1.859h0.779l-0.372,1.859h1.476l-0.144,0.743h-1.5l-0.684,3.322c-0.023,0.144-0.035,0.288-0.035,0.432
		c0,0.479,0.203,0.72,0.719,0.72c0.252,0,0.456-0.084,0.636-0.168l0.204,0.647c-0.264,0.132-0.672,0.276-1.115,0.276
		c-1.008,0-1.392-0.576-1.392-1.308c0-0.228,0.024-0.42,0.072-0.636l0.672-3.286h-1.955l-1.02,5.085h-0.924L568.915,169.997z"/>
	<path fill="#02BFE7" d="M578.814,172.012l-1.283-4.797h0.972l0.54,2.255c0.132,0.587,0.251,1.115,0.396,1.727h0.023
		c0.372-0.588,0.72-1.151,1.092-1.739l1.487-2.242h1.007l-3.286,4.797l-0.623,3.07h-0.936L578.814,172.012z"/>
	<path fill="#02BFE7" d="M582.116,172.792c0-2.195,1.595-3.683,3.118-3.683c1.307,0,1.811,0.912,1.811,2.111
		c0,0.468-0.132,0.947-0.216,1.163h-3.777c-0.204,1.476,0.575,2.099,1.57,2.099c0.504,0,0.96-0.191,1.319-0.455l0.336,0.563
		c-0.455,0.359-1.079,0.636-1.822,0.636C583.039,175.227,582.116,174.351,582.116,172.792z M586.182,171.676
		c0.048-0.168,0.072-0.335,0.072-0.539c0-0.66-0.288-1.283-1.128-1.283c-0.852,0-1.69,0.72-1.967,1.822H586.182z"/>
	<path fill="#02BFE7" d="M587.899,173.115c0-2.242,1.535-4.006,3.154-4.006c0.624,0,1.128,0.348,1.403,0.876h0.048l0.229-0.731
		h0.755l-1.175,5.828h-0.756l0.084-0.863h-0.036c-0.575,0.6-1.295,1.008-2.026,1.008
		C588.56,175.227,587.899,174.482,587.899,173.115z M591.737,173.343l0.54-2.603c-0.336-0.611-0.744-0.852-1.188-0.852
		c-1.163,0-2.23,1.476-2.23,3.083c0,1.007,0.407,1.475,1.055,1.475C590.526,174.446,591.174,174.099,591.737,173.343z"/>
	<path fill="#02BFE7" d="M595.411,169.254h0.768l-0.145,1.115h0.049c0.467-0.708,1.079-1.26,1.799-1.26
		c0.216,0,0.407,0.036,0.563,0.108l-0.324,0.804c-0.132-0.061-0.3-0.072-0.503-0.072c-0.588,0-1.224,0.504-1.728,1.463l-0.72,3.67
		h-0.924L595.411,169.254z"/>
	<path fill="#02BFE7" d="M600.848,174.314h1.667l1.151-5.732h-1.367l0.12-0.6c0.695-0.096,1.247-0.276,1.69-0.552h0.72l-1.392,6.884
		h1.548l-0.145,0.768h-4.149L600.848,174.314z"/>
	<path fill="#02BFE7" d="M612.173,167.215h1.08l0.911,7.867h-0.972l-0.216-2.446h-2.782l-1.247,2.446h-1.02L612.173,167.215z
		 M610.578,171.904h2.327l-0.12-1.344c-0.072-0.827-0.156-1.655-0.216-2.555h-0.048c-0.42,0.899-0.815,1.691-1.26,2.555
		L610.578,171.904z"/>
	<path fill="#02BFE7" d="M615.115,172.888c0-2.171,1.559-3.778,3.25-3.778c0.707,0,1.211,0.312,1.511,0.708l-0.527,0.527
		c-0.276-0.323-0.563-0.468-1.044-0.468c-1.163,0-2.242,1.355-2.242,2.95c0,1.056,0.456,1.632,1.379,1.632
		c0.479,0,0.972-0.24,1.296-0.504l0.396,0.575c-0.408,0.336-1.044,0.696-1.871,0.696
		C615.99,175.227,615.115,174.375,615.115,172.888z"/>
	<path fill="#02BFE7" d="M620.719,173.907c0-0.216,0.023-0.408,0.06-0.624l0.684-3.286h-0.852l0.132-0.684l0.912-0.06l0.479-1.859
		h0.779l-0.359,1.859h1.475l-0.155,0.743h-1.487l-0.684,3.322c-0.024,0.144-0.036,0.288-0.036,0.432c0,0.479,0.191,0.72,0.707,0.72
		c0.229,0,0.456-0.06,0.624-0.156l0.216,0.624c-0.264,0.144-0.647,0.288-1.115,0.288C621.09,175.227,620.719,174.65,620.719,173.907
		z"/>
	<path fill="#02BFE7" d="M625.326,169.254h0.923l-1.163,5.828h-0.924L625.326,169.254z M625.494,167.503
		c0-0.396,0.323-0.696,0.695-0.696c0.312,0,0.588,0.204,0.588,0.552c0,0.396-0.324,0.684-0.696,0.684
		C625.77,168.042,625.494,167.851,625.494,167.503z"/>
	<path fill="#02BFE7" d="M627.103,172.888c0-2.207,1.548-3.778,3.143-3.778c1.259,0,2.087,0.888,2.087,2.339
		c0,2.207-1.56,3.778-3.154,3.778C627.918,175.227,627.103,174.339,627.103,172.888z M631.396,171.508
		c0-1.055-0.443-1.631-1.247-1.631c-1.067,0-2.111,1.319-2.111,2.95c0,1.056,0.432,1.632,1.235,1.632
		C630.353,174.459,631.396,173.127,631.396,171.508z"/>
	<path fill="#02BFE7" d="M634.338,169.254h0.768l-0.096,0.875h0.048c0.624-0.575,1.308-1.02,2.027-1.02
		c0.983,0,1.391,0.552,1.391,1.451c0,0.276-0.036,0.479-0.096,0.804l-0.743,3.718h-0.936l0.731-3.598
		c0.06-0.312,0.096-0.479,0.096-0.684c0-0.588-0.264-0.888-0.863-0.888c-0.456,0-1.02,0.324-1.751,1.044l-0.815,4.125h-0.924
		L634.338,169.254z"/>
	<path fill="#02BFE7" d="M643.506,167.215h2.219c1.487,0,2.471,0.552,2.471,1.919c0,1.931-1.428,2.794-3.442,2.794h-1.259
		l-0.624,3.154h-0.936L643.506,167.215z M644.801,171.16c1.607,0,2.471-0.647,2.471-1.906c0-0.9-0.623-1.284-1.774-1.284h-1.212
		l-0.623,3.19H644.801z"/>
	<path fill="#02BFE7" d="M648.654,174.459c0-0.132,0.024-0.3,0.072-0.492l1.475-7.424h0.924l-1.487,7.46
		c-0.023,0.132-0.023,0.191-0.023,0.264c0,0.12,0.071,0.192,0.191,0.192c0.048,0,0.072,0,0.168-0.024l0.072,0.672
		c-0.168,0.072-0.336,0.12-0.563,0.12C648.918,175.227,648.654,174.95,648.654,174.459z"/>
	<path fill="#02BFE7" d="M651.57,173.115c0-2.242,1.535-4.006,3.154-4.006c0.624,0,1.128,0.348,1.403,0.876h0.048l0.229-0.731h0.755
		l-1.175,5.828h-0.756l0.084-0.863h-0.036c-0.575,0.6-1.295,1.008-2.026,1.008C652.23,175.227,651.57,174.482,651.57,173.115z
		 M655.408,173.343l0.54-2.603c-0.336-0.611-0.744-0.852-1.188-0.852c-1.163,0-2.23,1.476-2.23,3.083
		c0,1.007,0.407,1.475,1.055,1.475C654.197,174.446,654.845,174.099,655.408,173.343z"/>
	<path fill="#02BFE7" d="M659.082,169.254h0.768l-0.096,0.875h0.048c0.623-0.575,1.307-1.02,2.026-1.02
		c0.983,0,1.392,0.552,1.392,1.451c0,0.276-0.036,0.479-0.096,0.804l-0.744,3.718h-0.936l0.731-3.598
		c0.061-0.312,0.097-0.479,0.097-0.684c0-0.588-0.265-0.888-0.864-0.888c-0.455,0-1.02,0.324-1.751,1.044l-0.815,4.125h-0.924
		L659.082,169.254z"/>
</g>
<g>
	<rect x="766.674" y="138.89" fill="none" width="129.256" height="51.11"/>
	<path fill="#02BFE7" d="M767.312,143.275c0-0.41,0.146-0.76,0.437-1.049s0.64-0.434,1.046-0.434c0.41,0,0.761,0.145,1.052,0.434
		s0.437,0.639,0.437,1.049s-0.146,0.761-0.437,1.052s-0.642,0.437-1.052,0.437c-0.406,0-0.755-0.146-1.046-0.437
		S767.312,143.686,767.312,143.275z"/>
	<path fill="#02BFE7" d="M775.53,144.724l-2.351-5.049h1.99l0.66,1.738c0.203,0.588,0.396,1.128,0.611,1.739h0.048
		c0.216-0.611,0.444-1.151,0.647-1.739l0.66-1.738h1.942l-2.351,5.049v2.759h-1.858V144.724z"/>
	<path fill="#02BFE7" d="M779.396,144.496c0-1.932,1.391-3.118,2.818-3.118c1.727,0,2.566,1.247,2.566,2.866
		c0,0.336-0.036,0.647-0.072,0.815h-3.514c0.168,0.804,0.731,1.151,1.487,1.151c0.432,0,0.863-0.132,1.283-0.372l0.6,1.115
		c-0.624,0.444-1.439,0.672-2.147,0.672C780.715,147.626,779.396,146.486,779.396,144.496z M783.197,143.812
		c0-0.588-0.264-1.031-0.936-1.031c-0.528,0-0.972,0.335-1.092,1.031H783.197z"/>
	<path fill="#02BFE7" d="M785.575,145.815c0-1.26,0.972-1.943,3.322-2.184c-0.048-0.491-0.3-0.779-0.912-0.779
		c-0.479,0-0.959,0.168-1.559,0.504l-0.647-1.199c0.779-0.479,1.631-0.779,2.566-0.779c1.535,0,2.398,0.852,2.398,2.722v3.383
		h-1.511l-0.133-0.6h-0.048c-0.491,0.443-1.031,0.743-1.703,0.743C786.259,147.626,785.575,146.811,785.575,145.815z
		 M788.897,145.719v-0.947c-1.188,0.156-1.548,0.479-1.548,0.899c0,0.348,0.229,0.516,0.636,0.516
		C788.357,146.187,788.609,146.007,788.897,145.719z"/>
	<path fill="#02BFE7" d="M792.198,141.521h1.512l0.132,1.031h0.048c0.432-0.804,1.092-1.175,1.691-1.175
		c0.348,0,0.552,0.035,0.72,0.119l-0.348,1.571c-0.217-0.048-0.349-0.071-0.612-0.071c-0.443,0-0.983,0.287-1.295,1.079v3.406
		h-1.848V141.521z"/>
	<path fill="#02BFE7" d="M799.519,145.983h1.655v-4.258h-1.428v-1.151c0.828-0.156,1.38-0.36,1.919-0.708h1.367v6.117h1.415v1.499
		h-4.929V145.983z"/>
	<path fill="#02BFE7" d="M809.825,139.675h2.23l2.436,7.808h-1.968l-0.455-1.799h-2.315l-0.455,1.799h-1.907L809.825,139.675z
		 M810.113,144.244h1.595l-0.168-0.672c-0.203-0.768-0.407-1.691-0.611-2.507h-0.048c-0.192,0.815-0.396,1.739-0.6,2.507
		L810.113,144.244z"/>
	<path fill="#02BFE7" d="M814.818,144.496c0-1.979,1.475-3.118,3.13-3.118c0.731,0,1.295,0.252,1.739,0.636l-0.863,1.139
		c-0.276-0.204-0.504-0.288-0.768-0.288c-0.828,0-1.344,0.648-1.344,1.632c0,0.995,0.552,1.631,1.283,1.631
		c0.396,0,0.731-0.144,1.031-0.372l0.72,1.164c-0.575,0.527-1.331,0.707-1.967,0.707
		C816.102,147.626,814.818,146.475,814.818,144.496z"/>
	<path fill="#02BFE7" d="M820.901,145.275v-2.303h-0.804v-1.392l0.912-0.06l0.216-1.823h1.535v1.823h1.403v1.451h-1.403v2.278
		c0,0.672,0.312,0.924,0.755,0.924c0.192,0,0.396-0.023,0.552-0.084l0.288,1.296c-0.312,0.119-0.768,0.239-1.355,0.239
		C821.513,147.626,820.901,146.679,820.901,145.275z"/>
	<path fill="#02BFE7" d="M825.197,139.723c0-0.576,0.432-0.947,1.044-0.947c0.611,0,1.043,0.371,1.043,0.947
		c0,0.588-0.432,0.959-1.043,0.959C825.629,140.682,825.197,140.311,825.197,139.723z M825.317,141.521h1.847v5.961h-1.847V141.521z
		"/>
	<path fill="#02BFE7" d="M828.342,144.496c0-1.979,1.403-3.118,2.914-3.118c1.523,0,2.927,1.139,2.927,3.118
		c0,1.979-1.403,3.13-2.927,3.13C829.745,147.626,828.342,146.475,828.342,144.496z M832.275,144.496
		c0-0.983-0.324-1.632-1.02-1.632s-1.02,0.648-1.02,1.632c0,0.995,0.324,1.631,1.02,1.631S832.275,145.491,832.275,144.496z"/>
	<path fill="#02BFE7" d="M835.361,141.521h1.511l0.133,0.743h0.048c0.491-0.479,1.091-0.887,1.906-0.887
		c1.296,0,1.848,0.923,1.848,2.41v3.694h-1.859v-3.454c0-0.828-0.216-1.08-0.695-1.08c-0.42,0-0.672,0.204-1.044,0.54v3.994h-1.847
		V141.521z"/>
	<path fill="#02BFE7" d="M844.805,139.675h2.747c1.715,0,3.118,0.611,3.118,2.53c0,1.871-1.428,2.687-3.07,2.687h-0.924v2.591
		h-1.871V139.675z M847.491,143.416c0.924,0,1.355-0.432,1.355-1.211s-0.491-1.056-1.403-1.056h-0.768v2.267H847.491z"/>
	<path fill="#02BFE7" d="M851.86,145.551v-6.452h1.848v6.524c0,0.384,0.191,0.504,0.336,0.504c0.071,0,0.119,0,0.216-0.024
		l0.216,1.367c-0.204,0.084-0.516,0.156-0.924,0.156C852.28,147.626,851.86,146.799,851.86,145.551z"/>
	<path fill="#02BFE7" d="M855.077,145.815c0-1.26,0.972-1.943,3.322-2.184c-0.048-0.491-0.3-0.779-0.912-0.779
		c-0.479,0-0.959,0.168-1.559,0.504l-0.647-1.199c0.779-0.479,1.631-0.779,2.566-0.779c1.535,0,2.398,0.852,2.398,2.722v3.383
		h-1.511l-0.133-0.6h-0.048c-0.491,0.443-1.031,0.743-1.703,0.743C855.761,147.626,855.077,146.811,855.077,145.815z
		 M858.399,145.719v-0.947c-1.188,0.156-1.548,0.479-1.548,0.899c0,0.348,0.229,0.516,0.636,0.516
		C857.859,146.187,858.111,146.007,858.399,145.719z"/>
	<path fill="#02BFE7" d="M861.7,141.521h1.512l0.132,0.743h0.048c0.492-0.479,1.092-0.887,1.907-0.887
		c1.295,0,1.847,0.923,1.847,2.41v3.694h-1.858v-3.454c0-0.828-0.216-1.08-0.696-1.08c-0.42,0-0.671,0.204-1.043,0.54v3.994H861.7
		V141.521z"/>
</g>
<g>
</g>
<g>
</g>
<g>
</g>
<g>
</g>
<g>
</g>
<g>
</g>
<g>
</g>
<g>
</g>
<g>
</g>
<g>
</g>
<g>
</g>
<g>
</g>
<g>
</g>
<g>
</g>
<g>
</g>
</svg>
