<?xml version="1.0" encoding="utf-8"?>
<!-- Generator: Adobe Illustrator 19.1.0, SVG Export Plug-In . SVG Version: 6.00 Build 0)  -->
<svg version="1.1" id="Layer_1" xmlns="http://www.w3.org/2000/svg" xmlns:xlink="http://www.w3.org/1999/xlink" x="0px" y="0px"
	 viewBox="0 0 1024 200" enable-background="new 0 0 1024 200" xml:space="preserve">
<line fill="none" stroke="#FFFFFF" stroke-width="4" stroke-miterlimit="10" x1="-1" y1="116" x2="1023" y2="116"/>
<g>
	<g>
		<defs>
			<rect id="SVGID_1_" x="152.834" y="47.127" width="41.6" height="33.8"/>
		</defs>
		<clipPath id="SVGID_2_">
			<use xlink:href="#SVGID_1_"  overflow="visible"/>
		</clipPath>
		<rect x="152.834" y="47.127" clip-path="url(#SVGID_2_)" fill="#FFFFFF" fill-opacity="0" width="41.6" height="33.8"/>
	</g>
	<g>
		<defs>
			<rect id="SVGID_3_" x="152.834" y="47.127" width="41.6" height="33.8"/>
		</defs>
		<clipPath id="SVGID_4_">
			<use xlink:href="#SVGID_3_"  overflow="visible"/>
		</clipPath>
		<path clip-path="url(#SVGID_4_)" fill="#FFFFFF" d="M155.671,65.904c-1.568,0-2.837,1.264-2.837,2.818
			c0,1.555,1.269,2.816,2.837,2.816c1.565,0,2.834-1.261,2.834-2.816C158.505,67.167,157.236,65.904,155.671,65.904 M155.671,56.515
			c-1.568,0-2.837,1.264-2.837,2.816c0,1.555,1.269,2.816,2.837,2.816c1.565,0,2.834-1.261,2.834-2.816
			C158.505,57.779,157.236,56.515,155.671,56.515 M155.671,75.292c-1.568,0-2.837,1.261-2.837,2.818
			c0,1.555,1.269,2.816,2.837,2.816c1.565,0,2.834-1.261,2.834-2.816C158.505,76.553,157.236,75.292,155.671,75.292 M163.234,50.881
			h30.254c0.523,0,0.946-0.419,0.946-0.939c0-0.517-0.424-0.939-0.946-0.939h-30.254c-0.523,0-0.946,0.421-0.946,0.939
			C162.288,50.462,162.712,50.881,163.234,50.881 M193.488,77.172h-30.254c-0.523,0-0.946,0.421-0.946,0.939
			c0,0.52,0.424,0.939,0.946,0.939h30.254c0.523,0,0.946-0.419,0.946-0.939C194.434,77.591,194.01,77.172,193.488,77.172
			 M155.671,47.127c-1.568,0-2.837,1.264-2.837,2.816c0,1.555,1.269,2.816,2.837,2.816c1.565,0,2.834-1.261,2.834-2.816
			C158.505,48.39,157.236,47.127,155.671,47.127 M193.488,58.392h-30.254c-0.523,0-0.946,0.421-0.946,0.939
			c0,0.52,0.424,0.941,0.946,0.941h30.254c0.523,0,0.946-0.421,0.946-0.941C194.434,58.814,194.01,58.392,193.488,58.392
			 M193.488,67.781h-30.254c-0.523,0-0.946,0.421-0.946,0.939c0,0.52,0.424,0.939,0.946,0.939h30.254
			c0.523,0.003,0.946-0.419,0.946-0.936C194.434,68.202,194.01,67.781,193.488,67.781"/>
	</g>
</g>
<g>
	<g>
		<defs>
			<rect id="SVGID_5_" x="365.6" y="43.227" width="33.8" height="41.6"/>
		</defs>
		<clipPath id="SVGID_6_">
			<use xlink:href="#SVGID_5_"  overflow="visible"/>
		</clipPath>
		<rect x="365.6" y="43.227" clip-path="url(#SVGID_6_)" fill="#FFFFFF" fill-opacity="0" width="33.8" height="41.6"/>
	</g>
	<g>
		<defs>
			<rect id="SVGID_7_" x="365.6" y="43.227" width="33.8" height="41.6"/>
		</defs>
		<clipPath id="SVGID_8_">
			<use xlink:href="#SVGID_7_"  overflow="visible"/>
		</clipPath>
		<path clip-path="url(#SVGID_8_)" fill="#FFFFFF" d="M383.439,71.59h-11.266c-0.52,0-0.939,0.424-0.939,0.946
			c0,0.523,0.419,0.946,0.939,0.946h11.266c0.52,0,0.939-0.421,0.939-0.946C384.377,72.014,383.959,71.59,383.439,71.59
			 M379.684,77.263h-7.511c-0.52,0-0.939,0.424-0.939,0.946c0,0.523,0.419,0.946,0.939,0.946h7.511c0.52,0,0.939-0.424,0.939-0.946
			C380.623,77.687,380.202,77.263,379.684,77.263 M372.173,62.136h3.754c0.52,0,0.939-0.421,0.939-0.946
			c0-0.523-0.419-0.946-0.939-0.946h-3.754c-0.52,0-0.939,0.424-0.939,0.946C371.234,61.713,371.653,62.136,372.173,62.136
			 M371.234,66.863c0,0.523,0.419,0.946,0.939,0.946h11.266c0.52,0,0.939-0.424,0.939-0.946c0-0.523-0.419-0.946-0.939-0.946
			h-11.266C371.653,65.917,371.234,66.341,371.234,66.863 M392.827,43.227h-14.082c-2.075,0-3.757,1.693-3.757,3.783v2.834
			c0,0.523,0.419,0.946,0.939,0.946c0.52,0,0.939-0.421,0.939-0.946V47.01c0-1.043,0.842-1.89,1.877-1.89h11.266v5.671
			c0,1.043,0.842,1.89,1.877,1.89h5.634v18.91c0,1.043-0.842,1.89-1.877,1.89h-2.816c-0.52,0-0.939,0.424-0.939,0.946
			c0,0.523,0.419,0.946,0.939,0.946h2.816c2.072,0,3.754-1.693,3.754-3.783v-20.8L392.827,43.227z M391.889,50.79v-5.525
			l4.896,5.525H391.889z M369.354,52.68c-2.072,0-3.754,1.693-3.754,3.783v24.58c0,2.09,1.682,3.783,3.754,3.783h16.9
			c2.072,0,3.754-1.693,3.754-3.783v-20.8l-6.57-7.563H369.354z M388.134,81.044c0,1.045-0.842,1.89-1.877,1.89h-16.9
			c-1.035,0-1.877-0.845-1.877-1.89v-24.58c0-1.043,0.842-1.89,1.877-1.89h11.266v5.671c0,1.043,0.842,1.89,1.877,1.89h5.634V81.044
			z M382.5,60.244v-5.525l4.896,5.525H382.5z"/>
	</g>
</g>
<g>
	<path fill="#FFFFFF" d="M604.987,43.227h-26.291c-2.072,0-3.754,1.693-3.754,3.783v34.034c0,2.088,1.682,3.783,3.754,3.783h26.289
		c2.075,0,3.757-1.695,3.757-3.783V47.01C608.741,44.919,607.059,43.227,604.987,43.227 M597.476,45.117h3.754v6.617l-1.877-1.89
		l-1.877,1.893V45.117z M582.453,82.934h-3.757c-1.035,0-1.877-0.845-1.877-1.89V47.01c0-1.043,0.842-1.89,1.877-1.89h3.754v37.814
		H582.453z M606.864,81.044c0,1.043-0.842,1.89-1.877,1.89H584.33V45.117h11.266v11.344l3.754-3.78l3.754,3.78V45.117h1.877
		c1.035,0,1.877,0.848,1.877,1.89v34.037H606.864z"/>
</g>
<g>
	<g>
		<defs>
			<rect id="SVGID_9_" x="785.266" y="46.226" width="41.6" height="41.6"/>
		</defs>
		<clipPath id="SVGID_10_">
			<use xlink:href="#SVGID_9_"  overflow="visible"/>
		</clipPath>
		<rect x="785.266" y="46.226" clip-path="url(#SVGID_10_)" fill="#FFFFFF" fill-opacity="0" width="41.6" height="41.6"/>
	</g>
	<g>
		<defs>
			<rect id="SVGID_11_" x="785.266" y="46.226" width="41.6" height="41.6"/>
		</defs>
		<clipPath id="SVGID_12_">
			<use xlink:href="#SVGID_11_"  overflow="visible"/>
		</clipPath>
		<path clip-path="url(#SVGID_12_)" fill="#FFFFFF" d="M808.902,63.243h9.454c0.523,0,0.946-0.421,0.946-0.946
			c0-0.52-0.424-0.944-0.946-0.944h-9.454c-0.523,0-0.946,0.424-0.946,0.944C807.956,62.821,808.38,63.243,808.902,63.243
			 M808.902,59.462h5.671c0.523,0,0.946-0.424,0.946-0.946s-0.424-0.946-0.946-0.946h-5.671c-0.523,0-0.946,0.424-0.946,0.946
			S808.38,59.462,808.902,59.462 M808.902,67.026h3.78c0.523,0,0.946-0.424,0.946-0.946s-0.424-0.946-0.946-0.946h-3.78
			c-0.523,0-0.946,0.424-0.946,0.946S808.38,67.026,808.902,67.026 M794.719,70.809h7.563c1.043,0,1.89-0.845,1.89-1.89v-9.456
			c0-1.043-0.848-1.89-1.89-1.89h-7.563c-1.043,0-1.89,0.848-1.89,1.89v9.454C792.829,69.964,793.677,70.809,794.719,70.809
			 M794.719,59.462h7.563v9.454h-7.563V59.462z M808.902,70.809h9.454c0.523,0,0.946-0.424,0.946-0.946s-0.424-0.946-0.946-0.946
			h-9.454c-0.523,0-0.946,0.424-0.946,0.946S808.38,70.809,808.902,70.809 M824.976,48.116h-17.02c0-1.043-0.848-1.89-1.89-1.89
			c-1.043,0-1.89,0.848-1.89,1.89h-17.02c-1.043,0-1.89,0.848-1.89,1.893v1.89c0,1.045,0.848,1.89,1.89,1.89v22.69
			c0,1.045,0.848,1.89,1.89,1.89h16.071v2.444l-5.398,5.398c-0.169,0.172-0.276,0.408-0.276,0.668
			c0.005,0.523,0.429,0.946,0.952,0.946c0.26,0,0.497-0.107,0.668-0.278l5.002-5.002l5.002,5.002
			c0.172,0.172,0.408,0.278,0.668,0.278c0.523,0,0.946-0.424,0.946-0.946c0-0.26-0.107-0.497-0.276-0.668l-5.398-5.398v-2.444
			h16.071c1.043,0,1.89-0.845,1.89-1.89v-22.69c1.048,0,1.895-0.845,1.895-1.893v-1.888
			C826.866,48.963,826.018,48.116,824.976,48.116 M823.083,76.479h-34.034v-22.69h34.034V76.479z M824.976,51.896h-37.82v-1.888
			h37.817v1.888H824.976z"/>
	</g>
</g>
<g>
	<rect x="137.744" y="132.768" fill="none" width="79.268" height="20.122"/>
	<path fill="#C40000" d="M139.716,141.625c0.204,0.374,0.442,0.652,0.714,0.833c0.272,0.182,0.549,0.272,0.833,0.272
		c0.453,0,0.796-0.139,1.028-0.417c0.232-0.277,0.349-0.784,0.349-1.521v-7.19h2.499v7.395c0,0.533-0.071,1.037-0.212,1.514
		c-0.142,0.476-0.357,0.89-0.646,1.24c-0.289,0.352-0.658,0.629-1.105,0.833c-0.448,0.204-0.978,0.307-1.59,0.307
		c-0.85,0-1.561-0.165-2.133-0.493c-0.572-0.329-1.051-0.833-1.437-1.513L139.716,141.625z"/>
	<path fill="#C40000" d="M147.417,136.253h2.499v4.913c0,0.612,0.085,1.031,0.255,1.258c0.17,0.228,0.436,0.341,0.799,0.341
		c0.317,0,0.583-0.074,0.799-0.222c0.215-0.146,0.447-0.385,0.697-0.714v-5.576h2.499v8.433h-2.04l-0.187-1.173h-0.051
		c-0.363,0.431-0.751,0.768-1.165,1.011c-0.414,0.244-0.91,0.366-1.487,0.366c-0.918,0-1.584-0.301-1.998-0.901
		c-0.414-0.601-0.621-1.434-0.621-2.499V136.253z"/>
	<path fill="#C40000" d="M157.157,132.769h2.499v9.4c0,0.261,0.048,0.442,0.145,0.544c0.096,0.103,0.195,0.153,0.297,0.153
		c0.057,0,0.105,0,0.145,0s0.094-0.011,0.162-0.034l0.306,1.854c-0.136,0.057-0.309,0.104-0.519,0.145
		c-0.21,0.039-0.457,0.06-0.74,0.06c-0.431,0-0.793-0.068-1.088-0.204c-0.295-0.137-0.53-0.326-0.706-0.569
		c-0.176-0.244-0.303-0.538-0.382-0.885c-0.08-0.346-0.119-0.733-0.119-1.164V132.769z"/>
	<path fill="#C40000" d="M162.478,145.978c0.102,0.022,0.198,0.034,0.289,0.034c0.419,0,0.742-0.103,0.969-0.307
		s0.397-0.47,0.51-0.799l0.119-0.442l-3.247-8.211h2.516l1.207,3.621c0.125,0.386,0.238,0.776,0.34,1.173
		c0.102,0.397,0.209,0.806,0.323,1.225h0.068c0.09-0.396,0.184-0.796,0.28-1.198s0.195-0.802,0.297-1.199l1.02-3.621h2.397
		l-2.924,8.518c-0.204,0.532-0.417,1-0.638,1.402c-0.221,0.402-0.476,0.736-0.765,1.003s-0.618,0.468-0.986,0.604
		s-0.802,0.204-1.3,0.204c-0.261,0-0.482-0.015-0.663-0.043s-0.357-0.07-0.527-0.127l0.442-1.904
		C162.285,145.932,162.376,145.954,162.478,145.978z"/>
	<path fill="#C40000" d="M173.936,143.257c0.691-0.646,1.323-1.249,1.896-1.81c0.572-0.562,1.065-1.089,1.479-1.581
		c0.414-0.493,0.737-0.952,0.969-1.377c0.232-0.426,0.348-0.83,0.348-1.216c0-0.532-0.136-0.938-0.408-1.216
		c-0.272-0.277-0.646-0.416-1.122-0.416c-0.397,0-0.748,0.11-1.054,0.331c-0.306,0.221-0.595,0.479-0.867,0.773l-1.36-1.343
		c0.533-0.566,1.077-0.994,1.632-1.283c0.555-0.289,1.218-0.434,1.989-0.434c0.533,0,1.017,0.082,1.454,0.246
		c0.436,0.165,0.813,0.397,1.13,0.697c0.317,0.301,0.561,0.66,0.731,1.079c0.17,0.42,0.255,0.891,0.255,1.411
		c0,0.453-0.097,0.916-0.289,1.386c-0.193,0.471-0.451,0.94-0.773,1.411c-0.323,0.471-0.691,0.94-1.105,1.411
		c-0.414,0.47-0.842,0.932-1.284,1.385c0.272-0.033,0.575-0.064,0.91-0.093c0.334-0.028,0.631-0.043,0.892-0.043h2.176v2.108h-7.599
		V143.257z"/>
	<path fill="#C40000" d="M186.771,144.89c-0.578,0-1.105-0.122-1.581-0.366c-0.476-0.243-0.881-0.604-1.216-1.079
		s-0.595-1.065-0.782-1.768c-0.187-0.703-0.281-1.514-0.281-2.432s0.094-1.723,0.281-2.414c0.187-0.69,0.447-1.271,0.782-1.742
		s0.74-0.821,1.216-1.054c0.476-0.232,1.003-0.349,1.581-0.349c0.578,0,1.105,0.116,1.581,0.349s0.881,0.583,1.216,1.054
		c0.334,0.471,0.595,1.052,0.782,1.742c0.187,0.691,0.281,1.496,0.281,2.414s-0.094,1.729-0.281,2.432
		c-0.187,0.702-0.448,1.292-0.782,1.768c-0.334,0.476-0.74,0.836-1.216,1.079C187.875,144.768,187.349,144.89,186.771,144.89z
		 M186.771,142.951c0.215,0,0.414-0.054,0.595-0.161c0.181-0.107,0.34-0.304,0.476-0.587c0.136-0.283,0.241-0.663,0.314-1.139
		c0.074-0.477,0.11-1.082,0.11-1.819c0-0.736-0.037-1.34-0.11-1.811c-0.074-0.47-0.179-0.838-0.314-1.104
		c-0.136-0.267-0.295-0.451-0.476-0.553c-0.182-0.102-0.38-0.153-0.595-0.153c-0.204,0-0.396,0.052-0.578,0.153
		c-0.182,0.102-0.34,0.286-0.476,0.553c-0.136,0.267-0.244,0.635-0.323,1.104c-0.079,0.471-0.119,1.074-0.119,1.811
		c0,0.737,0.04,1.343,0.119,1.819c0.079,0.476,0.187,0.855,0.323,1.139c0.136,0.283,0.294,0.479,0.476,0.587
		C186.374,142.897,186.567,142.951,186.771,142.951z"/>
	<path fill="#C40000" d="M192.449,142.662h2.346v-6.239h-2.023v-1.547c0.589-0.113,1.088-0.249,1.496-0.407
		c0.408-0.159,0.805-0.352,1.19-0.578h1.836v8.771h2.023v2.023h-6.868V142.662z"/>
	<path fill="#C40000" d="M200.949,141.932c0-0.657,0.179-1.196,0.536-1.615s0.791-0.765,1.3-1.037v-0.068
		c-0.419-0.316-0.765-0.677-1.037-1.079s-0.408-0.893-0.408-1.471c0-0.453,0.085-0.864,0.255-1.232s0.408-0.683,0.714-0.943
		c0.306-0.261,0.671-0.459,1.096-0.595c0.425-0.137,0.887-0.204,1.386-0.204c0.487,0,0.935,0.07,1.343,0.212
		c0.408,0.143,0.753,0.341,1.037,0.596c0.283,0.255,0.504,0.566,0.663,0.935c0.159,0.368,0.238,0.773,0.238,1.216
		c0,0.521-0.142,0.983-0.425,1.386c-0.284,0.402-0.612,0.728-0.986,0.977v0.068c0.521,0.283,0.963,0.646,1.326,1.088
		c0.363,0.442,0.544,1.021,0.544,1.734c0,0.431-0.091,0.827-0.272,1.189c-0.181,0.363-0.439,0.678-0.773,0.944
		c-0.334,0.266-0.737,0.476-1.207,0.629c-0.47,0.152-0.995,0.229-1.572,0.229c-0.544,0-1.046-0.071-1.505-0.213
		s-0.855-0.343-1.19-0.604s-0.595-0.572-0.782-0.935C201.042,142.775,200.949,142.373,200.949,141.932z M203.091,141.643
		c0,0.476,0.164,0.847,0.493,1.113c0.329,0.267,0.719,0.399,1.173,0.399c0.419,0,0.765-0.11,1.037-0.331
		c0.272-0.222,0.408-0.559,0.408-1.012c0-0.238-0.054-0.442-0.161-0.612c-0.108-0.17-0.264-0.325-0.468-0.468
		c-0.204-0.142-0.445-0.274-0.722-0.399c-0.278-0.124-0.587-0.261-0.927-0.407c-0.238,0.227-0.437,0.487-0.595,0.781
		C203.17,141.002,203.091,141.313,203.091,141.643z M205.386,138.396c0.442-0.51,0.663-1.037,0.663-1.581
		c0-0.419-0.116-0.757-0.349-1.012s-0.552-0.383-0.96-0.383c-0.329,0-0.612,0.103-0.85,0.307c-0.238,0.204-0.357,0.516-0.357,0.935
		c0,0.442,0.17,0.788,0.51,1.037C204.383,137.947,204.831,138.18,205.386,138.396z"/>
</g>
<circle fill="#C40000" cx="177.378" cy="116.256" r="7.927"/>
<g>
	<rect x="327.253" y="134.768" fill="none" width="105.232" height="18.122"/>
	<path fill="#B2B2B2" d="M333.067,146.89c-0.748,0-1.431-0.134-2.048-0.399c-0.618-0.267-1.147-0.649-1.59-1.147
		c-0.442-0.499-0.785-1.105-1.028-1.819s-0.365-1.524-0.365-2.431c0-0.907,0.122-1.715,0.365-2.423s0.586-1.304,1.028-1.785
		c0.442-0.481,0.972-0.85,1.59-1.104c0.618-0.256,1.3-0.383,2.048-0.383s1.431,0.127,2.048,0.383
		c0.618,0.255,1.147,0.626,1.59,1.113c0.442,0.487,0.785,1.085,1.028,1.793c0.244,0.709,0.366,1.511,0.366,2.406
		c0,0.906-0.122,1.717-0.366,2.431s-0.586,1.32-1.028,1.819c-0.442,0.498-0.972,0.881-1.59,1.147
		C334.498,146.756,333.815,146.89,333.067,146.89z M333.067,144.73c0.759,0,1.36-0.326,1.802-0.978
		c0.442-0.651,0.663-1.539,0.663-2.66c0-1.111-0.221-1.979-0.663-2.602c-0.442-0.623-1.043-0.935-1.802-0.935
		s-1.36,0.312-1.802,0.935c-0.442,0.623-0.663,1.49-0.663,2.602c0,1.121,0.221,2.009,0.663,2.66
		C331.708,144.404,332.308,144.73,333.067,144.73z"/>
	<path fill="#B2B2B2" d="M339.493,142.47c0-0.703,0.119-1.329,0.357-1.879c0.238-0.55,0.558-1.012,0.96-1.386
		c0.402-0.374,0.87-0.66,1.402-0.858s1.088-0.298,1.666-0.298c0.521,0,0.992,0.089,1.411,0.264c0.419,0.176,0.771,0.411,1.054,0.706
		l-1.139,1.547c-0.397-0.329-0.788-0.493-1.173-0.493c-0.612,0-1.094,0.216-1.445,0.646c-0.352,0.431-0.527,1.014-0.527,1.751
		c0,0.736,0.178,1.32,0.535,1.751s0.808,0.646,1.352,0.646c0.306,0,0.583-0.062,0.833-0.187c0.249-0.125,0.476-0.267,0.68-0.426
		l1.003,1.581c-0.408,0.363-0.861,0.629-1.36,0.8c-0.499,0.17-0.98,0.255-1.445,0.255c-0.589,0-1.136-0.1-1.64-0.298
		c-0.505-0.198-0.944-0.484-1.318-0.858s-0.668-0.836-0.884-1.386S339.493,143.172,339.493,142.47z"/>
	<path fill="#B2B2B2" d="M348.265,140.208h-1.156v-1.853l1.292-0.103l0.289-2.243h2.074v2.243h2.023v1.955h-2.023v3.383
		c0,0.477,0.099,0.819,0.298,1.029c0.198,0.21,0.461,0.314,0.791,0.314c0.136,0,0.274-0.018,0.417-0.051
		c0.141-0.034,0.269-0.074,0.382-0.119l0.391,1.818c-0.227,0.068-0.493,0.137-0.799,0.204c-0.306,0.068-0.663,0.103-1.071,0.103
		c-0.521,0-0.966-0.08-1.334-0.238c-0.369-0.158-0.669-0.38-0.901-0.663c-0.232-0.283-0.403-0.626-0.51-1.028
		c-0.108-0.402-0.162-0.848-0.162-1.335V140.208z"/>
	<path fill="#B2B2B2" d="M353.773,142.47c0-0.703,0.113-1.329,0.34-1.879c0.227-0.55,0.529-1.012,0.909-1.386
		s0.819-0.66,1.318-0.858c0.499-0.198,1.014-0.298,1.547-0.298s1.045,0.1,1.539,0.298c0.493,0.198,0.929,0.484,1.309,0.858
		c0.379,0.374,0.683,0.836,0.909,1.386s0.34,1.176,0.34,1.879c0,0.702-0.114,1.328-0.34,1.878s-0.53,1.012-0.909,1.386
		c-0.38,0.374-0.816,0.66-1.309,0.858c-0.493,0.198-1.006,0.298-1.539,0.298s-1.048-0.1-1.547-0.298
		c-0.499-0.198-0.938-0.484-1.318-0.858s-0.683-0.836-0.909-1.386C353.886,143.798,353.773,143.172,353.773,142.47z M356.34,142.47
		c0,0.736,0.127,1.32,0.382,1.751s0.643,0.646,1.165,0.646c0.51,0,0.895-0.215,1.156-0.646s0.391-1.015,0.391-1.751
		c0-0.737-0.13-1.32-0.391-1.751s-0.646-0.646-1.156-0.646c-0.521,0-0.91,0.216-1.165,0.646S356.34,141.732,356.34,142.47z"/>
	<path fill="#B2B2B2" d="M363.701,134.769h2.499v2.924l-0.068,1.292c0.329-0.295,0.683-0.524,1.062-0.688
		c0.379-0.164,0.768-0.247,1.165-0.247c0.51,0,0.969,0.103,1.377,0.307c0.408,0.204,0.756,0.49,1.045,0.858s0.51,0.816,0.663,1.343
		c0.153,0.527,0.229,1.113,0.229,1.76c0,0.726-0.1,1.371-0.298,1.938c-0.198,0.567-0.465,1.046-0.799,1.437
		c-0.334,0.392-0.714,0.688-1.139,0.893c-0.425,0.204-0.864,0.307-1.317,0.307c-0.374,0-0.751-0.091-1.13-0.272
		c-0.38-0.181-0.734-0.453-1.062-0.815h-0.068l-0.204,0.884h-1.955V134.769z M366.2,144.306c0.227,0.204,0.453,0.346,0.68,0.425
		c0.227,0.079,0.447,0.119,0.663,0.119c0.431,0,0.799-0.196,1.105-0.587c0.306-0.391,0.459-1.022,0.459-1.896
		c0-1.519-0.488-2.278-1.462-2.278c-0.499,0-0.98,0.256-1.445,0.766V144.306z"/>
	<path fill="#B2B2B2" d="M372.949,142.47c0-0.681,0.113-1.295,0.34-1.845c0.227-0.55,0.524-1.015,0.893-1.395
		c0.368-0.379,0.79-0.671,1.266-0.875s0.969-0.307,1.479-0.307c0.601,0,1.125,0.103,1.573,0.307c0.447,0.204,0.821,0.487,1.122,0.85
		c0.3,0.363,0.524,0.791,0.671,1.284c0.147,0.492,0.221,1.028,0.221,1.606c0,0.227-0.011,0.433-0.034,0.62
		c-0.023,0.187-0.045,0.331-0.068,0.434h-5.049c0.113,0.646,0.366,1.113,0.757,1.402c0.391,0.289,0.87,0.434,1.437,0.434
		c0.6,0,1.207-0.188,1.819-0.562l0.833,1.514c-0.431,0.295-0.91,0.526-1.437,0.697c-0.527,0.17-1.045,0.255-1.556,0.255
		c-0.601,0-1.162-0.1-1.683-0.298c-0.521-0.198-0.975-0.487-1.36-0.867c-0.385-0.379-0.686-0.841-0.901-1.386
		C373.057,143.795,372.949,143.172,372.949,142.47z M378.389,141.603c0-0.487-0.107-0.884-0.323-1.19
		c-0.215-0.306-0.578-0.459-1.088-0.459c-0.397,0-0.746,0.134-1.045,0.399c-0.301,0.267-0.496,0.684-0.587,1.25H378.389z"/>
	<path fill="#B2B2B2" d="M382.248,138.253h2.04l0.17,1.479h0.068c0.306-0.578,0.674-1.003,1.105-1.275
		c0.431-0.271,0.861-0.408,1.292-0.408c0.238,0,0.434,0.015,0.587,0.043c0.153,0.028,0.292,0.071,0.417,0.128l-0.408,2.158
		c-0.159-0.045-0.306-0.079-0.442-0.102c-0.136-0.022-0.295-0.034-0.476-0.034c-0.317,0-0.649,0.113-0.995,0.34
		c-0.346,0.228-0.632,0.629-0.858,1.207v4.896h-2.499V138.253z"/>
	<path fill="#B2B2B2" d="M392.073,145.257c0.691-0.646,1.323-1.249,1.896-1.81c0.572-0.562,1.065-1.089,1.479-1.581
		c0.414-0.493,0.737-0.952,0.969-1.377c0.232-0.426,0.348-0.83,0.348-1.216c0-0.532-0.136-0.938-0.408-1.216
		c-0.272-0.277-0.646-0.416-1.122-0.416c-0.397,0-0.748,0.11-1.054,0.331c-0.306,0.221-0.595,0.479-0.867,0.773l-1.36-1.343
		c0.533-0.566,1.077-0.994,1.632-1.283c0.555-0.289,1.218-0.434,1.989-0.434c0.533,0,1.017,0.082,1.454,0.246
		c0.436,0.165,0.813,0.397,1.13,0.697c0.317,0.301,0.561,0.66,0.731,1.079c0.17,0.42,0.255,0.891,0.255,1.411
		c0,0.453-0.097,0.916-0.289,1.386c-0.193,0.471-0.451,0.94-0.773,1.411c-0.323,0.471-0.691,0.94-1.105,1.411
		c-0.414,0.47-0.842,0.932-1.284,1.385c0.272-0.033,0.575-0.064,0.91-0.093c0.334-0.028,0.631-0.043,0.892-0.043h2.176v2.108h-7.599
		V145.257z"/>
	<path fill="#B2B2B2" d="M404.908,146.89c-0.578,0-1.105-0.122-1.581-0.366c-0.476-0.243-0.881-0.604-1.216-1.079
		s-0.595-1.065-0.782-1.768c-0.187-0.703-0.281-1.514-0.281-2.432s0.094-1.723,0.281-2.414c0.187-0.69,0.447-1.271,0.782-1.742
		s0.74-0.821,1.216-1.054c0.476-0.232,1.003-0.349,1.581-0.349c0.578,0,1.105,0.116,1.581,0.349s0.881,0.583,1.216,1.054
		c0.334,0.471,0.595,1.052,0.782,1.742c0.187,0.691,0.281,1.496,0.281,2.414s-0.094,1.729-0.281,2.432
		c-0.187,0.702-0.448,1.292-0.782,1.768c-0.334,0.476-0.74,0.836-1.216,1.079C406.013,146.768,405.486,146.89,404.908,146.89z
		 M404.908,144.951c0.215,0,0.414-0.054,0.595-0.161c0.181-0.107,0.34-0.304,0.476-0.587c0.136-0.283,0.241-0.663,0.314-1.139
		c0.074-0.477,0.11-1.082,0.11-1.819c0-0.736-0.037-1.34-0.11-1.811c-0.074-0.47-0.179-0.838-0.314-1.104
		c-0.136-0.267-0.295-0.451-0.476-0.553c-0.182-0.102-0.38-0.153-0.595-0.153c-0.204,0-0.396,0.052-0.578,0.153
		c-0.182,0.102-0.34,0.286-0.476,0.553c-0.136,0.267-0.244,0.635-0.323,1.104c-0.079,0.471-0.119,1.074-0.119,1.811
		c0,0.737,0.04,1.343,0.119,1.819c0.079,0.476,0.187,0.855,0.323,1.139c0.136,0.283,0.294,0.479,0.476,0.587
		C404.512,144.897,404.705,144.951,404.908,144.951z"/>
	<path fill="#B2B2B2" d="M410.586,144.662h2.346v-6.239h-2.023v-1.547c0.589-0.113,1.088-0.249,1.496-0.407
		c0.408-0.159,0.805-0.352,1.19-0.578h1.836v8.771h2.023v2.023h-6.868V144.662z"/>
	<path fill="#B2B2B2" d="M419.086,143.932c0-0.657,0.179-1.196,0.536-1.615s0.791-0.765,1.3-1.037v-0.068
		c-0.419-0.316-0.765-0.677-1.037-1.079s-0.408-0.893-0.408-1.471c0-0.453,0.085-0.864,0.255-1.232s0.408-0.683,0.714-0.943
		c0.306-0.261,0.671-0.459,1.096-0.595c0.425-0.137,0.887-0.204,1.386-0.204c0.487,0,0.935,0.07,1.343,0.212
		c0.408,0.143,0.753,0.341,1.037,0.596c0.283,0.255,0.504,0.566,0.663,0.935c0.159,0.368,0.238,0.773,0.238,1.216
		c0,0.521-0.142,0.983-0.425,1.386c-0.284,0.402-0.612,0.728-0.986,0.977v0.068c0.521,0.283,0.963,0.646,1.326,1.088
		c0.363,0.442,0.544,1.021,0.544,1.734c0,0.431-0.091,0.827-0.272,1.189c-0.181,0.363-0.439,0.678-0.773,0.944
		c-0.334,0.266-0.737,0.476-1.207,0.629c-0.47,0.152-0.995,0.229-1.572,0.229c-0.544,0-1.046-0.071-1.505-0.213
		s-0.855-0.343-1.19-0.604s-0.595-0.572-0.782-0.935C419.18,144.775,419.086,144.373,419.086,143.932z M421.229,143.643
		c0,0.476,0.164,0.847,0.493,1.113c0.329,0.267,0.719,0.399,1.173,0.399c0.419,0,0.765-0.11,1.037-0.331
		c0.272-0.222,0.408-0.559,0.408-1.012c0-0.238-0.054-0.442-0.161-0.612c-0.108-0.17-0.264-0.325-0.468-0.468
		c-0.204-0.142-0.445-0.274-0.722-0.399c-0.278-0.124-0.587-0.261-0.927-0.407c-0.238,0.227-0.437,0.487-0.595,0.781
		C421.308,143.002,421.229,143.313,421.229,143.643z M423.523,140.396c0.442-0.51,0.663-1.037,0.663-1.581
		c0-0.419-0.116-0.757-0.349-1.012s-0.552-0.383-0.96-0.383c-0.329,0-0.612,0.103-0.85,0.307c-0.238,0.204-0.357,0.516-0.357,0.935
		c0,0.442,0.17,0.788,0.51,1.037C422.521,139.947,422.968,140.18,423.523,140.396z"/>
</g>
<circle fill="#B2B2B2" cx="379.869" cy="118.256" r="7.927"/>
<g>
	<rect x="539.674" y="134.768" fill="none" width="103.549" height="20.122"/>
	<path fill="#B2B2B2" d="M541.646,143.625c0.203,0.374,0.441,0.652,0.714,0.833c0.271,0.182,0.549,0.272,0.833,0.272
		c0.453,0,0.796-0.139,1.028-0.417c0.232-0.277,0.349-0.784,0.349-1.521v-7.19h2.499v7.395c0,0.533-0.071,1.037-0.213,1.514
		c-0.142,0.476-0.356,0.89-0.646,1.24c-0.289,0.352-0.658,0.629-1.105,0.833s-0.978,0.307-1.59,0.307
		c-0.85,0-1.561-0.165-2.133-0.493c-0.572-0.329-1.052-0.833-1.437-1.513L541.646,143.625z"/>
	<path fill="#B2B2B2" d="M549.126,144.339c0-0.884,0.374-1.575,1.122-2.073c0.748-0.499,1.955-0.833,3.621-1.003
		c-0.023-0.374-0.137-0.672-0.34-0.893c-0.204-0.222-0.533-0.332-0.986-0.332c-0.363,0-0.726,0.068-1.088,0.204
		c-0.363,0.136-0.748,0.323-1.156,0.562l-0.884-1.649c0.544-0.328,1.113-0.595,1.708-0.799c0.596-0.204,1.227-0.307,1.896-0.307
		c1.088,0,1.918,0.31,2.491,0.927c0.572,0.618,0.858,1.578,0.858,2.882v4.828h-2.04l-0.188-0.867h-0.051
		c-0.362,0.317-0.745,0.575-1.147,0.773s-0.842,0.298-1.317,0.298c-0.386,0-0.731-0.065-1.037-0.196
		c-0.306-0.13-0.566-0.312-0.782-0.544c-0.215-0.231-0.382-0.501-0.501-0.807C549.186,145.036,549.126,144.702,549.126,144.339z
		 M551.506,144.152c0,0.271,0.088,0.474,0.264,0.604s0.41,0.195,0.705,0.195s0.544-0.062,0.748-0.187
		c0.204-0.125,0.419-0.301,0.646-0.527v-1.479c-0.896,0.124-1.514,0.306-1.854,0.544
		C551.676,143.54,551.506,143.823,551.506,144.152z"/>
	<path fill="#B2B2B2" d="M558.51,138.253h2.04l0.17,1.071h0.068c0.362-0.34,0.759-0.638,1.19-0.893
		c0.43-0.255,0.935-0.383,1.513-0.383c0.918,0,1.583,0.301,1.997,0.901s0.621,1.434,0.621,2.499v5.236h-2.499v-4.913
		c0-0.612-0.083-1.031-0.247-1.258s-0.428-0.341-0.79-0.341c-0.317,0-0.59,0.071-0.816,0.213s-0.476,0.343-0.748,0.604v5.695h-2.499
		V138.253z"/>
	<path fill="#B2B2B2" d="M568.148,138.253h2.499v4.913c0,0.612,0.085,1.031,0.255,1.258c0.17,0.228,0.437,0.341,0.8,0.341
		c0.316,0,0.583-0.074,0.799-0.222c0.215-0.146,0.447-0.385,0.696-0.714v-5.576h2.499v8.433h-2.04l-0.187-1.173h-0.051
		c-0.363,0.431-0.751,0.768-1.165,1.011c-0.414,0.244-0.909,0.366-1.487,0.366c-0.918,0-1.584-0.301-1.997-0.901
		c-0.414-0.601-0.621-1.434-0.621-2.499V138.253z"/>
	<path fill="#B2B2B2" d="M577.583,144.339c0-0.884,0.374-1.575,1.122-2.073c0.748-0.499,1.955-0.833,3.621-1.003
		c-0.022-0.374-0.136-0.672-0.34-0.893c-0.204-0.222-0.533-0.332-0.986-0.332c-0.362,0-0.725,0.068-1.088,0.204
		c-0.362,0.136-0.748,0.323-1.155,0.562l-0.885-1.649c0.544-0.328,1.114-0.595,1.709-0.799s1.227-0.307,1.896-0.307
		c1.088,0,1.918,0.31,2.49,0.927c0.572,0.618,0.858,1.578,0.858,2.882v4.828h-2.04l-0.187-0.867h-0.051
		c-0.363,0.317-0.746,0.575-1.147,0.773c-0.403,0.198-0.842,0.298-1.318,0.298c-0.385,0-0.73-0.065-1.036-0.196
		c-0.307-0.13-0.567-0.312-0.782-0.544c-0.216-0.231-0.383-0.501-0.502-0.807C577.643,145.036,577.583,144.702,577.583,144.339z
		 M579.964,144.152c0,0.271,0.087,0.474,0.263,0.604s0.411,0.195,0.706,0.195c0.294,0,0.544-0.062,0.748-0.187
		c0.204-0.125,0.419-0.301,0.646-0.527v-1.479c-0.896,0.124-1.513,0.306-1.853,0.544
		C580.134,143.54,579.964,143.823,579.964,144.152z"/>
	<path fill="#B2B2B2" d="M586.968,138.253h2.04l0.17,1.479h0.067c0.307-0.578,0.675-1.003,1.105-1.275
		c0.431-0.271,0.861-0.408,1.292-0.408c0.238,0,0.434,0.015,0.587,0.043c0.152,0.028,0.291,0.071,0.416,0.128l-0.408,2.158
		c-0.158-0.045-0.306-0.079-0.441-0.102c-0.137-0.022-0.295-0.034-0.477-0.034c-0.317,0-0.648,0.113-0.994,0.34
		c-0.346,0.228-0.632,0.629-0.858,1.207v4.896h-2.499V138.253z"/>
	<path fill="#B2B2B2" d="M594.277,147.978c0.103,0.022,0.198,0.034,0.289,0.034c0.419,0,0.742-0.103,0.969-0.307
		s0.397-0.47,0.511-0.799l0.119-0.442l-3.247-8.211h2.516l1.207,3.621c0.125,0.386,0.238,0.776,0.34,1.173
		c0.103,0.397,0.21,0.806,0.323,1.225h0.068c0.09-0.396,0.184-0.796,0.28-1.198c0.096-0.402,0.195-0.802,0.297-1.199l1.021-3.621
		h2.396l-2.924,8.518c-0.204,0.532-0.416,1-0.638,1.402c-0.221,0.402-0.476,0.736-0.765,1.003s-0.618,0.468-0.986,0.604
		s-0.802,0.204-1.3,0.204c-0.261,0-0.482-0.015-0.663-0.043c-0.182-0.028-0.357-0.07-0.527-0.127l0.442-1.904
		C594.085,147.932,594.176,147.954,594.277,147.978z"/>
	<path fill="#B2B2B2" d="M605.735,145.257c0.691-0.646,1.323-1.249,1.896-1.81c0.572-0.562,1.065-1.089,1.479-1.581
		c0.414-0.493,0.737-0.952,0.97-1.377c0.231-0.426,0.348-0.83,0.348-1.216c0-0.532-0.136-0.938-0.407-1.216
		c-0.272-0.277-0.646-0.416-1.122-0.416c-0.397,0-0.748,0.11-1.055,0.331c-0.306,0.221-0.595,0.479-0.866,0.773l-1.36-1.343
		c0.532-0.566,1.076-0.994,1.632-1.283s1.219-0.434,1.989-0.434c0.532,0,1.017,0.082,1.453,0.246
		c0.437,0.165,0.813,0.397,1.131,0.697c0.317,0.301,0.561,0.66,0.73,1.079c0.171,0.42,0.256,0.891,0.256,1.411
		c0,0.453-0.097,0.916-0.289,1.386c-0.193,0.471-0.451,0.94-0.773,1.411c-0.323,0.471-0.691,0.94-1.105,1.411
		c-0.414,0.47-0.842,0.932-1.283,1.385c0.271-0.033,0.575-0.064,0.909-0.093s0.632-0.043,0.893-0.043h2.176v2.108h-7.599V145.257z"
		/>
	<path fill="#B2B2B2" d="M618.57,146.89c-0.578,0-1.105-0.122-1.581-0.366c-0.476-0.243-0.881-0.604-1.216-1.079
		c-0.334-0.476-0.595-1.065-0.781-1.768c-0.188-0.703-0.281-1.514-0.281-2.432s0.094-1.723,0.281-2.414
		c0.187-0.69,0.447-1.271,0.781-1.742c0.335-0.471,0.74-0.821,1.216-1.054s1.003-0.349,1.581-0.349s1.104,0.116,1.581,0.349
		c0.476,0.232,0.881,0.583,1.216,1.054c0.334,0.471,0.595,1.052,0.781,1.742c0.188,0.691,0.281,1.496,0.281,2.414
		s-0.094,1.729-0.281,2.432c-0.187,0.702-0.447,1.292-0.781,1.768c-0.335,0.476-0.74,0.836-1.216,1.079
		C619.675,146.768,619.148,146.89,618.57,146.89z M618.57,144.951c0.215,0,0.413-0.054,0.595-0.161s0.34-0.304,0.477-0.587
		c0.136-0.283,0.24-0.663,0.314-1.139c0.073-0.477,0.11-1.082,0.11-1.819c0-0.736-0.037-1.34-0.11-1.811
		c-0.074-0.47-0.179-0.838-0.314-1.104c-0.137-0.267-0.295-0.451-0.477-0.553s-0.38-0.153-0.595-0.153
		c-0.204,0-0.396,0.052-0.578,0.153s-0.34,0.286-0.476,0.553c-0.137,0.267-0.244,0.635-0.323,1.104
		c-0.079,0.471-0.119,1.074-0.119,1.811c0,0.737,0.04,1.343,0.119,1.819c0.079,0.476,0.187,0.855,0.323,1.139
		c0.136,0.283,0.294,0.479,0.476,0.587S618.366,144.951,618.57,144.951z"/>
	<path fill="#B2B2B2" d="M624.248,144.662h2.347v-6.239h-2.023v-1.547c0.589-0.113,1.088-0.249,1.496-0.407
		c0.408-0.159,0.805-0.352,1.19-0.578h1.836v8.771h2.022v2.023h-6.868V144.662z"/>
	<path fill="#B2B2B2" d="M634.092,144.102c0.181,0.204,0.425,0.382,0.73,0.535c0.307,0.153,0.618,0.229,0.936,0.229
		c0.306,0,0.589-0.057,0.85-0.17s0.49-0.303,0.688-0.569s0.357-0.612,0.476-1.037c0.119-0.425,0.19-0.955,0.213-1.59
		c-0.136,0.182-0.295,0.343-0.476,0.484c-0.182,0.143-0.369,0.262-0.562,0.357c-0.192,0.097-0.386,0.17-0.578,0.221
		c-0.192,0.052-0.374,0.077-0.544,0.077c-0.465,0-0.893-0.068-1.283-0.204c-0.391-0.137-0.729-0.34-1.012-0.612
		c-0.283-0.271-0.507-0.617-0.671-1.037c-0.165-0.419-0.247-0.912-0.247-1.479c0-0.556,0.097-1.057,0.289-1.505
		c0.192-0.447,0.45-0.83,0.773-1.147s0.703-0.558,1.139-0.723c0.437-0.164,0.898-0.246,1.386-0.246c0.521,0,1.028,0.102,1.521,0.306
		s0.93,0.521,1.31,0.952c0.379,0.431,0.686,0.983,0.918,1.657c0.231,0.675,0.349,1.487,0.349,2.439c0,1.009-0.122,1.882-0.366,2.618
		c-0.243,0.737-0.566,1.343-0.969,1.819c-0.402,0.476-0.867,0.83-1.394,1.062c-0.527,0.232-1.074,0.349-1.641,0.349
		c-0.714,0-1.335-0.131-1.861-0.392c-0.527-0.261-0.961-0.561-1.301-0.9L634.092,144.102z M636.318,140.871
		c0.272,0,0.55-0.079,0.833-0.237c0.283-0.159,0.544-0.437,0.782-0.833c-0.113-0.851-0.326-1.437-0.638-1.76
		s-0.66-0.484-1.046-0.484c-0.362,0-0.68,0.139-0.951,0.416c-0.272,0.278-0.408,0.723-0.408,1.335c0,0.578,0.136,0.983,0.408,1.215
		C635.57,140.755,635.91,140.871,636.318,140.871z"/>
</g>
<circle fill="#B2B2B2" cx="591.448" cy="118.256" r="7.927"/>
<g>
	<rect x="766.674" y="134.768" fill="none" width="103.549" height="20.122"/>
	<path fill="#B2B2B2" d="M773.186,144.051h-3.384l-0.68,2.635h-2.55l3.468-11.084h3.009l3.468,11.084h-2.651L773.186,144.051z
		 M772.675,142.096l-0.255-1.021c-0.159-0.555-0.312-1.145-0.459-1.768s-0.295-1.225-0.441-1.803h-0.068
		c-0.136,0.59-0.275,1.193-0.417,1.811c-0.142,0.618-0.292,1.205-0.45,1.76l-0.271,1.021H772.675z"/>
	<path fill="#B2B2B2" d="M780.019,147.349v2.465h-2.499v-11.561h2.04l0.17,0.833h0.068c0.328-0.294,0.699-0.541,1.113-0.739
		s0.842-0.298,1.283-0.298c0.511,0,0.97,0.103,1.378,0.307c0.407,0.204,0.753,0.493,1.036,0.867s0.502,0.824,0.655,1.352
		c0.152,0.526,0.229,1.113,0.229,1.759c0,0.726-0.1,1.369-0.298,1.93c-0.198,0.562-0.465,1.037-0.799,1.428
		c-0.335,0.392-0.714,0.688-1.14,0.893c-0.425,0.204-0.864,0.307-1.317,0.307c-0.362,0-0.714-0.077-1.054-0.229
		c-0.34-0.153-0.657-0.371-0.952-0.655L780.019,147.349z M780.019,144.306c0.227,0.204,0.453,0.346,0.681,0.425
		c0.227,0.079,0.447,0.119,0.662,0.119c0.431,0,0.8-0.196,1.105-0.587s0.459-1.022,0.459-1.896c0-1.519-0.487-2.278-1.462-2.278
		c-0.487,0-0.969,0.256-1.445,0.766V144.306z"/>
	<path fill="#B2B2B2" d="M787.261,138.253h2.04l0.17,1.479h0.068c0.306-0.578,0.674-1.003,1.104-1.275
		c0.431-0.271,0.861-0.408,1.292-0.408c0.238,0,0.434,0.015,0.587,0.043s0.292,0.071,0.417,0.128l-0.408,2.158
		c-0.159-0.045-0.307-0.079-0.442-0.102s-0.295-0.034-0.476-0.034c-0.317,0-0.649,0.113-0.995,0.34
		c-0.346,0.228-0.632,0.629-0.858,1.207v4.896h-2.499V138.253z"/>
	<path fill="#B2B2B2" d="M795.269,137.013c-0.42,0-0.766-0.122-1.037-0.366c-0.272-0.243-0.408-0.558-0.408-0.943
		c0-0.385,0.136-0.697,0.408-0.935c0.271-0.238,0.617-0.357,1.037-0.357c0.43,0,0.778,0.119,1.045,0.357
		c0.267,0.237,0.399,0.55,0.399,0.935c0,0.386-0.133,0.7-0.399,0.943C796.047,136.891,795.698,137.013,795.269,137.013z
		 M794.027,138.253h2.499v8.433h-2.499V138.253z"/>
	<path fill="#B2B2B2" d="M798.719,134.769h2.499v9.4c0,0.261,0.048,0.442,0.145,0.544c0.097,0.103,0.195,0.153,0.298,0.153
		c0.057,0,0.104,0,0.145,0c0.039,0,0.094-0.011,0.161-0.034l0.307,1.854c-0.137,0.057-0.31,0.104-0.519,0.145
		c-0.21,0.039-0.457,0.06-0.74,0.06c-0.431,0-0.793-0.068-1.088-0.204c-0.295-0.137-0.529-0.326-0.705-0.569
		c-0.176-0.244-0.304-0.538-0.383-0.885c-0.079-0.346-0.119-0.733-0.119-1.164V134.769z"/>
	<path fill="#B2B2B2" d="M806.641,145.257c0.691-0.646,1.323-1.249,1.896-1.81c0.572-0.562,1.065-1.089,1.479-1.581
		c0.414-0.493,0.737-0.952,0.97-1.377c0.231-0.426,0.348-0.83,0.348-1.216c0-0.532-0.136-0.938-0.407-1.216
		c-0.272-0.277-0.646-0.416-1.122-0.416c-0.397,0-0.748,0.11-1.055,0.331c-0.306,0.221-0.595,0.479-0.866,0.773l-1.36-1.343
		c0.532-0.566,1.076-0.994,1.632-1.283s1.219-0.434,1.989-0.434c0.532,0,1.017,0.082,1.453,0.246
		c0.437,0.165,0.813,0.397,1.131,0.697c0.317,0.301,0.561,0.66,0.73,1.079c0.171,0.42,0.256,0.891,0.256,1.411
		c0,0.453-0.097,0.916-0.289,1.386c-0.193,0.471-0.451,0.94-0.773,1.411c-0.323,0.471-0.691,0.94-1.105,1.411
		c-0.414,0.47-0.842,0.932-1.283,1.385c0.271-0.033,0.575-0.064,0.909-0.093s0.632-0.043,0.893-0.043h2.176v2.108h-7.599V145.257z"
		/>
	<path fill="#B2B2B2" d="M819.476,146.89c-0.578,0-1.105-0.122-1.581-0.366c-0.476-0.243-0.881-0.604-1.216-1.079
		c-0.334-0.476-0.595-1.065-0.781-1.768c-0.188-0.703-0.281-1.514-0.281-2.432s0.094-1.723,0.281-2.414
		c0.187-0.69,0.447-1.271,0.781-1.742c0.335-0.471,0.74-0.821,1.216-1.054s1.003-0.349,1.581-0.349s1.104,0.116,1.581,0.349
		c0.476,0.232,0.881,0.583,1.216,1.054c0.334,0.471,0.595,1.052,0.781,1.742c0.188,0.691,0.281,1.496,0.281,2.414
		s-0.094,1.729-0.281,2.432c-0.187,0.702-0.447,1.292-0.781,1.768c-0.335,0.476-0.74,0.836-1.216,1.079
		C820.58,146.768,820.054,146.89,819.476,146.89z M819.476,144.951c0.215,0,0.413-0.054,0.595-0.161s0.34-0.304,0.477-0.587
		c0.136-0.283,0.24-0.663,0.314-1.139c0.073-0.477,0.11-1.082,0.11-1.819c0-0.736-0.037-1.34-0.11-1.811
		c-0.074-0.47-0.179-0.838-0.314-1.104c-0.137-0.267-0.295-0.451-0.477-0.553s-0.38-0.153-0.595-0.153
		c-0.204,0-0.396,0.052-0.578,0.153s-0.34,0.286-0.476,0.553c-0.137,0.267-0.244,0.635-0.323,1.104
		c-0.079,0.471-0.119,1.074-0.119,1.811c0,0.737,0.04,1.343,0.119,1.819c0.079,0.476,0.187,0.855,0.323,1.139
		c0.136,0.283,0.294,0.479,0.476,0.587S819.271,144.951,819.476,144.951z"/>
	<path fill="#B2B2B2" d="M825.153,144.662h2.347v-6.239h-2.023v-1.547c0.589-0.113,1.088-0.249,1.496-0.407
		c0.408-0.159,0.805-0.352,1.19-0.578h1.836v8.771h2.022v2.023h-6.868V144.662z"/>
	<path fill="#B2B2B2" d="M834.997,144.102c0.181,0.204,0.425,0.382,0.73,0.535c0.307,0.153,0.618,0.229,0.936,0.229
		c0.306,0,0.589-0.057,0.85-0.17s0.49-0.303,0.688-0.569s0.357-0.612,0.476-1.037c0.119-0.425,0.19-0.955,0.213-1.59
		c-0.136,0.182-0.295,0.343-0.476,0.484c-0.182,0.143-0.369,0.262-0.562,0.357c-0.192,0.097-0.386,0.17-0.578,0.221
		c-0.192,0.052-0.374,0.077-0.544,0.077c-0.465,0-0.893-0.068-1.283-0.204c-0.391-0.137-0.729-0.34-1.012-0.612
		c-0.283-0.271-0.507-0.617-0.671-1.037c-0.165-0.419-0.247-0.912-0.247-1.479c0-0.556,0.097-1.057,0.289-1.505
		c0.192-0.447,0.45-0.83,0.773-1.147s0.703-0.558,1.139-0.723c0.437-0.164,0.898-0.246,1.386-0.246c0.521,0,1.028,0.102,1.521,0.306
		s0.93,0.521,1.31,0.952c0.379,0.431,0.686,0.983,0.918,1.657c0.231,0.675,0.349,1.487,0.349,2.439c0,1.009-0.122,1.882-0.366,2.618
		c-0.243,0.737-0.566,1.343-0.969,1.819c-0.402,0.476-0.867,0.83-1.394,1.062c-0.527,0.232-1.074,0.349-1.641,0.349
		c-0.714,0-1.335-0.131-1.861-0.392c-0.527-0.261-0.961-0.561-1.301-0.9L834.997,144.102z M837.224,140.871
		c0.272,0,0.55-0.079,0.833-0.237c0.283-0.159,0.544-0.437,0.782-0.833c-0.113-0.851-0.326-1.437-0.638-1.76
		s-0.66-0.484-1.046-0.484c-0.362,0-0.68,0.139-0.951,0.416c-0.272,0.278-0.408,0.723-0.408,1.335c0,0.578,0.136,0.983,0.408,1.215
		C836.476,140.755,836.815,140.871,837.224,140.871z"/>
</g>
<circle fill="#B2B2B2" cx="806.448" cy="118.256" r="7.927"/>
<g>
</g>
<g>
</g>
<g>
</g>
<g>
</g>
<g>
</g>
<g>
</g>
<g>
</g>
<g>
</g>
<g>
</g>
<g>
</g>
<g>
</g>
<g>
</g>
<g>
</g>
<g>
</g>
<g>
</g>
</svg>
