<?xml version="1.0" encoding="utf-8"?>
<!-- Generator: Adobe Illustrator 23.0.2, SVG Export Plug-In . SVG Version: 6.00 Build 0)  -->
<svg version="1.1" id="Layer_1" xmlns="http://www.w3.org/2000/svg" xmlns:xlink="http://www.w3.org/1999/xlink" x="0px" y="0px"
	 viewBox="0 0 1024 200" enable-background="new 0 0 1024 200" xml:space="preserve">
<rect x="-9.977" y="-19.241" fill="#1B2F4B" width="1072.599" height="234.814"/>
<line fill="none" stroke="#FFFFFF" stroke-width="4" stroke-miterlimit="10" x1="-1" y1="100" x2="1023" y2="100"/>
<g>
	<g>
		<defs>
			<rect id="SVGID_1_" x="152.834" y="31.127" width="41.6" height="33.8"/>
		</defs>
		<clipPath id="SVGID_2_">
			<use xlink:href="#SVGID_1_"  overflow="visible"/>
		</clipPath>
		<rect x="152.834" y="31.127" clip-path="url(#SVGID_2_)" fill="#FFFFFF" fill-opacity="0" width="41.6" height="33.8"/>
	</g>
	<g>
		<defs>
			<rect id="SVGID_3_" x="152.834" y="31.127" width="41.6" height="33.8"/>
		</defs>
		<clipPath id="SVGID_4_">
			<use xlink:href="#SVGID_3_"  overflow="visible"/>
		</clipPath>
		<path clip-path="url(#SVGID_4_)" fill="#FFFFFF" d="M155.671,49.904c-1.568,0-2.837,1.264-2.837,2.818s1.269,2.816,2.837,2.816
			c1.565,0,2.834-1.261,2.834-2.816C158.505,51.167,157.236,49.904,155.671,49.904 M155.671,40.515
			c-1.568,0-2.837,1.264-2.837,2.816c0,1.555,1.269,2.816,2.837,2.816c1.565,0,2.834-1.261,2.834-2.816
			C158.505,41.779,157.236,40.515,155.671,40.515 M155.671,59.292c-1.568,0-2.837,1.261-2.837,2.818
			c0,1.555,1.269,2.816,2.837,2.816c1.565,0,2.834-1.261,2.834-2.816C158.505,60.553,157.236,59.292,155.671,59.292 M163.234,34.881
			h30.254c0.523,0,0.946-0.419,0.946-0.939c0-0.517-0.424-0.939-0.946-0.939h-30.254c-0.523,0-0.946,0.421-0.946,0.939
			C162.288,34.462,162.712,34.881,163.234,34.881 M193.488,61.172h-30.254c-0.523,0-0.946,0.421-0.946,0.939
			c0,0.52,0.424,0.939,0.946,0.939h30.254c0.523,0,0.946-0.419,0.946-0.939C194.434,61.591,194.01,61.172,193.488,61.172
			 M155.671,31.127c-1.568,0-2.837,1.264-2.837,2.816c0,1.555,1.269,2.816,2.837,2.816c1.565,0,2.834-1.261,2.834-2.816
			C158.505,32.39,157.236,31.127,155.671,31.127 M193.488,42.392h-30.254c-0.523,0-0.946,0.421-0.946,0.939
			c0,0.52,0.424,0.941,0.946,0.941h30.254c0.523,0,0.946-0.421,0.946-0.941C194.434,42.814,194.01,42.392,193.488,42.392
			 M193.488,51.781h-30.254c-0.523,0-0.946,0.421-0.946,0.939c0,0.52,0.424,0.939,0.946,0.939h30.254
			c0.523,0.003,0.946-0.419,0.946-0.936C194.434,52.202,194.01,51.781,193.488,51.781"/>
	</g>
</g>
<g>
	<g>
		<defs>
			<rect id="SVGID_5_" x="365.6" y="27.227" width="33.8" height="41.6"/>
		</defs>
		<clipPath id="SVGID_6_">
			<use xlink:href="#SVGID_5_"  overflow="visible"/>
		</clipPath>
		<rect x="365.6" y="27.227" clip-path="url(#SVGID_6_)" fill="#FFFFFF" fill-opacity="0" width="33.8" height="41.6"/>
	</g>
	<g>
		<defs>
			<rect id="SVGID_7_" x="365.6" y="27.227" width="33.8" height="41.6"/>
		</defs>
		<clipPath id="SVGID_8_">
			<use xlink:href="#SVGID_7_"  overflow="visible"/>
		</clipPath>
		<path clip-path="url(#SVGID_8_)" fill="#FFFFFF" d="M383.439,55.59h-11.266c-0.52,0-0.939,0.424-0.939,0.946
			c0,0.523,0.419,0.946,0.939,0.946h11.266c0.52,0,0.939-0.421,0.939-0.946C384.377,56.014,383.959,55.59,383.439,55.59
			 M379.684,61.263h-7.511c-0.52,0-0.939,0.424-0.939,0.946c0,0.523,0.419,0.946,0.939,0.946h7.511c0.52,0,0.939-0.424,0.939-0.946
			C380.623,61.687,380.202,61.263,379.684,61.263 M372.173,46.136h3.754c0.52,0,0.939-0.421,0.939-0.946
			c0-0.523-0.419-0.946-0.939-0.946h-3.754c-0.52,0-0.939,0.424-0.939,0.946C371.234,45.713,371.653,46.136,372.173,46.136
			 M371.234,50.863c0,0.523,0.419,0.946,0.939,0.946h11.266c0.52,0,0.939-0.424,0.939-0.946c0-0.523-0.419-0.946-0.939-0.946
			h-11.266C371.653,49.917,371.234,50.341,371.234,50.863 M392.827,27.227h-14.082c-2.075,0-3.757,1.693-3.757,3.783v2.834
			c0,0.523,0.419,0.946,0.939,0.946c0.52,0,0.939-0.421,0.939-0.946V31.01c0-1.043,0.842-1.89,1.877-1.89h11.266v5.671
			c0,1.043,0.842,1.89,1.877,1.89h5.634v18.91c0,1.043-0.842,1.89-1.877,1.89h-2.816c-0.52,0-0.939,0.424-0.939,0.946
			c0,0.523,0.419,0.946,0.939,0.946h2.816c2.072,0,3.754-1.693,3.754-3.783v-20.8L392.827,27.227z M391.889,34.79v-5.525
			l4.896,5.525H391.889z M369.354,36.68c-2.072,0-3.754,1.693-3.754,3.783v24.58c0,2.09,1.682,3.783,3.754,3.783h16.9
			c2.072,0,3.754-1.693,3.754-3.783v-20.8l-6.57-7.563H369.354z M388.134,65.044c0,1.045-0.842,1.89-1.877,1.89h-16.9
			c-1.035,0-1.877-0.845-1.877-1.89v-24.58c0-1.043,0.842-1.89,1.877-1.89h11.266v5.671c0,1.043,0.842,1.89,1.877,1.89h5.634V65.044
			z M382.5,44.244v-5.525l4.896,5.525H382.5z"/>
	</g>
</g>
<g>
	<path fill="#FFFFFF" d="M604.987,27.227h-26.291c-2.072,0-3.754,1.693-3.754,3.783v34.034c0,2.088,1.682,3.783,3.754,3.783h26.289
		c2.075,0,3.757-1.695,3.757-3.783V31.01C608.741,28.919,607.059,27.227,604.987,27.227 M597.476,29.117h3.754v6.617l-1.877-1.89
		l-1.877,1.893V29.117z M582.453,66.934h-3.757c-1.035,0-1.877-0.845-1.877-1.89V31.01c0-1.043,0.842-1.89,1.877-1.89h3.754v37.814
		H582.453z M606.864,65.044c0,1.043-0.842,1.89-1.877,1.89H584.33V29.117h11.266v11.344l3.754-3.78l3.754,3.78V29.117h1.877
		c1.035,0,1.877,0.848,1.877,1.89v34.037H606.864z"/>
</g>
<g>
	<g>
		<defs>
			<rect id="SVGID_9_" x="785.266" y="30.226" width="41.6" height="41.6"/>
		</defs>
		<clipPath id="SVGID_10_">
			<use xlink:href="#SVGID_9_"  overflow="visible"/>
		</clipPath>
		<rect x="785.266" y="30.226" clip-path="url(#SVGID_10_)" fill="#FFFFFF" fill-opacity="0" width="41.6" height="41.6"/>
	</g>
	<g>
		<defs>
			<rect id="SVGID_11_" x="785.266" y="30.226" width="41.6" height="41.6"/>
		</defs>
		<clipPath id="SVGID_12_">
			<use xlink:href="#SVGID_11_"  overflow="visible"/>
		</clipPath>
		<path clip-path="url(#SVGID_12_)" fill="#FFFFFF" d="M808.902,47.243h9.454c0.523,0,0.946-0.421,0.946-0.946
			c0-0.52-0.424-0.944-0.946-0.944h-9.454c-0.523,0-0.946,0.424-0.946,0.944C807.956,46.821,808.38,47.243,808.902,47.243
			 M808.902,43.462h5.671c0.523,0,0.946-0.424,0.946-0.946s-0.424-0.946-0.946-0.946h-5.671c-0.523,0-0.946,0.424-0.946,0.946
			S808.38,43.462,808.902,43.462 M808.902,51.026h3.78c0.523,0,0.946-0.424,0.946-0.946c0-0.523-0.424-0.946-0.946-0.946h-3.78
			c-0.523,0-0.946,0.424-0.946,0.946S808.38,51.026,808.902,51.026 M794.719,54.809h7.563c1.043,0,1.89-0.845,1.89-1.89v-9.456
			c0-1.043-0.848-1.89-1.89-1.89h-7.563c-1.043,0-1.89,0.848-1.89,1.89v9.454C792.829,53.964,793.677,54.809,794.719,54.809
			 M794.719,43.462h7.563v9.454h-7.563V43.462z M808.902,54.809h9.454c0.523,0,0.946-0.424,0.946-0.946
			c0-0.523-0.424-0.946-0.946-0.946h-9.454c-0.523,0-0.946,0.424-0.946,0.946C807.956,54.385,808.38,54.809,808.902,54.809
			 M824.976,32.116h-17.02c0-1.043-0.848-1.89-1.89-1.89c-1.043,0-1.89,0.848-1.89,1.89h-17.02c-1.043,0-1.89,0.848-1.89,1.893v1.89
			c0,1.045,0.848,1.89,1.89,1.89v22.69c0,1.045,0.848,1.89,1.89,1.89h16.071v2.444l-5.398,5.398
			c-0.169,0.172-0.276,0.408-0.276,0.668c0.005,0.523,0.429,0.946,0.952,0.946c0.26,0,0.497-0.107,0.668-0.278l5.002-5.002
			l5.002,5.002c0.172,0.172,0.408,0.278,0.668,0.278c0.523,0,0.946-0.424,0.946-0.946c0-0.26-0.107-0.497-0.276-0.668l-5.398-5.398
			v-2.444h16.071c1.043,0,1.89-0.845,1.89-1.89v-22.69c1.048,0,1.895-0.845,1.895-1.893v-1.888
			C826.866,32.963,826.018,32.116,824.976,32.116 M823.083,60.479h-34.034v-22.69h34.034V60.479z M824.976,35.896h-37.82v-1.888
			h37.817v1.888H824.976z"/>
	</g>
</g>
<g>
	<rect x="137.744" y="116.768" fill="none" width="79.268" height="20.122"/>
	<path fill="#B2B2B2" d="M138.016,126.884l1.7-1.258c0.408,0.747,0.986,1.104,1.547,1.104c0.901,0,1.377-0.459,1.377-1.938v-7.19
		h2.499v7.395c0,2.142-1.104,3.893-3.552,3.893C139.902,128.89,138.781,128.227,138.016,126.884z"/>
	<path fill="#B2B2B2" d="M147.417,125.489v-5.235h2.499v4.913c0,1.206,0.323,1.598,1.054,1.598c0.629,0,1.003-0.272,1.496-0.936
		v-5.575h2.499v8.432h-2.04l-0.187-1.173h-0.051c-0.714,0.85-1.496,1.377-2.652,1.377
		C148.198,128.89,147.417,127.598,147.417,125.489z"/>
	<path fill="#B2B2B2" d="M157.157,126.067v-9.298h2.499v9.4c0,0.526,0.238,0.696,0.442,0.696c0.102,0,0.17,0,0.306-0.034
		l0.306,1.854c-0.272,0.119-0.697,0.204-1.258,0.204C157.735,128.89,157.157,127.768,157.157,126.067z"/>
	<path fill="#B2B2B2" d="M161.764,131.812l0.442-1.903c0.153,0.034,0.374,0.102,0.561,0.102c0.833,0,1.258-0.441,1.479-1.104
		l0.119-0.442l-3.247-8.21h2.516l1.207,3.621c0.238,0.765,0.442,1.563,0.663,2.396h0.068c0.187-0.799,0.374-1.598,0.578-2.396
		l1.02-3.621h2.397l-2.924,8.517c-0.799,2.125-1.7,3.213-3.689,3.213C162.444,131.983,162.104,131.915,161.764,131.812z"/>
	<path fill="#B2B2B2" d="M173.8,127.258c2.754-2.602,4.691-4.454,4.691-5.983c0-1.055-0.595-1.632-1.53-1.632
		c-0.782,0-1.377,0.526-1.921,1.104l-1.36-1.343c1.071-1.139,2.074-1.717,3.621-1.717c2.125,0,3.57,1.359,3.57,3.434
		c0,1.818-1.7,3.757-3.451,5.593c0.544-0.068,1.292-0.137,1.802-0.137h2.176v2.108H173.8V127.258z"/>
	<path fill="#B2B2B2" d="M182.776,123.246c0-3.672,1.547-5.559,3.858-5.559c2.312,0,3.859,1.887,3.859,5.559
		c0,3.671-1.547,5.644-3.859,5.644C184.323,128.89,182.776,126.917,182.776,123.246z M188.13,123.246
		c0-2.958-0.646-3.621-1.496-3.621c-0.833,0-1.496,0.663-1.496,3.621c0,2.94,0.663,3.705,1.496,3.705
		C187.484,126.951,188.13,126.187,188.13,123.246z"/>
	<path fill="#B2B2B2" d="M192.313,126.662h2.346v-6.238h-2.023v-1.547c1.173-0.221,1.921-0.526,2.686-0.985h1.835v8.771h2.023v2.023
		h-6.867V126.662z"/>
	<path fill="#B2B2B2" d="M200.813,125.932c0-1.309,0.816-2.107,1.836-2.651v-0.068c-0.833-0.629-1.445-1.411-1.445-2.55
		c0-1.836,1.445-2.975,3.451-2.975c1.972,0,3.281,1.173,3.281,2.958c0,1.036-0.663,1.869-1.411,2.362v0.068
		c1.037,0.561,1.87,1.394,1.87,2.821c0,1.7-1.53,2.992-3.824,2.992C202.411,128.89,200.813,127.683,200.813,125.932z
		 M206.065,125.812c0-0.952-0.918-1.309-2.278-1.887c-0.476,0.442-0.833,1.054-0.833,1.717c0,0.952,0.765,1.513,1.666,1.513
		C205.454,127.155,206.065,126.714,206.065,125.812z M205.913,120.815c0-0.833-0.493-1.395-1.309-1.395
		c-0.663,0-1.207,0.408-1.207,1.241c0,0.884,0.748,1.309,1.853,1.733C205.674,121.903,205.913,121.376,205.913,120.815z"/>
</g>
<circle fill="#B2B2B2" cx="177.378" cy="99.756" r="7.927"/>
<g>
	<g>
		<path fill="#B2B2B2" d="M328.035,125.093c0-3.62,2.04-5.694,5.032-5.694s5.031,2.091,5.031,5.694c0,3.621-2.04,5.797-5.031,5.797
			S328.035,128.714,328.035,125.093z M335.532,125.093c0-2.21-0.952-3.535-2.465-3.535s-2.465,1.325-2.465,3.535
			c0,2.227,0.952,3.638,2.465,3.638S335.532,127.319,335.532,125.093z"/>
		<path fill="#B2B2B2" d="M339.493,126.47c0-2.805,2.057-4.42,4.386-4.42c1.037,0,1.836,0.374,2.465,0.901l-1.173,1.614
			c-0.408-0.34-0.748-0.492-1.139-0.492c-1.207,0-1.972,0.935-1.972,2.396s0.799,2.396,1.887,2.396c0.544,0,1.071-0.271,1.513-0.611
			l0.986,1.632c-0.833,0.73-1.87,1.003-2.788,1.003C341.312,130.89,339.493,129.274,339.493,126.47z"/>
		<path fill="#B2B2B2" d="M348.095,127.626v-3.417h-1.156v-1.853l1.292-0.103l0.289-2.243h2.074v2.243h2.023v1.955h-2.023v3.383
			c0,0.952,0.425,1.343,1.088,1.343c0.272,0,0.578-0.085,0.799-0.17l0.391,1.818c-0.442,0.137-1.054,0.307-1.87,0.307
			C348.911,130.89,348.095,129.58,348.095,127.626z"/>
		<path fill="#B2B2B2" d="M353.467,126.47c0-2.805,1.972-4.42,4.114-4.42c2.125,0,4.097,1.615,4.097,4.42s-1.972,4.42-4.097,4.42
			C355.439,130.89,353.467,129.274,353.467,126.47z M359.128,126.47c0-1.462-0.527-2.396-1.547-2.396
			c-1.037,0-1.547,0.935-1.547,2.396s0.51,2.396,1.547,2.396C358.601,128.866,359.128,127.932,359.128,126.47z"/>
		<path fill="#B2B2B2" d="M365.622,129.784h-0.068l-0.204,0.901h-1.955V118.77h2.499v2.924l-0.068,1.292
			c0.646-0.578,1.445-0.936,2.227-0.936c2.04,0,3.315,1.684,3.315,4.267c0,2.907-1.734,4.573-3.553,4.573
			C367.067,130.89,366.285,130.516,365.622,129.784z M368.801,126.368c0-1.514-0.459-2.278-1.462-2.278
			c-0.51,0-0.969,0.238-1.445,0.765v3.451c0.442,0.408,0.918,0.544,1.343,0.544C368.104,128.85,368.801,128.102,368.801,126.368z"/>
		<path fill="#B2B2B2" d="M372.643,126.47c0-2.736,1.955-4.42,3.978-4.42c2.397,0,3.587,1.751,3.587,4.046
			c0,0.442-0.051,0.901-0.102,1.104h-5.048c0.221,1.225,1.071,1.785,2.192,1.785c0.629,0,1.207-0.187,1.819-0.561l0.833,1.513
			c-0.867,0.595-1.989,0.952-2.992,0.952C374.496,130.89,372.643,129.258,372.643,126.47z M378.083,125.552
			c0-0.935-0.408-1.598-1.411-1.598c-0.782,0-1.462,0.526-1.632,1.598H378.083z"/>
		<path fill="#B2B2B2" d="M381.942,122.254h2.04l0.17,1.479h0.068c0.612-1.14,1.53-1.684,2.396-1.684
			c0.476,0,0.765,0.068,1.003,0.17l-0.408,2.159c-0.306-0.085-0.561-0.136-0.918-0.136c-0.629,0-1.411,0.408-1.853,1.547v4.896
			h-2.499V122.254z"/>
		<path fill="#B2B2B2" d="M391.632,129.258c2.754-2.602,4.691-4.454,4.691-5.983c0-1.055-0.595-1.632-1.53-1.632
			c-0.782,0-1.377,0.526-1.921,1.104l-1.36-1.343c1.071-1.139,2.074-1.717,3.621-1.717c2.125,0,3.57,1.359,3.57,3.434
			c0,1.818-1.7,3.757-3.451,5.593c0.544-0.068,1.292-0.137,1.802-0.137h2.176v2.108h-7.598V129.258z"/>
		<path fill="#B2B2B2" d="M400.608,125.246c0-3.672,1.547-5.559,3.859-5.559c2.312,0,3.858,1.887,3.858,5.559
			c0,3.671-1.547,5.644-3.858,5.644C402.155,130.89,400.608,128.917,400.608,125.246z M405.962,125.246
			c0-2.958-0.646-3.621-1.496-3.621c-0.833,0-1.496,0.663-1.496,3.621c0,2.94,0.663,3.705,1.496,3.705
			C405.316,128.951,405.962,128.187,405.962,125.246z"/>
		<path fill="#B2B2B2" d="M410.145,128.662h2.346v-6.238h-2.023v-1.547c1.173-0.221,1.921-0.526,2.686-0.985h1.835v8.771h2.023
			v2.023h-6.867V128.662z"/>
		<path fill="#B2B2B2" d="M418.645,127.932c0-1.309,0.816-2.107,1.836-2.651v-0.068c-0.833-0.629-1.445-1.411-1.445-2.55
			c0-1.836,1.445-2.975,3.451-2.975c1.972,0,3.281,1.173,3.281,2.958c0,1.036-0.663,1.869-1.411,2.362v0.068
			c1.037,0.561,1.87,1.394,1.87,2.821c0,1.7-1.53,2.992-3.825,2.992C420.243,130.89,418.645,129.683,418.645,127.932z
			 M423.897,127.812c0-0.952-0.918-1.309-2.278-1.887c-0.476,0.442-0.833,1.054-0.833,1.717c0,0.952,0.765,1.513,1.666,1.513
			C423.286,129.155,423.897,128.714,423.897,127.812z M423.745,122.815c0-0.833-0.493-1.395-1.309-1.395
			c-0.663,0-1.207,0.408-1.207,1.241c0,0.884,0.748,1.309,1.853,1.733C423.507,123.903,423.745,123.376,423.745,122.815z"/>
	</g>
</g>
<circle fill="#B2B2B2" cx="379.869" cy="99.756" r="7.927"/>
<g>
	<g>
		<path fill="#C40000" d="M539.945,128.884l1.7-1.258c0.408,0.748,0.985,1.105,1.547,1.105c0.9,0,1.377-0.459,1.377-1.938v-7.19
			h2.498v7.395c0,2.142-1.104,3.893-3.552,3.893C541.832,130.89,540.711,130.227,539.945,128.884z"/>
		<path fill="#C40000" d="M549.04,128.34c0-1.768,1.411-2.736,4.743-3.076c-0.052-0.748-0.408-1.225-1.326-1.225
			c-0.714,0-1.411,0.289-2.227,0.766l-0.901-1.649c1.071-0.646,2.278-1.104,3.604-1.104c2.159,0,3.349,1.224,3.349,3.808v4.827
			h-2.039l-0.17-0.866h-0.068c-0.714,0.629-1.496,1.07-2.448,1.07C550.009,130.89,549.04,129.768,549.04,128.34z M553.783,128.238
			v-1.479c-1.769,0.238-2.346,0.748-2.346,1.395c0,0.544,0.374,0.799,0.969,0.799C552.967,128.952,553.341,128.68,553.783,128.238z"
			/>
		<path fill="#C40000" d="M558.391,122.255h2.039l0.17,1.07h0.068c0.714-0.68,1.563-1.274,2.703-1.274
			c1.836,0,2.617,1.292,2.617,3.399v5.235h-2.498v-4.912c0-1.224-0.323-1.598-1.037-1.598c-0.629,0-1.021,0.289-1.564,0.815v5.694
			h-2.498V122.255z"/>
		<path fill="#C40000" d="M568.029,127.49v-5.235h2.498v4.912c0,1.207,0.323,1.598,1.055,1.598c0.629,0,1.003-0.271,1.495-0.935
			v-5.575h2.499v8.431h-2.04l-0.187-1.173h-0.051c-0.714,0.851-1.496,1.377-2.652,1.377
			C568.811,130.89,568.029,129.598,568.029,127.49z"/>
		<path fill="#C40000" d="M577.379,128.34c0-1.768,1.411-2.736,4.742-3.076c-0.051-0.748-0.408-1.225-1.326-1.225
			c-0.714,0-1.41,0.289-2.227,0.766l-0.9-1.649c1.07-0.646,2.277-1.104,3.604-1.104c2.158,0,3.349,1.224,3.349,3.808v4.827h-2.04
			l-0.17-0.866h-0.068c-0.714,0.629-1.495,1.07-2.447,1.07C578.348,130.89,577.379,129.768,577.379,128.34z M582.121,128.238v-1.479
			c-1.768,0.238-2.346,0.748-2.346,1.395c0,0.544,0.374,0.799,0.969,0.799C581.306,128.952,581.68,128.68,582.121,128.238z"/>
		<path fill="#C40000" d="M586.729,122.255h2.04l0.17,1.479h0.068c0.611-1.139,1.529-1.683,2.396-1.683
			c0.476,0,0.765,0.067,1.003,0.17l-0.408,2.159c-0.306-0.086-0.561-0.137-0.918-0.137c-0.629,0-1.411,0.408-1.853,1.547v4.896
			h-2.499V122.255z"/>
		<path fill="#C40000" d="M593.358,133.813l0.442-1.904c0.152,0.034,0.374,0.103,0.561,0.103c0.833,0,1.258-0.442,1.479-1.104
			l0.119-0.442l-3.246-8.21h2.516l1.207,3.62c0.237,0.766,0.441,1.564,0.662,2.397h0.068c0.188-0.8,0.374-1.599,0.578-2.397
			l1.02-3.62h2.397l-2.924,8.516c-0.799,2.125-1.7,3.213-3.688,3.213C594.038,133.983,593.698,133.915,593.358,133.813z"/>
		<path fill="#C40000" d="M605.395,129.258c2.754-2.601,4.691-4.453,4.691-5.983c0-1.054-0.595-1.632-1.53-1.632
			c-0.781,0-1.377,0.527-1.921,1.105l-1.359-1.344c1.071-1.139,2.074-1.717,3.62-1.717c2.125,0,3.57,1.36,3.57,3.434
			c0,1.819-1.7,3.757-3.451,5.593c0.544-0.068,1.292-0.136,1.802-0.136h2.176v2.107h-7.598V129.258z"/>
		<path fill="#C40000" d="M614.37,125.246c0-3.672,1.547-5.559,3.859-5.559c2.312,0,3.858,1.887,3.858,5.559
			s-1.547,5.644-3.858,5.644C615.917,130.89,614.37,128.918,614.37,125.246z M619.725,125.246c0-2.957-0.646-3.62-1.495-3.62
			c-0.833,0-1.496,0.663-1.496,3.62c0,2.941,0.663,3.706,1.496,3.706C619.079,128.952,619.725,128.188,619.725,125.246z"/>
		<path fill="#C40000" d="M623.907,128.663h2.346v-6.238h-2.022v-1.547c1.173-0.221,1.921-0.527,2.686-0.986h1.836v8.771h2.022
			v2.022h-6.867V128.663z"/>
		<path fill="#C40000" d="M632.425,129.598l1.325-1.496c0.357,0.408,1.037,0.766,1.666,0.766c1.207,0,2.142-0.851,2.227-3.366
			c-0.561,0.714-1.495,1.14-2.158,1.14c-1.836,0-3.213-1.055-3.213-3.332c0-2.244,1.632-3.621,3.587-3.621
			c2.091,0,4.097,1.564,4.097,5.354c0,4.029-2.108,5.848-4.369,5.848C634.158,130.89,633.104,130.277,632.425,129.598z
			 M635.978,124.872c0.561,0,1.189-0.306,1.614-1.07c-0.221-1.7-0.918-2.244-1.683-2.244c-0.73,0-1.359,0.527-1.359,1.751
			C634.55,124.447,635.161,124.872,635.978,124.872z"/>
	</g>
</g>
<circle fill="#C40000" cx="591.448" cy="99.756" r="7.927"/>
<g>
	<g>
		<path fill="#C40000" d="M767.982,119.603h2.736l1.785,4.93c0.221,0.646,0.425,1.36,0.646,2.04h0.067
			c0.221-0.68,0.408-1.394,0.629-2.04l1.751-4.93h2.72v11.083h-2.277v-4.062c0-1.088,0.203-2.702,0.322-3.773h-0.067l-0.901,2.635
			l-1.581,4.232h-1.377l-1.58-4.232l-0.884-2.635h-0.068c0.119,1.071,0.323,2.686,0.323,3.773v4.062h-2.244V119.603z"/>
		<path fill="#C40000" d="M780.342,128.34c0-1.768,1.411-2.736,4.742-3.076c-0.051-0.748-0.408-1.225-1.326-1.225
			c-0.714,0-1.41,0.289-2.227,0.766l-0.9-1.649c1.07-0.646,2.277-1.104,3.604-1.104c2.158,0,3.349,1.224,3.349,3.808v4.827h-2.04
			l-0.17-0.866h-0.068c-0.714,0.629-1.495,1.07-2.447,1.07C781.311,130.89,780.342,129.768,780.342,128.34z M785.084,128.238v-1.479
			c-1.768,0.238-2.346,0.748-2.346,1.395c0,0.544,0.374,0.799,0.969,0.799C784.269,128.952,784.643,128.68,785.084,128.238z"/>
		<path fill="#C40000" d="M789.437,133.813l0.442-1.904c0.152,0.034,0.374,0.103,0.561,0.103c0.833,0,1.258-0.442,1.479-1.104
			l0.119-0.442l-3.246-8.21h2.516l1.207,3.62c0.237,0.766,0.441,1.564,0.662,2.397h0.068c0.188-0.8,0.374-1.599,0.578-2.397
			l1.02-3.62h2.397l-2.924,8.516c-0.799,2.125-1.7,3.213-3.688,3.213C790.116,133.983,789.776,133.915,789.437,133.813z"/>
		<path fill="#C40000" d="M801.473,129.258c2.754-2.601,4.691-4.453,4.691-5.983c0-1.054-0.595-1.632-1.53-1.632
			c-0.781,0-1.377,0.527-1.921,1.105l-1.359-1.344c1.071-1.139,2.074-1.717,3.62-1.717c2.125,0,3.57,1.36,3.57,3.434
			c0,1.819-1.7,3.757-3.451,5.593c0.544-0.068,1.292-0.136,1.802-0.136h2.176v2.107h-7.598V129.258z"/>
		<path fill="#C40000" d="M810.448,125.246c0-3.672,1.547-5.559,3.859-5.559c2.312,0,3.858,1.887,3.858,5.559
			s-1.547,5.644-3.858,5.644C811.995,130.89,810.448,128.918,810.448,125.246z M815.803,125.246c0-2.957-0.646-3.62-1.495-3.62
			c-0.833,0-1.496,0.663-1.496,3.62c0,2.941,0.663,3.706,1.496,3.706C815.157,128.952,815.803,128.188,815.803,125.246z"/>
		<path fill="#C40000" d="M819.985,128.663h2.346v-6.238h-2.022v-1.547c1.173-0.221,1.921-0.527,2.686-0.986h1.836v8.771h2.022
			v2.022h-6.867V128.663z"/>
		<path fill="#C40000" d="M828.503,129.598l1.325-1.496c0.357,0.408,1.037,0.766,1.666,0.766c1.207,0,2.142-0.851,2.227-3.366
			c-0.561,0.714-1.495,1.14-2.158,1.14c-1.836,0-3.213-1.055-3.213-3.332c0-2.244,1.632-3.621,3.587-3.621
			c2.091,0,4.097,1.564,4.097,5.354c0,4.029-2.108,5.848-4.369,5.848C830.236,130.89,829.183,130.277,828.503,129.598z
			 M832.056,124.872c0.561,0,1.189-0.306,1.614-1.07c-0.221-1.7-0.918-2.244-1.683-2.244c-0.73,0-1.359,0.527-1.359,1.751
			C830.628,124.447,831.239,124.872,832.056,124.872z"/>
	</g>
</g>
<circle fill="#C40000" cx="806.448" cy="99.756" r="7.927"/>
<g>
	<rect x="137.744" y="138.89" fill="none" width="129.256" height="51.11"/>
	<path fill="#02BFE7" d="M139.871,142.045c0.406,0,0.753,0.144,1.04,0.431s0.431,0.634,0.431,1.04s-0.144,0.753-0.431,1.04
		s-0.634,0.431-1.04,0.431s-0.753-0.144-1.04-0.431s-0.431-0.634-0.431-1.04s0.143-0.753,0.428-1.04
		S139.461,142.045,139.871,142.045z M139.871,142.49c-0.285,0-0.527,0.101-0.727,0.302s-0.299,0.442-0.299,0.724
		c0,0.285,0.101,0.527,0.302,0.727s0.442,0.299,0.724,0.299s0.522-0.1,0.724-0.299s0.302-0.441,0.302-0.727
		c0-0.281-0.1-0.522-0.299-0.724S140.156,142.49,139.871,142.49z"/>
	<path fill="#02BFE7" d="M147.323,139.614h1.463c2.183,0,3.334,1.14,3.334,3.07c0,2.854-1.595,4.798-4.257,4.798h-2.111
		L147.323,139.614z M147.863,146.715c2.039,0,3.31-1.631,3.31-3.97c0-1.487-0.839-2.375-2.423-2.375h-0.647l-1.271,6.345H147.863z"
		/>
	<path fill="#02BFE7" d="M153.971,141.653h0.755l-0.132,1.115h0.048c0.467-0.707,1.079-1.259,1.799-1.259
		c0.216,0,0.384,0.036,0.552,0.107l-0.324,0.815c-0.12-0.06-0.288-0.096-0.504-0.096c-0.576,0-1.223,0.516-1.715,1.463l-0.731,3.683
		h-0.912L153.971,141.653z"/>
	<path fill="#02BFE7" d="M156.888,145.516c0-2.243,1.535-4.006,3.154-4.006c0.624,0,1.127,0.348,1.403,0.875h0.048l0.228-0.731
		h0.743l-1.163,5.829h-0.756l0.096-0.863h-0.048c-0.564,0.6-1.295,1.007-2.027,1.007
		C157.547,147.626,156.888,146.883,156.888,145.516z M160.738,145.743l0.527-2.603c-0.336-0.611-0.744-0.863-1.187-0.863
		c-1.164,0-2.243,1.487-2.243,3.094c0,1.008,0.42,1.487,1.067,1.487C159.514,146.858,160.162,146.499,160.738,145.743z"/>
	<path fill="#02BFE7" d="M164.399,142.397h-0.755l0.132-0.685l0.779-0.06l0.192-0.972c0.24-1.175,0.864-1.883,1.847-1.883
		c0.42,0,0.731,0.12,1.031,0.276l-0.324,0.671c-0.168-0.107-0.372-0.203-0.647-0.203c-0.528,0-0.852,0.432-0.983,1.115l-0.204,0.995
		h2.003l0.432-1.607h0.78l-0.324,1.607h1.475l-0.144,0.744h-1.499l-0.684,3.334c-0.024,0.144-0.036,0.275-0.036,0.432
		c0,0.479,0.192,0.72,0.744,0.72c0.228,0,0.432-0.097,0.612-0.181l0.192,0.66c-0.252,0.12-0.636,0.264-1.092,0.264
		c-1.019,0-1.391-0.575-1.391-1.295c0-0.24,0.012-0.432,0.06-0.647l0.684-3.286h-1.955l-1.031,5.085h-0.912L164.399,142.397z"/>
	<path fill="#02BFE7" d="M173.986,139.614h2.219c1.476,0,2.471,0.552,2.471,1.919c0,1.932-1.439,2.783-3.442,2.783h-1.259
		l-0.624,3.166h-0.936L173.986,139.614z M175.27,143.561c1.619,0,2.482-0.647,2.482-1.907c0-0.911-0.624-1.295-1.775-1.295h-1.211
		l-0.636,3.202H175.27z"/>
	<path fill="#02BFE7" d="M180.13,141.653h0.755l-0.132,1.115h0.048c0.467-0.707,1.079-1.259,1.799-1.259
		c0.216,0,0.384,0.036,0.552,0.107l-0.324,0.815c-0.12-0.06-0.288-0.096-0.504-0.096c-0.576,0-1.223,0.516-1.715,1.463l-0.731,3.683
		h-0.912L180.13,141.653z"/>
	<path fill="#02BFE7" d="M184.234,141.653h0.923l-1.175,5.829h-0.912L184.234,141.653z M184.414,139.902
		c0-0.396,0.324-0.695,0.696-0.695c0.312,0,0.588,0.203,0.588,0.552c0,0.396-0.324,0.684-0.696,0.684
		C184.69,140.442,184.414,140.25,184.414,139.902z"/>
	<path fill="#02BFE7" d="M187.079,141.653h0.755l-0.083,0.876h0.048c0.647-0.576,1.295-1.02,2.027-1.02
		c0.983,0,1.379,0.552,1.379,1.451c0,0.275-0.024,0.479-0.096,0.804l-0.744,3.718h-0.912l0.72-3.599
		c0.06-0.312,0.096-0.479,0.096-0.684c0-0.587-0.264-0.899-0.864-0.899c-0.456,0-1.02,0.324-1.751,1.056l-0.828,4.126h-0.912
		L187.079,141.653z"/>
	<path fill="#02BFE7" d="M192.287,145.287c0-2.171,1.559-3.777,3.25-3.777c0.696,0,1.164,0.312,1.511,0.707l-0.54,0.576
		c-0.3-0.36-0.576-0.528-1.032-0.528c-1.163,0-2.254,1.367-2.254,2.963c0,1.056,0.456,1.631,1.379,1.631
		c0.516,0,0.936-0.239,1.295-0.516l0.408,0.6c-0.419,0.324-1.02,0.684-1.871,0.684C193.163,147.626,192.287,146.774,192.287,145.287
		z"/>
	<path fill="#02BFE7" d="M198.598,141.653h0.923l-1.175,5.829h-0.912L198.598,141.653z M198.778,139.902
		c0-0.396,0.324-0.695,0.696-0.695c0.312,0,0.588,0.203,0.588,0.552c0,0.396-0.324,0.684-0.696,0.684
		C199.054,140.442,198.778,140.25,198.778,139.902z"/>
	<path fill="#02BFE7" d="M201.442,141.653h0.755l-0.072,0.768h0.036c0.587-0.491,1.283-0.911,2.015-0.911
		c1.02,0,1.679,0.755,1.679,2.11c0,2.243-1.535,4.006-3.142,4.006c-0.612,0-1.104-0.348-1.403-0.84h-0.024l-0.216,1.248
		l-0.372,1.906h-0.912L201.442,141.653z M204.908,143.752c0-0.983-0.408-1.475-1.068-1.475c-0.54,0-1.247,0.359-1.799,0.959
		l-0.552,2.782c0.324,0.601,0.732,0.84,1.188,0.84C203.84,146.858,204.908,145.371,204.908,143.752z"/>
	<path fill="#02BFE7" d="M206.854,146.87c0-0.132,0.024-0.3,0.072-0.503l1.475-7.424h0.924l-1.5,7.472
		c-0.024,0.12-0.024,0.18-0.024,0.228c0,0.144,0.084,0.216,0.204,0.216c0.048,0,0.084,0,0.192-0.036l0.012,0.708
		c-0.156,0.06-0.324,0.096-0.576,0.096C207.118,147.626,206.854,147.351,206.854,146.87z"/>
	<path fill="#02BFE7" d="M209.746,145.191c0-2.194,1.595-3.682,3.118-3.682c1.307,0,1.799,0.911,1.799,2.11
		c0,0.456-0.12,0.899-0.204,1.115h-3.79c-0.216,1.523,0.564,2.159,1.583,2.159c0.456,0,0.936-0.228,1.308-0.504l0.36,0.612
		c-0.468,0.335-1.127,0.623-1.883,0.623C210.658,147.626,209.746,146.751,209.746,145.191z M213.824,144.112
		c0.036-0.18,0.06-0.36,0.06-0.576c0-0.659-0.288-1.295-1.127-1.295c-0.852,0-1.691,0.743-1.991,1.871H213.824z"/>
	<path fill="#02BFE7" d="M215.026,146.522l0.576-0.455c0.36,0.503,0.887,0.852,1.499,0.852c0.672,0,1.235-0.408,1.235-0.972
		c0-0.42-0.264-0.647-1.164-1.151c-0.731-0.42-1.235-0.888-1.235-1.548c0-1.031,0.875-1.738,1.931-1.738
		c0.731,0,1.331,0.312,1.775,0.791l-0.552,0.48c-0.3-0.312-0.708-0.552-1.235-0.552c-0.612,0-1.043,0.419-1.043,0.911
		c0,0.479,0.516,0.743,1.031,1.031c0.983,0.552,1.367,0.947,1.367,1.655c0,1.092-0.947,1.799-2.183,1.799
		C216.25,147.626,215.422,147.17,215.026,146.522z"/>
	<path fill="#02BFE7" d="M138.383,157.675c0-0.41,0.146-0.76,0.437-1.049s0.64-0.434,1.046-0.434c0.41,0,0.761,0.145,1.052,0.434
		s0.437,0.639,0.437,1.049s-0.146,0.761-0.437,1.052s-0.642,0.437-1.052,0.437c-0.406,0-0.755-0.146-1.046-0.437
		S138.383,158.085,138.383,157.675z"/>
	<path fill="#02BFE7" d="M144.897,158.021c0-2.591,1.715-4.102,3.694-4.102c1.007,0,1.823,0.479,2.351,1.019l-0.935,1.128
		c-0.396-0.36-0.816-0.624-1.379-0.624c-1.067,0-1.919,0.947-1.919,2.519c0,1.607,0.744,2.543,1.895,2.543
		c0.636,0,1.139-0.324,1.523-0.731l0.936,1.104c-0.647,0.755-1.511,1.151-2.531,1.151
		C146.552,162.026,144.897,160.646,144.897,158.021z"/>
	<path fill="#02BFE7" d="M151.833,160.227c0-1.247,0.995-1.931,3.346-2.17c-0.036-0.528-0.288-0.864-0.936-0.864
		c-0.504,0-0.996,0.204-1.571,0.54l-0.636-1.163c0.756-0.456,1.607-0.78,2.542-0.78c1.523,0,2.363,0.864,2.363,2.687v3.406h-1.439
		l-0.12-0.611h-0.048c-0.504,0.443-1.056,0.756-1.727,0.756C152.517,162.026,151.833,161.234,151.833,160.227z M155.179,160.155
		v-1.044c-1.248,0.168-1.655,0.528-1.655,0.983c0,0.384,0.264,0.564,0.684,0.564C154.604,160.659,154.867,160.467,155.179,160.155z"
		/>
	<path fill="#02BFE7" d="M158.433,160.035v-6.561h1.763v6.633c0,0.371,0.168,0.491,0.312,0.491c0.072,0,0.12,0,0.216-0.023
		l0.216,1.307c-0.192,0.084-0.492,0.145-0.888,0.145C158.84,162.026,158.433,161.234,158.433,160.035z"/>
	<path fill="#02BFE7" d="M161.865,160.035v-6.561h1.763v6.633c0,0.371,0.168,0.491,0.312,0.491c0.072,0,0.12,0,0.216-0.023
		l0.216,1.307c-0.192,0.084-0.492,0.145-0.887,0.145C162.272,162.026,161.865,161.234,161.865,160.035z"/>
	<path fill="#02BFE7" d="M167.997,157.312h-0.792v-1.308l0.792-0.06v-0.324c0-1.259,0.587-2.29,2.195-2.29
		c0.492,0,0.923,0.12,1.187,0.216l-0.324,1.295c-0.204-0.072-0.42-0.12-0.612-0.12c-0.432,0-0.684,0.24-0.684,0.852v0.36h1.067
		v1.379h-1.067v4.569h-1.763V157.312z"/>
	<path fill="#02BFE7" d="M171.32,158.908c0-1.979,1.391-3.119,2.902-3.119c1.5,0,2.891,1.14,2.891,3.119
		c0,1.979-1.391,3.118-2.891,3.118C172.711,162.026,171.32,160.887,171.32,158.908z M175.314,158.908
		c0-1.032-0.372-1.691-1.092-1.691c-0.731,0-1.091,0.659-1.091,1.691c0,1.031,0.36,1.69,1.091,1.69
		C174.942,160.599,175.314,159.939,175.314,158.908z"/>
	<path fill="#02BFE7" d="M178.328,155.934h1.439l0.12,1.043h0.048c0.432-0.804,1.08-1.188,1.691-1.188
		c0.336,0,0.54,0.049,0.708,0.12l-0.288,1.523c-0.216-0.06-0.396-0.096-0.647-0.096c-0.444,0-0.996,0.287-1.308,1.091v3.454h-1.763
		V155.934z"/>
	<path fill="#02BFE7" d="M185.647,154.062h2.675c1.619,0,2.878,0.443,2.878,1.942c0,0.696-0.384,1.451-1.02,1.691v0.048
		c0.792,0.204,1.403,0.792,1.403,1.835c0,1.596-1.343,2.303-3.035,2.303h-2.902V154.062z M188.238,157.192
		c0.863,0,1.235-0.359,1.235-0.923c0-0.612-0.396-0.84-1.224-0.84h-0.839v1.763H188.238z M188.406,160.515
		c0.959,0,1.451-0.336,1.451-1.056c0-0.684-0.48-0.959-1.451-0.959h-0.996v2.015H188.406z"/>
	<path fill="#02BFE7" d="M192.416,158.908c0-1.932,1.379-3.119,2.807-3.119c1.691,0,2.531,1.235,2.531,2.854
		c0,0.312-0.036,0.636-0.072,0.78h-3.562c0.156,0.863,0.756,1.259,1.547,1.259c0.444,0,0.852-0.132,1.283-0.396l0.587,1.067
		c-0.611,0.42-1.403,0.672-2.111,0.672C193.723,162.026,192.416,160.875,192.416,158.908z M196.253,158.26
		c0-0.659-0.288-1.127-0.995-1.127c-0.552,0-1.032,0.372-1.151,1.127H196.253z"/>
	<path fill="#02BFE7" d="M198.452,161.198l0.792-1.104c0.54,0.408,1.031,0.624,1.535,0.624c0.528,0,0.755-0.192,0.755-0.504
		c0-0.396-0.6-0.575-1.211-0.815c-0.72-0.275-1.547-0.768-1.547-1.751c0-1.104,0.912-1.859,2.279-1.859
		c0.912,0,1.595,0.372,2.099,0.756l-0.792,1.056c-0.419-0.312-0.839-0.504-1.247-0.504c-0.456,0-0.684,0.168-0.684,0.468
		c0,0.384,0.527,0.527,1.139,0.756c0.756,0.275,1.607,0.695,1.607,1.787c0,1.079-0.851,1.919-2.446,1.919
		C199.951,162.026,199.051,161.69,198.452,161.198z"/>
	<path fill="#02BFE7" d="M204.295,159.724v-2.411h-0.815v-1.308l0.911-0.071l0.204-1.583h1.463v1.583h1.427v1.379h-1.427v2.387
		c0,0.672,0.3,0.947,0.768,0.947c0.192,0,0.408-0.06,0.564-0.12l0.276,1.284c-0.312,0.096-0.744,0.216-1.319,0.216
		C204.871,162.026,204.295,161.103,204.295,159.724z"/>
	<path fill="#02BFE7" d="M211.195,154.062h2.687c1.715,0,3.106,0.624,3.106,2.519c0,1.835-1.403,2.65-3.058,2.65h-0.972v2.65h-1.763
		V154.062z M213.822,157.828c0.972,0,1.439-0.432,1.439-1.247s-0.528-1.115-1.487-1.115h-0.815v2.362H213.822z"/>
	<path fill="#02BFE7" d="M218.204,155.934h1.439l0.12,1.043h0.048c0.432-0.804,1.08-1.188,1.691-1.188
		c0.336,0,0.54,0.049,0.708,0.12l-0.288,1.523c-0.216-0.06-0.396-0.096-0.647-0.096c-0.444,0-0.996,0.287-1.308,1.091v3.454h-1.763
		V155.934z"/>
	<path fill="#02BFE7" d="M222.368,160.227c0-1.247,0.995-1.931,3.346-2.17c-0.036-0.528-0.288-0.864-0.936-0.864
		c-0.504,0-0.996,0.204-1.571,0.54l-0.636-1.163c0.756-0.456,1.607-0.78,2.542-0.78c1.523,0,2.363,0.864,2.363,2.687v3.406h-1.439
		l-0.12-0.611h-0.048c-0.504,0.443-1.056,0.756-1.727,0.756C223.051,162.026,222.368,161.234,222.368,160.227z M225.714,160.155
		v-1.044c-1.248,0.168-1.655,0.528-1.655,0.983c0,0.384,0.264,0.564,0.684,0.564C225.138,160.659,225.402,160.467,225.714,160.155z"
		/>
	<path fill="#02BFE7" d="M228.619,158.908c0-1.979,1.451-3.119,3.094-3.119c0.732,0,1.295,0.265,1.739,0.636l-0.828,1.14
		c-0.288-0.24-0.528-0.348-0.804-0.348c-0.851,0-1.391,0.659-1.391,1.691c0,1.031,0.564,1.69,1.332,1.69
		c0.384,0,0.755-0.191,1.067-0.432l0.695,1.151c-0.587,0.516-1.319,0.708-1.967,0.708
		C229.902,162.026,228.619,160.887,228.619,158.908z"/>
	<path fill="#02BFE7" d="M234.691,159.724v-2.411h-0.815v-1.308l0.911-0.071l0.204-1.583h1.463v1.583h1.427v1.379h-1.427v2.387
		c0,0.672,0.3,0.947,0.768,0.947c0.192,0,0.408-0.06,0.564-0.12l0.276,1.284c-0.312,0.096-0.744,0.216-1.319,0.216
		C235.267,162.026,234.691,161.103,234.691,159.724z"/>
	<path fill="#02BFE7" d="M238.927,154.135c0-0.552,0.408-0.924,0.996-0.924c0.587,0,0.995,0.372,0.995,0.924
		c0,0.563-0.408,0.923-0.995,0.923C239.335,155.058,238.927,154.698,238.927,154.135z M239.047,155.934h1.763v5.948h-1.763V155.934z
		"/>
	<path fill="#02BFE7" d="M242.011,158.908c0-1.979,1.451-3.119,3.094-3.119c0.732,0,1.295,0.265,1.739,0.636l-0.828,1.14
		c-0.288-0.24-0.528-0.348-0.804-0.348c-0.852,0-1.391,0.659-1.391,1.691c0,1.031,0.564,1.69,1.332,1.69
		c0.384,0,0.755-0.191,1.067-0.432l0.695,1.151c-0.587,0.516-1.319,0.708-1.967,0.708
		C243.294,162.026,242.011,160.887,242.011,158.908z"/>
	<path fill="#02BFE7" d="M247.279,158.908c0-1.932,1.379-3.119,2.807-3.119c1.691,0,2.531,1.235,2.531,2.854
		c0,0.312-0.036,0.636-0.072,0.78h-3.562c0.156,0.863,0.756,1.259,1.547,1.259c0.443,0,0.852-0.132,1.283-0.396l0.587,1.067
		c-0.611,0.42-1.403,0.672-2.111,0.672C248.587,162.026,247.279,160.875,247.279,158.908z M251.117,158.26
		c0-0.659-0.288-1.127-0.995-1.127c-0.552,0-1.032,0.372-1.151,1.127H251.117z"/>
	<path fill="#02BFE7" d="M253.315,161.198l0.792-1.104c0.54,0.408,1.031,0.624,1.535,0.624c0.528,0,0.755-0.192,0.755-0.504
		c0-0.396-0.6-0.575-1.211-0.815c-0.72-0.275-1.547-0.768-1.547-1.751c0-1.104,0.912-1.859,2.279-1.859
		c0.912,0,1.595,0.372,2.099,0.756l-0.792,1.056c-0.42-0.312-0.839-0.504-1.247-0.504c-0.456,0-0.684,0.168-0.684,0.468
		c0,0.384,0.527,0.527,1.139,0.756c0.755,0.275,1.607,0.695,1.607,1.787c0,1.079-0.852,1.919-2.446,1.919
		C254.814,162.026,253.915,161.69,253.315,161.198z"/>
</g>
<g>
	<rect x="327.253" y="138.89" fill="none" width="129.256" height="51.11"/>
	<path fill="#02BFE7" d="M327.892,143.275c0-0.41,0.146-0.76,0.437-1.049s0.64-0.434,1.046-0.434c0.41,0,0.761,0.145,1.052,0.434
		s0.437,0.639,0.437,1.049s-0.146,0.761-0.437,1.052s-0.642,0.437-1.052,0.437c-0.406,0-0.755-0.146-1.046-0.437
		S327.892,143.686,327.892,143.275z"/>
	<path fill="#02BFE7" d="M334.778,139.662h2.687c1.715,0,3.106,0.624,3.106,2.519c0,1.835-1.403,2.651-3.058,2.651h-0.972v2.65
		h-1.763V139.662z M337.404,143.429c0.972,0,1.439-0.432,1.439-1.248c0-0.815-0.528-1.115-1.487-1.115h-0.815v2.363H337.404z"/>
	<path fill="#02BFE7" d="M341.786,141.533h1.439l0.12,1.044h0.048c0.432-0.804,1.08-1.188,1.691-1.188
		c0.336,0,0.54,0.048,0.708,0.12l-0.288,1.522c-0.216-0.06-0.396-0.096-0.647-0.096c-0.444,0-0.996,0.288-1.308,1.092v3.454h-1.763
		V141.533z"/>
	<path fill="#02BFE7" d="M346.442,139.734c0-0.552,0.408-0.924,0.996-0.924c0.587,0,0.995,0.372,0.995,0.924
		c0,0.563-0.408,0.924-0.995,0.924C346.85,140.658,346.442,140.298,346.442,139.734z M346.562,141.533h1.763v5.949h-1.763V141.533z"
		/>
	<path fill="#02BFE7" d="M349.874,141.533h1.439l0.12,0.756h0.048c0.504-0.479,1.104-0.899,1.907-0.899
		c1.295,0,1.847,0.911,1.847,2.398v3.694h-1.763v-3.467c0-0.863-0.228-1.127-0.731-1.127c-0.444,0-0.72,0.204-1.104,0.576v4.018
		h-1.763V141.533z"/>
	<path fill="#02BFE7" d="M356.39,144.508c0-1.979,1.451-3.118,3.094-3.118c0.732,0,1.295,0.264,1.739,0.636l-0.828,1.14
		c-0.288-0.24-0.528-0.349-0.804-0.349c-0.852,0-1.391,0.66-1.391,1.691s0.564,1.691,1.332,1.691c0.384,0,0.755-0.192,1.067-0.432
		l0.695,1.151c-0.587,0.516-1.319,0.707-1.967,0.707C357.673,147.626,356.39,146.486,356.39,144.508z"/>
	<path fill="#02BFE7" d="M362.222,139.734c0-0.552,0.408-0.924,0.996-0.924c0.587,0,0.995,0.372,0.995,0.924
		c0,0.563-0.408,0.924-0.995,0.924C362.629,140.658,362.222,140.298,362.222,139.734z M362.342,141.533h1.763v5.949h-1.763V141.533z
		"/>
	<path fill="#02BFE7" d="M365.654,141.533h1.439l0.12,0.588h0.048c0.468-0.42,1.067-0.731,1.691-0.731
		c1.439,0,2.327,1.188,2.327,3.022c0,2.039-1.223,3.214-2.506,3.214c-0.516,0-0.996-0.228-1.416-0.623l0.06,0.947v1.739h-1.763
		V141.533z M369.467,144.436c0-1.067-0.324-1.606-1.031-1.606c-0.36,0-0.671,0.168-1.02,0.539v2.435
		c0.312,0.288,0.648,0.384,0.948,0.384C368.976,146.187,369.467,145.659,369.467,144.436z"/>
	<path fill="#02BFE7" d="M372.53,145.635v-6.56h1.763v6.632c0,0.372,0.168,0.492,0.312,0.492c0.072,0,0.12,0,0.216-0.024
		l0.216,1.308c-0.192,0.084-0.492,0.144-0.888,0.144C372.938,147.626,372.53,146.835,372.53,145.635z"/>
	<path fill="#02BFE7" d="M375.614,144.508c0-1.931,1.379-3.118,2.807-3.118c1.691,0,2.531,1.235,2.531,2.854
		c0,0.312-0.036,0.636-0.072,0.779h-3.562c0.156,0.863,0.756,1.26,1.547,1.26c0.443,0,0.852-0.132,1.283-0.396l0.587,1.067
		c-0.611,0.42-1.403,0.672-2.111,0.672C376.921,147.626,375.614,146.475,375.614,144.508z M379.452,143.86
		c0-0.66-0.288-1.128-0.995-1.128c-0.552,0-1.032,0.372-1.151,1.128H379.452z"/>
	<path fill="#02BFE7" d="M381.65,146.799l0.792-1.104c0.54,0.407,1.031,0.623,1.535,0.623c0.528,0,0.755-0.191,0.755-0.503
		c0-0.396-0.6-0.576-1.211-0.815c-0.72-0.276-1.547-0.768-1.547-1.752c0-1.103,0.912-1.858,2.279-1.858
		c0.912,0,1.595,0.372,2.099,0.756l-0.792,1.055c-0.42-0.312-0.839-0.503-1.247-0.503c-0.456,0-0.684,0.167-0.684,0.468
		c0,0.384,0.527,0.527,1.139,0.755c0.755,0.276,1.607,0.696,1.607,1.787c0,1.079-0.852,1.919-2.446,1.919
		C383.149,147.626,382.25,147.29,381.65,146.799z"/>
	<path fill="#02BFE7" d="M329.38,156.444c0.406,0,0.753,0.144,1.04,0.431s0.431,0.634,0.431,1.04s-0.144,0.753-0.431,1.04
		s-0.634,0.431-1.04,0.431s-0.753-0.144-1.04-0.431s-0.431-0.634-0.431-1.04s0.143-0.753,0.428-1.04S328.97,156.444,329.38,156.444z
		 M329.38,156.89c-0.285,0-0.527,0.101-0.727,0.302s-0.299,0.442-0.299,0.724c0,0.285,0.101,0.527,0.302,0.727
		s0.442,0.299,0.724,0.299s0.522-0.1,0.724-0.299s0.302-0.441,0.302-0.727c0-0.281-0.1-0.522-0.299-0.724
		S329.666,156.89,329.38,156.89z"/>
	<path fill="#02BFE7" d="M336.832,154.015h1.463c2.183,0,3.334,1.139,3.334,3.07c0,2.854-1.595,4.797-4.257,4.797h-2.111
		L336.832,154.015z M337.372,161.114c2.039,0,3.31-1.631,3.31-3.97c0-1.487-0.839-2.375-2.423-2.375h-0.647l-1.271,6.345H337.372z"
		/>
	<path fill="#02BFE7" d="M343.48,156.054h0.755l-0.132,1.115h0.048c0.467-0.708,1.079-1.26,1.799-1.26
		c0.216,0,0.384,0.036,0.552,0.108l-0.324,0.815c-0.12-0.061-0.288-0.096-0.504-0.096c-0.576,0-1.223,0.516-1.715,1.463
		l-0.731,3.682h-0.912L343.48,156.054z"/>
	<path fill="#02BFE7" d="M346.397,159.915c0-2.242,1.535-4.006,3.154-4.006c0.624,0,1.127,0.348,1.403,0.876h0.048l0.228-0.731
		h0.743l-1.163,5.828h-0.756l0.096-0.863h-0.048c-0.564,0.6-1.295,1.008-2.027,1.008
		C347.057,162.026,346.397,161.282,346.397,159.915z M350.247,160.143l0.527-2.603c-0.336-0.611-0.744-0.863-1.187-0.863
		c-1.164,0-2.243,1.487-2.243,3.095c0,1.007,0.42,1.487,1.067,1.487C349.023,161.259,349.671,160.898,350.247,160.143z"/>
	<path fill="#02BFE7" d="M353.908,156.797h-0.755l0.132-0.684l0.779-0.06l0.192-0.972c0.24-1.176,0.864-1.883,1.847-1.883
		c0.42,0,0.731,0.119,1.031,0.275l-0.324,0.672c-0.168-0.108-0.372-0.204-0.647-0.204c-0.528,0-0.852,0.432-0.983,1.115
		l-0.204,0.996h2.003l0.432-1.607h0.78l-0.324,1.607h1.475l-0.144,0.743h-1.499l-0.684,3.334c-0.024,0.145-0.036,0.276-0.036,0.432
		c0,0.48,0.192,0.72,0.744,0.72c0.228,0,0.432-0.096,0.612-0.18l0.192,0.659c-0.252,0.12-0.636,0.265-1.092,0.265
		c-1.019,0-1.391-0.576-1.391-1.296c0-0.239,0.012-0.432,0.06-0.647l0.684-3.286h-1.955l-1.031,5.085h-0.912L353.908,156.797z"/>
	<path fill="#02BFE7" d="M363.496,154.015h2.219c1.476,0,2.471,0.552,2.471,1.919c0,1.931-1.439,2.782-3.442,2.782h-1.259
		l-0.624,3.166h-0.936L363.496,154.015z M364.779,157.96c1.619,0,2.482-0.647,2.482-1.906c0-0.912-0.624-1.296-1.775-1.296h-1.211
		l-0.636,3.202H364.779z"/>
	<path fill="#02BFE7" d="M369.64,156.054h0.755l-0.132,1.115h0.048c0.467-0.708,1.079-1.26,1.799-1.26
		c0.216,0,0.384,0.036,0.552,0.108l-0.324,0.815c-0.12-0.061-0.288-0.096-0.504-0.096c-0.576,0-1.223,0.516-1.715,1.463
		l-0.731,3.682h-0.912L369.64,156.054z"/>
	<path fill="#02BFE7" d="M372.557,159.915c0-2.242,1.535-4.006,3.154-4.006c0.624,0,1.127,0.348,1.403,0.876h0.048l0.228-0.731
		h0.744l-1.164,5.828h-0.755l0.096-0.863h-0.048c-0.564,0.6-1.295,1.008-2.027,1.008
		C373.216,162.026,372.557,161.282,372.557,159.915z M376.406,160.143l0.528-2.603c-0.335-0.611-0.744-0.863-1.187-0.863
		c-1.164,0-2.243,1.487-2.243,3.095c0,1.007,0.42,1.487,1.067,1.487C375.183,161.259,375.831,160.898,376.406,160.143z"/>
	<path fill="#02BFE7" d="M378.977,159.688c0-2.171,1.559-3.778,3.25-3.778c0.696,0,1.164,0.312,1.511,0.708l-0.54,0.575
		c-0.3-0.359-0.576-0.527-1.032-0.527c-1.163,0-2.254,1.367-2.254,2.962c0,1.056,0.456,1.632,1.379,1.632
		c0.516,0,0.936-0.24,1.295-0.516l0.408,0.6c-0.419,0.323-1.02,0.684-1.871,0.684C379.852,162.026,378.977,161.175,378.977,159.688z
		"/>
	<path fill="#02BFE7" d="M384.58,160.73c0-0.239,0.036-0.432,0.06-0.647l0.684-3.286h-0.852l0.132-0.684l0.912-0.06l0.432-1.607
		h0.779l-0.324,1.607h1.475l-0.144,0.743h-1.5l-0.684,3.334c-0.024,0.145-0.036,0.276-0.036,0.432c0,0.48,0.192,0.72,0.744,0.72
		c0.228,0,0.432-0.096,0.611-0.18l0.204,0.659c-0.264,0.12-0.648,0.265-1.104,0.265C384.952,162.026,384.58,161.45,384.58,160.73z"
		/>
	<path fill="#02BFE7" d="M389.188,156.054h0.923l-1.175,5.828h-0.912L389.188,156.054z M389.367,154.303
		c0-0.396,0.324-0.696,0.696-0.696c0.312,0,0.588,0.204,0.588,0.552c0,0.396-0.324,0.684-0.696,0.684
		C389.643,154.842,389.367,154.65,389.367,154.303z"/>
	<path fill="#02BFE7" d="M390.94,159.688c0-2.171,1.559-3.778,3.25-3.778c0.696,0,1.164,0.312,1.511,0.708l-0.54,0.575
		c-0.3-0.359-0.576-0.527-1.032-0.527c-1.163,0-2.254,1.367-2.254,2.962c0,1.056,0.456,1.632,1.379,1.632
		c0.516,0,0.936-0.24,1.295-0.516l0.408,0.6c-0.419,0.323-1.02,0.684-1.871,0.684C391.816,162.026,390.94,161.175,390.94,159.688z"
		/>
	<path fill="#02BFE7" d="M395.98,159.592c0-2.195,1.595-3.683,3.118-3.683c1.307,0,1.799,0.912,1.799,2.111
		c0,0.455-0.12,0.899-0.204,1.115h-3.79c-0.216,1.523,0.564,2.158,1.583,2.158c0.456,0,0.936-0.228,1.308-0.503l0.36,0.611
		c-0.468,0.336-1.127,0.624-1.883,0.624C396.892,162.026,395.98,161.15,395.98,159.592z M400.058,158.512
		c0.036-0.18,0.06-0.359,0.06-0.575c0-0.66-0.288-1.296-1.127-1.296c-0.852,0-1.691,0.744-1.991,1.871H400.058z"/>
	<path fill="#02BFE7" d="M401.26,160.923l0.576-0.456c0.36,0.504,0.887,0.852,1.499,0.852c0.672,0,1.235-0.408,1.235-0.972
		c0-0.42-0.264-0.647-1.164-1.151c-0.731-0.42-1.235-0.888-1.235-1.547c0-1.031,0.875-1.739,1.931-1.739
		c0.731,0,1.331,0.312,1.775,0.792l-0.552,0.479c-0.3-0.312-0.708-0.552-1.235-0.552c-0.612,0-1.043,0.42-1.043,0.911
		c0,0.48,0.516,0.744,1.031,1.032c0.983,0.552,1.367,0.947,1.367,1.654c0,1.092-0.947,1.8-2.183,1.8
		C402.483,162.026,401.656,161.57,401.26,160.923z"/>
</g>
<g>
	<rect x="542.236" y="138.89" fill="none" width="129.256" height="51.11"/>
	<path fill="#02BFE7" d="M542.875,143.275c0-0.41,0.146-0.76,0.437-1.049s0.64-0.434,1.046-0.434c0.41,0,0.761,0.145,1.052,0.434
		s0.437,0.639,0.437,1.049s-0.146,0.761-0.437,1.052s-0.642,0.437-1.052,0.437c-0.406,0-0.755-0.146-1.046-0.437
		S542.875,143.686,542.875,143.275z"/>
	<path fill="#02BFE7" d="M549.761,139.662h4.93v1.487h-3.166v1.812h2.71v1.487h-2.71v3.034h-1.764V139.662z"/>
	<path fill="#02BFE7" d="M555.342,144.508c0-1.931,1.379-3.118,2.807-3.118c1.69,0,2.53,1.235,2.53,2.854
		c0,0.312-0.036,0.636-0.072,0.779h-3.562c0.155,0.863,0.756,1.26,1.547,1.26c0.444,0,0.852-0.132,1.283-0.396l0.588,1.067
		c-0.611,0.42-1.403,0.672-2.111,0.672C556.649,147.626,555.342,146.475,555.342,144.508z M559.18,143.86
		c0-0.66-0.288-1.128-0.995-1.128c-0.552,0-1.032,0.372-1.151,1.128H559.18z"/>
	<path fill="#02BFE7" d="M561.594,144.508c0-1.943,1.211-3.118,2.471-3.118c0.659,0,1.055,0.24,1.463,0.624l-0.072-0.912v-2.026
		h1.764v8.407h-1.439l-0.12-0.588h-0.048c-0.42,0.42-1.008,0.731-1.583,0.731C562.553,147.626,561.594,146.451,561.594,144.508z
		 M565.455,145.647v-2.435c-0.312-0.288-0.659-0.384-0.983-0.384c-0.563,0-1.067,0.527-1.067,1.654c0,1.176,0.396,1.703,1.08,1.703
		C564.868,146.187,565.168,146.043,565.455,145.647z"/>
	<path fill="#02BFE7" d="M568.434,144.508c0-1.931,1.379-3.118,2.807-3.118c1.69,0,2.53,1.235,2.53,2.854
		c0,0.312-0.036,0.636-0.072,0.779h-3.562c0.155,0.863,0.756,1.26,1.547,1.26c0.444,0,0.852-0.132,1.283-0.396l0.588,1.067
		c-0.611,0.42-1.403,0.672-2.111,0.672C569.741,147.626,568.434,146.475,568.434,144.508z M572.271,143.86
		c0-0.66-0.288-1.128-0.995-1.128c-0.552,0-1.032,0.372-1.151,1.128H572.271z"/>
	<path fill="#02BFE7" d="M574.997,141.533h1.439l0.12,1.044h0.048c0.432-0.804,1.079-1.188,1.69-1.188
		c0.336,0,0.54,0.048,0.708,0.12l-0.288,1.522c-0.216-0.06-0.396-0.096-0.647-0.096c-0.443,0-0.995,0.288-1.308,1.092v3.454h-1.763
		V141.533z"/>
	<path fill="#02BFE7" d="M579.161,145.827c0-1.247,0.995-1.931,3.347-2.171c-0.036-0.527-0.288-0.863-0.936-0.863
		c-0.504,0-0.996,0.204-1.571,0.539l-0.636-1.163c0.756-0.456,1.607-0.779,2.542-0.779c1.523,0,2.363,0.863,2.363,2.687v3.406
		h-1.439l-0.12-0.612h-0.048c-0.504,0.444-1.056,0.756-1.727,0.756C579.845,147.626,579.161,146.835,579.161,145.827z
		 M582.508,145.755v-1.043c-1.248,0.168-1.655,0.527-1.655,0.983c0,0.384,0.264,0.563,0.684,0.563
		C581.932,146.259,582.195,146.067,582.508,145.755z"/>
	<path fill="#02BFE7" d="M585.761,145.635v-6.56h1.763v6.632c0,0.372,0.168,0.492,0.312,0.492c0.071,0,0.12,0,0.216-0.024
		l0.216,1.308c-0.192,0.084-0.492,0.144-0.888,0.144C586.169,147.626,585.761,146.835,585.761,145.635z"/>
	<path fill="#02BFE7" d="M591.736,139.662h2.207c2.387,0,3.922,1.188,3.922,3.874s-1.535,3.946-3.826,3.946h-2.303V139.662z
		 M593.836,146.055c1.331,0,2.219-0.647,2.219-2.519s-0.888-2.446-2.219-2.446H593.5v4.965H593.836z"/>
	<path fill="#02BFE7" d="M598.938,145.827c0-1.247,0.995-1.931,3.346-2.171c-0.036-0.527-0.288-0.863-0.936-0.863
		c-0.504,0-0.995,0.204-1.571,0.539l-0.636-1.163c0.756-0.456,1.607-0.779,2.543-0.779c1.523,0,2.362,0.863,2.362,2.687v3.406
		h-1.438l-0.12-0.612h-0.048c-0.504,0.444-1.056,0.756-1.728,0.756C599.621,147.626,598.938,146.835,598.938,145.827z
		 M602.283,145.755v-1.043c-1.247,0.168-1.655,0.527-1.655,0.983c0,0.384,0.264,0.563,0.684,0.563
		C601.708,146.259,601.972,146.067,602.283,145.755z"/>
	<path fill="#02BFE7" d="M605.561,145.323v-2.41h-0.815v-1.308l0.911-0.072l0.204-1.583h1.464v1.583h1.427v1.38h-1.427v2.387
		c0,0.671,0.3,0.947,0.768,0.947c0.191,0,0.407-0.061,0.563-0.12l0.275,1.283c-0.312,0.096-0.743,0.216-1.319,0.216
		C606.137,147.626,605.561,146.702,605.561,145.323z"/>
	<path fill="#02BFE7" d="M609.401,145.827c0-1.247,0.995-1.931,3.346-2.171c-0.036-0.527-0.288-0.863-0.936-0.863
		c-0.504,0-0.995,0.204-1.571,0.539l-0.636-1.163c0.756-0.456,1.607-0.779,2.543-0.779c1.523,0,2.362,0.863,2.362,2.687v3.406
		h-1.438l-0.12-0.612h-0.048c-0.504,0.444-1.056,0.756-1.728,0.756C610.085,147.626,609.401,146.835,609.401,145.827z
		 M612.747,145.755v-1.043c-1.247,0.168-1.655,0.527-1.655,0.983c0,0.384,0.264,0.563,0.684,0.563
		C612.172,146.259,612.436,146.067,612.747,145.755z"/>
	<path fill="#02BFE7" d="M618.041,146.499l1.007-1.212c0.563,0.48,1.283,0.815,1.932,0.815c0.731,0,1.091-0.287,1.091-0.755
		c0-0.492-0.443-0.647-1.127-0.936l-1.02-0.432c-0.804-0.324-1.571-0.996-1.571-2.135c0-1.296,1.151-2.327,2.782-2.327
		c0.899,0,1.847,0.359,2.519,1.031l-0.899,1.115c-0.516-0.396-0.995-0.623-1.619-0.623c-0.611,0-0.995,0.264-0.995,0.707
		c0,0.48,0.516,0.648,1.188,0.924l1.007,0.408c0.948,0.384,1.548,1.019,1.548,2.122c0,1.296-1.08,2.423-2.951,2.423
		C619.911,147.626,618.832,147.242,618.041,146.499z"/>
	<path fill="#02BFE7" d="M624.977,145.323v-2.41h-0.815v-1.308l0.911-0.072l0.204-1.583h1.463v1.583h1.427v1.38h-1.427v2.387
		c0,0.671,0.3,0.947,0.768,0.947c0.192,0,0.408-0.061,0.563-0.12l0.276,1.283c-0.312,0.096-0.744,0.216-1.319,0.216
		C625.552,147.626,624.977,146.702,624.977,145.323z"/>
	<path fill="#02BFE7" d="M629.332,141.533h1.439l0.12,1.044h0.048c0.432-0.804,1.079-1.188,1.69-1.188
		c0.336,0,0.54,0.048,0.708,0.12l-0.288,1.522c-0.216-0.06-0.396-0.096-0.647-0.096c-0.443,0-0.995,0.288-1.308,1.092v3.454h-1.763
		V141.533z"/>
	<path fill="#02BFE7" d="M633.496,145.827c0-1.247,0.995-1.931,3.347-2.171c-0.036-0.527-0.288-0.863-0.936-0.863
		c-0.504,0-0.996,0.204-1.571,0.539l-0.636-1.163c0.756-0.456,1.607-0.779,2.542-0.779c1.523,0,2.363,0.863,2.363,2.687v3.406
		h-1.439l-0.12-0.612h-0.048c-0.504,0.444-1.056,0.756-1.727,0.756C634.18,147.626,633.496,146.835,633.496,145.827z
		 M636.843,145.755v-1.043c-1.248,0.168-1.655,0.527-1.655,0.983c0,0.384,0.264,0.563,0.684,0.563
		C636.267,146.259,636.53,146.067,636.843,145.755z"/>
	<path fill="#02BFE7" d="M640.12,145.323v-2.41h-0.815v-1.308l0.911-0.072l0.204-1.583h1.463v1.583h1.427v1.38h-1.427v2.387
		c0,0.671,0.3,0.947,0.768,0.947c0.192,0,0.408-0.061,0.563-0.12l0.276,1.283c-0.312,0.096-0.744,0.216-1.319,0.216
		C640.695,147.626,640.12,146.702,640.12,145.323z"/>
	<path fill="#02BFE7" d="M643.912,144.508c0-1.931,1.379-3.118,2.807-3.118c1.69,0,2.53,1.235,2.53,2.854
		c0,0.312-0.036,0.636-0.072,0.779h-3.562c0.155,0.863,0.756,1.26,1.547,1.26c0.444,0,0.852-0.132,1.283-0.396l0.588,1.067
		c-0.611,0.42-1.403,0.672-2.111,0.672C645.22,147.626,643.912,146.475,643.912,144.508z M647.75,143.86
		c0-0.66-0.288-1.128-0.995-1.128c-0.552,0-1.032,0.372-1.151,1.128H647.75z"/>
	<path fill="#02BFE7" d="M649.983,148.502c0-0.492,0.3-0.888,0.852-1.199v-0.049c-0.312-0.203-0.552-0.516-0.552-1.007
		c0-0.432,0.288-0.852,0.672-1.115v-0.048c-0.42-0.288-0.804-0.852-0.804-1.548c0-1.427,1.176-2.146,2.459-2.146
		c0.336,0,0.659,0.048,0.924,0.144h2.17v1.283h-0.947c0.108,0.181,0.192,0.468,0.192,0.78c0,1.367-1.031,2.003-2.339,2.003
		c-0.216,0-0.456-0.036-0.72-0.12c-0.156,0.132-0.216,0.239-0.216,0.443c0,0.3,0.24,0.444,0.899,0.444h0.96
		c1.463,0,2.267,0.443,2.267,1.511c0,1.235-1.283,2.135-3.322,2.135C651.087,150.013,649.983,149.557,649.983,148.502z
		 M654.121,148.178c0-0.372-0.323-0.468-0.911-0.468h-0.611c-0.408,0-0.648-0.023-0.84-0.072c-0.216,0.192-0.324,0.372-0.324,0.588
		c0,0.444,0.528,0.684,1.319,0.684C653.546,148.909,654.121,148.586,654.121,148.178z M653.426,143.536
		c0-0.623-0.348-0.959-0.815-0.959s-0.815,0.323-0.815,0.959c0,0.66,0.348,0.996,0.815,0.996S653.426,144.196,653.426,143.536z"/>
	<path fill="#02BFE7" d="M656.632,149.689l0.312-1.344c0.108,0.024,0.264,0.072,0.396,0.072c0.588,0,0.888-0.312,1.044-0.78
		l0.084-0.312l-2.291-5.793h1.775l0.852,2.555c0.168,0.54,0.312,1.104,0.468,1.691h0.048c0.132-0.563,0.264-1.128,0.407-1.691
		l0.72-2.555h1.691l-2.062,6.009c-0.564,1.499-1.2,2.267-2.603,2.267C657.111,149.809,656.871,149.761,656.632,149.689z"/>
	<path fill="#02BFE7" d="M547.539,157.624c0-1.937,0.539-3.521,1.452-4.995l0.562,0.265c-0.848,1.396-1.266,3.059-1.266,4.73
		s0.418,3.333,1.266,4.73l-0.562,0.265C548.078,161.145,547.539,159.561,547.539,157.624z"/>
	<path fill="#02BFE7" d="M550.96,153.466h2.058c1.617,0,2.706,0.539,2.706,2.123c0,1.518-1.078,2.233-2.662,2.233h-1.188v2.86
		h-0.913V153.466z M552.951,157.074c1.255,0,1.859-0.463,1.859-1.485c0-1.045-0.638-1.387-1.903-1.387h-1.034v2.872H552.951z"/>
	<path fill="#02BFE7" d="M557.099,155.336h0.748l0.076,0.968h0.033c0.363-0.671,0.913-1.101,1.519-1.101
		c0.23,0,0.396,0.033,0.572,0.11l-0.177,0.792c-0.176-0.055-0.297-0.088-0.517-0.088c-0.451,0-0.99,0.33-1.354,1.232v3.433h-0.901
		V155.336z"/>
	<path fill="#02BFE7" d="M560.772,153.642c0-0.353,0.253-0.595,0.604-0.595c0.353,0,0.605,0.242,0.605,0.595
		c0,0.363-0.253,0.594-0.605,0.594C561.025,154.235,560.772,154.005,560.772,153.642z M560.915,155.336h0.902v5.347h-0.902V155.336z
		"/>
	<path fill="#02BFE7" d="M563.621,155.336h0.748l0.077,0.77h0.033c0.506-0.506,1.056-0.902,1.793-0.902
		c1.122,0,1.628,0.727,1.628,2.091v3.389h-0.901v-3.268c0-1.001-0.309-1.431-1.013-1.431c-0.55,0-0.924,0.286-1.463,0.825v3.873
		h-0.902V155.336z"/>
	<path fill="#02BFE7" d="M569.242,158.02c0-1.793,1.199-2.816,2.574-2.816c0.704,0,1.188,0.286,1.562,0.628l-0.462,0.594
		c-0.309-0.275-0.639-0.473-1.067-0.473c-0.968,0-1.672,0.836-1.672,2.067c0,1.222,0.671,2.047,1.649,2.047
		c0.495,0,0.925-0.242,1.255-0.539l0.396,0.604c-0.483,0.43-1.089,0.683-1.727,0.683
		C570.331,160.814,569.242,159.791,569.242,158.02z"/>
	<path fill="#02BFE7" d="M574.512,153.642c0-0.353,0.253-0.595,0.604-0.595c0.353,0,0.605,0.242,0.605,0.595
		c0,0.363-0.253,0.594-0.605,0.594C574.765,154.235,574.512,154.005,574.512,153.642z M574.654,155.336h0.902v5.347h-0.902V155.336z
		"/>
	<path fill="#02BFE7" d="M577.36,155.336h0.748l0.077,0.616h0.033c0.483-0.407,1.078-0.749,1.705-0.749
		c1.375,0,2.112,1.067,2.112,2.729c0,1.815-1.089,2.883-2.311,2.883c-0.495,0-0.99-0.231-1.485-0.616l0.022,0.936v1.804h-0.902
		V155.336z M581.101,157.932c0-1.177-0.396-1.969-1.408-1.969c-0.451,0-0.901,0.253-1.43,0.726v2.806
		c0.484,0.407,0.957,0.562,1.309,0.562C580.452,160.056,581.101,159.252,581.101,157.932z"/>
	<path fill="#02BFE7" d="M583.466,159.604v-6.755h0.901v6.82c0,0.286,0.121,0.396,0.253,0.396c0.056,0,0.1,0,0.198-0.022
		l0.121,0.683c-0.121,0.055-0.275,0.088-0.517,0.088C583.74,160.814,583.466,160.386,583.466,159.604z"/>
	<path fill="#02BFE7" d="M585.874,158.02c0-1.749,1.177-2.816,2.398-2.816c1.364,0,2.134,0.979,2.134,2.509
		c0,0.188-0.011,0.385-0.032,0.518h-3.609c0.066,1.133,0.76,1.858,1.783,1.858c0.506,0,0.935-0.165,1.331-0.418l0.318,0.595
		c-0.462,0.297-1.034,0.55-1.76,0.55C587.007,160.814,585.874,159.77,585.874,158.02z M589.614,157.58
		c0-1.078-0.483-1.661-1.32-1.661c-0.748,0-1.43,0.604-1.54,1.661H589.614z"/>
	<path fill="#02BFE7" d="M591.132,160.077l0.451-0.604c0.462,0.374,0.936,0.638,1.573,0.638c0.704,0,1.057-0.374,1.057-0.836
		c0-0.551-0.639-0.792-1.222-1.013c-0.759-0.274-1.562-0.638-1.562-1.54c0-0.858,0.683-1.519,1.849-1.519
		c0.66,0,1.243,0.275,1.661,0.605l-0.44,0.572c-0.362-0.275-0.748-0.474-1.221-0.474c-0.671,0-0.979,0.363-0.979,0.771
		c0,0.506,0.551,0.693,1.155,0.924c0.771,0.286,1.629,0.605,1.629,1.617c0,0.869-0.693,1.596-1.959,1.596
		C592.364,160.814,591.638,160.495,591.132,160.077z"/>
	<path fill="#02BFE7" d="M597.985,158.812c0-0.969,0.682-1.573,1.419-2.08c-0.297-0.594-0.473-1.166-0.473-1.694
		c0-0.957,0.671-1.705,1.672-1.705c0.891,0,1.419,0.583,1.419,1.431c0,0.946-0.825,1.551-1.628,2.134
		c0.473,0.737,1.145,1.452,1.826,2.024c0.44-0.594,0.792-1.309,1.012-2.134h0.848c-0.286,0.946-0.693,1.826-1.266,2.585
		c0.495,0.341,0.957,0.583,1.354,0.693l-0.242,0.748c-0.506-0.144-1.078-0.418-1.661-0.825c-0.55,0.495-1.232,0.825-2.079,0.825
		C598.876,160.814,597.985,159.979,597.985,158.812z M600.284,160.088c0.495,0,0.957-0.22,1.375-0.583
		c-0.704-0.616-1.386-1.364-1.892-2.145c-0.506,0.406-0.902,0.836-0.902,1.396C598.865,159.561,599.492,160.088,600.284,160.088z
		 M600.054,156.293c0.66-0.44,1.231-0.88,1.231-1.519c0-0.418-0.197-0.792-0.682-0.792c-0.539,0-0.892,0.451-0.892,1.045
		C599.712,155.424,599.845,155.853,600.054,156.293z"/>
	<path fill="#02BFE7" d="M607.522,153.466h2.057c1.617,0,2.707,0.539,2.707,2.123c0,1.518-1.078,2.233-2.663,2.233h-1.188v2.86
		h-0.913V153.466z M609.514,157.074c1.254,0,1.859-0.463,1.859-1.485c0-1.045-0.639-1.387-1.903-1.387h-1.034v2.872H609.514z"/>
	<path fill="#02BFE7" d="M613.66,155.336h0.748l0.077,0.968h0.033c0.363-0.671,0.913-1.101,1.518-1.101
		c0.231,0,0.396,0.033,0.572,0.11l-0.176,0.792c-0.176-0.055-0.297-0.088-0.518-0.088c-0.45,0-0.989,0.33-1.353,1.232v3.433h-0.902
		V155.336z"/>
	<path fill="#02BFE7" d="M616.884,159.296c0-1.166,1.001-1.749,3.278-2.002c0-0.683-0.221-1.342-1.101-1.342
		c-0.616,0-1.177,0.285-1.595,0.571l-0.353-0.627c0.495-0.318,1.243-0.693,2.102-0.693c1.309,0,1.859,0.869,1.859,2.201v3.278
		h-0.748l-0.077-0.639h-0.033c-0.506,0.418-1.101,0.771-1.771,0.771C617.555,160.814,616.884,160.253,616.884,159.296z
		 M620.162,159.373v-1.485c-1.782,0.221-2.398,0.66-2.398,1.343c0,0.604,0.418,0.857,0.946,0.857
		C619.227,160.088,619.645,159.835,620.162,159.373z"/>
	<path fill="#02BFE7" d="M622.361,158.02c0-1.793,1.199-2.816,2.574-2.816c0.704,0,1.188,0.286,1.562,0.628l-0.462,0.594
		c-0.309-0.275-0.639-0.473-1.067-0.473c-0.968,0-1.672,0.836-1.672,2.067c0,1.222,0.671,2.047,1.649,2.047
		c0.495,0,0.925-0.242,1.255-0.539l0.396,0.604c-0.483,0.43-1.089,0.683-1.727,0.683C623.45,160.814,622.361,159.791,622.361,158.02
		z"/>
	<path fill="#02BFE7" d="M627.817,159.032v-2.96h-0.792v-0.682l0.836-0.055l0.109-1.496h0.76v1.496h1.441v0.736h-1.441v2.971
		c0,0.66,0.209,1.034,0.825,1.034c0.187,0,0.429-0.077,0.604-0.143l0.177,0.682c-0.298,0.1-0.66,0.198-0.99,0.198
		C628.202,160.814,627.817,160.088,627.817,159.032z"/>
	<path fill="#02BFE7" d="M631.238,153.642c0-0.353,0.253-0.595,0.604-0.595c0.353,0,0.605,0.242,0.605,0.595
		c0,0.363-0.253,0.594-0.605,0.594C631.491,154.235,631.238,154.005,631.238,153.642z M631.381,155.336h0.902v5.347h-0.902V155.336z
		"/>
	<path fill="#02BFE7" d="M633.69,158.02c0-1.793,1.199-2.816,2.575-2.816c0.704,0,1.188,0.286,1.562,0.628l-0.462,0.594
		c-0.308-0.275-0.638-0.473-1.067-0.473c-0.968,0-1.672,0.836-1.672,2.067c0,1.222,0.671,2.047,1.65,2.047
		c0.495,0,0.924-0.242,1.254-0.539l0.396,0.604c-0.484,0.43-1.09,0.683-1.728,0.683C634.78,160.814,633.69,159.791,633.69,158.02z"
		/>
	<path fill="#02BFE7" d="M638.476,158.02c0-1.749,1.178-2.816,2.398-2.816c1.364,0,2.135,0.979,2.135,2.509
		c0,0.188-0.011,0.385-0.033,0.518h-3.608c0.066,1.133,0.759,1.858,1.782,1.858c0.506,0,0.936-0.165,1.331-0.418l0.319,0.595
		c-0.462,0.297-1.034,0.55-1.761,0.55C639.609,160.814,638.476,159.77,638.476,158.02z M642.217,157.58
		c0-1.078-0.484-1.661-1.32-1.661c-0.748,0-1.431,0.604-1.54,1.661H642.217z"/>
	<path fill="#02BFE7" d="M643.734,160.077l0.451-0.604c0.462,0.374,0.935,0.638,1.573,0.638c0.704,0,1.056-0.374,1.056-0.836
		c0-0.551-0.638-0.792-1.221-1.013c-0.76-0.274-1.562-0.638-1.562-1.54c0-0.858,0.682-1.519,1.848-1.519
		c0.66,0,1.244,0.275,1.662,0.605l-0.44,0.572c-0.363-0.275-0.748-0.474-1.222-0.474c-0.671,0-0.979,0.363-0.979,0.771
		c0,0.506,0.55,0.693,1.155,0.924c0.77,0.286,1.628,0.605,1.628,1.617c0,0.869-0.693,1.596-1.958,1.596
		C644.966,160.814,644.24,160.495,643.734,160.077z"/>
	<path fill="#02BFE7" d="M648.453,162.354c0.847-1.397,1.265-3.059,1.265-4.73s-0.418-3.334-1.265-4.73l0.561-0.265
		c0.913,1.475,1.452,3.059,1.452,4.995s-0.539,3.521-1.452,4.995L648.453,162.354z"/>
	<path fill="#02BFE7" d="M544.363,169.645c0.406,0,0.753,0.144,1.04,0.431s0.431,0.634,0.431,1.04s-0.144,0.753-0.431,1.04
		s-0.634,0.431-1.04,0.431s-0.753-0.144-1.04-0.431s-0.431-0.634-0.431-1.04s0.143-0.753,0.428-1.04
		S543.953,169.645,544.363,169.645z M544.363,170.09c-0.285,0-0.527,0.101-0.727,0.302s-0.299,0.442-0.299,0.724
		c0,0.285,0.101,0.527,0.302,0.727s0.442,0.299,0.724,0.299s0.522-0.1,0.724-0.299s0.302-0.441,0.302-0.727
		c0-0.281-0.1-0.522-0.299-0.724S544.648,170.09,544.363,170.09z"/>
	<path fill="#02BFE7" d="M551.815,167.215h1.463c2.183,0,3.334,1.139,3.334,3.07c0,2.854-1.595,4.797-4.257,4.797h-2.111
		L551.815,167.215z M552.355,174.314c2.038,0,3.31-1.631,3.31-3.97c0-1.487-0.839-2.375-2.423-2.375h-0.647l-1.271,6.345H552.355z"
		/>
	<path fill="#02BFE7" d="M558.464,169.254h0.755l-0.132,1.115h0.049c0.467-0.708,1.079-1.26,1.799-1.26
		c0.216,0,0.384,0.036,0.552,0.108l-0.324,0.815c-0.12-0.061-0.288-0.096-0.504-0.096c-0.575,0-1.223,0.516-1.715,1.463
		l-0.731,3.682H557.3L558.464,169.254z"/>
	<path fill="#02BFE7" d="M561.38,173.115c0-2.242,1.535-4.006,3.154-4.006c0.624,0,1.128,0.348,1.403,0.876h0.048l0.229-0.731h0.743
		l-1.163,5.828h-0.756l0.096-0.863h-0.048c-0.563,0.6-1.295,1.008-2.026,1.008C562.04,175.227,561.38,174.482,561.38,173.115z
		 M565.23,173.343l0.527-2.603c-0.336-0.611-0.744-0.863-1.188-0.863c-1.163,0-2.243,1.487-2.243,3.095
		c0,1.007,0.42,1.487,1.067,1.487C564.007,174.459,564.654,174.099,565.23,173.343z"/>
	<path fill="#02BFE7" d="M568.892,169.997h-0.756l0.132-0.684l0.779-0.06l0.192-0.972c0.24-1.176,0.863-1.883,1.847-1.883
		c0.42,0,0.731,0.119,1.031,0.275l-0.323,0.672c-0.168-0.108-0.372-0.204-0.647-0.204c-0.528,0-0.852,0.432-0.983,1.115
		l-0.204,0.996h2.003l0.432-1.607h0.779l-0.323,1.607h1.475l-0.144,0.743h-1.499l-0.684,3.334c-0.024,0.145-0.036,0.276-0.036,0.432
		c0,0.48,0.191,0.72,0.743,0.72c0.229,0,0.432-0.096,0.612-0.18l0.191,0.659c-0.252,0.12-0.636,0.265-1.092,0.265
		c-1.019,0-1.391-0.576-1.391-1.296c0-0.239,0.012-0.432,0.06-0.647l0.684-3.286h-1.955l-1.031,5.085h-0.911L568.892,169.997z"/>
	<path fill="#02BFE7" d="M578.767,172.012l-1.283-4.797h0.96l0.539,2.267c0.145,0.575,0.252,1.115,0.396,1.715h0.035
		c0.36-0.588,0.708-1.151,1.092-1.727l1.487-2.255h0.995l-3.286,4.797l-0.623,3.07h-0.924L578.767,172.012z"/>
	<path fill="#02BFE7" d="M581.973,172.792c0-2.195,1.595-3.683,3.118-3.683c1.307,0,1.799,0.912,1.799,2.111
		c0,0.455-0.12,0.899-0.204,1.115h-3.79c-0.216,1.523,0.564,2.158,1.583,2.158c0.456,0,0.936-0.228,1.308-0.503l0.36,0.611
		c-0.468,0.336-1.128,0.624-1.884,0.624C582.884,175.227,581.973,174.351,581.973,172.792z M586.05,171.712
		c0.036-0.18,0.061-0.359,0.061-0.575c0-0.66-0.288-1.296-1.128-1.296c-0.852,0-1.69,0.744-1.99,1.871H586.05z"/>
	<path fill="#02BFE7" d="M587.769,173.115c0-2.242,1.535-4.006,3.154-4.006c0.623,0,1.127,0.348,1.403,0.876h0.048l0.228-0.731
		h0.744l-1.164,5.828h-0.755l0.096-0.863h-0.048c-0.564,0.6-1.296,1.008-2.027,1.008
		C588.428,175.227,587.769,174.482,587.769,173.115z M591.618,173.343l0.527-2.603c-0.335-0.611-0.743-0.863-1.187-0.863
		c-1.164,0-2.243,1.487-2.243,3.095c0,1.007,0.42,1.487,1.067,1.487C590.395,174.459,591.043,174.099,591.618,173.343z"/>
	<path fill="#02BFE7" d="M595.279,169.254h0.756l-0.132,1.115h0.048c0.468-0.708,1.079-1.26,1.799-1.26
		c0.216,0,0.384,0.036,0.552,0.108l-0.323,0.815c-0.12-0.061-0.288-0.096-0.504-0.096c-0.576,0-1.224,0.516-1.715,1.463
		l-0.732,3.682h-0.911L595.279,169.254z"/>
	<path fill="#02BFE7" d="M600.716,174.314h1.667l1.151-5.732h-1.354l0.119-0.6c0.684-0.096,1.235-0.276,1.68-0.552h0.707
		l-1.391,6.884h1.559l-0.144,0.768h-4.149L600.716,174.314z"/>
	<path fill="#02BFE7" d="M612.042,167.215h1.079l0.912,7.867h-0.972l-0.216-2.458h-2.782l-1.26,2.458h-1.031L612.042,167.215z
		 M610.435,171.904h2.339l-0.12-1.344c-0.071-0.827-0.155-1.667-0.216-2.566h-0.048c-0.42,0.911-0.815,1.703-1.259,2.566
		L610.435,171.904z"/>
	<path fill="#02BFE7" d="M614.972,172.888c0-2.171,1.56-3.778,3.25-3.778c0.696,0,1.164,0.312,1.512,0.708l-0.54,0.575
		c-0.3-0.359-0.575-0.527-1.031-0.527c-1.163,0-2.255,1.367-2.255,2.962c0,1.056,0.456,1.632,1.379,1.632
		c0.517,0,0.936-0.24,1.296-0.516l0.407,0.6c-0.419,0.323-1.02,0.684-1.87,0.684C615.848,175.227,614.972,174.375,614.972,172.888z"
		/>
	<path fill="#02BFE7" d="M620.576,173.931c0-0.239,0.036-0.432,0.06-0.647l0.684-3.286h-0.852l0.132-0.684l0.912-0.06l0.432-1.607
		h0.779l-0.324,1.607h1.476l-0.144,0.743h-1.5l-0.684,3.334c-0.023,0.145-0.035,0.276-0.035,0.432c0,0.48,0.191,0.72,0.743,0.72
		c0.228,0,0.432-0.096,0.611-0.18l0.204,0.659c-0.264,0.12-0.647,0.265-1.104,0.265C620.947,175.227,620.576,174.65,620.576,173.931
		z"/>
	<path fill="#02BFE7" d="M625.184,169.254h0.923l-1.175,5.828h-0.912L625.184,169.254z M625.363,167.503
		c0-0.396,0.324-0.696,0.695-0.696c0.312,0,0.588,0.204,0.588,0.552c0,0.396-0.324,0.684-0.695,0.684
		C625.639,168.042,625.363,167.851,625.363,167.503z"/>
	<path fill="#02BFE7" d="M626.96,172.888c0-2.207,1.548-3.778,3.143-3.778c1.259,0,2.087,0.888,2.087,2.339
		c0,2.207-1.56,3.778-3.154,3.778C627.775,175.227,626.96,174.339,626.96,172.888z M631.254,171.508
		c0-1.055-0.443-1.643-1.247-1.643c-1.067,0-2.123,1.331-2.123,2.962c0,1.056,0.443,1.632,1.247,1.632
		C630.21,174.459,631.254,173.14,631.254,171.508z"/>
	<path fill="#02BFE7" d="M634.208,169.254h0.755l-0.083,0.875h0.048c0.647-0.575,1.295-1.02,2.026-1.02
		c0.983,0,1.38,0.552,1.38,1.451c0,0.276-0.024,0.479-0.097,0.804l-0.743,3.718h-0.912l0.72-3.598
		c0.061-0.312,0.097-0.479,0.097-0.684c0-0.588-0.265-0.899-0.864-0.899c-0.455,0-1.02,0.323-1.751,1.056l-0.827,4.125h-0.912
		L634.208,169.254z"/>
	<path fill="#02BFE7" d="M643.363,167.215h2.219c1.476,0,2.471,0.552,2.471,1.919c0,1.931-1.439,2.782-3.442,2.782h-1.259
		l-0.624,3.166h-0.936L643.363,167.215z M644.646,171.16c1.619,0,2.482-0.647,2.482-1.906c0-0.912-0.623-1.296-1.774-1.296h-1.212
		l-0.636,3.202H644.646z"/>
	<path fill="#02BFE7" d="M648.5,174.471c0-0.132,0.023-0.3,0.071-0.504l1.476-7.424h0.924l-1.5,7.472
		c-0.023,0.12-0.023,0.18-0.023,0.229c0,0.144,0.084,0.216,0.204,0.216c0.048,0,0.084,0,0.191-0.036l0.012,0.707
		c-0.155,0.061-0.323,0.097-0.575,0.097C648.764,175.227,648.5,174.95,648.5,174.471z"/>
	<path fill="#02BFE7" d="M651.415,173.115c0-2.242,1.535-4.006,3.154-4.006c0.624,0,1.128,0.348,1.403,0.876h0.048l0.229-0.731
		h0.743l-1.163,5.828h-0.756l0.096-0.863h-0.048c-0.563,0.6-1.295,1.008-2.026,1.008
		C652.075,175.227,651.415,174.482,651.415,173.115z M655.266,173.343l0.527-2.603c-0.336-0.611-0.744-0.863-1.188-0.863
		c-1.163,0-2.243,1.487-2.243,3.095c0,1.007,0.42,1.487,1.067,1.487C654.042,174.459,654.689,174.099,655.266,173.343z"/>
	<path fill="#02BFE7" d="M658.927,169.254h0.755l-0.083,0.875h0.048c0.647-0.575,1.295-1.02,2.026-1.02
		c0.983,0,1.38,0.552,1.38,1.451c0,0.276-0.024,0.479-0.097,0.804l-0.743,3.718h-0.912l0.72-3.598
		c0.061-0.312,0.097-0.479,0.097-0.684c0-0.588-0.265-0.899-0.864-0.899c-0.455,0-1.02,0.323-1.751,1.056l-0.827,4.125h-0.912
		L658.927,169.254z"/>
</g>
<g>
	<rect x="766.674" y="138.89" fill="none" width="129.256" height="51.11"/>
	<path fill="#02BFE7" d="M767.312,143.275c0-0.41,0.146-0.76,0.437-1.049s0.64-0.434,1.046-0.434c0.41,0,0.761,0.145,1.052,0.434
		s0.437,0.639,0.437,1.049s-0.146,0.761-0.437,1.052s-0.642,0.437-1.052,0.437c-0.406,0-0.755-0.146-1.046-0.437
		S767.312,143.686,767.312,143.275z"/>
	<path fill="#02BFE7" d="M775.542,144.7l-2.362-5.038h1.895l0.695,1.8c0.216,0.587,0.42,1.127,0.636,1.727h0.048
		c0.229-0.6,0.444-1.14,0.66-1.727l0.707-1.8h1.848l-2.363,5.038v2.782h-1.763V144.7z"/>
	<path fill="#02BFE7" d="M779.347,144.508c0-1.931,1.379-3.118,2.807-3.118c1.69,0,2.53,1.235,2.53,2.854
		c0,0.312-0.036,0.636-0.072,0.779h-3.562c0.155,0.863,0.756,1.26,1.547,1.26c0.444,0,0.852-0.132,1.283-0.396l0.588,1.067
		c-0.611,0.42-1.403,0.672-2.111,0.672C780.654,147.626,779.347,146.475,779.347,144.508z M783.185,143.86
		c0-0.66-0.288-1.128-0.995-1.128c-0.552,0-1.032,0.372-1.151,1.128H783.185z"/>
	<path fill="#02BFE7" d="M785.503,145.827c0-1.247,0.995-1.931,3.346-2.171c-0.036-0.527-0.288-0.863-0.936-0.863
		c-0.504,0-0.995,0.204-1.571,0.539l-0.636-1.163c0.756-0.456,1.607-0.779,2.543-0.779c1.523,0,2.362,0.863,2.362,2.687v3.406
		h-1.438l-0.12-0.612h-0.048c-0.504,0.444-1.056,0.756-1.728,0.756C786.187,147.626,785.503,146.835,785.503,145.827z
		 M788.849,145.755v-1.043c-1.247,0.168-1.655,0.527-1.655,0.983c0,0.384,0.264,0.563,0.684,0.563
		C788.273,146.259,788.537,146.067,788.849,145.755z"/>
	<path fill="#02BFE7" d="M792.103,141.533h1.439l0.12,1.044h0.048c0.432-0.804,1.079-1.188,1.69-1.188
		c0.336,0,0.54,0.048,0.708,0.12l-0.288,1.522c-0.216-0.06-0.396-0.096-0.647-0.096c-0.443,0-0.995,0.288-1.308,1.092v3.454h-1.763
		V141.533z"/>
	<path fill="#02BFE7" d="M799.338,146.055h1.655v-4.401h-1.427v-1.092c0.827-0.155,1.355-0.371,1.895-0.695h1.296v6.188h1.427v1.428
		h-4.846V146.055z"/>
	<path fill="#02BFE7" d="M809.608,139.662h2.123l2.447,7.82h-1.871l-0.48-1.859h-2.386l-0.48,1.859h-1.799L809.608,139.662z
		 M809.801,144.244h1.667l-0.18-0.72c-0.216-0.779-0.432-1.703-0.636-2.519h-0.048c-0.192,0.827-0.396,1.739-0.612,2.519
		L809.801,144.244z"/>
	<path fill="#02BFE7" d="M814.542,144.508c0-1.979,1.451-3.118,3.094-3.118c0.732,0,1.296,0.264,1.739,0.636l-0.827,1.14
		c-0.288-0.24-0.528-0.349-0.804-0.349c-0.852,0-1.392,0.66-1.392,1.691s0.564,1.691,1.332,1.691c0.384,0,0.755-0.192,1.067-0.432
		l0.695,1.151c-0.588,0.516-1.319,0.707-1.967,0.707C815.825,147.626,814.542,146.486,814.542,144.508z"/>
	<path fill="#02BFE7" d="M820.614,145.323v-2.41h-0.815v-1.308l0.911-0.072l0.204-1.583h1.463v1.583h1.427v1.38h-1.427v2.387
		c0,0.671,0.3,0.947,0.768,0.947c0.192,0,0.408-0.061,0.563-0.12l0.276,1.283c-0.312,0.096-0.744,0.216-1.319,0.216
		C821.189,147.626,820.614,146.702,820.614,145.323z"/>
	<path fill="#02BFE7" d="M824.851,139.734c0-0.552,0.407-0.924,0.995-0.924s0.995,0.372,0.995,0.924
		c0,0.563-0.407,0.924-0.995,0.924S824.851,140.298,824.851,139.734z M824.971,141.533h1.763v5.949h-1.763V141.533z"/>
	<path fill="#02BFE7" d="M827.935,144.508c0-1.979,1.392-3.118,2.902-3.118c1.499,0,2.891,1.14,2.891,3.118
		s-1.392,3.118-2.891,3.118C829.326,147.626,827.935,146.486,827.935,144.508z M831.929,144.508c0-1.031-0.372-1.691-1.092-1.691
		c-0.731,0-1.092,0.66-1.092,1.691s0.36,1.691,1.092,1.691C831.557,146.199,831.929,145.539,831.929,144.508z"/>
	<path fill="#02BFE7" d="M834.942,141.533h1.438l0.12,0.756h0.048c0.504-0.479,1.104-0.899,1.907-0.899
		c1.295,0,1.847,0.911,1.847,2.398v3.694h-1.763v-3.467c0-0.863-0.228-1.127-0.731-1.127c-0.444,0-0.72,0.204-1.104,0.576v4.018
		h-1.763V141.533z"/>
	<path fill="#02BFE7" d="M844.35,139.662h2.687c1.715,0,3.106,0.624,3.106,2.519c0,1.835-1.403,2.651-3.059,2.651h-0.972v2.65
		h-1.763V139.662z M846.977,143.429c0.971,0,1.438-0.432,1.438-1.248c0-0.815-0.527-1.115-1.487-1.115h-0.815v2.363H846.977z"/>
	<path fill="#02BFE7" d="M851.357,145.635v-6.56h1.763v6.632c0,0.372,0.168,0.492,0.312,0.492c0.071,0,0.12,0,0.216-0.024
		l0.216,1.308c-0.192,0.084-0.492,0.144-0.888,0.144C851.766,147.626,851.357,146.835,851.357,145.635z"/>
	<path fill="#02BFE7" d="M854.514,145.827c0-1.247,0.995-1.931,3.347-2.171c-0.036-0.527-0.288-0.863-0.936-0.863
		c-0.504,0-0.996,0.204-1.571,0.539l-0.636-1.163c0.756-0.456,1.607-0.779,2.542-0.779c1.523,0,2.363,0.863,2.363,2.687v3.406
		h-1.439l-0.12-0.612h-0.048c-0.504,0.444-1.056,0.756-1.727,0.756C855.197,147.626,854.514,146.835,854.514,145.827z
		 M857.86,145.755v-1.043c-1.248,0.168-1.655,0.527-1.655,0.983c0,0.384,0.264,0.563,0.684,0.563
		C857.284,146.259,857.548,146.067,857.86,145.755z"/>
	<path fill="#02BFE7" d="M861.113,141.533h1.439l0.12,0.756h0.048c0.504-0.479,1.104-0.899,1.906-0.899
		c1.296,0,1.848,0.911,1.848,2.398v3.694h-1.764v-3.467c0-0.863-0.228-1.127-0.731-1.127c-0.443,0-0.72,0.204-1.104,0.576v4.018
		h-1.763V141.533z"/>
</g>
<g>
	<g>
		<line fill="none" stroke="#C40000" stroke-width="4" stroke-miterlimit="10" x1="592" y1="100" x2="598" y2="100"/>
		
			<line fill="none" stroke="#C40000" stroke-width="4" stroke-miterlimit="10" stroke-dasharray="12.0432,12.0432" x1="610.043" y1="100" x2="772.626" y2="100"/>
		<line fill="none" stroke="#C40000" stroke-width="4" stroke-miterlimit="10" x1="778.648" y1="100" x2="784.648" y2="100"/>
		<g>
			<polygon fill="#C40000" points="781.73,109.973 799,100 781.73,90.027 			"/>
		</g>
	</g>
</g>
<g>
</g>
<g>
</g>
<g>
</g>
<g>
</g>
<g>
</g>
<g>
</g>
<g>
</g>
<g>
</g>
<g>
</g>
<g>
</g>
<g>
</g>
<g>
</g>
<g>
</g>
<g>
</g>
<g>
</g>
<g>
</g>
</svg>
