<?xml version="1.0" encoding="utf-8"?>
<!-- Generator: Adobe Illustrator 19.1.0, SVG Export Plug-In . SVG Version: 6.00 Build 0)  -->
<svg version="1.1" id="Layer_1" xmlns="http://www.w3.org/2000/svg" xmlns:xlink="http://www.w3.org/1999/xlink" x="0px" y="0px"
	 viewBox="0 0 287.026 546" enable-background="new 0 0 287.026 546" xml:space="preserve">
<line fill="none" stroke="#FFFFFF" stroke-width="4" stroke-miterlimit="10" x1="45" y1="0" x2="45" y2="546"/>
<g>
	<g>
		<defs>
			<rect id="SVGID_1_" x="83.68" y="47.252" width="41.6" height="33.8"/>
		</defs>
		<clipPath id="SVGID_2_">
			<use xlink:href="#SVGID_1_"  overflow="visible"/>
		</clipPath>
		<rect x="83.68" y="47.252" clip-path="url(#SVGID_2_)" fill="#FFFFFF" fill-opacity="0" width="41.6" height="33.8"/>
	</g>
	<g>
		<defs>
			<rect id="SVGID_3_" x="83.68" y="47.252" width="41.6" height="33.8"/>
		</defs>
		<clipPath id="SVGID_4_">
			<use xlink:href="#SVGID_3_"  overflow="visible"/>
		</clipPath>
		<path clip-path="url(#SVGID_4_)" fill="#FFFFFF" d="M86.517,66.029c-1.568,0-2.837,1.264-2.837,2.818
			c0,1.555,1.269,2.816,2.837,2.816c1.565,0,2.834-1.261,2.834-2.816C89.351,67.293,88.082,66.029,86.517,66.029 M86.517,56.641
			c-1.568,0-2.837,1.264-2.837,2.816c0,1.555,1.269,2.816,2.837,2.816c1.565,0,2.834-1.261,2.834-2.816
			C89.351,57.904,88.082,56.641,86.517,56.641 M86.517,75.418c-1.568,0-2.837,1.261-2.837,2.818c0,1.555,1.269,2.816,2.837,2.816
			c1.565,0,2.834-1.261,2.834-2.816C89.351,76.679,88.082,75.418,86.517,75.418 M94.08,51.007h30.254
			c0.523,0,0.946-0.419,0.946-0.939c0-0.517-0.424-0.939-0.946-0.939H94.08c-0.523,0-0.946,0.421-0.946,0.939
			C93.134,50.588,93.558,51.007,94.08,51.007 M124.334,77.298H94.08c-0.523,0-0.946,0.421-0.946,0.939
			c0,0.52,0.424,0.939,0.946,0.939h30.254c0.523,0,0.946-0.419,0.946-0.939C125.28,77.716,124.856,77.298,124.334,77.298
			 M86.517,47.252c-1.568,0-2.837,1.264-2.837,2.816c0,1.555,1.269,2.816,2.837,2.816c1.565,0,2.834-1.261,2.834-2.816
			C89.351,48.516,88.082,47.252,86.517,47.252 M124.334,58.518H94.08c-0.523,0-0.946,0.421-0.946,0.939
			c0,0.52,0.424,0.941,0.946,0.941h30.254c0.523,0,0.946-0.421,0.946-0.941C125.28,58.939,124.856,58.518,124.334,58.518
			 M124.334,67.907H94.08c-0.523,0-0.946,0.421-0.946,0.939c0,0.52,0.424,0.939,0.946,0.939h30.254
			c0.523,0.003,0.946-0.419,0.946-0.936C125.28,68.328,124.856,67.907,124.334,67.907"/>
	</g>
</g>
<g>
	<g>
		<defs>
			<rect id="SVGID_5_" x="90.211" y="159.326" width="33.8" height="41.6"/>
		</defs>
		<clipPath id="SVGID_6_">
			<use xlink:href="#SVGID_5_"  overflow="visible"/>
		</clipPath>
		<rect x="90.211" y="159.326" clip-path="url(#SVGID_6_)" fill="#FFFFFF" fill-opacity="0" width="33.8" height="41.6"/>
	</g>
	<g>
		<defs>
			<rect id="SVGID_7_" x="90.211" y="159.326" width="33.8" height="41.6"/>
		</defs>
		<clipPath id="SVGID_8_">
			<use xlink:href="#SVGID_7_"  overflow="visible"/>
		</clipPath>
		<path clip-path="url(#SVGID_8_)" fill="#FFFFFF" d="M108.05,187.689H96.784c-0.52,0-0.939,0.424-0.939,0.946
			s0.419,0.946,0.939,0.946h11.266c0.52,0,0.939-0.421,0.939-0.946C108.989,188.113,108.57,187.689,108.05,187.689 M104.296,193.362
			h-7.511c-0.52,0-0.939,0.424-0.939,0.946s0.419,0.946,0.939,0.946h7.511c0.52,0,0.939-0.424,0.939-0.946
			S104.813,193.362,104.296,193.362 M96.784,178.235h3.754c0.52,0,0.939-0.421,0.939-0.946c0-0.523-0.419-0.946-0.939-0.946h-3.754
			c-0.52,0-0.939,0.424-0.939,0.946S96.264,178.235,96.784,178.235 M95.846,182.962c0,0.523,0.419,0.946,0.939,0.946h11.266
			c0.52,0,0.939-0.424,0.939-0.946s-0.419-0.946-0.939-0.946H96.784C96.264,182.016,95.846,182.44,95.846,182.962 M117.439,159.326
			h-14.082c-2.075,0-3.757,1.693-3.757,3.783v2.834c0,0.523,0.419,0.946,0.939,0.946s0.939-0.421,0.939-0.946v-2.834
			c0-1.043,0.842-1.89,1.877-1.89h11.266v5.671c0,1.043,0.842,1.89,1.877,1.89h5.634v18.91c0,1.043-0.842,1.89-1.877,1.89h-2.816
			c-0.52,0-0.939,0.424-0.939,0.946s0.419,0.946,0.939,0.946h2.816c2.072,0,3.754-1.693,3.754-3.783v-20.8L117.439,159.326z
			 M116.5,166.889v-5.525l4.896,5.525H116.5z M93.966,168.779c-2.072,0-3.754,1.693-3.754,3.783v24.58
			c0,2.09,1.682,3.783,3.754,3.783h16.9c2.072,0,3.754-1.693,3.754-3.783v-20.8l-6.57-7.563H93.966z M112.746,197.143
			c0,1.045-0.842,1.89-1.877,1.89h-16.9c-1.035,0-1.877-0.845-1.877-1.89v-24.58c0-1.043,0.842-1.89,1.877-1.89h11.266v5.671
			c0,1.043,0.842,1.89,1.877,1.89h5.634V197.143z M107.111,176.343v-5.525l4.896,5.525H107.111z"/>
	</g>
</g>
<g>
	<path fill="#FFFFFF" d="M119.696,278.405H93.404c-2.072,0-3.754,1.693-3.754,3.783v34.034c0,2.088,1.682,3.783,3.754,3.783h26.289
		c2.075,0,3.757-1.695,3.757-3.783v-34.034C123.45,280.097,121.768,278.405,119.696,278.405 M112.184,280.295h3.754v6.617
		l-1.877-1.89l-1.877,1.893V280.295z M97.161,318.112h-3.757c-1.035,0-1.877-0.845-1.877-1.89v-34.034
		c0-1.043,0.842-1.89,1.877-1.89h3.754v37.814H97.161z M121.573,316.222c0,1.043-0.842,1.89-1.877,1.89H99.039v-37.817h11.266
		v11.344l3.754-3.78l3.754,3.78v-11.344h1.877c1.035,0,1.877,0.848,1.877,1.89v34.037H121.573z"/>
</g>
<g>
	<g>
		<defs>
			<rect id="SVGID_9_" x="92.098" y="399.168" width="41.6" height="41.6"/>
		</defs>
		<clipPath id="SVGID_10_">
			<use xlink:href="#SVGID_9_"  overflow="visible"/>
		</clipPath>
		<rect x="92.098" y="399.168" clip-path="url(#SVGID_10_)" fill="#FFFFFF" fill-opacity="0" width="41.6" height="41.6"/>
	</g>
	<g>
		<defs>
			<rect id="SVGID_11_" x="92.098" y="399.168" width="41.6" height="41.6"/>
		</defs>
		<clipPath id="SVGID_12_">
			<use xlink:href="#SVGID_11_"  overflow="visible"/>
		</clipPath>
		<path clip-path="url(#SVGID_12_)" fill="#FFFFFF" d="M115.735,416.185h9.454c0.523,0,0.946-0.421,0.946-0.946
			c0-0.52-0.424-0.944-0.946-0.944h-9.454c-0.523,0-0.946,0.424-0.946,0.944C114.788,415.763,115.212,416.185,115.735,416.185
			 M115.735,412.404h5.671c0.523,0,0.946-0.424,0.946-0.946c0-0.523-0.424-0.946-0.946-0.946h-5.671
			c-0.523,0-0.946,0.424-0.946,0.946C114.788,411.98,115.212,412.404,115.735,412.404 M115.735,419.968h3.78
			c0.523,0,0.946-0.424,0.946-0.946c0-0.523-0.424-0.946-0.946-0.946h-3.78c-0.523,0-0.946,0.424-0.946,0.946
			C114.788,419.544,115.212,419.968,115.735,419.968 M101.552,423.751h7.563c1.043,0,1.89-0.845,1.89-1.89v-9.456
			c0-1.043-0.848-1.89-1.89-1.89h-7.563c-1.043,0-1.89,0.848-1.89,1.89v9.454C99.661,422.906,100.509,423.751,101.552,423.751
			 M101.552,412.404h7.563v9.454h-7.563V412.404z M115.735,423.751h9.454c0.523,0,0.946-0.424,0.946-0.946s-0.424-0.946-0.946-0.946
			h-9.454c-0.523,0-0.946,0.424-0.946,0.946S115.212,423.751,115.735,423.751 M131.808,401.058h-17.02c0-1.043-0.848-1.89-1.89-1.89
			s-1.89,0.848-1.89,1.89h-17.02c-1.043,0-1.89,0.848-1.89,1.893v1.89c0,1.045,0.848,1.89,1.89,1.89v22.69
			c0,1.045,0.848,1.89,1.89,1.89h16.071v2.444l-5.398,5.398c-0.169,0.172-0.276,0.408-0.276,0.668
			c0.005,0.523,0.429,0.946,0.952,0.946c0.26,0,0.497-0.107,0.668-0.278l5.002-5.002l5.002,5.002
			c0.172,0.172,0.408,0.278,0.668,0.278c0.523,0,0.946-0.424,0.946-0.946c0-0.26-0.107-0.497-0.276-0.668l-5.398-5.398v-2.444
			h16.071c1.043,0,1.89-0.845,1.89-1.89v-22.69c1.048,0,1.895-0.845,1.895-1.893v-1.888
			C133.698,401.905,132.85,401.058,131.808,401.058 M129.915,429.421H95.881v-22.69h34.034V429.421z M131.808,404.838h-37.82v-1.888
			h37.817v1.888H131.808z"/>
	</g>
</g>
<g>
	<rect x="81.68" y="97.894" fill="none" width="79.268" height="20.122"/>
	<path fill="#C40000" d="M83.652,106.751c0.204,0.374,0.442,0.651,0.714,0.833s0.549,0.271,0.833,0.271
		c0.453,0,0.796-0.139,1.028-0.416s0.349-0.785,0.349-1.521v-7.191h2.499v7.396c0,0.532-0.071,1.037-0.212,1.513
		c-0.142,0.476-0.357,0.89-0.646,1.241s-0.658,0.629-1.105,0.833c-0.448,0.204-0.978,0.306-1.59,0.306
		c-0.85,0-1.561-0.164-2.133-0.493c-0.572-0.328-1.051-0.833-1.437-1.513L83.652,106.751z"/>
	<path fill="#C40000" d="M91.353,101.379h2.499v4.913c0,0.611,0.085,1.031,0.255,1.258s0.436,0.34,0.799,0.34
		c0.317,0,0.583-0.073,0.799-0.221c0.215-0.147,0.447-0.386,0.697-0.714v-5.576h2.499v8.432h-2.04l-0.187-1.173h-0.051
		c-0.363,0.431-0.751,0.768-1.165,1.012c-0.414,0.243-0.91,0.365-1.487,0.365c-0.918,0-1.584-0.3-1.998-0.9
		c-0.414-0.601-0.621-1.434-0.621-2.499V101.379z"/>
	<path fill="#C40000" d="M101.094,97.894h2.499v9.401c0,0.261,0.048,0.441,0.145,0.544c0.096,0.102,0.195,0.153,0.297,0.153
		c0.057,0,0.105,0,0.145,0s0.094-0.012,0.162-0.034l0.306,1.853c-0.136,0.057-0.309,0.104-0.519,0.145
		c-0.21,0.04-0.457,0.06-0.74,0.06c-0.431,0-0.793-0.067-1.088-0.204c-0.295-0.136-0.53-0.325-0.706-0.569
		c-0.176-0.243-0.303-0.538-0.382-0.884c-0.08-0.346-0.119-0.733-0.119-1.165V97.894z"/>
	<path fill="#C40000" d="M106.415,111.103c0.102,0.022,0.198,0.034,0.289,0.034c0.419,0,0.742-0.102,0.969-0.306
		s0.397-0.471,0.51-0.799l0.119-0.442l-3.247-8.211h2.516l1.207,3.621c0.125,0.385,0.238,0.776,0.34,1.173s0.209,0.805,0.323,1.224
		h0.068c0.09-0.396,0.184-0.796,0.28-1.198s0.195-0.802,0.297-1.198l1.02-3.621h2.397l-2.924,8.517
		c-0.204,0.533-0.417,1-0.638,1.402c-0.221,0.402-0.476,0.737-0.765,1.004c-0.289,0.266-0.618,0.467-0.986,0.604
		c-0.368,0.136-0.802,0.203-1.3,0.203c-0.261,0-0.482-0.014-0.663-0.042s-0.357-0.071-0.527-0.128l0.442-1.903
		C106.222,111.058,106.312,111.08,106.415,111.103z"/>
	<path fill="#C40000" d="M117.872,108.383c0.691-0.646,1.323-1.25,1.896-1.811s1.065-1.088,1.479-1.581s0.737-0.952,0.969-1.377
		c0.232-0.425,0.348-0.83,0.348-1.216c0-0.532-0.136-0.938-0.408-1.215c-0.272-0.278-0.646-0.417-1.122-0.417
		c-0.397,0-0.748,0.11-1.054,0.332c-0.306,0.221-0.595,0.479-0.867,0.773l-1.36-1.344c0.533-0.566,1.077-0.994,1.632-1.283
		c0.555-0.289,1.218-0.434,1.989-0.434c0.533,0,1.017,0.083,1.454,0.247c0.436,0.164,0.813,0.396,1.13,0.696
		c0.317,0.301,0.561,0.661,0.731,1.08c0.17,0.419,0.255,0.89,0.255,1.411c0,0.453-0.097,0.915-0.289,1.385
		c-0.193,0.471-0.451,0.941-0.773,1.411c-0.323,0.471-0.691,0.941-1.105,1.411c-0.414,0.471-0.842,0.933-1.284,1.386
		c0.272-0.034,0.575-0.065,0.91-0.094c0.334-0.028,0.631-0.042,0.892-0.042h2.176v2.107h-7.599V108.383z"/>
	<path fill="#C40000" d="M130.707,110.015c-0.578,0-1.105-0.122-1.581-0.365c-0.476-0.244-0.881-0.604-1.216-1.08
		c-0.334-0.476-0.595-1.064-0.782-1.768c-0.187-0.702-0.281-1.513-0.281-2.431s0.094-1.723,0.281-2.414s0.447-1.272,0.782-1.743
		c0.334-0.47,0.74-0.821,1.216-1.054c0.476-0.232,1.003-0.349,1.581-0.349c0.578,0,1.105,0.116,1.581,0.349s0.881,0.584,1.216,1.054
		c0.334,0.471,0.595,1.052,0.782,1.743s0.281,1.496,0.281,2.414s-0.094,1.729-0.281,2.431c-0.187,0.703-0.448,1.292-0.782,1.768
		c-0.334,0.477-0.74,0.836-1.216,1.08C131.812,109.893,131.285,110.015,130.707,110.015z M130.707,108.077
		c0.215,0,0.414-0.054,0.595-0.162c0.181-0.107,0.34-0.303,0.476-0.586c0.136-0.283,0.241-0.663,0.314-1.14
		c0.074-0.476,0.11-1.082,0.11-1.818c0-0.737-0.037-1.341-0.11-1.811c-0.074-0.471-0.179-0.839-0.314-1.105
		c-0.136-0.266-0.295-0.45-0.476-0.553c-0.182-0.102-0.38-0.152-0.595-0.152c-0.204,0-0.396,0.051-0.578,0.152
		c-0.182,0.103-0.34,0.287-0.476,0.553c-0.136,0.267-0.244,0.635-0.323,1.105c-0.079,0.47-0.119,1.073-0.119,1.811
		c0,0.736,0.04,1.343,0.119,1.818c0.079,0.477,0.187,0.856,0.323,1.14c0.136,0.283,0.294,0.479,0.476,0.586
		C130.311,108.023,130.503,108.077,130.707,108.077z"/>
	<path fill="#C40000" d="M136.385,107.788h2.346v-6.239h-2.023v-1.547c0.589-0.113,1.088-0.249,1.496-0.408
		c0.408-0.158,0.805-0.352,1.19-0.578h1.836v8.772h2.023v2.022h-6.868V107.788z"/>
	<path fill="#C40000" d="M144.885,107.057c0-0.657,0.179-1.195,0.536-1.615c0.357-0.419,0.791-0.765,1.3-1.036v-0.068
		c-0.419-0.317-0.765-0.677-1.037-1.08c-0.272-0.401-0.408-0.892-0.408-1.47c0-0.453,0.085-0.864,0.255-1.232
		s0.408-0.683,0.714-0.944c0.306-0.26,0.671-0.459,1.096-0.595c0.425-0.136,0.887-0.204,1.386-0.204
		c0.487,0,0.935,0.071,1.343,0.213c0.408,0.142,0.753,0.34,1.037,0.595c0.283,0.255,0.504,0.567,0.663,0.936
		c0.159,0.368,0.238,0.773,0.238,1.215c0,0.521-0.142,0.983-0.425,1.386c-0.284,0.402-0.612,0.729-0.986,0.978v0.068
		c0.521,0.283,0.963,0.646,1.326,1.088c0.363,0.441,0.544,1.02,0.544,1.733c0,0.432-0.091,0.828-0.272,1.19
		s-0.439,0.677-0.773,0.943c-0.334,0.267-0.737,0.476-1.207,0.629s-0.995,0.229-1.572,0.229c-0.544,0-1.046-0.07-1.505-0.212
		s-0.855-0.343-1.19-0.604s-0.595-0.572-0.782-0.936C144.979,107.901,144.885,107.499,144.885,107.057z M147.027,106.768
		c0,0.477,0.164,0.848,0.493,1.113c0.329,0.267,0.719,0.4,1.173,0.4c0.419,0,0.765-0.111,1.037-0.332s0.408-0.558,0.408-1.012
		c0-0.237-0.054-0.441-0.161-0.611c-0.108-0.17-0.264-0.326-0.468-0.468s-0.445-0.274-0.722-0.399
		c-0.278-0.125-0.587-0.261-0.927-0.408c-0.238,0.227-0.437,0.487-0.595,0.782C147.106,106.128,147.027,106.439,147.027,106.768z
		 M149.322,103.521c0.442-0.51,0.663-1.037,0.663-1.581c0-0.419-0.116-0.756-0.349-1.011c-0.232-0.256-0.552-0.383-0.96-0.383
		c-0.329,0-0.612,0.102-0.85,0.306c-0.238,0.204-0.357,0.516-0.357,0.936c0,0.441,0.17,0.787,0.51,1.037
		C148.319,103.073,148.767,103.306,149.322,103.521z"/>
</g>
<circle fill="#C40000" cx="45.5" cy="102.634" r="7.927"/>
<g>
	<rect x="83.68" y="215.867" fill="none" width="105.232" height="18.122"/>
	<path fill="#B2B2B2" d="M89.495,227.988c-0.748,0-1.431-0.133-2.048-0.399c-0.618-0.266-1.147-0.649-1.59-1.147
		c-0.442-0.499-0.785-1.105-1.028-1.819s-0.365-1.524-0.365-2.431s0.122-1.714,0.365-2.423c0.244-0.708,0.586-1.303,1.028-1.785
		c0.442-0.482,0.972-0.85,1.59-1.105c0.618-0.255,1.3-0.383,2.048-0.383s1.431,0.127,2.048,0.383
		c0.618,0.255,1.147,0.626,1.59,1.113c0.442,0.487,0.785,1.085,1.028,1.793c0.244,0.708,0.366,1.51,0.366,2.406
		c0,0.907-0.122,1.717-0.366,2.431s-0.586,1.32-1.028,1.819c-0.442,0.499-0.972,0.881-1.59,1.147S90.243,227.988,89.495,227.988z
		 M89.495,225.829c0.759,0,1.36-0.326,1.802-0.978c0.442-0.651,0.663-1.539,0.663-2.66c0-1.111-0.221-1.978-0.663-2.601
		c-0.442-0.624-1.043-0.935-1.802-0.935s-1.36,0.312-1.802,0.935c-0.442,0.623-0.663,1.49-0.663,2.601
		c0,1.122,0.221,2.009,0.663,2.66C88.135,225.503,88.735,225.829,89.495,225.829z"/>
	<path fill="#B2B2B2" d="M95.92,223.568c0-0.703,0.119-1.329,0.357-1.879c0.238-0.549,0.558-1.011,0.96-1.385
		c0.402-0.374,0.87-0.66,1.402-0.858s1.088-0.298,1.666-0.298c0.521,0,0.992,0.088,1.411,0.264c0.419,0.176,0.771,0.411,1.054,0.706
		l-1.139,1.547c-0.397-0.329-0.788-0.493-1.173-0.493c-0.612,0-1.094,0.215-1.445,0.646c-0.352,0.431-0.527,1.014-0.527,1.751
		s0.178,1.32,0.535,1.751s0.808,0.646,1.352,0.646c0.306,0,0.583-0.062,0.833-0.187c0.249-0.125,0.476-0.266,0.68-0.425l1.003,1.581
		c-0.408,0.363-0.861,0.629-1.36,0.799c-0.499,0.17-0.98,0.255-1.445,0.255c-0.589,0-1.136-0.1-1.64-0.297
		c-0.505-0.198-0.944-0.485-1.318-0.859s-0.668-0.835-0.884-1.385S95.92,224.271,95.92,223.568z"/>
	<path fill="#B2B2B2" d="M104.692,221.307h-1.156v-1.853l1.292-0.102l0.289-2.244h2.074v2.244h2.023v1.955h-2.023v3.383
		c0,0.476,0.099,0.819,0.298,1.029c0.198,0.21,0.461,0.314,0.791,0.314c0.136,0,0.274-0.017,0.417-0.051
		c0.141-0.034,0.269-0.074,0.382-0.119l0.391,1.819c-0.227,0.068-0.493,0.136-0.799,0.204c-0.306,0.068-0.663,0.102-1.071,0.102
		c-0.521,0-0.966-0.08-1.334-0.238c-0.369-0.158-0.669-0.379-0.901-0.663c-0.232-0.283-0.403-0.626-0.51-1.029
		c-0.108-0.402-0.162-0.847-0.162-1.334V221.307z"/>
	<path fill="#B2B2B2" d="M110.2,223.568c0-0.703,0.113-1.329,0.34-1.879c0.227-0.549,0.529-1.011,0.909-1.385
		s0.819-0.66,1.318-0.858c0.499-0.198,1.014-0.298,1.547-0.298s1.045,0.1,1.539,0.298c0.493,0.198,0.929,0.484,1.309,0.858
		c0.379,0.374,0.683,0.836,0.909,1.385c0.227,0.55,0.34,1.176,0.34,1.879s-0.114,1.329-0.34,1.878s-0.53,1.011-0.909,1.385
		c-0.38,0.374-0.816,0.661-1.309,0.859c-0.493,0.198-1.006,0.297-1.539,0.297s-1.048-0.1-1.547-0.297
		c-0.499-0.198-0.938-0.485-1.318-0.859s-0.683-0.835-0.909-1.385C110.313,224.897,110.2,224.271,110.2,223.568z M112.768,223.568
		c0,0.737,0.127,1.32,0.382,1.751s0.643,0.646,1.165,0.646c0.51,0,0.895-0.215,1.156-0.646s0.391-1.014,0.391-1.751
		s-0.13-1.32-0.391-1.751s-0.646-0.646-1.156-0.646c-0.521,0-0.91,0.215-1.165,0.646S112.768,222.832,112.768,223.568z"/>
	<path fill="#B2B2B2" d="M120.128,215.867h2.499v2.924l-0.068,1.292c0.329-0.294,0.683-0.524,1.062-0.688
		c0.379-0.164,0.768-0.247,1.165-0.247c0.51,0,0.969,0.102,1.377,0.306c0.408,0.204,0.756,0.49,1.045,0.858
		c0.289,0.369,0.51,0.816,0.663,1.343c0.153,0.527,0.229,1.113,0.229,1.759c0,0.726-0.1,1.372-0.298,1.938
		c-0.198,0.567-0.465,1.045-0.799,1.437c-0.334,0.391-0.714,0.688-1.139,0.893c-0.425,0.204-0.864,0.306-1.317,0.306
		c-0.374,0-0.751-0.091-1.13-0.272c-0.38-0.181-0.734-0.453-1.062-0.816h-0.068l-0.204,0.884h-1.955V215.867z M122.627,225.404
		c0.227,0.204,0.453,0.346,0.68,0.425c0.227,0.08,0.447,0.119,0.663,0.119c0.431,0,0.799-0.196,1.105-0.586
		c0.306-0.391,0.459-1.023,0.459-1.896c0-1.519-0.488-2.278-1.462-2.278c-0.499,0-0.98,0.255-1.445,0.765V225.404z"/>
	<path fill="#B2B2B2" d="M129.376,223.568c0-0.68,0.113-1.295,0.34-1.845c0.227-0.549,0.524-1.014,0.893-1.394
		c0.368-0.379,0.79-0.671,1.266-0.875s0.969-0.306,1.479-0.306c0.601,0,1.125,0.102,1.573,0.306c0.447,0.204,0.821,0.487,1.122,0.85
		c0.3,0.363,0.524,0.791,0.671,1.284c0.147,0.493,0.221,1.028,0.221,1.606c0,0.227-0.011,0.433-0.034,0.62
		c-0.023,0.187-0.045,0.332-0.068,0.434h-5.049c0.113,0.646,0.366,1.114,0.757,1.403c0.391,0.289,0.87,0.433,1.437,0.433
		c0.6,0,1.207-0.187,1.819-0.561l0.833,1.513c-0.431,0.295-0.91,0.527-1.437,0.697c-0.527,0.17-1.045,0.255-1.556,0.255
		c-0.601,0-1.162-0.1-1.683-0.297c-0.521-0.198-0.975-0.487-1.36-0.867c-0.385-0.379-0.686-0.841-0.901-1.386
		C129.484,224.894,129.376,224.271,129.376,223.568z M134.816,222.701c0-0.487-0.107-0.884-0.323-1.19s-0.578-0.459-1.088-0.459
		c-0.397,0-0.746,0.133-1.045,0.399c-0.301,0.267-0.496,0.683-0.587,1.25H134.816z"/>
	<path fill="#B2B2B2" d="M138.675,219.352h2.04l0.17,1.479h0.068c0.306-0.578,0.674-1.003,1.105-1.275s0.861-0.408,1.292-0.408
		c0.238,0,0.434,0.015,0.587,0.043c0.153,0.028,0.292,0.071,0.417,0.127l-0.408,2.159c-0.159-0.045-0.306-0.079-0.442-0.102
		c-0.136-0.022-0.295-0.034-0.476-0.034c-0.317,0-0.649,0.113-0.995,0.34c-0.346,0.227-0.632,0.629-0.858,1.207v4.896h-2.499
		V219.352z"/>
	<path fill="#B2B2B2" d="M148.5,226.356c0.691-0.646,1.323-1.25,1.896-1.81c0.572-0.561,1.065-1.088,1.479-1.581
		c0.414-0.493,0.737-0.952,0.969-1.377c0.232-0.425,0.348-0.83,0.348-1.216c0-0.532-0.136-0.938-0.408-1.215
		s-0.646-0.417-1.122-0.417c-0.397,0-0.748,0.11-1.054,0.332c-0.306,0.221-0.595,0.479-0.867,0.773l-1.36-1.343
		c0.533-0.566,1.077-0.994,1.632-1.283c0.555-0.289,1.218-0.434,1.989-0.434c0.533,0,1.017,0.083,1.454,0.247
		c0.436,0.165,0.813,0.397,1.13,0.697c0.317,0.301,0.561,0.661,0.731,1.08c0.17,0.419,0.255,0.89,0.255,1.411
		c0,0.453-0.097,0.916-0.289,1.385c-0.193,0.471-0.451,0.941-0.773,1.411c-0.323,0.471-0.691,0.941-1.105,1.411
		c-0.414,0.47-0.842,0.932-1.284,1.385c0.272-0.034,0.575-0.065,0.91-0.093c0.334-0.028,0.631-0.042,0.892-0.042h2.176v2.108H148.5
		V226.356z"/>
	<path fill="#B2B2B2" d="M161.335,227.988c-0.578,0-1.105-0.122-1.581-0.366c-0.476-0.244-0.881-0.604-1.216-1.08
		c-0.334-0.476-0.595-1.065-0.782-1.768s-0.281-1.513-0.281-2.431s0.094-1.723,0.281-2.414c0.187-0.691,0.447-1.272,0.782-1.743
		c0.334-0.47,0.74-0.821,1.216-1.054c0.476-0.232,1.003-0.349,1.581-0.349c0.578,0,1.105,0.116,1.581,0.349s0.881,0.583,1.216,1.054
		c0.334,0.471,0.595,1.052,0.782,1.743c0.187,0.691,0.281,1.496,0.281,2.414s-0.094,1.729-0.281,2.431s-0.448,1.292-0.782,1.768
		c-0.334,0.476-0.74,0.836-1.216,1.08S161.914,227.988,161.335,227.988z M161.335,226.05c0.215,0,0.414-0.054,0.595-0.162
		c0.181-0.107,0.34-0.303,0.476-0.586c0.136-0.283,0.241-0.663,0.314-1.139s0.11-1.082,0.11-1.819s-0.037-1.34-0.11-1.811
		s-0.179-0.838-0.314-1.105c-0.136-0.266-0.295-0.451-0.476-0.553c-0.182-0.102-0.38-0.153-0.595-0.153
		c-0.204,0-0.396,0.051-0.578,0.153c-0.182,0.102-0.34,0.287-0.476,0.553c-0.136,0.267-0.244,0.635-0.323,1.105
		s-0.119,1.074-0.119,1.811s0.04,1.343,0.119,1.819s0.187,0.856,0.323,1.139c0.136,0.283,0.294,0.479,0.476,0.586
		C160.939,225.997,161.132,226.05,161.335,226.05z"/>
	<path fill="#B2B2B2" d="M167.014,225.761h2.346v-6.239h-2.023v-1.547c0.589-0.113,1.088-0.249,1.496-0.408
		c0.408-0.159,0.805-0.352,1.19-0.578h1.836v8.772h2.023v2.023h-6.868V225.761z"/>
	<path fill="#B2B2B2" d="M175.514,225.03c0-0.657,0.179-1.196,0.536-1.615c0.357-0.419,0.791-0.765,1.3-1.037v-0.068
		c-0.419-0.317-0.765-0.677-1.037-1.08c-0.272-0.402-0.408-0.892-0.408-1.47c0-0.453,0.085-0.864,0.255-1.232
		s0.408-0.683,0.714-0.944c0.306-0.26,0.671-0.459,1.096-0.595c0.425-0.136,0.887-0.204,1.386-0.204
		c0.487,0,0.935,0.071,1.343,0.212c0.408,0.142,0.753,0.34,1.037,0.595c0.283,0.255,0.504,0.567,0.663,0.935
		c0.159,0.368,0.238,0.773,0.238,1.215c0,0.521-0.142,0.983-0.425,1.386c-0.284,0.402-0.612,0.728-0.986,0.977v0.068
		c0.521,0.283,0.963,0.646,1.326,1.088s0.544,1.02,0.544,1.734c0,0.431-0.091,0.828-0.272,1.19
		c-0.181,0.363-0.439,0.677-0.773,0.944c-0.334,0.266-0.737,0.476-1.207,0.629c-0.47,0.153-0.995,0.229-1.572,0.229
		c-0.544,0-1.046-0.071-1.505-0.212s-0.855-0.343-1.19-0.604s-0.595-0.572-0.782-0.935S175.514,225.472,175.514,225.03z
		 M177.656,224.741c0,0.476,0.164,0.847,0.493,1.113c0.329,0.267,0.719,0.4,1.173,0.4c0.419,0,0.765-0.111,1.037-0.332
		c0.272-0.221,0.408-0.558,0.408-1.012c0-0.238-0.054-0.442-0.161-0.612c-0.108-0.17-0.264-0.326-0.468-0.468
		c-0.204-0.142-0.445-0.274-0.722-0.399c-0.278-0.125-0.587-0.261-0.927-0.408c-0.238,0.227-0.437,0.487-0.595,0.782
		C177.735,224.101,177.656,224.413,177.656,224.741z M179.951,221.494c0.442-0.51,0.663-1.037,0.663-1.581
		c0-0.419-0.116-0.756-0.349-1.011c-0.232-0.255-0.552-0.383-0.96-0.383c-0.329,0-0.612,0.102-0.85,0.306
		c-0.238,0.204-0.357,0.516-0.357,0.935c0,0.442,0.17,0.788,0.51,1.037C178.948,221.046,179.396,221.279,179.951,221.494z"/>
</g>
<circle fill="#B2B2B2" cx="45.5" cy="221.657" r="7.927"/>
<g>
	<rect x="84.522" y="334.946" fill="none" width="103.549" height="20.122"/>
	<path fill="#B2B2B2" d="M86.494,343.803c0.204,0.374,0.442,0.652,0.714,0.833c0.272,0.182,0.549,0.272,0.833,0.272
		c0.453,0,0.796-0.139,1.028-0.417c0.232-0.277,0.349-0.785,0.349-1.521v-7.191h2.499v7.395c0,0.533-0.071,1.037-0.212,1.513
		c-0.142,0.476-0.357,0.89-0.646,1.241c-0.289,0.352-0.658,0.629-1.105,0.833c-0.448,0.204-0.978,0.306-1.59,0.306
		c-0.85,0-1.561-0.165-2.133-0.493s-1.051-0.833-1.437-1.513L86.494,343.803z"/>
	<path fill="#B2B2B2" d="M93.974,344.517c0-0.884,0.374-1.575,1.122-2.074s1.955-0.833,3.621-1.003
		c-0.023-0.374-0.136-0.672-0.34-0.893c-0.204-0.221-0.533-0.332-0.986-0.332c-0.363,0-0.725,0.068-1.088,0.204
		c-0.363,0.136-0.748,0.323-1.156,0.561l-0.884-1.649c0.544-0.329,1.114-0.595,1.708-0.799c0.595-0.204,1.227-0.306,1.896-0.306
		c1.088,0,1.918,0.309,2.491,0.927c0.572,0.618,0.858,1.578,0.858,2.881v4.828h-2.04l-0.187-0.867h-0.051
		c-0.363,0.317-0.746,0.576-1.147,0.774c-0.403,0.198-0.842,0.297-1.318,0.297c-0.385,0-0.731-0.065-1.037-0.196
		c-0.306-0.13-0.567-0.312-0.782-0.544c-0.215-0.232-0.382-0.501-0.501-0.807C94.033,345.214,93.974,344.88,93.974,344.517z
		 M96.354,344.33c0,0.272,0.087,0.474,0.263,0.604c0.176,0.13,0.411,0.196,0.706,0.196c0.294,0,0.544-0.062,0.748-0.187
		s0.419-0.3,0.646-0.527v-1.479c-0.896,0.125-1.513,0.306-1.853,0.544C96.524,343.718,96.354,344.001,96.354,344.33z"/>
	<path fill="#B2B2B2" d="M103.358,338.431h2.04l0.17,1.071h0.068c0.363-0.34,0.759-0.638,1.19-0.893
		c0.43-0.255,0.935-0.383,1.513-0.383c0.918,0,1.583,0.301,1.998,0.901c0.414,0.601,0.621,1.434,0.621,2.499v5.236h-2.499v-4.913
		c0-0.612-0.083-1.031-0.247-1.258c-0.165-0.227-0.428-0.34-0.791-0.34c-0.317,0-0.589,0.071-0.816,0.213
		c-0.227,0.142-0.476,0.343-0.748,0.604v5.695h-2.499V338.431z"/>
	<path fill="#B2B2B2" d="M112.997,338.431h2.499v4.913c0,0.612,0.085,1.031,0.255,1.258c0.17,0.227,0.436,0.34,0.799,0.34
		c0.317,0,0.583-0.074,0.799-0.221c0.215-0.147,0.447-0.385,0.697-0.714v-5.576h2.499v8.432h-2.04l-0.187-1.173h-0.051
		c-0.363,0.431-0.751,0.768-1.165,1.011c-0.414,0.244-0.91,0.366-1.487,0.366c-0.918,0-1.584-0.3-1.998-0.901
		c-0.414-0.601-0.621-1.434-0.621-2.499V338.431z"/>
	<path fill="#B2B2B2" d="M122.431,344.517c0-0.884,0.374-1.575,1.122-2.074s1.955-0.833,3.621-1.003
		c-0.023-0.374-0.136-0.672-0.34-0.893c-0.204-0.221-0.533-0.332-0.986-0.332c-0.363,0-0.725,0.068-1.088,0.204
		c-0.363,0.136-0.748,0.323-1.156,0.561l-0.884-1.649c0.544-0.329,1.114-0.595,1.708-0.799c0.595-0.204,1.227-0.306,1.896-0.306
		c1.088,0,1.918,0.309,2.491,0.927c0.572,0.618,0.858,1.578,0.858,2.881v4.828h-2.04l-0.187-0.867h-0.051
		c-0.363,0.317-0.746,0.576-1.147,0.774c-0.403,0.198-0.842,0.297-1.318,0.297c-0.385,0-0.731-0.065-1.037-0.196
		c-0.306-0.13-0.567-0.312-0.782-0.544c-0.215-0.232-0.382-0.501-0.501-0.807C122.491,345.214,122.431,344.88,122.431,344.517z
		 M124.812,344.33c0,0.272,0.087,0.474,0.263,0.604c0.176,0.13,0.411,0.196,0.706,0.196c0.294,0,0.544-0.062,0.748-0.187
		s0.419-0.3,0.646-0.527v-1.479c-0.896,0.125-1.513,0.306-1.853,0.544C124.981,343.718,124.812,344.001,124.812,344.33z"/>
	<path fill="#B2B2B2" d="M131.815,338.431h2.04l0.17,1.479h0.068c0.306-0.578,0.674-1.003,1.105-1.275s0.861-0.408,1.292-0.408
		c0.238,0,0.434,0.015,0.587,0.043c0.153,0.028,0.292,0.071,0.417,0.127l-0.408,2.159c-0.159-0.045-0.306-0.079-0.442-0.102
		c-0.136-0.022-0.295-0.034-0.476-0.034c-0.317,0-0.649,0.113-0.995,0.34c-0.346,0.227-0.632,0.629-0.858,1.207v4.896h-2.499
		V338.431z"/>
	<path fill="#B2B2B2" d="M139.125,348.155c0.102,0.022,0.198,0.034,0.289,0.034c0.419,0,0.742-0.102,0.969-0.306
		s0.397-0.47,0.51-0.799l0.119-0.442l-3.247-8.211h2.516l1.207,3.621c0.125,0.385,0.238,0.776,0.34,1.173
		c0.102,0.397,0.209,0.805,0.323,1.224h0.068c0.09-0.396,0.184-0.796,0.28-1.198s0.195-0.802,0.297-1.199l1.02-3.621h2.397
		l-2.924,8.517c-0.204,0.533-0.417,1-0.638,1.402c-0.221,0.402-0.476,0.737-0.765,1.003c-0.289,0.266-0.618,0.467-0.986,0.604
		c-0.368,0.136-0.802,0.204-1.3,0.204c-0.261,0-0.482-0.014-0.663-0.042s-0.357-0.071-0.527-0.127l0.442-1.904
		C138.933,348.11,139.023,348.132,139.125,348.155z"/>
	<path fill="#B2B2B2" d="M150.583,345.435c0.691-0.646,1.323-1.25,1.896-1.81c0.572-0.561,1.065-1.088,1.479-1.581
		c0.414-0.493,0.737-0.952,0.969-1.377c0.232-0.425,0.348-0.83,0.348-1.216c0-0.532-0.136-0.938-0.408-1.215
		s-0.646-0.417-1.122-0.417c-0.397,0-0.748,0.11-1.054,0.332c-0.306,0.221-0.595,0.479-0.867,0.773l-1.36-1.343
		c0.533-0.566,1.077-0.994,1.632-1.283c0.555-0.289,1.218-0.434,1.989-0.434c0.533,0,1.017,0.083,1.454,0.247
		c0.436,0.165,0.813,0.397,1.13,0.697c0.317,0.301,0.561,0.661,0.731,1.08c0.17,0.419,0.255,0.89,0.255,1.411
		c0,0.453-0.097,0.916-0.289,1.385c-0.193,0.471-0.451,0.941-0.773,1.411c-0.323,0.471-0.691,0.941-1.105,1.411
		c-0.414,0.47-0.842,0.932-1.284,1.385c0.272-0.034,0.575-0.065,0.91-0.093c0.334-0.028,0.631-0.042,0.892-0.042h2.176v2.108h-7.599
		V345.435z"/>
	<path fill="#B2B2B2" d="M163.418,347.067c-0.578,0-1.105-0.122-1.581-0.366c-0.476-0.244-0.881-0.604-1.216-1.08
		c-0.334-0.476-0.595-1.065-0.782-1.768s-0.281-1.513-0.281-2.431s0.094-1.723,0.281-2.414c0.187-0.691,0.447-1.272,0.782-1.743
		c0.334-0.47,0.74-0.821,1.216-1.054c0.476-0.232,1.003-0.349,1.581-0.349c0.578,0,1.105,0.116,1.581,0.349s0.881,0.583,1.216,1.054
		c0.334,0.471,0.595,1.052,0.782,1.743c0.187,0.691,0.281,1.496,0.281,2.414s-0.094,1.729-0.281,2.431s-0.448,1.292-0.782,1.768
		c-0.334,0.476-0.74,0.836-1.216,1.08S163.996,347.067,163.418,347.067z M163.418,345.129c0.215,0,0.414-0.054,0.595-0.162
		c0.181-0.107,0.34-0.303,0.476-0.586c0.136-0.283,0.241-0.663,0.314-1.139s0.11-1.082,0.11-1.819s-0.037-1.34-0.11-1.811
		s-0.179-0.838-0.314-1.105c-0.136-0.266-0.295-0.451-0.476-0.553c-0.182-0.102-0.38-0.153-0.595-0.153
		c-0.204,0-0.396,0.051-0.578,0.153c-0.182,0.102-0.34,0.287-0.476,0.553c-0.136,0.267-0.244,0.635-0.323,1.105
		s-0.119,1.074-0.119,1.811s0.04,1.343,0.119,1.819s0.187,0.856,0.323,1.139c0.136,0.283,0.294,0.479,0.476,0.586
		C163.021,345.076,163.214,345.129,163.418,345.129z"/>
	<path fill="#B2B2B2" d="M169.096,344.84h2.346v-6.239h-2.023v-1.547c0.589-0.113,1.088-0.249,1.496-0.408
		c0.408-0.159,0.805-0.352,1.19-0.578h1.836v8.772h2.023v2.023h-6.868V344.84z"/>
	<path fill="#B2B2B2" d="M178.939,344.279c0.181,0.204,0.425,0.382,0.731,0.536c0.306,0.153,0.618,0.229,0.935,0.229
		c0.306,0,0.589-0.057,0.85-0.17c0.26-0.113,0.49-0.303,0.688-0.57c0.198-0.266,0.357-0.612,0.476-1.037
		c0.119-0.425,0.19-0.955,0.213-1.589c-0.136,0.182-0.295,0.343-0.476,0.484c-0.182,0.142-0.369,0.261-0.561,0.357
		c-0.193,0.096-0.386,0.17-0.578,0.221c-0.193,0.051-0.374,0.077-0.544,0.077c-0.465,0-0.893-0.068-1.284-0.204
		c-0.391-0.136-0.728-0.34-1.011-0.612c-0.284-0.272-0.507-0.618-0.671-1.037c-0.165-0.419-0.247-0.912-0.247-1.479
		c0-0.555,0.096-1.057,0.289-1.504c0.192-0.448,0.45-0.83,0.773-1.147c0.323-0.317,0.703-0.558,1.139-0.723
		c0.437-0.164,0.898-0.247,1.386-0.247c0.521,0,1.028,0.102,1.521,0.306s0.929,0.521,1.309,0.952
		c0.379,0.431,0.686,0.983,0.918,1.658c0.232,0.674,0.349,1.487,0.349,2.439c0,1.009-0.122,1.881-0.366,2.618
		s-0.567,1.343-0.969,1.819c-0.403,0.476-0.867,0.831-1.394,1.062c-0.527,0.232-1.074,0.349-1.641,0.349
		c-0.714,0-1.334-0.13-1.861-0.391c-0.527-0.261-0.961-0.561-1.301-0.901L178.939,344.279z M181.167,341.049
		c0.272,0,0.549-0.079,0.833-0.238c0.283-0.159,0.544-0.437,0.782-0.833c-0.113-0.85-0.326-1.437-0.637-1.76
		c-0.312-0.323-0.661-0.484-1.046-0.484c-0.363,0-0.68,0.139-0.952,0.417s-0.408,0.722-0.408,1.334c0,0.578,0.136,0.983,0.408,1.215
		C180.418,340.933,180.758,341.049,181.167,341.049z"/>
</g>
<circle fill="#B2B2B2" cx="45" cy="340.681" r="7.927"/>
<g>
	<rect x="86.098" y="452.71" fill="none" width="103.549" height="20.122"/>
	<path fill="#B2B2B2" d="M92.609,461.992h-3.383l-0.68,2.635h-2.55l3.468-11.084h3.009l3.468,11.084h-2.652L92.609,461.992z
		 M92.099,460.037l-0.255-1.02c-0.159-0.556-0.312-1.145-0.459-1.769c-0.147-0.623-0.295-1.224-0.442-1.802h-0.068
		c-0.136,0.589-0.275,1.192-0.417,1.811s-0.292,1.204-0.45,1.76l-0.272,1.02H92.099z"/>
	<path fill="#B2B2B2" d="M99.443,465.29v2.465h-2.499v-11.56h2.04l0.17,0.833h0.068c0.329-0.295,0.7-0.541,1.114-0.739
		c0.414-0.198,0.841-0.298,1.283-0.298c0.51,0,0.969,0.102,1.377,0.306c0.408,0.204,0.753,0.493,1.037,0.867
		s0.501,0.824,0.655,1.352c0.153,0.527,0.229,1.113,0.229,1.76c0,0.726-0.1,1.368-0.298,1.93c-0.198,0.561-0.465,1.036-0.799,1.428
		c-0.334,0.391-0.714,0.688-1.139,0.893c-0.425,0.204-0.864,0.306-1.317,0.306c-0.363,0-0.714-0.076-1.054-0.229
		c-0.34-0.153-0.658-0.371-0.952-0.654L99.443,465.29z M99.443,462.247c0.227,0.204,0.453,0.346,0.68,0.425
		c0.227,0.08,0.447,0.119,0.663,0.119c0.431,0,0.799-0.195,1.105-0.586c0.306-0.392,0.459-1.023,0.459-1.896
		c0-1.519-0.488-2.278-1.462-2.278c-0.487,0-0.969,0.255-1.445,0.765V462.247z"/>
	<path fill="#B2B2B2" d="M106.685,456.195h2.04l0.17,1.479h0.068c0.306-0.577,0.674-1.003,1.105-1.274
		c0.431-0.272,0.861-0.408,1.292-0.408c0.238,0,0.434,0.015,0.587,0.043c0.153,0.028,0.292,0.07,0.417,0.127l-0.408,2.159
		c-0.159-0.045-0.306-0.079-0.442-0.103c-0.136-0.022-0.295-0.033-0.476-0.033c-0.317,0-0.649,0.113-0.995,0.34
		s-0.632,0.629-0.858,1.207v4.896h-2.499V456.195z"/>
	<path fill="#B2B2B2" d="M114.692,454.954c-0.419,0-0.765-0.121-1.037-0.365s-0.408-0.559-0.408-0.943
		c0-0.386,0.136-0.697,0.408-0.936c0.272-0.237,0.618-0.356,1.037-0.356c0.43,0,0.779,0.119,1.045,0.356
		c0.266,0.238,0.399,0.55,0.399,0.936c0,0.385-0.133,0.699-0.399,0.943C115.471,454.833,115.123,454.954,114.692,454.954z
		 M113.451,456.195h2.499v8.432h-2.499V456.195z"/>
	<path fill="#B2B2B2" d="M118.143,452.71h2.499v9.401c0,0.261,0.048,0.441,0.145,0.544c0.096,0.102,0.195,0.153,0.297,0.153
		c0.057,0,0.105,0,0.145,0s0.094-0.012,0.162-0.034l0.306,1.853c-0.136,0.057-0.309,0.104-0.519,0.145
		c-0.21,0.04-0.457,0.06-0.74,0.06c-0.431,0-0.793-0.067-1.088-0.204c-0.295-0.136-0.53-0.325-0.706-0.569
		c-0.176-0.243-0.303-0.538-0.382-0.884c-0.08-0.346-0.119-0.733-0.119-1.165V452.71z"/>
	<path fill="#B2B2B2" d="M126.064,463.199c0.691-0.646,1.323-1.25,1.896-1.811s1.065-1.088,1.479-1.581s0.737-0.952,0.969-1.377
		c0.232-0.425,0.348-0.83,0.348-1.216c0-0.532-0.136-0.938-0.408-1.215c-0.272-0.278-0.646-0.417-1.122-0.417
		c-0.397,0-0.748,0.11-1.054,0.332c-0.306,0.221-0.595,0.479-0.867,0.773l-1.36-1.344c0.533-0.566,1.077-0.994,1.632-1.283
		c0.555-0.289,1.218-0.434,1.989-0.434c0.533,0,1.017,0.083,1.454,0.247c0.436,0.164,0.813,0.396,1.13,0.696
		c0.317,0.301,0.561,0.661,0.731,1.08c0.17,0.419,0.255,0.89,0.255,1.411c0,0.453-0.097,0.915-0.289,1.385
		c-0.193,0.471-0.451,0.941-0.773,1.411c-0.323,0.471-0.691,0.941-1.105,1.411c-0.414,0.471-0.842,0.933-1.284,1.386
		c0.272-0.034,0.575-0.065,0.91-0.094c0.334-0.028,0.631-0.042,0.892-0.042h2.176v2.107h-7.599V463.199z"/>
	<path fill="#B2B2B2" d="M138.899,464.831c-0.578,0-1.105-0.122-1.581-0.365c-0.476-0.244-0.881-0.604-1.216-1.08
		c-0.334-0.476-0.595-1.064-0.782-1.768c-0.187-0.702-0.281-1.513-0.281-2.431s0.094-1.723,0.281-2.414s0.447-1.272,0.782-1.743
		c0.334-0.47,0.74-0.821,1.216-1.054c0.476-0.232,1.003-0.349,1.581-0.349c0.578,0,1.105,0.116,1.581,0.349s0.881,0.584,1.216,1.054
		c0.334,0.471,0.595,1.052,0.782,1.743s0.281,1.496,0.281,2.414s-0.094,1.729-0.281,2.431c-0.187,0.703-0.448,1.292-0.782,1.768
		c-0.334,0.477-0.74,0.836-1.216,1.08C140.004,464.709,139.478,464.831,138.899,464.831z M138.899,462.894
		c0.215,0,0.414-0.054,0.595-0.162c0.181-0.107,0.34-0.303,0.476-0.586c0.136-0.283,0.241-0.663,0.314-1.14
		c0.074-0.476,0.11-1.082,0.11-1.818c0-0.737-0.037-1.341-0.11-1.811c-0.074-0.471-0.179-0.839-0.314-1.105
		c-0.136-0.266-0.295-0.45-0.476-0.553c-0.182-0.102-0.38-0.152-0.595-0.152c-0.204,0-0.396,0.051-0.578,0.152
		c-0.182,0.103-0.34,0.287-0.476,0.553c-0.136,0.267-0.244,0.635-0.323,1.105c-0.079,0.47-0.119,1.073-0.119,1.811
		c0,0.736,0.04,1.343,0.119,1.818c0.079,0.477,0.187,0.856,0.323,1.14c0.136,0.283,0.294,0.479,0.476,0.586
		C138.503,462.84,138.696,462.894,138.899,462.894z"/>
	<path fill="#B2B2B2" d="M144.578,462.604h2.346v-6.239h-2.023v-1.547c0.589-0.113,1.088-0.249,1.496-0.408
		c0.408-0.158,0.805-0.352,1.19-0.578h1.836v8.772h2.023v2.022h-6.868V462.604z"/>
	<path fill="#B2B2B2" d="M154.421,462.043c0.181,0.204,0.425,0.383,0.731,0.536c0.306,0.152,0.618,0.229,0.935,0.229
		c0.306,0,0.589-0.057,0.85-0.17c0.26-0.113,0.49-0.304,0.688-0.57c0.198-0.266,0.357-0.611,0.476-1.037
		c0.119-0.425,0.19-0.954,0.213-1.589c-0.136,0.182-0.295,0.343-0.476,0.484c-0.182,0.142-0.369,0.261-0.561,0.357
		c-0.193,0.096-0.386,0.17-0.578,0.221c-0.193,0.051-0.374,0.076-0.544,0.076c-0.465,0-0.893-0.067-1.284-0.204
		c-0.391-0.136-0.728-0.34-1.011-0.611c-0.284-0.272-0.507-0.618-0.671-1.037c-0.165-0.42-0.247-0.912-0.247-1.479
		c0-0.555,0.096-1.057,0.289-1.504c0.192-0.448,0.45-0.83,0.773-1.147c0.323-0.317,0.703-0.559,1.139-0.723
		c0.437-0.164,0.898-0.247,1.386-0.247c0.521,0,1.028,0.103,1.521,0.307s0.929,0.521,1.309,0.951
		c0.379,0.432,0.686,0.983,0.918,1.658c0.232,0.674,0.349,1.487,0.349,2.439c0,1.009-0.122,1.881-0.366,2.618
		c-0.244,0.736-0.567,1.343-0.969,1.818c-0.403,0.477-0.867,0.831-1.394,1.062c-0.527,0.232-1.074,0.349-1.641,0.349
		c-0.714,0-1.334-0.13-1.861-0.391c-0.527-0.261-0.961-0.562-1.301-0.901L154.421,462.043z M156.648,458.813
		c0.272,0,0.549-0.079,0.833-0.238c0.283-0.158,0.544-0.437,0.782-0.833c-0.113-0.85-0.326-1.437-0.637-1.76
		c-0.312-0.322-0.661-0.484-1.046-0.484c-0.363,0-0.68,0.139-0.952,0.417c-0.272,0.277-0.408,0.722-0.408,1.334
		c0,0.578,0.136,0.983,0.408,1.216S156.24,458.813,156.648,458.813z"/>
</g>
<circle fill="#B2B2B2" cx="45" cy="459.704" r="7.927"/>
<g>
</g>
<g>
</g>
<g>
</g>
<g>
</g>
<g>
</g>
<g>
</g>
<g>
</g>
<g>
</g>
<g>
</g>
<g>
</g>
<g>
</g>
<g>
</g>
<g>
</g>
<g>
</g>
<g>
</g>
</svg>
