<?xml version="1.0" encoding="utf-8"?>
<!-- Generator: Adobe Illustrator 24.0.1, SVG Export Plug-In . SVG Version: 6.00 Build 0)  -->
<svg version="1.1" id="Layer_1" xmlns="http://www.w3.org/2000/svg" xmlns:xlink="http://www.w3.org/1999/xlink" x="0px" y="0px"
	 viewBox="0 0 287.026 508.475" enable-background="new 0 0 287.026 508.475" xml:space="preserve">
<rect x="-10.41" y="-43.853" fill="#112E51" width="430.769" height="834.615"/>
<line fill="none" stroke="#FFFFFF" stroke-width="4" stroke-miterlimit="10" x1="45" y1="-0.109" x2="45" y2="508.891"/>
<g>
	<g>
		<defs>
			<rect id="SVGID_1_" x="76.297" y="57.625" width="41.6" height="33.8"/>
		</defs>
		<clipPath id="SVGID_2_">
			<use xlink:href="#SVGID_1_"  overflow="visible"/>
		</clipPath>
		<rect x="76.297" y="57.625" clip-path="url(#SVGID_2_)" fill="#FFFFFF" fill-opacity="0" width="41.6" height="33.8"/>
	</g>
	<g>
		<defs>
			<rect id="SVGID_3_" x="76.297" y="57.625" width="41.6" height="33.8"/>
		</defs>
		<clipPath id="SVGID_4_">
			<use xlink:href="#SVGID_3_"  overflow="visible"/>
		</clipPath>
		<path clip-path="url(#SVGID_4_)" fill="#FFFFFF" d="M79.133,76.402c-1.568,0-2.837,1.264-2.837,2.818
			c0,1.555,1.269,2.816,2.837,2.816c1.565,0,2.834-1.261,2.834-2.816C81.967,77.666,80.699,76.402,79.133,76.402 M79.133,67.014
			c-1.568,0-2.837,1.264-2.837,2.816c0,1.555,1.269,2.816,2.837,2.816c1.565,0,2.834-1.261,2.834-2.816
			C81.967,68.277,80.699,67.014,79.133,67.014 M79.133,85.791c-1.568,0-2.837,1.261-2.837,2.818c0,1.555,1.269,2.816,2.837,2.816
			c1.565,0,2.834-1.261,2.834-2.816C81.967,87.052,80.699,85.791,79.133,85.791 M86.697,61.379h30.254
			c0.523,0,0.946-0.419,0.946-0.939c0-0.517-0.424-0.939-0.946-0.939H86.697c-0.523,0-0.946,0.421-0.946,0.939
			C85.75,60.961,86.174,61.379,86.697,61.379 M116.95,87.671H86.697c-0.523,0-0.946,0.421-0.946,0.939
			c0,0.52,0.424,0.939,0.946,0.939h30.254c0.523,0,0.946-0.419,0.946-0.939S117.473,87.671,116.95,87.671 M79.133,57.625
			c-1.568,0-2.837,1.264-2.837,2.816c0,1.555,1.269,2.816,2.837,2.816c1.565,0,2.834-1.261,2.834-2.816
			C81.967,58.889,80.699,57.625,79.133,57.625 M116.95,68.891H86.697c-0.523,0-0.946,0.421-0.946,0.939
			c0,0.52,0.424,0.941,0.946,0.941h30.254c0.523,0,0.946-0.421,0.946-0.941C117.897,69.312,117.473,68.891,116.95,68.891
			 M116.95,78.279H86.697c-0.523,0-0.946,0.421-0.946,0.939c0,0.52,0.424,0.939,0.946,0.939h30.254
			c0.523,0.003,0.946-0.419,0.946-0.936C117.897,78.701,117.473,78.279,116.95,78.279"/>
	</g>
</g>
<g>
	<g>
		<defs>
			<rect id="SVGID_5_" x="80.197" y="172.748" width="33.8" height="41.6"/>
		</defs>
		<clipPath id="SVGID_6_">
			<use xlink:href="#SVGID_5_"  overflow="visible"/>
		</clipPath>
		<rect x="80.197" y="172.748" clip-path="url(#SVGID_6_)" fill="#FFFFFF" fill-opacity="0" width="33.8" height="41.6"/>
	</g>
	<g>
		<defs>
			<rect id="SVGID_7_" x="80.197" y="172.748" width="33.8" height="41.6"/>
		</defs>
		<clipPath id="SVGID_8_">
			<use xlink:href="#SVGID_7_"  overflow="visible"/>
		</clipPath>
		<path clip-path="url(#SVGID_8_)" fill="#FFFFFF" d="M98.035,201.112H86.77c-0.52,0-0.939,0.424-0.939,0.946
			s0.419,0.946,0.939,0.946h11.266c0.52,0,0.939-0.421,0.939-0.946C98.974,201.536,98.555,201.112,98.035,201.112 M94.281,206.785
			H86.77c-0.52,0-0.939,0.424-0.939,0.946s0.419,0.946,0.939,0.946h7.511c0.52,0,0.939-0.424,0.939-0.946
			S94.798,206.785,94.281,206.785 M86.77,191.658h3.754c0.52,0,0.939-0.421,0.939-0.946c0-0.523-0.419-0.946-0.939-0.946H86.77
			c-0.52,0-0.939,0.424-0.939,0.946S86.25,191.658,86.77,191.658 M85.831,196.385c0,0.523,0.419,0.946,0.939,0.946h11.266
			c0.52,0,0.939-0.424,0.939-0.946s-0.419-0.946-0.939-0.946H86.77C86.25,195.439,85.831,195.862,85.831,196.385 M107.424,172.748
			H93.342c-2.075,0-3.757,1.693-3.757,3.783v2.834c0,0.523,0.419,0.946,0.939,0.946c0.52,0,0.939-0.421,0.939-0.946v-2.834
			c0-1.043,0.842-1.89,1.877-1.89h11.266v5.671c0,1.043,0.842,1.89,1.877,1.89h5.634v18.91c0,1.043-0.842,1.89-1.877,1.89h-2.816
			c-0.52,0-0.939,0.424-0.939,0.946s0.419,0.946,0.939,0.946h2.816c2.072,0,3.754-1.693,3.754-3.783v-20.8L107.424,172.748z
			 M106.485,180.312v-5.525l4.896,5.525H106.485z M83.951,182.202c-2.072,0-3.754,1.693-3.754,3.783v24.58
			c0,2.09,1.682,3.783,3.754,3.783h16.9c2.072,0,3.754-1.693,3.754-3.783v-20.8l-6.57-7.563H83.951z M102.731,210.565
			c0,1.045-0.842,1.89-1.877,1.89h-16.9c-1.035,0-1.877-0.845-1.877-1.89v-24.58c0-1.043,0.842-1.89,1.877-1.89H95.22v5.671
			c0,1.043,0.842,1.89,1.877,1.89h5.634V210.565z M97.097,189.765v-5.525l4.896,5.525H97.097z"/>
	</g>
</g>
<g>
	<path fill="#FFFFFF" d="M110.242,291.772H83.951c-2.072,0-3.754,1.693-3.754,3.783v34.034c0,2.088,1.682,3.783,3.754,3.783h26.289
		c2.075,0,3.757-1.695,3.757-3.783v-34.034C113.997,293.464,112.315,291.772,110.242,291.772 M102.731,293.662h3.754v6.617
		l-1.877-1.89l-1.877,1.893V293.662z M87.708,331.479h-3.757c-1.035,0-1.877-0.845-1.877-1.89v-34.034
		c0-1.043,0.842-1.89,1.877-1.89h3.754v37.814H87.708z M112.12,329.589c0,1.043-0.842,1.89-1.877,1.89H89.585v-37.817h11.266v11.344
		l3.754-3.78l3.754,3.78v-11.344h1.877c1.035,0,1.877,0.848,1.877,1.89v34.037H112.12z"/>
</g>
<g>
	<g>
		<defs>
			<rect id="SVGID_9_" x="76.297" y="410.795" width="41.6" height="41.6"/>
		</defs>
		<clipPath id="SVGID_10_">
			<use xlink:href="#SVGID_9_"  overflow="visible"/>
		</clipPath>
		<rect x="76.297" y="410.795" clip-path="url(#SVGID_10_)" fill="#FFFFFF" fill-opacity="0" width="41.6" height="41.6"/>
	</g>
	<g>
		<defs>
			<rect id="SVGID_11_" x="76.297" y="410.795" width="41.6" height="41.6"/>
		</defs>
		<clipPath id="SVGID_12_">
			<use xlink:href="#SVGID_11_"  overflow="visible"/>
		</clipPath>
		<path clip-path="url(#SVGID_12_)" fill="#FFFFFF" d="M99.933,427.812h9.454c0.523,0,0.946-0.421,0.946-0.946
			c0-0.52-0.424-0.944-0.946-0.944h-9.454c-0.523,0-0.946,0.424-0.946,0.944C98.987,427.391,99.411,427.812,99.933,427.812
			 M99.933,424.032h5.671c0.523,0,0.946-0.424,0.946-0.946c0-0.523-0.424-0.946-0.946-0.946h-5.671
			c-0.523,0-0.946,0.424-0.946,0.946C98.987,423.608,99.411,424.032,99.933,424.032 M99.933,431.595h3.78
			c0.523,0,0.946-0.424,0.946-0.946c0-0.523-0.424-0.946-0.946-0.946h-3.78c-0.523,0-0.946,0.424-0.946,0.946
			C98.987,431.171,99.411,431.595,99.933,431.595 M85.75,435.378h7.563c1.043,0,1.89-0.845,1.89-1.89v-9.456
			c0-1.043-0.848-1.89-1.89-1.89H85.75c-1.043,0-1.89,0.848-1.89,1.89v9.454C83.86,434.533,84.708,435.378,85.75,435.378
			 M85.75,424.032h7.563v9.454H85.75V424.032z M99.933,435.378h9.454c0.523,0,0.946-0.424,0.946-0.946
			c0-0.523-0.424-0.946-0.946-0.946h-9.454c-0.523,0-0.946,0.424-0.946,0.946C98.987,434.954,99.411,435.378,99.933,435.378
			 M116.007,412.685h-17.02c0-1.043-0.848-1.89-1.89-1.89c-1.043,0-1.89,0.848-1.89,1.89h-17.02c-1.043,0-1.89,0.848-1.89,1.893
			v1.89c0,1.045,0.848,1.89,1.89,1.89v22.69c0,1.045,0.848,1.89,1.89,1.89h16.071v2.444l-5.398,5.398
			c-0.169,0.172-0.276,0.408-0.276,0.668c0.005,0.523,0.429,0.946,0.952,0.946c0.26,0,0.497-0.107,0.668-0.278l5.002-5.002
			l5.002,5.002c0.172,0.172,0.408,0.278,0.668,0.278c0.523,0,0.946-0.424,0.946-0.946c0-0.26-0.107-0.497-0.276-0.668l-5.398-5.398
			v-2.444h16.071c1.043,0,1.89-0.845,1.89-1.89v-22.69c1.048,0,1.895-0.845,1.895-1.893v-1.888
			C117.897,413.533,117.049,412.685,116.007,412.685 M114.114,441.049H80.08v-22.69h34.034V441.049z M116.007,416.466h-37.82v-1.888
			h37.817v1.888H116.007z"/>
	</g>
</g>
<circle fill="#B2B2B2" cx="45.25" cy="74.525" r="7.927"/>
<circle fill="#B2B2B2" cx="45.25" cy="193.548" r="7.927"/>
<circle fill="#B2B2B2" cx="45.25" cy="312.572" r="7.927"/>
<circle fill="#C40000" cx="45.25" cy="431.595" r="7.927"/>
<g>
	<rect x="136.296" y="58.031" fill="none" width="79.268" height="20.122"/>
	<path fill="#B2B2B2" d="M136.602,68.044l1.666-1.139c0.306,0.595,0.867,0.935,1.462,0.935c0.952,0,1.428-0.459,1.428-1.972v-7.021
		h2.635v7.241c0,2.21-1.19,4.029-3.791,4.029C138.421,70.118,137.316,69.472,136.602,68.044z"/>
	<path fill="#B2B2B2" d="M145.986,66.701v-5.235h2.635v4.896c0,1.173,0.306,1.513,0.986,1.513c0.595,0,0.952-0.238,1.411-0.867
		v-5.542h2.635v8.448h-2.142l-0.187-1.156h-0.068c-0.697,0.833-1.496,1.36-2.635,1.36C146.768,70.118,145.986,68.809,145.986,66.701
		z"/>
	<path fill="#B2B2B2" d="M155.794,67.177v-9.145h2.618v9.247c0,0.544,0.272,0.714,0.476,0.714c0.102,0,0.17,0,0.306-0.034
		l0.306,1.938c-0.289,0.119-0.731,0.221-1.309,0.221C156.39,70.118,155.794,68.945,155.794,67.177z"/>
	<path fill="#B2B2B2" d="M160.537,72.973l0.459-1.938c0.272,0.068,0.391,0.085,0.561,0.085c0.816,0,1.224-0.425,1.428-1.037
		l0.119-0.408l-3.247-8.21h2.635l1.156,3.502c0.238,0.782,0.425,1.563,0.646,2.396h0.068c0.187-0.799,0.357-1.598,0.578-2.396
		l0.969-3.502h2.516l-2.907,8.465c-0.833,2.176-1.734,3.247-3.756,3.247C161.217,73.178,160.877,73.11,160.537,72.973z"/>
	<path fill="#B2B2B2" d="M172.658,68.299c2.652-2.346,4.624-4.267,4.624-5.763c0-1.02-0.561-1.547-1.462-1.547
		c-0.748,0-1.343,0.51-1.87,1.071l-1.36-1.36c1.054-1.19,2.057-1.785,3.586-1.785c2.142,0,3.621,1.377,3.621,3.451
		c0,1.938-1.768,3.689-3.586,5.457c0.561-0.051,1.309-0.119,1.802-0.119h2.312v2.21h-7.666V68.299z"/>
	<path fill="#B2B2B2" d="M181.685,64.474c0-3.688,1.564-5.559,3.91-5.559s3.91,1.887,3.91,5.559c0,3.671-1.564,5.644-3.91,5.644
		S181.685,68.146,181.685,64.474z M187.022,64.474c0-2.924-0.646-3.519-1.428-3.519c-0.799,0-1.428,0.595-1.428,3.519
		c0,2.907,0.629,3.621,1.428,3.621C186.377,68.095,187.022,67.381,187.022,64.474z"/>
	<path fill="#B2B2B2" d="M191.273,67.789h2.346v-6.034h-2.022v-1.632c1.173-0.221,1.955-0.51,2.72-1.003h1.938v8.669h2.006v2.125
		h-6.986V67.789z"/>
	<path fill="#B2B2B2" d="M199.875,67.16c0-1.292,0.799-2.074,1.819-2.618v-0.068c-0.851-0.629-1.445-1.428-1.445-2.55
		c0-1.853,1.462-3.009,3.502-3.009c1.988,0,3.314,1.173,3.314,2.975c0,1.02-0.663,1.835-1.411,2.329v0.068
		c1.037,0.561,1.87,1.394,1.87,2.822c0,1.717-1.547,3.009-3.858,3.009C201.49,70.118,199.875,68.911,199.875,67.16z M205.077,67.024
		c0-0.901-0.867-1.241-2.193-1.802c-0.425,0.408-0.748,1.003-0.748,1.632c0,0.918,0.731,1.445,1.581,1.445
		C204.481,68.299,205.077,67.908,205.077,67.024z M204.924,62.077c0-0.816-0.459-1.343-1.241-1.343c-0.611,0-1.122,0.391-1.122,1.19
		c0,0.833,0.697,1.241,1.769,1.666C204.72,63.097,204.924,62.605,204.924,62.077z"/>
</g>
<g>
	<rect x="136.296" y="80.153" fill="none" width="129.256" height="51.11"/>
	<path fill="#02BFE7" d="M138.423,83.308c0.406,0,0.753,0.144,1.04,0.431s0.431,0.634,0.431,1.04s-0.144,0.753-0.431,1.04
		s-0.634,0.431-1.04,0.431s-0.753-0.144-1.04-0.431s-0.431-0.634-0.431-1.04s0.143-0.753,0.428-1.04S138.013,83.308,138.423,83.308z
		 M138.423,83.753c-0.285,0-0.527,0.101-0.727,0.302s-0.299,0.442-0.299,0.724c0,0.285,0.101,0.527,0.302,0.727
		s0.442,0.299,0.724,0.299s0.522-0.1,0.724-0.299s0.302-0.441,0.302-0.727c0-0.281-0.1-0.522-0.299-0.724
		S138.708,83.753,138.423,83.753z"/>
	<path fill="#02BFE7" d="M145.875,80.878h1.487c2.135,0,3.334,1.139,3.334,3.106c0,2.806-1.643,4.761-4.257,4.761h-2.135
		L145.875,80.878z M146.439,87.978c1.991,0,3.298-1.643,3.298-3.934c0-1.523-0.876-2.399-2.411-2.399h-0.671l-1.259,6.333H146.439z"
		/>
	<path fill="#02BFE7" d="M152.547,82.917h0.768l-0.144,1.115h0.048c0.468-0.708,1.08-1.259,1.799-1.259
		c0.216,0,0.408,0.036,0.563,0.108l-0.324,0.804c-0.132-0.06-0.3-0.072-0.504-0.072c-0.587,0-1.223,0.504-1.727,1.463l-0.72,3.67
		h-0.924L152.547,82.917z"/>
	<path fill="#02BFE7" d="M155.464,86.779c0-2.243,1.535-4.006,3.154-4.006c0.624,0,1.127,0.348,1.403,0.875h0.048l0.228-0.731h0.755
		l-1.175,5.829h-0.755l0.083-0.863h-0.036c-0.576,0.6-1.295,1.007-2.027,1.007C156.124,88.889,155.464,88.146,155.464,86.779z
		 M159.302,87.006l0.54-2.603c-0.335-0.611-0.744-0.852-1.187-0.852c-1.164,0-2.231,1.476-2.231,3.083
		c0,1.007,0.408,1.475,1.055,1.475C158.09,88.11,158.738,87.762,159.302,87.006z"/>
	<path fill="#02BFE7" d="M162.975,83.66h-0.755l0.132-0.684l0.779-0.06l0.192-0.972c0.24-1.164,0.864-1.883,1.847-1.883
		c0.42,0,0.768,0.12,1.043,0.288l-0.312,0.648c-0.168-0.108-0.384-0.18-0.671-0.18c-0.516,0-0.852,0.432-0.983,1.104l-0.204,0.996
		h2.003l0.492-1.859h0.78l-0.372,1.859h1.475l-0.144,0.744h-1.5l-0.684,3.322c-0.024,0.144-0.036,0.288-0.036,0.432
		c0,0.479,0.204,0.719,0.719,0.719c0.252,0,0.456-0.084,0.636-0.168l0.204,0.648c-0.264,0.132-0.672,0.276-1.116,0.276
		c-1.007,0-1.391-0.576-1.391-1.308c0-0.228,0.024-0.419,0.072-0.635l0.672-3.286h-1.955l-1.02,5.085h-0.923L162.975,83.66z"/>
	<path fill="#02BFE7" d="M172.586,80.878h2.219c1.487,0,2.471,0.552,2.471,1.919c0,1.931-1.427,2.794-3.442,2.794h-1.259
		l-0.624,3.154h-0.936L172.586,80.878z M173.882,84.824c1.607,0,2.471-0.647,2.471-1.907c0-0.9-0.624-1.284-1.775-1.284h-1.211
		l-0.624,3.19H173.882z"/>
	<path fill="#02BFE7" d="M178.743,82.917h0.768l-0.144,1.115h0.048c0.468-0.708,1.08-1.259,1.799-1.259
		c0.216,0,0.408,0.036,0.563,0.108l-0.324,0.804c-0.132-0.06-0.3-0.072-0.504-0.072c-0.587,0-1.223,0.504-1.727,1.463l-0.72,3.67
		h-0.924L178.743,82.917z"/>
	<path fill="#02BFE7" d="M182.847,82.917h0.923l-1.163,5.829h-0.924L182.847,82.917z M183.015,81.165
		c0-0.396,0.324-0.695,0.695-0.695c0.312,0,0.588,0.204,0.588,0.552c0,0.396-0.324,0.684-0.696,0.684
		C183.291,81.705,183.015,81.514,183.015,81.165z"/>
	<path fill="#02BFE7" d="M185.69,82.917h0.768l-0.096,0.875h0.048c0.624-0.576,1.307-1.02,2.027-1.02
		c0.983,0,1.391,0.552,1.391,1.451c0,0.276-0.036,0.479-0.096,0.804l-0.744,3.718h-0.936l0.731-3.598
		c0.06-0.312,0.096-0.479,0.096-0.684c0-0.587-0.264-0.887-0.864-0.887c-0.456,0-1.02,0.324-1.751,1.043l-0.815,4.126h-0.924
		L185.69,82.917z"/>
	<path fill="#02BFE7" d="M190.911,86.551c0-2.171,1.559-3.778,3.25-3.778c0.708,0,1.211,0.312,1.511,0.708l-0.528,0.528
		c-0.276-0.324-0.563-0.468-1.043-0.468c-1.163,0-2.243,1.355-2.243,2.95c0,1.056,0.456,1.631,1.379,1.631
		c0.479,0,0.971-0.24,1.295-0.504l0.396,0.576c-0.408,0.336-1.043,0.696-1.871,0.696C191.787,88.889,190.911,88.038,190.911,86.551z
		"/>
	<path fill="#02BFE7" d="M197.223,82.917h0.923l-1.163,5.829h-0.924L197.223,82.917z M197.391,81.165
		c0-0.396,0.324-0.695,0.695-0.695c0.312,0,0.588,0.204,0.588,0.552c0,0.396-0.324,0.684-0.696,0.684
		C197.667,81.705,197.391,81.514,197.391,81.165z"/>
	<path fill="#02BFE7" d="M200.066,82.917h0.768l-0.072,0.768h0.036c0.588-0.492,1.283-0.912,2.003-0.912
		c1.032,0,1.68,0.755,1.68,2.111c0,2.243-1.535,4.006-3.143,4.006c-0.612,0-1.104-0.348-1.403-0.84h-0.024l-0.216,1.248l-0.36,1.907
		h-0.924L200.066,82.917z M203.533,85.015c0-0.983-0.42-1.463-1.068-1.463c-0.539,0-1.247,0.348-1.787,0.948l-0.564,2.782
		c0.336,0.6,0.732,0.828,1.188,0.828C202.465,88.11,203.533,86.635,203.533,85.015z"/>
	<path fill="#02BFE7" d="M205.479,88.122c0-0.132,0.023-0.3,0.071-0.492l1.476-7.424h0.924l-1.487,7.459
		c-0.024,0.132-0.024,0.192-0.024,0.264c0,0.12,0.072,0.192,0.192,0.192c0.048,0,0.071,0,0.168-0.024l0.071,0.671
		c-0.168,0.072-0.336,0.12-0.563,0.12C205.743,88.889,205.479,88.614,205.479,88.122z"/>
	<path fill="#02BFE7" d="M208.371,86.455c0-2.195,1.595-3.682,3.118-3.682c1.307,0,1.811,0.912,1.811,2.111
		c0,0.468-0.132,0.947-0.216,1.163h-3.777c-0.204,1.476,0.575,2.099,1.57,2.099c0.504,0,0.96-0.192,1.319-0.456l0.336,0.564
		c-0.455,0.36-1.079,0.636-1.823,0.636C209.294,88.889,208.371,88.014,208.371,86.455z M212.437,85.339
		c0.048-0.168,0.072-0.336,0.072-0.54c0-0.66-0.288-1.283-1.128-1.283c-0.852,0-1.69,0.719-1.967,1.823H212.437z"/>
	<path fill="#02BFE7" d="M213.663,87.798l0.503-0.432c0.372,0.504,0.924,0.804,1.548,0.804c0.672,0,1.235-0.408,1.235-0.959
		c0-0.432-0.264-0.647-1.164-1.151c-0.731-0.408-1.235-0.888-1.235-1.571c0-1.007,0.876-1.715,1.943-1.715
		c0.72,0,1.308,0.3,1.751,0.804l-0.491,0.492c-0.324-0.348-0.768-0.576-1.284-0.576c-0.6,0-1.043,0.419-1.043,0.887
		c0,0.456,0.443,0.732,1.043,1.056c0.972,0.528,1.355,0.959,1.355,1.655c0,1.092-0.936,1.799-2.183,1.799
		C214.862,88.889,214.047,88.47,213.663,87.798z"/>
	<path fill="#02BFE7" d="M136.935,98.938c0-0.41,0.146-0.76,0.437-1.049s0.64-0.434,1.046-0.434c0.41,0,0.761,0.145,1.052,0.434
		s0.437,0.639,0.437,1.049s-0.146,0.761-0.437,1.052s-0.642,0.437-1.052,0.437c-0.406,0-0.755-0.146-1.046-0.437
		S136.935,99.348,136.935,98.938z"/>
	<path fill="#02BFE7" d="M143.437,99.295c0-2.603,1.751-4.102,3.718-4.102c1.02,0,1.835,0.456,2.375,1.02l-0.983,1.127
		c-0.384-0.36-0.792-0.54-1.343-0.54c-1.031,0-1.859,0.912-1.859,2.423c0,1.559,0.731,2.458,1.823,2.458
		c0.636,0,1.127-0.251,1.5-0.647l0.971,1.104c-0.684,0.779-1.547,1.151-2.531,1.151C145.116,103.289,143.437,101.934,143.437,99.295
		z"/>
	<path fill="#02BFE7" d="M150.385,101.478c0-1.259,0.972-1.943,3.322-2.183c-0.048-0.492-0.3-0.779-0.912-0.779
		c-0.479,0-0.959,0.168-1.559,0.504l-0.647-1.2c0.779-0.479,1.631-0.779,2.566-0.779c1.535,0,2.399,0.852,2.399,2.722v3.382h-1.511
		l-0.132-0.6h-0.048c-0.492,0.444-1.031,0.744-1.703,0.744C151.069,103.289,150.385,102.474,150.385,101.478z M153.708,101.382
		v-0.947c-1.188,0.156-1.547,0.479-1.547,0.899c0,0.348,0.228,0.516,0.636,0.516C153.168,101.85,153.419,101.67,153.708,101.382z"/>
	<path fill="#02BFE7" d="M157.009,101.214v-6.452h1.847v6.524c0,0.384,0.192,0.503,0.336,0.503c0.072,0,0.12,0,0.216-0.024
		l0.216,1.367c-0.204,0.084-0.516,0.156-0.923,0.156C157.429,103.289,157.009,102.462,157.009,101.214z"/>
	<path fill="#02BFE7" d="M160.489,101.214v-6.452h1.847v6.524c0,0.384,0.192,0.503,0.336,0.503c0.072,0,0.12,0,0.216-0.024
		l0.216,1.367c-0.204,0.084-0.516,0.156-0.923,0.156C160.909,103.289,160.489,102.462,160.489,101.214z"/>
	<path fill="#02BFE7" d="M166.681,98.636h-0.792v-1.392l0.792-0.048v-0.252c0-1.259,0.588-2.327,2.255-2.327
		c0.516,0,0.947,0.108,1.211,0.216l-0.348,1.319c-0.204-0.06-0.396-0.084-0.6-0.084c-0.408,0-0.66,0.228-0.66,0.815v0.3h1.056v1.452
		h-1.056v4.509h-1.859V98.636z"/>
	<path fill="#02BFE7" d="M170.077,100.159c0-1.979,1.403-3.118,2.914-3.118c1.523,0,2.927,1.139,2.927,3.118s-1.403,3.13-2.927,3.13
		C171.48,103.289,170.077,102.138,170.077,100.159z M174.011,100.159c0-0.983-0.324-1.631-1.02-1.631
		c-0.695,0-1.019,0.648-1.019,1.631c0,0.996,0.324,1.631,1.019,1.631C173.687,101.79,174.011,101.155,174.011,100.159z"/>
	<path fill="#02BFE7" d="M177.097,97.184h1.511l0.132,1.032h0.048c0.432-0.804,1.091-1.175,1.691-1.175
		c0.348,0,0.552,0.036,0.72,0.12l-0.348,1.571c-0.216-0.048-0.348-0.072-0.611-0.072c-0.444,0-0.983,0.288-1.295,1.079v3.406h-1.847
		V97.184z"/>
	<path fill="#02BFE7" d="M184.5,95.338h2.723c1.619,0,2.902,0.432,2.902,1.943c0,0.684-0.384,1.439-1.02,1.679v0.048
		c0.792,0.216,1.403,0.792,1.403,1.835c0,1.595-1.367,2.303-3.058,2.303H184.5V95.338z M187.151,98.444
		c0.803,0,1.151-0.348,1.151-0.887c0-0.564-0.372-0.792-1.14-0.792h-0.792v1.679H187.151z M187.307,101.718
		c0.912,0,1.379-0.336,1.379-0.996s-0.456-0.911-1.379-0.911h-0.936v1.907H187.307z"/>
	<path fill="#02BFE7" d="M191.305,100.159c0-1.931,1.391-3.118,2.818-3.118c1.727,0,2.566,1.247,2.566,2.866
		c0,0.336-0.036,0.648-0.072,0.815h-3.514c0.168,0.804,0.731,1.151,1.487,1.151c0.432,0,0.863-0.132,1.283-0.372l0.6,1.115
		c-0.624,0.444-1.439,0.672-2.147,0.672C192.624,103.289,191.305,102.15,191.305,100.159z M195.106,99.475
		c0-0.588-0.264-1.032-0.936-1.032c-0.528,0-0.971,0.336-1.091,1.032H195.106z"/>
	<path fill="#02BFE7" d="M197.364,102.39l0.78-1.043c0.552,0.432,1.091,0.576,1.559,0.576c0.504,0,0.708-0.18,0.708-0.468
		c0-0.36-0.503-0.516-1.139-0.756c-0.852-0.312-1.571-0.852-1.571-1.775c0-1.127,0.912-1.883,2.303-1.883
		c0.875,0,1.619,0.324,2.135,0.755l-0.791,1.043c-0.432-0.312-0.876-0.432-1.284-0.432c-0.432,0-0.636,0.168-0.636,0.432
		c0,0.312,0.336,0.456,1.091,0.696c0.912,0.288,1.632,0.827,1.632,1.811c0,1.091-0.864,1.943-2.483,1.943
		C198.875,103.289,197.964,102.977,197.364,102.39z"/>
	<path fill="#02BFE7" d="M203.232,100.939v-2.303h-0.804v-1.392l0.912-0.06l0.216-1.823h1.535v1.823h1.403v1.452h-1.403v2.278
		c0,0.672,0.312,0.924,0.755,0.924c0.192,0,0.396-0.024,0.552-0.084l0.288,1.295c-0.312,0.12-0.768,0.24-1.355,0.24
		C203.844,103.289,203.232,102.342,203.232,100.939z"/>
	<path fill="#02BFE7" d="M210.192,95.338h2.746c1.715,0,3.118,0.612,3.118,2.531c0,1.871-1.427,2.687-3.07,2.687h-0.923v2.59h-1.871
		V95.338z M212.879,99.079c0.923,0,1.355-0.432,1.355-1.211c0-0.78-0.492-1.056-1.403-1.056h-0.768v2.267H212.879z"/>
	<path fill="#02BFE7" d="M217.248,97.184h1.511l0.132,1.032h0.049c0.432-0.804,1.091-1.175,1.69-1.175
		c0.348,0,0.552,0.036,0.72,0.12l-0.348,1.571c-0.216-0.048-0.348-0.072-0.611-0.072c-0.444,0-0.983,0.288-1.296,1.079v3.406h-1.847
		V97.184z"/>
	<path fill="#02BFE7" d="M221.496,101.478c0-1.259,0.972-1.943,3.322-2.183c-0.048-0.492-0.3-0.779-0.911-0.779
		c-0.479,0-0.96,0.168-1.56,0.504l-0.647-1.2c0.779-0.479,1.631-0.779,2.566-0.779c1.535,0,2.398,0.852,2.398,2.722v3.382h-1.511
		l-0.132-0.6h-0.048c-0.492,0.444-1.031,0.744-1.703,0.744C222.18,103.289,221.496,102.474,221.496,101.478z M224.818,101.382
		v-0.947c-1.188,0.156-1.547,0.479-1.547,0.899c0,0.348,0.228,0.516,0.636,0.516C224.279,101.85,224.53,101.67,224.818,101.382z"/>
	<path fill="#02BFE7" d="M227.784,100.159c0-1.979,1.476-3.118,3.13-3.118c0.732,0,1.296,0.251,1.739,0.635l-0.863,1.14
		c-0.275-0.204-0.504-0.288-0.768-0.288c-0.827,0-1.343,0.648-1.343,1.631c0,0.996,0.551,1.631,1.283,1.631
		c0.396,0,0.731-0.144,1.031-0.372l0.72,1.164c-0.576,0.527-1.332,0.708-1.967,0.708
		C229.067,103.289,227.784,102.138,227.784,100.159z"/>
	<path fill="#02BFE7" d="M233.868,100.939v-2.303h-0.804v-1.392l0.911-0.06l0.216-1.823h1.535v1.823h1.403v1.452h-1.403v2.278
		c0,0.672,0.312,0.924,0.756,0.924c0.191,0,0.396-0.024,0.552-0.084l0.288,1.295c-0.312,0.12-0.768,0.24-1.355,0.24
		C234.479,103.289,233.868,102.342,233.868,100.939z"/>
	<path fill="#02BFE7" d="M238.164,95.386c0-0.576,0.432-0.947,1.043-0.947s1.044,0.372,1.044,0.947c0,0.588-0.433,0.959-1.044,0.959
		S238.164,95.973,238.164,95.386z M238.283,97.184h1.848v5.961h-1.848V97.184z"/>
	<path fill="#02BFE7" d="M241.308,100.159c0-1.979,1.476-3.118,3.13-3.118c0.732,0,1.296,0.251,1.739,0.635l-0.863,1.14
		c-0.275-0.204-0.504-0.288-0.768-0.288c-0.827,0-1.343,0.648-1.343,1.631c0,0.996,0.551,1.631,1.283,1.631
		c0.396,0,0.731-0.144,1.031-0.372l0.72,1.164c-0.576,0.527-1.332,0.708-1.967,0.708
		C242.591,103.289,241.308,102.138,241.308,100.159z"/>
	<path fill="#02BFE7" d="M246.6,100.159c0-1.931,1.392-3.118,2.818-3.118c1.728,0,2.566,1.247,2.566,2.866
		c0,0.336-0.035,0.648-0.071,0.815h-3.515c0.168,0.804,0.731,1.151,1.487,1.151c0.432,0,0.863-0.132,1.283-0.372l0.6,1.115
		c-0.623,0.444-1.438,0.672-2.146,0.672C247.919,103.289,246.6,102.15,246.6,100.159z M250.401,99.475
		c0-0.588-0.264-1.032-0.936-1.032c-0.527,0-0.971,0.336-1.091,1.032H250.401z"/>
	<path fill="#02BFE7" d="M252.659,102.39l0.78-1.043c0.552,0.432,1.091,0.576,1.559,0.576c0.504,0,0.708-0.18,0.708-0.468
		c0-0.36-0.504-0.516-1.14-0.756c-0.852-0.312-1.571-0.852-1.571-1.775c0-1.127,0.912-1.883,2.303-1.883
		c0.876,0,1.619,0.324,2.135,0.755l-0.791,1.043c-0.432-0.312-0.876-0.432-1.283-0.432c-0.432,0-0.636,0.168-0.636,0.432
		c0,0.312,0.336,0.456,1.091,0.696c0.912,0.288,1.632,0.827,1.632,1.811c0,1.091-0.864,1.943-2.483,1.943
		C254.171,103.289,253.259,102.977,252.659,102.39z"/>
</g>
<g>
	<g>
		<path fill="#B2B2B2" d="M137.062,179.056c0-3.637,2.057-5.694,5.065-5.694s5.065,2.074,5.065,5.694c0,3.621-2.057,5.78-5.065,5.78
			S137.062,182.677,137.062,179.056z M144.49,179.056c0-2.159-0.901-3.417-2.363-3.417c-1.445,0-2.363,1.258-2.363,3.417
			c0,2.142,0.918,3.502,2.363,3.502C143.589,182.557,144.49,181.198,144.49,179.056z"/>
		<path fill="#B2B2B2" d="M148.57,180.399c0-2.805,2.091-4.42,4.437-4.42c1.037,0,1.835,0.357,2.464,0.901l-1.224,1.615
			c-0.391-0.289-0.714-0.408-1.088-0.408c-1.173,0-1.904,0.918-1.904,2.312c0,1.411,0.782,2.312,1.819,2.312
			c0.561,0,1.037-0.204,1.462-0.527l1.02,1.649c-0.816,0.748-1.887,1.003-2.788,1.003
			C150.389,184.835,148.57,183.203,148.57,180.399z"/>
		<path fill="#B2B2B2" d="M157.189,181.504v-3.264h-1.139v-1.972l1.292-0.085l0.306-2.583h2.176v2.583h1.989v2.057h-1.989v3.229
			c0,0.952,0.442,1.309,1.071,1.309c0.272,0,0.561-0.034,0.782-0.119l0.408,1.835c-0.442,0.17-1.088,0.34-1.92,0.34
			C158.056,184.835,157.189,183.493,157.189,181.504z"/>
		<path fill="#B2B2B2" d="M162.646,180.399c0-2.805,1.989-4.42,4.131-4.42c2.159,0,4.147,1.615,4.147,4.42s-1.989,4.437-4.147,4.437
			C164.635,184.835,162.646,183.203,162.646,180.399z M168.222,180.399c0-1.394-0.459-2.312-1.445-2.312s-1.445,0.918-1.445,2.312
			c0,1.411,0.459,2.312,1.445,2.312S168.222,181.809,168.222,180.399z"/>
		<path fill="#B2B2B2" d="M174.92,183.73h-0.068l-0.204,0.901h-2.057v-11.882h2.618v2.856l-0.051,1.274
			c0.629-0.561,1.394-0.901,2.176-0.901c2.04,0,3.314,1.683,3.314,4.284c0,2.907-1.717,4.573-3.536,4.573
			C176.348,184.835,175.583,184.461,174.92,183.73z M177.945,180.297c0-1.479-0.442-2.176-1.377-2.176
			c-0.493,0-0.901,0.221-1.36,0.714v3.349c0.425,0.374,0.867,0.493,1.275,0.493C177.299,182.677,177.945,182.014,177.945,180.297z"
			/>
		<path fill="#B2B2B2" d="M181.89,180.399c0-2.737,1.972-4.42,3.995-4.42c2.448,0,3.638,1.768,3.638,4.063
			c0,0.476-0.051,0.918-0.102,1.156h-4.98c0.238,1.139,1.037,1.632,2.108,1.632c0.612,0,1.224-0.187,1.819-0.527l0.85,1.581
			c-0.884,0.629-2.04,0.952-3.043,0.952C183.76,184.835,181.89,183.221,181.89,180.399z M187.278,179.43
			c0-0.833-0.374-1.462-1.326-1.462c-0.748,0-1.377,0.476-1.547,1.462H187.278z"/>
		<path fill="#B2B2B2" d="M191.206,176.183h2.142l0.187,1.462h0.068c0.612-1.139,1.547-1.666,2.396-1.666
			c0.493,0,0.782,0.051,1.02,0.17l-0.493,2.227c-0.306-0.068-0.493-0.102-0.867-0.102c-0.629,0-1.394,0.408-1.836,1.53v4.828h-2.618
			V176.183z"/>
		<path fill="#B2B2B2" d="M201.049,183.016c2.651-2.346,4.623-4.267,4.623-5.763c0-1.02-0.561-1.547-1.462-1.547
			c-0.748,0-1.343,0.51-1.869,1.071l-1.36-1.36c1.054-1.19,2.057-1.785,3.587-1.785c2.142,0,3.62,1.377,3.62,3.451
			c0,1.938-1.768,3.689-3.586,5.457c0.561-0.051,1.309-0.119,1.802-0.119h2.312v2.21h-7.666V183.016z"/>
		<path fill="#B2B2B2" d="M210.075,179.192c0-3.688,1.564-5.559,3.91-5.559s3.909,1.887,3.909,5.559s-1.563,5.644-3.909,5.644
			S210.075,182.863,210.075,179.192z M215.413,179.192c0-2.924-0.646-3.519-1.428-3.519c-0.799,0-1.428,0.595-1.428,3.519
			c0,2.907,0.629,3.621,1.428,3.621C214.767,182.812,215.413,182.098,215.413,179.192z"/>
		<path fill="#B2B2B2" d="M219.663,182.506h2.346v-6.034h-2.022v-1.632c1.173-0.221,1.955-0.51,2.72-1.003h1.938v8.669h2.006v2.125
			h-6.986V182.506z"/>
		<path fill="#B2B2B2" d="M228.266,181.877c0-1.292,0.799-2.074,1.818-2.618v-0.068c-0.85-0.629-1.444-1.428-1.444-2.55
			c0-1.853,1.462-3.009,3.501-3.009c1.989,0,3.315,1.173,3.315,2.975c0,1.02-0.663,1.835-1.411,2.329v0.068
			c1.037,0.561,1.87,1.394,1.87,2.822c0,1.717-1.547,3.009-3.859,3.009C229.88,184.835,228.266,183.628,228.266,181.877z
			 M233.467,181.742c0-0.901-0.867-1.241-2.192-1.802c-0.425,0.408-0.748,1.003-0.748,1.632c0,0.918,0.73,1.445,1.581,1.445
			C232.872,183.016,233.467,182.625,233.467,181.742z M233.313,176.795c0-0.816-0.459-1.343-1.24-1.343
			c-0.612,0-1.122,0.391-1.122,1.19c0,0.833,0.697,1.241,1.768,1.666C233.11,177.815,233.313,177.322,233.313,176.795z"/>
	</g>
</g>
<g>
	<rect x="136.296" y="192.87" fill="none" width="129.256" height="51.11"/>
	<path fill="#02BFE7" d="M136.935,197.256c0-0.41,0.146-0.76,0.437-1.049s0.64-0.434,1.046-0.434c0.41,0,0.761,0.145,1.052,0.434
		s0.437,0.639,0.437,1.049s-0.146,0.761-0.437,1.052s-0.642,0.437-1.052,0.437c-0.406,0-0.755-0.146-1.046-0.437
		S136.935,197.666,136.935,197.256z"/>
	<path fill="#02BFE7" d="M143.797,193.655h2.747c1.715,0,3.118,0.611,3.118,2.53c0,1.871-1.427,2.687-3.07,2.687h-0.923v2.591
		h-1.871V193.655z M146.483,197.397c0.924,0,1.355-0.432,1.355-1.211c0-0.779-0.492-1.055-1.403-1.055h-0.768v2.267H146.483z"/>
	<path fill="#02BFE7" d="M150.853,195.502h1.511l0.132,1.032h0.048c0.432-0.804,1.091-1.175,1.691-1.175
		c0.348,0,0.552,0.036,0.72,0.12l-0.348,1.571c-0.216-0.048-0.348-0.072-0.611-0.072c-0.444,0-0.983,0.288-1.295,1.079v3.406h-1.847
		V195.502z"/>
	<path fill="#02BFE7" d="M155.593,193.703c0-0.576,0.432-0.947,1.043-0.947c0.611,0,1.043,0.372,1.043,0.947
		c0,0.588-0.432,0.959-1.043,0.959C156.024,194.662,155.593,194.291,155.593,193.703z M155.712,195.502h1.847v5.961h-1.847V195.502z
		"/>
	<path fill="#02BFE7" d="M159.072,195.502h1.511l0.132,0.744h0.048c0.492-0.479,1.091-0.887,1.907-0.887
		c1.295,0,1.847,0.923,1.847,2.411v3.694h-1.859v-3.454c0-0.828-0.216-1.08-0.696-1.08c-0.42,0-0.672,0.204-1.043,0.54v3.994h-1.847
		V195.502z"/>
	<path fill="#02BFE7" d="M165.637,198.476c0-1.979,1.475-3.118,3.13-3.118c0.732,0,1.295,0.252,1.739,0.636l-0.863,1.139
		c-0.276-0.204-0.504-0.288-0.768-0.288c-0.828,0-1.343,0.648-1.343,1.631c0,0.996,0.551,1.631,1.283,1.631
		c0.396,0,0.731-0.144,1.031-0.372l0.72,1.164c-0.576,0.527-1.332,0.708-1.967,0.708
		C166.92,201.607,165.637,200.455,165.637,198.476z"/>
	<path fill="#02BFE7" d="M171.48,193.703c0-0.576,0.432-0.947,1.043-0.947c0.611,0,1.043,0.372,1.043,0.947
		c0,0.588-0.432,0.959-1.043,0.959C171.912,194.662,171.48,194.291,171.48,193.703z M171.6,195.502h1.847v5.961H171.6V195.502z"/>
	<path fill="#02BFE7" d="M174.96,195.502h1.511l0.132,0.576h0.048c0.456-0.419,1.055-0.719,1.667-0.719
		c1.439,0,2.327,1.187,2.327,3.022c0,2.051-1.211,3.227-2.495,3.227c-0.516,0-0.983-0.216-1.403-0.612l0.06,0.923v1.727h-1.847
		V195.502z M178.738,198.405c0-1.043-0.312-1.535-0.972-1.535c-0.348,0-0.636,0.156-0.959,0.503v2.363
		c0.3,0.264,0.612,0.348,0.899,0.348C178.282,200.083,178.738,199.616,178.738,198.405z"/>
	<path fill="#02BFE7" d="M181.86,199.532v-6.452h1.847v6.524c0,0.384,0.192,0.503,0.336,0.503c0.072,0,0.12,0,0.216-0.024
		l0.216,1.367c-0.204,0.084-0.516,0.156-0.923,0.156C182.28,201.607,181.86,200.779,181.86,199.532z"/>
	<path fill="#02BFE7" d="M185.004,198.476c0-1.931,1.391-3.118,2.818-3.118c1.727,0,2.566,1.247,2.566,2.866
		c0,0.336-0.036,0.647-0.072,0.815h-3.514c0.168,0.804,0.731,1.151,1.487,1.151c0.432,0,0.863-0.132,1.283-0.372l0.6,1.115
		c-0.624,0.444-1.439,0.672-2.147,0.672C186.324,201.607,185.004,200.467,185.004,198.476z M188.806,197.793
		c0-0.588-0.264-1.031-0.936-1.031c-0.528,0-0.971,0.335-1.091,1.031H188.806z"/>
	<path fill="#02BFE7" d="M191.064,200.707l0.78-1.043c0.552,0.432,1.091,0.576,1.559,0.576c0.504,0,0.708-0.18,0.708-0.468
		c0-0.36-0.504-0.516-1.139-0.756c-0.852-0.312-1.571-0.852-1.571-1.775c0-1.127,0.912-1.883,2.303-1.883
		c0.875,0,1.619,0.324,2.135,0.755l-0.792,1.043c-0.432-0.312-0.875-0.432-1.283-0.432c-0.432,0-0.636,0.168-0.636,0.432
		c0,0.312,0.336,0.456,1.091,0.696c0.912,0.288,1.631,0.828,1.631,1.811c0,1.091-0.864,1.943-2.483,1.943
		C192.575,201.607,191.664,201.295,191.064,200.707z"/>
	<path fill="#02BFE7" d="M138.423,210.425c0.406,0,0.753,0.144,1.04,0.431s0.431,0.634,0.431,1.04s-0.144,0.753-0.431,1.04
		s-0.634,0.431-1.04,0.431s-0.753-0.144-1.04-0.431s-0.431-0.634-0.431-1.04s0.143-0.753,0.428-1.04
		S138.013,210.425,138.423,210.425z M138.423,210.87c-0.285,0-0.527,0.101-0.727,0.302s-0.299,0.442-0.299,0.724
		c0,0.285,0.101,0.527,0.302,0.727s0.442,0.299,0.724,0.299s0.522-0.1,0.724-0.299s0.302-0.441,0.302-0.727
		c0-0.281-0.1-0.522-0.299-0.724S138.708,210.87,138.423,210.87z"/>
	<path fill="#02BFE7" d="M145.875,207.995h1.487c2.135,0,3.334,1.139,3.334,3.106c0,2.806-1.643,4.761-4.257,4.761h-2.135
		L145.875,207.995z M146.439,215.095c1.991,0,3.298-1.643,3.298-3.934c0-1.523-0.876-2.398-2.411-2.398h-0.671l-1.259,6.333H146.439
		z"/>
	<path fill="#02BFE7" d="M152.547,210.034h0.768l-0.144,1.115h0.048c0.468-0.708,1.08-1.259,1.799-1.259
		c0.216,0,0.408,0.036,0.563,0.108l-0.324,0.804c-0.132-0.06-0.3-0.072-0.504-0.072c-0.587,0-1.223,0.504-1.727,1.463l-0.72,3.67
		h-0.924L152.547,210.034z"/>
	<path fill="#02BFE7" d="M155.464,213.896c0-2.243,1.535-4.006,3.154-4.006c0.624,0,1.127,0.348,1.403,0.875h0.048l0.228-0.731
		h0.755l-1.175,5.829h-0.755l0.083-0.864h-0.036c-0.576,0.6-1.295,1.008-2.027,1.008
		C156.124,216.007,155.464,215.263,155.464,213.896z M159.302,214.123l0.54-2.603c-0.335-0.611-0.744-0.852-1.187-0.852
		c-1.164,0-2.231,1.476-2.231,3.083c0,1.007,0.408,1.475,1.055,1.475C158.09,215.227,158.738,214.879,159.302,214.123z"/>
	<path fill="#02BFE7" d="M162.975,210.777h-0.755l0.132-0.684l0.779-0.06l0.192-0.972c0.24-1.163,0.864-1.883,1.847-1.883
		c0.42,0,0.768,0.12,1.043,0.288l-0.312,0.648c-0.168-0.108-0.384-0.18-0.671-0.18c-0.516,0-0.852,0.432-0.983,1.104l-0.204,0.996
		h2.003l0.492-1.859h0.78l-0.372,1.859h1.475l-0.144,0.743h-1.5l-0.684,3.322c-0.024,0.144-0.036,0.288-0.036,0.432
		c0,0.479,0.204,0.719,0.719,0.719c0.252,0,0.456-0.084,0.636-0.168l0.204,0.648c-0.264,0.132-0.672,0.276-1.116,0.276
		c-1.007,0-1.391-0.576-1.391-1.308c0-0.228,0.024-0.419,0.072-0.635l0.672-3.287h-1.955l-1.02,5.085h-0.923L162.975,210.777z"/>
	<path fill="#02BFE7" d="M172.586,207.995h2.219c1.487,0,2.471,0.552,2.471,1.919c0,1.931-1.427,2.794-3.442,2.794h-1.259
		l-0.624,3.154h-0.936L172.586,207.995z M173.882,211.941c1.607,0,2.471-0.647,2.471-1.907c0-0.9-0.624-1.284-1.775-1.284h-1.211
		l-0.624,3.19H173.882z"/>
	<path fill="#02BFE7" d="M178.743,210.034h0.768l-0.144,1.115h0.048c0.468-0.708,1.08-1.259,1.799-1.259
		c0.216,0,0.408,0.036,0.563,0.108l-0.324,0.804c-0.132-0.06-0.3-0.072-0.504-0.072c-0.587,0-1.223,0.504-1.727,1.463l-0.72,3.67
		h-0.924L178.743,210.034z"/>
	<path fill="#02BFE7" d="M181.66,213.896c0-2.243,1.535-4.006,3.154-4.006c0.624,0,1.127,0.348,1.403,0.875h0.048l0.228-0.731h0.755
		l-1.175,5.829h-0.756l0.084-0.864h-0.036c-0.576,0.6-1.295,1.008-2.027,1.008C182.319,216.007,181.66,215.263,181.66,213.896z
		 M185.498,214.123l0.54-2.603c-0.336-0.611-0.744-0.852-1.187-0.852c-1.164,0-2.231,1.476-2.231,3.083
		c0,1.007,0.408,1.475,1.055,1.475C184.286,215.227,184.934,214.879,185.498,214.123z"/>
	<path fill="#02BFE7" d="M188.08,213.668c0-2.171,1.559-3.778,3.25-3.778c0.708,0,1.211,0.312,1.511,0.708l-0.528,0.528
		c-0.276-0.324-0.563-0.468-1.043-0.468c-1.163,0-2.243,1.355-2.243,2.95c0,1.056,0.456,1.631,1.379,1.631
		c0.479,0,0.972-0.24,1.295-0.504l0.396,0.576c-0.408,0.336-1.043,0.696-1.871,0.696C188.955,216.007,188.08,215.155,188.08,213.668
		z"/>
	<path fill="#02BFE7" d="M193.684,214.687c0-0.216,0.024-0.408,0.06-0.624l0.684-3.287h-0.852l0.132-0.684l0.912-0.06l0.479-1.859
		h0.78l-0.36,1.859h1.475l-0.156,0.743h-1.487l-0.684,3.322c-0.024,0.144-0.036,0.288-0.036,0.432c0,0.479,0.192,0.719,0.708,0.719
		c0.228,0,0.456-0.06,0.624-0.156l0.216,0.624c-0.264,0.144-0.648,0.288-1.116,0.288
		C194.055,216.007,193.684,215.431,193.684,214.687z"/>
	<path fill="#02BFE7" d="M198.291,210.034h0.923l-1.163,5.829h-0.924L198.291,210.034z M198.459,208.283
		c0-0.396,0.324-0.696,0.695-0.696c0.312,0,0.588,0.204,0.588,0.552c0,0.396-0.324,0.684-0.696,0.684
		C198.735,208.823,198.459,208.631,198.459,208.283z"/>
	<path fill="#02BFE7" d="M200.044,213.668c0-2.171,1.56-3.778,3.25-3.778c0.708,0,1.212,0.312,1.512,0.708l-0.528,0.528
		c-0.275-0.324-0.563-0.468-1.043-0.468c-1.163,0-2.243,1.355-2.243,2.95c0,1.056,0.456,1.631,1.38,1.631
		c0.479,0,0.971-0.24,1.295-0.504l0.396,0.576c-0.407,0.336-1.043,0.696-1.871,0.696
		C200.919,216.007,200.044,215.155,200.044,213.668z"/>
	<path fill="#02BFE7" d="M205.12,213.572c0-2.195,1.595-3.682,3.118-3.682c1.307,0,1.811,0.912,1.811,2.111
		c0,0.468-0.132,0.947-0.216,1.163h-3.777c-0.204,1.476,0.575,2.099,1.57,2.099c0.504,0,0.96-0.192,1.319-0.456l0.336,0.563
		c-0.455,0.36-1.079,0.636-1.823,0.636C206.043,216.007,205.12,215.131,205.12,213.572z M209.186,212.456
		c0.048-0.168,0.072-0.335,0.072-0.54c0-0.66-0.288-1.283-1.128-1.283c-0.852,0-1.69,0.72-1.967,1.823H209.186z"/>
	<path fill="#02BFE7" d="M210.412,214.915l0.503-0.432c0.372,0.504,0.924,0.804,1.548,0.804c0.672,0,1.235-0.408,1.235-0.959
		c0-0.432-0.264-0.647-1.164-1.151c-0.731-0.408-1.235-0.888-1.235-1.571c0-1.007,0.876-1.715,1.943-1.715
		c0.72,0,1.308,0.3,1.751,0.804l-0.491,0.492c-0.324-0.348-0.768-0.576-1.284-0.576c-0.6,0-1.043,0.419-1.043,0.887
		c0,0.456,0.443,0.732,1.043,1.056c0.972,0.527,1.355,0.959,1.355,1.655c0,1.092-0.936,1.799-2.183,1.799
		C211.611,216.007,210.796,215.587,210.412,214.915z"/>
</g>
<g>
	<rect x="136.296" y="291.772" fill="none" width="143.704" height="20.122"/>
	<path fill="#B2B2B2" d="M136.602,301.785l1.666-1.139c0.306,0.595,0.867,0.935,1.462,0.935c0.952,0,1.428-0.459,1.428-1.972v-7.021
		h2.635v7.241c0,2.21-1.19,4.029-3.791,4.029C138.421,303.859,137.316,303.213,136.602,301.785z"/>
	<path fill="#B2B2B2" d="M145.986,300.442v-5.235h2.635v4.896c0,1.173,0.306,1.513,0.986,1.513c0.595,0,0.952-0.238,1.411-0.867
		v-5.542h2.635v8.448h-2.142l-0.187-1.156h-0.068c-0.697,0.833-1.496,1.36-2.635,1.36
		C146.768,303.859,145.986,302.55,145.986,300.442z"/>
	<path fill="#B2B2B2" d="M155.794,295.206h2.142l0.187,1.054h0.068c0.697-0.68,1.547-1.258,2.703-1.258
		c1.836,0,2.618,1.309,2.618,3.417v5.235h-2.635v-4.896c0-1.173-0.306-1.53-0.986-1.53c-0.595,0-0.952,0.289-1.479,0.765v5.661
		h-2.618V295.206z"/>
	<path fill="#B2B2B2" d="M165.093,299.422c0-2.737,1.972-4.42,3.995-4.42c2.448,0,3.638,1.768,3.638,4.063
		c0,0.476-0.051,0.918-0.102,1.156h-4.98c0.238,1.139,1.037,1.632,2.108,1.632c0.612,0,1.224-0.187,1.819-0.527l0.85,1.581
		c-0.884,0.629-2.04,0.952-3.043,0.952C166.963,303.859,165.093,302.244,165.093,299.422z M170.482,298.453
		c0-0.833-0.374-1.462-1.326-1.462c-0.748,0-1.377,0.476-1.547,1.462H170.482z"/>
	<path fill="#B2B2B2" d="M177.367,302.04c2.652-2.346,4.624-4.267,4.624-5.763c0-1.02-0.561-1.547-1.462-1.547
		c-0.748,0-1.343,0.51-1.87,1.071l-1.36-1.36c1.054-1.19,2.057-1.785,3.586-1.785c2.142,0,3.621,1.377,3.621,3.451
		c0,1.938-1.768,3.689-3.586,5.457c0.561-0.051,1.309-0.119,1.802-0.119h2.312v2.21h-7.666V302.04z"/>
	<path fill="#B2B2B2" d="M186.394,298.215c0-3.688,1.564-5.559,3.91-5.559s3.91,1.887,3.91,5.559s-1.564,5.644-3.91,5.644
		S186.394,301.887,186.394,298.215z M191.731,298.215c0-2.924-0.646-3.519-1.428-3.519c-0.799,0-1.428,0.595-1.428,3.519
		c0,2.907,0.629,3.621,1.428,3.621C191.086,301.836,191.731,301.122,191.731,298.215z"/>
	<path fill="#B2B2B2" d="M195.982,301.53h2.346v-6.034h-2.022v-1.632c1.173-0.221,1.955-0.51,2.72-1.003h1.938v8.669h2.006v2.125
		h-6.987V301.53z"/>
	<path fill="#B2B2B2" d="M204.584,302.533l1.395-1.563c0.356,0.408,1.036,0.765,1.648,0.765c1.173,0,2.057-0.816,2.159-3.229
		c-0.562,0.714-1.479,1.122-2.108,1.122c-1.853,0-3.246-1.037-3.246-3.332c0-2.261,1.665-3.638,3.638-3.638
		c2.091,0,4.13,1.547,4.13,5.372c0,3.995-2.107,5.831-4.386,5.831C206.353,303.859,205.281,303.247,204.584,302.533z
		 M208.188,297.773c0.544,0,1.14-0.289,1.547-1.003c-0.237-1.666-0.918-2.142-1.598-2.142c-0.696,0-1.292,0.476-1.292,1.666
		C206.845,297.399,207.423,297.773,208.188,297.773z"/>
</g>
<g>
	<rect x="136.296" y="311.894" fill="none" width="129.256" height="51.11"/>
	<path fill="#02BFE7" d="M136.935,316.279c0-0.41,0.146-0.76,0.437-1.049s0.64-0.434,1.046-0.434c0.41,0,0.761,0.145,1.052,0.434
		s0.437,0.639,0.437,1.049s-0.146,0.761-0.437,1.052s-0.642,0.437-1.052,0.437c-0.406,0-0.755-0.146-1.046-0.437
		S136.935,316.689,136.935,316.279z"/>
	<path fill="#02BFE7" d="M143.797,312.678h4.989v1.559h-3.118v1.703h2.663v1.559h-2.663v2.986h-1.871V312.678z"/>
	<path fill="#02BFE7" d="M149.425,317.499c0-1.931,1.391-3.118,2.818-3.118c1.727,0,2.566,1.247,2.566,2.866
		c0,0.336-0.036,0.647-0.072,0.815h-3.514c0.168,0.804,0.731,1.151,1.487,1.151c0.432,0,0.863-0.132,1.283-0.372l0.6,1.115
		c-0.624,0.444-1.439,0.672-2.147,0.672C150.745,320.63,149.425,319.49,149.425,317.499z M153.227,316.816
		c0-0.588-0.264-1.031-0.936-1.031c-0.528,0-0.971,0.335-1.091,1.031H153.227z"/>
	<path fill="#02BFE7" d="M155.701,317.499c0-1.943,1.224-3.118,2.459-3.118c0.66,0,1.055,0.24,1.439,0.611l-0.06-0.887v-2.003h1.859
		v8.383h-1.523l-0.132-0.576h-0.036c-0.419,0.42-1.007,0.72-1.571,0.72C156.66,320.63,155.701,319.442,155.701,317.499z
		 M159.539,318.615v-2.375c-0.288-0.252-0.635-0.348-0.935-0.348c-0.528,0-0.996,0.479-0.996,1.595c0,1.14,0.384,1.619,1.02,1.619
		C158.987,319.106,159.263,318.987,159.539,318.615z"/>
	<path fill="#02BFE7" d="M162.565,317.499c0-1.931,1.391-3.118,2.818-3.118c1.727,0,2.566,1.247,2.566,2.866
		c0,0.336-0.036,0.647-0.072,0.815h-3.514c0.168,0.804,0.731,1.151,1.487,1.151c0.432,0,0.863-0.132,1.283-0.372l0.6,1.115
		c-0.624,0.444-1.439,0.672-2.147,0.672C163.884,320.63,162.565,319.49,162.565,317.499z M166.367,316.816
		c0-0.588-0.264-1.031-0.936-1.031c-0.528,0-0.971,0.335-1.091,1.031H166.367z"/>
	<path fill="#02BFE7" d="M169.14,314.525h1.511l0.132,1.032h0.048c0.432-0.804,1.091-1.175,1.691-1.175
		c0.348,0,0.552,0.036,0.72,0.12l-0.348,1.571c-0.216-0.048-0.348-0.072-0.612-0.072c-0.444,0-0.983,0.288-1.295,1.079v3.406h-1.847
		V314.525z"/>
	<path fill="#02BFE7" d="M173.389,318.819c0-1.259,0.972-1.943,3.322-2.183c-0.048-0.492-0.3-0.779-0.912-0.779
		c-0.479,0-0.959,0.168-1.559,0.503l-0.647-1.199c0.779-0.479,1.631-0.779,2.566-0.779c1.535,0,2.398,0.852,2.398,2.722v3.382
		h-1.511l-0.132-0.6h-0.048c-0.492,0.444-1.031,0.744-1.703,0.744C174.072,320.63,173.389,319.814,173.389,318.819z
		 M176.711,318.723v-0.947c-1.188,0.156-1.547,0.479-1.547,0.899c0,0.348,0.228,0.516,0.636,0.516
		C176.171,319.19,176.423,319.011,176.711,318.723z"/>
	<path fill="#02BFE7" d="M180.012,318.555v-6.452h1.847v6.524c0,0.384,0.192,0.503,0.336,0.503c0.072,0,0.12,0,0.216-0.024
		l0.216,1.367c-0.204,0.084-0.516,0.156-0.923,0.156C180.432,320.63,180.012,319.802,180.012,318.555z"/>
	<path fill="#02BFE7" d="M186.036,312.678h2.243c2.387,0,3.958,1.163,3.958,3.874c0,2.698-1.571,3.934-3.85,3.934h-2.351V312.678z
		 M188.171,318.987c1.259,0,2.159-0.588,2.159-2.435c0-1.859-0.9-2.375-2.159-2.375h-0.264v4.81H188.171z"/>
	<path fill="#02BFE7" d="M193.272,318.819c0-1.259,0.972-1.943,3.322-2.183c-0.048-0.492-0.3-0.779-0.912-0.779
		c-0.479,0-0.959,0.168-1.559,0.503l-0.647-1.199c0.779-0.479,1.631-0.779,2.566-0.779c1.535,0,2.398,0.852,2.398,2.722v3.382
		h-1.511l-0.132-0.6h-0.048c-0.492,0.444-1.031,0.744-1.703,0.744C193.956,320.63,193.272,319.814,193.272,318.819z
		 M196.595,318.723v-0.947c-1.188,0.156-1.547,0.479-1.547,0.899c0,0.348,0.228,0.516,0.636,0.516
		C196.055,319.19,196.307,319.011,196.595,318.723z"/>
	<path fill="#02BFE7" d="M199.908,318.279v-2.303h-0.804v-1.391l0.912-0.06l0.216-1.823h1.536v1.823h1.403v1.451h-1.403v2.279
		c0,0.672,0.312,0.924,0.755,0.924c0.192,0,0.396-0.024,0.552-0.084l0.288,1.295c-0.312,0.12-0.768,0.24-1.355,0.24
		C200.52,320.63,199.908,319.682,199.908,318.279z"/>
	<path fill="#02BFE7" d="M203.82,318.819c0-1.259,0.972-1.943,3.322-2.183c-0.048-0.492-0.3-0.779-0.912-0.779
		c-0.479,0-0.959,0.168-1.559,0.503l-0.647-1.199c0.779-0.479,1.631-0.779,2.566-0.779c1.535,0,2.398,0.852,2.398,2.722v3.382
		h-1.511l-0.133-0.6h-0.048c-0.491,0.444-1.031,0.744-1.703,0.744C204.504,320.63,203.82,319.814,203.82,318.819z M207.143,318.723
		v-0.947c-1.188,0.156-1.548,0.479-1.548,0.899c0,0.348,0.229,0.516,0.636,0.516C206.603,319.19,206.854,319.011,207.143,318.723z"
		/>
	<path fill="#02BFE7" d="M212.496,319.49l0.983-1.211c0.552,0.48,1.308,0.744,1.967,0.744c0.708,0,1.031-0.264,1.031-0.684
		c0-0.456-0.42-0.6-1.104-0.875l-0.995-0.432c-0.827-0.324-1.583-1.007-1.583-2.135c0-1.307,1.175-2.363,2.83-2.363
		c0.936,0,1.859,0.348,2.531,0.972l-0.972,1.211c-0.528-0.372-1.067-0.576-1.56-0.576c-0.575,0-0.947,0.228-0.947,0.636
		c0,0.456,0.492,0.612,1.188,0.888l0.972,0.396c0.971,0.384,1.547,1.032,1.547,2.123c0,1.307-1.092,2.447-2.975,2.447
		C214.354,320.63,213.312,320.27,212.496,319.49z"/>
	<path fill="#02BFE7" d="M219.432,318.279v-2.303h-0.804v-1.391l0.912-0.06l0.216-1.823h1.535v1.823h1.403v1.451h-1.403v2.279
		c0,0.672,0.312,0.924,0.755,0.924c0.192,0,0.396-0.024,0.552-0.084l0.288,1.295c-0.312,0.12-0.768,0.24-1.355,0.24
		C220.043,320.63,219.432,319.682,219.432,318.279z"/>
	<path fill="#02BFE7" d="M223.848,314.525h1.511l0.132,1.032h0.049c0.432-0.804,1.091-1.175,1.69-1.175
		c0.348,0,0.552,0.036,0.72,0.12l-0.348,1.571c-0.216-0.048-0.348-0.072-0.611-0.072c-0.444,0-0.983,0.288-1.296,1.079v3.406h-1.847
		V314.525z"/>
	<path fill="#02BFE7" d="M228.096,318.819c0-1.259,0.972-1.943,3.322-2.183c-0.048-0.492-0.3-0.779-0.912-0.779
		c-0.479,0-0.959,0.168-1.559,0.503l-0.647-1.199c0.779-0.479,1.631-0.779,2.566-0.779c1.535,0,2.398,0.852,2.398,2.722v3.382
		h-1.511l-0.133-0.6h-0.048c-0.491,0.444-1.031,0.744-1.703,0.744C228.779,320.63,228.096,319.814,228.096,318.819z
		 M231.418,318.723v-0.947c-1.188,0.156-1.548,0.479-1.548,0.899c0,0.348,0.229,0.516,0.636,0.516
		C230.878,319.19,231.13,319.011,231.418,318.723z"/>
	<path fill="#02BFE7" d="M234.731,318.279v-2.303h-0.804v-1.391l0.912-0.06l0.216-1.823h1.535v1.823h1.403v1.451h-1.403v2.279
		c0,0.672,0.312,0.924,0.755,0.924c0.192,0,0.396-0.024,0.552-0.084l0.288,1.295c-0.312,0.12-0.768,0.24-1.355,0.24
		C235.343,320.63,234.731,319.682,234.731,318.279z"/>
	<path fill="#02BFE7" d="M238.584,317.499c0-1.931,1.391-3.118,2.818-3.118c1.727,0,2.566,1.247,2.566,2.866
		c0,0.336-0.036,0.647-0.072,0.815h-3.514c0.168,0.804,0.731,1.151,1.487,1.151c0.432,0,0.863-0.132,1.283-0.372l0.6,1.115
		c-0.624,0.444-1.439,0.672-2.147,0.672C239.903,320.63,238.584,319.49,238.584,317.499z M242.386,316.816
		c0-0.588-0.264-1.031-0.936-1.031c-0.528,0-0.972,0.335-1.092,1.031H242.386z"/>
	<path fill="#02BFE7" d="M244.68,321.493c0-0.492,0.287-0.887,0.839-1.175v-0.048c-0.312-0.216-0.539-0.528-0.539-1.02
		c0-0.42,0.275-0.852,0.659-1.127v-0.048c-0.42-0.288-0.804-0.839-0.804-1.535c0-1.451,1.199-2.159,2.495-2.159
		c0.336,0,0.659,0.048,0.936,0.144h2.194v1.343h-0.936c0.096,0.168,0.18,0.444,0.18,0.732c0,1.391-1.055,2.003-2.374,2.003
		c-0.204,0-0.444-0.036-0.708-0.108c-0.132,0.12-0.191,0.216-0.191,0.408c0,0.288,0.239,0.419,0.875,0.419h0.947
		c1.476,0,2.303,0.444,2.303,1.523c0,1.259-1.307,2.147-3.382,2.147C245.795,322.993,244.68,322.56,244.68,321.493z
		 M248.781,321.169c0-0.36-0.312-0.432-0.876-0.432h-0.575c-0.432,0-0.66-0.024-0.84-0.072c-0.192,0.168-0.288,0.336-0.288,0.528
		c0,0.432,0.504,0.648,1.271,0.648C248.229,321.841,248.781,321.553,248.781,321.169z M248.085,316.54
		c0-0.612-0.312-0.923-0.755-0.923c-0.444,0-0.756,0.312-0.756,0.923c0,0.624,0.324,0.947,0.756,0.947
		C247.773,317.487,248.085,317.163,248.085,316.54z"/>
	<path fill="#02BFE7" d="M251.399,322.644l0.323-1.367c0.192,0.048,0.276,0.06,0.396,0.06c0.575,0,0.863-0.3,1.007-0.731
		l0.084-0.288l-2.29-5.793h1.858l0.815,2.471c0.168,0.552,0.3,1.104,0.456,1.691h0.048c0.132-0.564,0.252-1.127,0.408-1.691
		l0.684-2.471h1.774l-2.051,5.973c-0.588,1.535-1.223,2.291-2.65,2.291C251.879,322.788,251.639,322.741,251.399,322.644z"/>
	<path fill="#02BFE7" d="M141.599,330.627c0-1.936,0.539-3.521,1.452-4.995l0.561,0.264c-0.847,1.397-1.254,3.059-1.254,4.73
		c0,1.672,0.407,3.333,1.254,4.731l-0.561,0.264C142.138,334.148,141.599,332.564,141.599,330.627z"/>
	<path fill="#02BFE7" d="M145.031,326.469h2.057c1.617,0,2.717,0.539,2.717,2.123c0,1.529-1.089,2.233-2.673,2.233h-1.177v2.86
		h-0.924V326.469z M147.022,330.077c1.254,0,1.859-0.462,1.859-1.485c0-1.034-0.638-1.375-1.903-1.375h-1.023v2.86H147.022z"/>
	<path fill="#02BFE7" d="M151.18,328.339h0.748l0.077,0.968h0.033c0.374-0.671,0.924-1.101,1.518-1.101
		c0.242,0,0.407,0.033,0.572,0.11l-0.198,0.781c-0.154-0.044-0.275-0.066-0.484-0.066c-0.451,0-0.99,0.319-1.353,1.221v3.433h-0.913
		V328.339z"/>
	<path fill="#02BFE7" d="M154.865,326.645c0-0.352,0.253-0.594,0.605-0.594s0.605,0.242,0.605,0.594
		c0,0.363-0.253,0.594-0.605,0.594S154.865,327.008,154.865,326.645z M155.008,328.339h0.913v5.347h-0.913V328.339z"/>
	<path fill="#02BFE7" d="M157.725,328.339h0.748l0.077,0.77h0.033c0.506-0.506,1.056-0.902,1.793-0.902
		c1.133,0,1.639,0.726,1.639,2.09v3.389h-0.913v-3.268c0-1.001-0.308-1.419-1.012-1.419c-0.539,0-0.924,0.275-1.452,0.814v3.873
		h-0.913V328.339z"/>
	<path fill="#02BFE7" d="M163.345,331.023c0-1.793,1.199-2.816,2.575-2.816c0.704,0,1.188,0.275,1.562,0.627l-0.451,0.572
		c-0.297-0.275-0.638-0.44-1.067-0.44c-0.968,0-1.672,0.825-1.672,2.057c0,1.221,0.66,2.036,1.639,2.036
		c0.495,0,0.935-0.22,1.254-0.506l0.396,0.583c-0.484,0.44-1.089,0.682-1.727,0.682
		C164.435,333.818,163.345,332.795,163.345,331.023z"/>
	<path fill="#02BFE7" d="M168.615,326.645c0-0.352,0.253-0.594,0.605-0.594s0.605,0.242,0.605,0.594
		c0,0.363-0.253,0.594-0.605,0.594S168.615,327.008,168.615,326.645z M168.758,328.339h0.913v5.347h-0.913V328.339z"/>
	<path fill="#02BFE7" d="M171.475,328.339h0.748l0.077,0.616h0.033c0.484-0.407,1.089-0.749,1.705-0.749
		c1.375,0,2.124,1.067,2.124,2.729c0,1.815-1.1,2.882-2.321,2.882c-0.484,0-0.99-0.231-1.474-0.616l0.022,0.935v1.804h-0.913
		V328.339z M175.215,330.935c0-1.177-0.407-1.958-1.408-1.958c-0.451,0-0.902,0.242-1.419,0.726v2.794
		c0.484,0.407,0.946,0.55,1.298,0.55C174.566,333.048,175.215,332.256,175.215,330.935z"/>
	<path fill="#02BFE7" d="M177.58,332.608v-6.755h0.913v6.821c0,0.286,0.121,0.385,0.264,0.385c0.055,0,0.099,0,0.187-0.022
		l0.121,0.682c-0.132,0.066-0.297,0.099-0.528,0.099C177.854,333.818,177.58,333.378,177.58,332.608z"/>
	<path fill="#02BFE7" d="M179.988,331.013c0-1.738,1.177-2.806,2.398-2.806c1.364,0,2.146,0.968,2.146,2.509
		c0,0.198-0.011,0.363-0.044,0.539h-3.598c0.077,1.1,0.748,1.826,1.76,1.826c0.517,0,0.968-0.143,1.342-0.396l0.319,0.583
		c-0.462,0.33-1.034,0.55-1.771,0.55C181.11,333.818,179.988,332.784,179.988,331.013z M183.718,330.551
		c0-1.056-0.495-1.618-1.31-1.618c-0.748,0-1.408,0.594-1.518,1.618H183.718z"/>
	<path fill="#02BFE7" d="M185.246,333.048l0.418-0.528c0.462,0.385,0.946,0.583,1.606,0.583c0.704,0,1.045-0.363,1.045-0.825
		c0-0.55-0.594-0.781-1.199-1.001c-0.803-0.286-1.573-0.671-1.573-1.551c0-0.858,0.682-1.519,1.848-1.519
		c0.671,0,1.244,0.253,1.662,0.605l-0.418,0.528c-0.375-0.275-0.759-0.429-1.232-0.429c-0.682,0-0.979,0.375-0.979,0.771
		c0,0.484,0.462,0.682,1.133,0.913c0.836,0.297,1.64,0.66,1.64,1.628c0,0.869-0.693,1.595-1.958,1.595
		C186.456,333.818,185.741,333.532,185.246,333.048z"/>
	<path fill="#02BFE7" d="M192.099,331.816c0-0.968,0.682-1.573,1.419-2.09c-0.297-0.572-0.473-1.155-0.473-1.672
		c0-0.968,0.671-1.716,1.672-1.716c0.891,0,1.419,0.583,1.419,1.43c0,0.946-0.825,1.551-1.617,2.134
		c0.473,0.737,1.133,1.452,1.815,2.013c0.451-0.583,0.792-1.298,1.012-2.123h0.858c-0.275,0.946-0.693,1.826-1.265,2.585
		c0.495,0.33,0.957,0.572,1.353,0.682l-0.253,0.759c-0.506-0.143-1.067-0.418-1.65-0.825c-0.561,0.495-1.243,0.825-2.09,0.825
		C192.99,333.818,192.099,332.982,192.099,331.816z M194.41,333.092c0.484,0,0.946-0.231,1.375-0.583
		c-0.715-0.616-1.397-1.364-1.892-2.145c-0.506,0.407-0.902,0.836-0.902,1.397C192.99,332.564,193.617,333.092,194.41,333.092z
		 M194.178,329.296c0.66-0.44,1.221-0.88,1.221-1.518c0-0.418-0.198-0.792-0.682-0.792c-0.539,0-0.88,0.451-0.88,1.045
		C193.837,328.427,193.958,328.856,194.178,329.296z"/>
	<path fill="#02BFE7" d="M201.647,326.469h2.058c1.617,0,2.717,0.539,2.717,2.123c0,1.529-1.089,2.233-2.673,2.233h-1.178v2.86
		h-0.924V326.469z M203.639,330.077c1.255,0,1.859-0.462,1.859-1.485c0-1.034-0.638-1.375-1.903-1.375h-1.023v2.86H203.639z"/>
	<path fill="#02BFE7" d="M207.797,328.339h0.748l0.076,0.968h0.033c0.374-0.671,0.925-1.101,1.519-1.101
		c0.242,0,0.407,0.033,0.572,0.11l-0.198,0.781c-0.154-0.044-0.275-0.066-0.484-0.066c-0.451,0-0.99,0.319-1.353,1.221v3.433h-0.913
		V328.339z"/>
	<path fill="#02BFE7" d="M211.031,332.3c0-1.188,0.989-1.76,3.278-2.013c-0.012-0.671-0.231-1.32-1.101-1.32
		c-0.616,0-1.177,0.275-1.595,0.55l-0.353-0.616c0.495-0.33,1.243-0.693,2.102-0.693c1.298,0,1.859,0.869,1.859,2.189v3.29h-0.748
		l-0.088-0.638h-0.033c-0.506,0.429-1.09,0.77-1.761,0.77C211.702,333.818,211.031,333.268,211.031,332.3z M214.31,332.388v-1.452
		c-1.805,0.209-2.388,0.616-2.388,1.309c0,0.594,0.407,0.825,0.924,0.825C213.363,333.07,213.792,332.839,214.31,332.388z"/>
	<path fill="#02BFE7" d="M216.509,331.023c0-1.793,1.199-2.816,2.574-2.816c0.704,0,1.188,0.275,1.562,0.627l-0.451,0.572
		c-0.297-0.275-0.638-0.44-1.067-0.44c-0.968,0-1.672,0.825-1.672,2.057c0,1.221,0.66,2.036,1.639,2.036
		c0.495,0,0.936-0.22,1.255-0.506l0.396,0.583c-0.483,0.44-1.089,0.682-1.727,0.682
		C217.598,333.818,216.509,332.795,216.509,331.023z"/>
	<path fill="#02BFE7" d="M221.965,332.025v-2.949h-0.792v-0.682l0.836-0.055l0.109-1.716h0.76v1.716h1.452v0.737h-1.452v2.971
		c0,0.649,0.22,1.023,0.825,1.023c0.197,0,0.396-0.033,0.616-0.132l0.187,0.649c-0.286,0.132-0.649,0.231-1.012,0.231
		C222.35,333.818,221.965,333.092,221.965,332.025z"/>
	<path fill="#02BFE7" d="M225.396,326.645c0-0.352,0.253-0.594,0.605-0.594c0.352,0,0.604,0.242,0.604,0.594
		c0,0.363-0.253,0.594-0.604,0.594C225.649,327.239,225.396,327.008,225.396,326.645z M225.54,328.339h0.913v5.347h-0.913V328.339z"
		/>
	<path fill="#02BFE7" d="M227.86,331.023c0-1.793,1.199-2.816,2.574-2.816c0.704,0,1.188,0.275,1.562,0.627l-0.451,0.572
		c-0.297-0.275-0.638-0.44-1.067-0.44c-0.968,0-1.672,0.825-1.672,2.057c0,1.221,0.66,2.036,1.639,2.036
		c0.495,0,0.936-0.22,1.255-0.506l0.396,0.583c-0.483,0.44-1.089,0.682-1.727,0.682C228.949,333.818,227.86,332.795,227.86,331.023z
		"/>
	<path fill="#02BFE7" d="M232.646,331.013c0-1.738,1.177-2.806,2.398-2.806c1.364,0,2.146,0.968,2.146,2.509
		c0,0.198-0.012,0.363-0.044,0.539h-3.598c0.077,1.1,0.748,1.826,1.76,1.826c0.518,0,0.969-0.143,1.343-0.396l0.318,0.583
		c-0.462,0.33-1.034,0.55-1.771,0.55C233.768,333.818,232.646,332.784,232.646,331.013z M236.375,330.551
		c0-1.056-0.495-1.618-1.31-1.618c-0.748,0-1.408,0.594-1.518,1.618H236.375z"/>
	<path fill="#02BFE7" d="M237.903,333.048l0.418-0.528c0.462,0.385,0.946,0.583,1.606,0.583c0.704,0,1.045-0.363,1.045-0.825
		c0-0.55-0.594-0.781-1.199-1.001c-0.803-0.286-1.573-0.671-1.573-1.551c0-0.858,0.683-1.519,1.849-1.519
		c0.671,0,1.243,0.253,1.661,0.605l-0.418,0.528c-0.374-0.275-0.759-0.429-1.232-0.429c-0.682,0-0.979,0.375-0.979,0.771
		c0,0.484,0.462,0.682,1.133,0.913c0.836,0.297,1.64,0.66,1.64,1.628c0,0.869-0.693,1.595-1.959,1.595
		C239.113,333.818,238.398,333.532,237.903,333.048z"/>
	<path fill="#02BFE7" d="M242.622,335.358c0.848-1.397,1.266-3.059,1.266-4.731c0-1.672-0.418-3.333-1.266-4.73l0.572-0.264
		c0.913,1.474,1.452,3.059,1.452,4.995c0,1.937-0.539,3.521-1.452,4.995L242.622,335.358z"/>
	<path fill="#02BFE7" d="M138.423,342.648c0.406,0,0.753,0.144,1.04,0.431s0.431,0.634,0.431,1.04s-0.144,0.753-0.431,1.04
		s-0.634,0.431-1.04,0.431s-0.753-0.144-1.04-0.431s-0.431-0.634-0.431-1.04s0.143-0.753,0.428-1.04
		S138.013,342.648,138.423,342.648z M138.423,343.094c-0.285,0-0.527,0.101-0.727,0.302s-0.299,0.442-0.299,0.724
		c0,0.285,0.101,0.527,0.302,0.727s0.442,0.299,0.724,0.299s0.522-0.1,0.724-0.299s0.302-0.441,0.302-0.727
		c0-0.281-0.1-0.522-0.299-0.724S138.708,343.094,138.423,343.094z"/>
	<path fill="#02BFE7" d="M145.875,340.218h1.487c2.135,0,3.334,1.139,3.334,3.106c0,2.806-1.643,4.761-4.257,4.761h-2.135
		L145.875,340.218z M146.439,347.318c1.991,0,3.298-1.643,3.298-3.934c0-1.523-0.876-2.398-2.411-2.398h-0.671l-1.259,6.333H146.439
		z"/>
	<path fill="#02BFE7" d="M152.547,342.257h0.768l-0.144,1.115h0.048c0.468-0.708,1.08-1.259,1.799-1.259
		c0.216,0,0.408,0.036,0.563,0.108l-0.324,0.804c-0.132-0.06-0.3-0.072-0.504-0.072c-0.587,0-1.223,0.504-1.727,1.463l-0.72,3.67
		h-0.924L152.547,342.257z"/>
	<path fill="#02BFE7" d="M155.464,346.119c0-2.243,1.535-4.006,3.154-4.006c0.624,0,1.127,0.348,1.403,0.875h0.048l0.228-0.731
		h0.755l-1.175,5.829h-0.755l0.083-0.864h-0.036c-0.576,0.6-1.295,1.008-2.027,1.008
		C156.124,348.23,155.464,347.486,155.464,346.119z M159.302,346.347l0.54-2.603c-0.335-0.611-0.744-0.852-1.187-0.852
		c-1.164,0-2.231,1.476-2.231,3.083c0,1.007,0.408,1.475,1.055,1.475C158.09,347.45,158.738,347.102,159.302,346.347z"/>
	<path fill="#02BFE7" d="M162.975,343h-0.755l0.132-0.684l0.779-0.06l0.192-0.972c0.24-1.163,0.864-1.883,1.847-1.883
		c0.42,0,0.768,0.12,1.043,0.288l-0.312,0.648c-0.168-0.108-0.384-0.18-0.671-0.18c-0.516,0-0.852,0.432-0.983,1.104l-0.204,0.996
		h2.003l0.492-1.859h0.78l-0.372,1.859h1.475L168.276,343h-1.5l-0.684,3.322c-0.024,0.144-0.036,0.288-0.036,0.432
		c0,0.479,0.204,0.719,0.719,0.719c0.252,0,0.456-0.084,0.636-0.168l0.204,0.648c-0.264,0.132-0.672,0.276-1.116,0.276
		c-1.007,0-1.391-0.576-1.391-1.308c0-0.228,0.024-0.419,0.072-0.635l0.672-3.287h-1.955l-1.02,5.085h-0.923L162.975,343z"/>
	<path fill="#02BFE7" d="M172.875,345.015l-1.283-4.797h0.971l0.54,2.255c0.132,0.587,0.251,1.115,0.396,1.727h0.024
		c0.372-0.588,0.72-1.151,1.091-1.739l1.487-2.243h1.007l-3.286,4.797l-0.624,3.07h-0.936L172.875,345.015z"/>
	<path fill="#02BFE7" d="M176.176,345.795c0-2.195,1.595-3.682,3.118-3.682c1.307,0,1.811,0.912,1.811,2.111
		c0,0.468-0.132,0.947-0.216,1.163h-3.778c-0.204,1.476,0.576,2.099,1.571,2.099c0.504,0,0.959-0.192,1.319-0.456l0.336,0.563
		c-0.456,0.36-1.08,0.636-1.823,0.636C177.099,348.23,176.176,347.354,176.176,345.795z M180.241,344.68
		c0.048-0.168,0.072-0.335,0.072-0.54c0-0.66-0.288-1.283-1.127-1.283c-0.852,0-1.691,0.72-1.967,1.823H180.241z"/>
	<path fill="#02BFE7" d="M181.959,346.119c0-2.243,1.535-4.006,3.154-4.006c0.624,0,1.127,0.348,1.403,0.875h0.048l0.228-0.731
		h0.755l-1.175,5.829h-0.756l0.084-0.864h-0.036c-0.576,0.6-1.295,1.008-2.027,1.008
		C182.619,348.23,181.959,347.486,181.959,346.119z M185.797,346.347l0.54-2.603c-0.336-0.611-0.744-0.852-1.187-0.852
		c-1.164,0-2.231,1.476-2.231,3.083c0,1.007,0.408,1.475,1.055,1.475C184.586,347.45,185.233,347.102,185.797,346.347z"/>
	<path fill="#02BFE7" d="M189.471,342.257h0.768l-0.144,1.115h0.048c0.467-0.708,1.079-1.259,1.799-1.259
		c0.216,0,0.408,0.036,0.563,0.108l-0.324,0.804c-0.132-0.06-0.3-0.072-0.503-0.072c-0.588,0-1.224,0.504-1.728,1.463l-0.719,3.67
		h-0.924L189.471,342.257z"/>
	<path fill="#02BFE7" d="M194.907,347.318h1.667l1.151-5.733h-1.367l0.12-0.6c0.695-0.096,1.247-0.276,1.691-0.552h0.72
		l-1.392,6.884h1.547l-0.144,0.768h-4.149L194.907,347.318z"/>
	<path fill="#02BFE7" d="M206.233,340.218h1.079l0.912,7.868h-0.972l-0.216-2.447h-2.782l-1.248,2.447h-1.02L206.233,340.218z
		 M204.639,344.908h2.326l-0.12-1.343c-0.071-0.828-0.155-1.655-0.216-2.555h-0.048c-0.42,0.899-0.815,1.691-1.259,2.555
		L204.639,344.908z"/>
	<path fill="#02BFE7" d="M209.175,345.891c0-2.171,1.56-3.778,3.25-3.778c0.708,0,1.212,0.312,1.512,0.708l-0.528,0.528
		c-0.275-0.324-0.563-0.468-1.043-0.468c-1.163,0-2.243,1.355-2.243,2.95c0,1.056,0.456,1.631,1.38,1.631
		c0.479,0,0.971-0.24,1.295-0.504l0.396,0.576c-0.407,0.336-1.043,0.696-1.871,0.696
		C210.051,348.23,209.175,347.378,209.175,345.891z"/>
	<path fill="#02BFE7" d="M214.778,346.91c0-0.216,0.024-0.408,0.061-0.624l0.684-3.287h-0.852l0.132-0.684l0.911-0.06l0.479-1.859
		h0.78l-0.36,1.859h1.476L217.933,343h-1.487l-0.684,3.322c-0.023,0.144-0.036,0.288-0.036,0.432c0,0.479,0.192,0.719,0.708,0.719
		c0.228,0,0.456-0.06,0.624-0.156l0.216,0.624c-0.265,0.144-0.648,0.288-1.116,0.288C215.15,348.23,214.778,347.654,214.778,346.91z
		"/>
	<path fill="#02BFE7" d="M219.386,342.257h0.924l-1.163,5.829h-0.924L219.386,342.257z M219.554,340.506
		c0-0.396,0.324-0.696,0.695-0.696c0.312,0,0.588,0.204,0.588,0.552c0,0.396-0.323,0.684-0.695,0.684
		C219.83,341.046,219.554,340.854,219.554,340.506z"/>
	<path fill="#02BFE7" d="M221.163,345.891c0-2.207,1.547-3.778,3.142-3.778c1.26,0,2.087,0.887,2.087,2.339
		c0,2.207-1.559,3.778-3.154,3.778C221.979,348.23,221.163,347.342,221.163,345.891z M225.456,344.512
		c0-1.055-0.443-1.631-1.247-1.631c-1.067,0-2.11,1.319-2.11,2.95c0,1.056,0.432,1.631,1.235,1.631
		C224.413,347.462,225.456,346.131,225.456,344.512z"/>
	<path fill="#02BFE7" d="M228.398,342.257h0.768l-0.097,0.875h0.049c0.623-0.576,1.307-1.02,2.026-1.02
		c0.983,0,1.392,0.552,1.392,1.451c0,0.276-0.036,0.479-0.096,0.804l-0.744,3.718h-0.936l0.731-3.598
		c0.061-0.312,0.097-0.479,0.097-0.684c0-0.587-0.265-0.887-0.864-0.887c-0.455,0-1.02,0.324-1.751,1.043l-0.815,4.125h-0.924
		L228.398,342.257z"/>
	<path fill="#02BFE7" d="M237.565,340.218h2.219c1.487,0,2.471,0.552,2.471,1.919c0,1.931-1.427,2.794-3.441,2.794h-1.26
		l-0.623,3.154h-0.936L237.565,340.218z M238.861,344.164c1.606,0,2.471-0.647,2.471-1.907c0-0.9-0.624-1.284-1.775-1.284h-1.211
		l-0.624,3.19H238.861z"/>
	<path fill="#02BFE7" d="M242.715,347.462c0-0.132,0.023-0.3,0.071-0.492l1.476-7.424h0.924l-1.487,7.46
		c-0.024,0.132-0.024,0.192-0.024,0.264c0,0.12,0.072,0.192,0.192,0.192c0.048,0,0.071,0,0.168-0.024l0.071,0.671
		c-0.168,0.072-0.336,0.12-0.563,0.12C242.979,348.23,242.715,347.954,242.715,347.462z"/>
	<path fill="#02BFE7" d="M245.631,346.119c0-2.243,1.535-4.006,3.154-4.006c0.623,0,1.127,0.348,1.403,0.875h0.048l0.228-0.731
		h0.756l-1.176,5.829h-0.756l0.084-0.864h-0.035c-0.576,0.6-1.296,1.008-2.027,1.008C246.29,348.23,245.631,347.486,245.631,346.119
		z M249.469,346.347l0.539-2.603c-0.336-0.611-0.743-0.852-1.187-0.852c-1.164,0-2.231,1.476-2.231,3.083
		c0,1.007,0.408,1.475,1.056,1.475C248.257,347.45,248.904,347.102,249.469,346.347z"/>
	<path fill="#02BFE7" d="M253.142,342.257h0.768l-0.096,0.875h0.048c0.624-0.576,1.308-1.02,2.027-1.02
		c0.983,0,1.391,0.552,1.391,1.451c0,0.276-0.036,0.479-0.096,0.804l-0.743,3.718h-0.936l0.731-3.598
		c0.06-0.312,0.096-0.479,0.096-0.684c0-0.587-0.264-0.887-0.863-0.887c-0.456,0-1.02,0.324-1.751,1.043l-0.815,4.125h-0.924
		L253.142,342.257z"/>
</g>
<g>
	<rect x="136.296" y="409.107" fill="none" width="143.704" height="20.122"/>
	<path fill="#C40000" d="M136.874,419.58l1.394-1.718c0.782,0.681,1.853,1.054,2.788,1.054c1.002,0,1.461-0.373,1.461-0.969
		c0-0.646-0.595-0.85-1.563-1.24l-1.411-0.612c-1.173-0.459-2.244-1.428-2.244-3.026c0-1.852,1.666-3.348,4.012-3.348
		c1.326,0,2.635,0.492,3.586,1.377l-1.377,1.717c-0.748-0.527-1.513-0.816-2.209-0.816c-0.816,0-1.343,0.323-1.343,0.9
		c0,0.646,0.697,0.867,1.683,1.258l1.377,0.562c1.377,0.544,2.193,1.462,2.193,3.009c0,1.854-1.547,3.468-4.216,3.468
		C139.509,421.195,138.03,420.684,136.874,419.58z"/>
	<path fill="#C40000" d="M146.376,416.758c0-2.736,1.972-4.42,3.995-4.42c2.448,0,3.638,1.768,3.638,4.062
		c0,0.477-0.051,0.918-0.102,1.156h-4.98c0.238,1.139,1.037,1.632,2.108,1.632c0.612,0,1.224-0.187,1.819-0.526l0.85,1.58
		c-0.884,0.629-2.04,0.952-3.043,0.952C148.247,421.195,146.376,419.58,146.376,416.758z M151.765,415.789
		c0-0.833-0.374-1.462-1.326-1.462c-0.748,0-1.377,0.476-1.547,1.462H151.765z"/>
	<path fill="#C40000" d="M155.692,412.542h2.142l0.187,0.815h0.068c0.646-0.594,1.496-1.02,2.363-1.02
		c2.04,0,3.297,1.684,3.297,4.283c0,2.907-1.717,4.573-3.536,4.573c-0.731,0-1.394-0.306-1.989-0.867l0.085,1.31v2.447h-2.618
		V412.542z M161.047,416.657c0-1.479-0.442-2.176-1.377-2.176c-0.493,0-0.901,0.221-1.36,0.713v3.35
		c0.425,0.373,0.867,0.492,1.275,0.492C160.401,419.035,161.047,418.373,161.047,416.657z"/>
	<path fill="#C40000" d="M165.331,417.863v-3.264h-1.139v-1.972l1.292-0.085l0.306-2.583h2.176v2.583h1.989v2.057h-1.989v3.229
		c0,0.952,0.442,1.309,1.071,1.309c0.272,0,0.561-0.033,0.782-0.118l0.408,1.836c-0.442,0.17-1.088,0.34-1.92,0.34
		C166.198,421.195,165.331,419.852,165.331,417.863z"/>
	<path fill="#C40000" d="M170.788,416.758c0-2.736,1.972-4.42,3.995-4.42c2.448,0,3.638,1.768,3.638,4.062
		c0,0.477-0.051,0.918-0.102,1.156h-4.98c0.238,1.139,1.037,1.632,2.108,1.632c0.612,0,1.224-0.187,1.819-0.526l0.85,1.58
		c-0.884,0.629-2.04,0.952-3.043,0.952C172.658,421.195,170.788,419.58,170.788,416.758z M176.177,415.789
		c0-0.833-0.374-1.462-1.326-1.462c-0.748,0-1.377,0.476-1.547,1.462H176.177z"/>
	<path fill="#C40000" d="M180.104,412.542h2.142l0.187,1.054h0.068c0.68-0.68,1.428-1.258,2.55-1.258
		c1.173,0,1.904,0.493,2.329,1.395c0.731-0.748,1.513-1.395,2.635-1.395c1.836,0,2.652,1.309,2.652,3.417v5.235h-2.618v-4.896
		c0-1.173-0.323-1.53-0.986-1.53c-0.408,0-0.85,0.256-1.36,0.766v5.66h-2.635v-4.896c0-1.173-0.306-1.53-0.986-1.53
		c-0.391,0-0.85,0.256-1.36,0.766v5.66h-2.618V412.542z"/>
	<path fill="#C40000" d="M197.069,420.09h-0.068l-0.204,0.9h-2.057v-11.882h2.618v2.856l-0.051,1.274
		c0.629-0.562,1.394-0.901,2.176-0.901c2.04,0,3.314,1.684,3.314,4.283c0,2.907-1.717,4.573-3.536,4.573
		C198.498,421.195,197.732,420.821,197.069,420.09z M200.095,416.657c0-1.479-0.442-2.176-1.377-2.176
		c-0.493,0-0.901,0.221-1.36,0.713v3.35c0.425,0.373,0.867,0.492,1.275,0.492C199.449,419.035,200.095,418.373,200.095,416.657z"/>
	<path fill="#C40000" d="M204.04,416.758c0-2.736,1.972-4.42,3.994-4.42c2.448,0,3.638,1.768,3.638,4.062
		c0,0.477-0.051,0.918-0.102,1.156h-4.98c0.238,1.139,1.037,1.632,2.107,1.632c0.612,0,1.225-0.187,1.819-0.526l0.85,1.58
		c-0.884,0.629-2.04,0.952-3.043,0.952C205.91,421.195,204.04,419.58,204.04,416.758z M209.429,415.789
		c0-0.833-0.374-1.462-1.326-1.462c-0.748,0-1.377,0.476-1.547,1.462H209.429z"/>
	<path fill="#C40000" d="M213.355,412.542h2.143l0.187,1.462h0.068c0.611-1.139,1.547-1.666,2.396-1.666
		c0.493,0,0.782,0.051,1.02,0.17l-0.493,2.227c-0.306-0.067-0.492-0.102-0.866-0.102c-0.629,0-1.395,0.408-1.836,1.529v4.828h-2.618
		V412.542z"/>
	<path fill="#C40000" d="M223.198,419.375c2.652-2.346,4.624-4.266,4.624-5.762c0-1.02-0.562-1.547-1.462-1.547
		c-0.748,0-1.343,0.51-1.87,1.07l-1.359-1.359c1.054-1.189,2.057-1.785,3.586-1.785c2.143,0,3.621,1.377,3.621,3.451
		c0,1.938-1.768,3.688-3.587,5.456c0.562-0.051,1.309-0.119,1.802-0.119h2.312v2.21h-7.666V419.375z"/>
	<path fill="#C40000" d="M232.226,415.551c0-3.688,1.563-5.559,3.909-5.559s3.91,1.887,3.91,5.559s-1.564,5.644-3.91,5.644
		S232.226,419.223,232.226,415.551z M237.562,415.551c0-2.924-0.646-3.519-1.428-3.519c-0.799,0-1.428,0.595-1.428,3.519
		c0,2.906,0.629,3.621,1.428,3.621C236.917,419.172,237.562,418.457,237.562,415.551z"/>
	<path fill="#C40000" d="M241.813,418.866h2.346v-6.034h-2.022V411.2c1.173-0.221,1.954-0.51,2.72-1.003h1.938v8.669h2.006v2.125
		h-6.986V418.866z"/>
	<path fill="#C40000" d="M250.415,419.868l1.395-1.563c0.356,0.408,1.036,0.765,1.648,0.765c1.173,0,2.057-0.815,2.159-3.229
		c-0.562,0.714-1.479,1.121-2.108,1.121c-1.853,0-3.246-1.036-3.246-3.331c0-2.261,1.665-3.638,3.638-3.638
		c2.091,0,4.13,1.547,4.13,5.371c0,3.995-2.107,5.831-4.386,5.831C252.184,421.195,251.112,420.582,250.415,419.868z
		 M254.019,415.11c0.544,0,1.14-0.289,1.547-1.004c-0.237-1.666-0.918-2.141-1.598-2.141c-0.696,0-1.292,0.475-1.292,1.665
		C252.676,414.735,253.254,415.11,254.019,415.11z"/>
</g>
<g>
	<rect x="136.296" y="429.229" fill="none" width="129.256" height="51.11"/>
	<path fill="#02BFE7" d="M136.935,433.615c0-0.41,0.146-0.76,0.437-1.049s0.64-0.434,1.046-0.434c0.41,0,0.761,0.145,1.052,0.434
		s0.437,0.639,0.437,1.049s-0.146,0.761-0.437,1.052s-0.642,0.437-1.052,0.437c-0.406,0-0.755-0.146-1.046-0.437
		S136.935,434.025,136.935,433.615z"/>
	<path fill="#02BFE7" d="M145.152,435.063l-2.351-5.049h1.991l0.66,1.738c0.204,0.588,0.396,1.128,0.611,1.739h0.048
		c0.216-0.611,0.444-1.151,0.647-1.739l0.66-1.738h1.943l-2.351,5.049v2.759h-1.859V435.063z"/>
	<path fill="#02BFE7" d="M149.018,434.835c0-1.932,1.391-3.118,2.818-3.118c1.727,0,2.566,1.247,2.566,2.866
		c0,0.336-0.036,0.647-0.072,0.815h-3.514c0.168,0.804,0.731,1.151,1.487,1.151c0.432,0,0.863-0.132,1.283-0.372l0.6,1.115
		c-0.624,0.444-1.439,0.672-2.147,0.672C150.337,437.965,149.018,436.826,149.018,434.835z M152.819,434.152
		c0-0.588-0.264-1.031-0.936-1.031c-0.528,0-0.971,0.335-1.091,1.031H152.819z"/>
	<path fill="#02BFE7" d="M155.197,436.155c0-1.26,0.972-1.943,3.322-2.184c-0.048-0.491-0.3-0.779-0.912-0.779
		c-0.479,0-0.959,0.168-1.559,0.504l-0.647-1.199c0.779-0.479,1.631-0.779,2.566-0.779c1.535,0,2.398,0.852,2.398,2.722v3.383
		h-1.511l-0.132-0.6h-0.048c-0.492,0.443-1.031,0.743-1.703,0.743C155.881,437.965,155.197,437.15,155.197,436.155z M158.52,436.058
		v-0.947c-1.188,0.156-1.547,0.479-1.547,0.899c0,0.348,0.228,0.516,0.636,0.516C157.98,436.526,158.231,436.346,158.52,436.058z"/>
	<path fill="#02BFE7" d="M161.821,431.861h1.511l0.132,1.031h0.048c0.432-0.804,1.091-1.175,1.691-1.175
		c0.348,0,0.552,0.035,0.72,0.119l-0.348,1.571c-0.216-0.048-0.348-0.071-0.612-0.071c-0.444,0-0.983,0.287-1.295,1.079v3.406
		h-1.847V431.861z"/>
	<path fill="#02BFE7" d="M169.141,436.323h1.655v-4.258h-1.427v-1.151c0.828-0.156,1.379-0.36,1.919-0.708h1.367v6.117h1.415v1.499
		h-4.929V436.323z"/>
	<path fill="#02BFE7" d="M179.448,430.014h2.23l2.435,7.808h-1.967l-0.456-1.799h-2.315l-0.456,1.799h-1.907L179.448,430.014z
		 M179.735,434.583h1.595l-0.168-0.672c-0.204-0.768-0.408-1.691-0.612-2.507h-0.048c-0.192,0.815-0.396,1.739-0.6,2.507
		L179.735,434.583z"/>
	<path fill="#02BFE7" d="M184.44,434.835c0-1.979,1.475-3.118,3.13-3.118c0.732,0,1.295,0.252,1.739,0.636l-0.863,1.139
		c-0.276-0.204-0.504-0.288-0.768-0.288c-0.828,0-1.343,0.648-1.343,1.632c0,0.995,0.551,1.631,1.283,1.631
		c0.396,0,0.731-0.144,1.031-0.372l0.72,1.164c-0.576,0.527-1.332,0.707-1.967,0.707C185.724,437.965,184.44,436.814,184.44,434.835
		z"/>
	<path fill="#02BFE7" d="M190.524,435.615v-2.303h-0.804v-1.392l0.912-0.06l0.216-1.823h1.535v1.823h1.403v1.451h-1.403v2.278
		c0,0.672,0.312,0.924,0.755,0.924c0.192,0,0.396-0.023,0.552-0.084l0.288,1.296c-0.312,0.119-0.768,0.239-1.355,0.239
		C191.135,437.965,190.524,437.018,190.524,435.615z"/>
	<path fill="#02BFE7" d="M194.82,430.062c0-0.576,0.432-0.947,1.043-0.947c0.611,0,1.043,0.371,1.043,0.947
		c0,0.588-0.432,0.959-1.043,0.959C195.251,431.021,194.82,430.65,194.82,430.062z M194.939,431.861h1.847v5.961h-1.847V431.861z"/>
	<path fill="#02BFE7" d="M197.964,434.835c0-1.979,1.403-3.118,2.914-3.118c1.523,0,2.927,1.139,2.927,3.118
		c0,1.979-1.403,3.13-2.927,3.13C199.367,437.965,197.964,436.814,197.964,434.835z M201.897,434.835
		c0-0.983-0.323-1.632-1.02-1.632c-0.695,0-1.019,0.648-1.019,1.632c0,0.995,0.324,1.631,1.019,1.631
		C201.574,436.466,201.897,435.83,201.897,434.835z"/>
	<path fill="#02BFE7" d="M204.983,431.861h1.512l0.132,0.743h0.048c0.492-0.479,1.092-0.887,1.907-0.887
		c1.295,0,1.847,0.923,1.847,2.41v3.694h-1.858v-3.454c0-0.828-0.217-1.08-0.696-1.08c-0.42,0-0.672,0.204-1.043,0.54v3.994h-1.848
		V431.861z"/>
	<path fill="#02BFE7" d="M214.428,430.014h2.746c1.715,0,3.118,0.611,3.118,2.53c0,1.871-1.427,2.687-3.07,2.687h-0.923v2.591
		h-1.871V430.014z M217.114,433.755c0.923,0,1.355-0.432,1.355-1.211s-0.492-1.056-1.403-1.056h-0.768v2.267H217.114z"/>
	<path fill="#02BFE7" d="M221.483,435.89v-6.452h1.847v6.524c0,0.384,0.192,0.504,0.336,0.504c0.072,0,0.12,0,0.216-0.024
		l0.216,1.367c-0.204,0.084-0.516,0.156-0.923,0.156C221.903,437.965,221.483,437.138,221.483,435.89z"/>
	<path fill="#02BFE7" d="M224.699,436.155c0-1.26,0.972-1.943,3.322-2.184c-0.048-0.491-0.3-0.779-0.911-0.779
		c-0.479,0-0.96,0.168-1.56,0.504l-0.647-1.199c0.779-0.479,1.631-0.779,2.566-0.779c1.535,0,2.398,0.852,2.398,2.722v3.383h-1.511
		l-0.132-0.6h-0.048c-0.492,0.443-1.031,0.743-1.703,0.743C225.383,437.965,224.699,437.15,224.699,436.155z M228.021,436.058
		v-0.947c-1.188,0.156-1.547,0.479-1.547,0.899c0,0.348,0.228,0.516,0.636,0.516C227.482,436.526,227.733,436.346,228.021,436.058z"
		/>
	<path fill="#02BFE7" d="M231.323,431.861h1.511l0.132,0.743h0.049c0.491-0.479,1.091-0.887,1.906-0.887
		c1.296,0,1.848,0.923,1.848,2.41v3.694h-1.859v-3.454c0-0.828-0.216-1.08-0.695-1.08c-0.42,0-0.672,0.204-1.044,0.54v3.994h-1.847
		V431.861z"/>
</g>
<g>
</g>
<g>
</g>
<g>
</g>
<g>
</g>
<g>
</g>
<g>
</g>
<g>
</g>
<g>
</g>
<g>
</g>
<g>
</g>
<g>
</g>
<g>
</g>
<g>
</g>
<g>
</g>
<g>
</g>
</svg>
