<?xml version="1.0" encoding="UTF-8" standalone="no"?>
<svg width="756px" height="756px" viewBox="0 0 756 756" version="1.1" xmlns="http://www.w3.org/2000/svg" xmlns:xlink="http://www.w3.org/1999/xlink">
    <!-- Generator: Sketch 3.8.3 (29802) - http://www.bohemiancoding.com/sketch -->
    <title>Artboard 1</title>
    <desc>Created with Sketch.</desc>
    <defs></defs>
    <g id="Page-1" stroke="none" stroke-width="1" fill="none" fill-rule="evenodd">
        <g id="Artboard-1">
            <circle id="Oval-79" stroke="#113969" stroke-width="40" fill="#F1F1F1" cx="378.486328" cy="370.486328" r="315.486328"></circle>
            <g id="Radial-Lines" opacity="0.104302705" transform="translate(-223.000000, -228.000000)" stroke-linecap="square" stroke="#4A4A4A" stroke-width="2">
                <g id="Group-9" transform="translate(61.649783, 61.649783)">
                    <g id="Group-6" transform="translate(539.708394, 539.981910) rotate(-270.000000) translate(-539.708394, -539.981910) translate(539.208394, 261.481910)">
                        <path d="M-1.13686838e-13,0.434153401 L-1.13686838e-13,263.773153" id="Line"></path>
                        <path d="M-1.13686838e-13,556.150507 L-1.13686838e-13,292.811507" id="Line"></path>
                    </g>
                    <g id="Group-8" transform="translate(145.145423, 145.138929)">
                        <g id="Group-6" transform="translate(394.342981, 116.484805)">
                            <path d="M1.13686838e-13,0.434153401 L1.13686838e-13,263.773153" id="Line"></path>
                            <path d="M1.13686838e-13,556.150507 L1.13686838e-13,292.811507" id="Line"></path>
                        </g>
                        <g id="Group-7" transform="translate(394.717271, 395.130688) rotate(-45.000000) translate(-394.717271, -395.130688) translate(115.717271, 116.630688)">
                            <g id="Group-6" transform="translate(278.858177, -0.000000)">
                                <path d="M0,0.434153401 L0,263.773153" id="Line"></path>
                                <path d="M-1.70530257e-13,556.150507 L-1.70530257e-13,292.811507" id="Line"></path>
                            </g>
                            <g id="Group-6" transform="translate(279.084660, 278.358177) rotate(-270.000000) translate(-279.084660, -278.358177) translate(278.584660, -0.141823)">
                                <path d="M-2.27373675e-13,0.434153401 L-2.27373675e-13,263.773153" id="Line"></path>
                                <path d="M5.68434189e-14,556.150507 L5.68434189e-14,292.811507" id="Line"></path>
                            </g>
                        </g>
                    </g>
                    <g id="offset-1" transform="translate(539.564625, 539.964009) rotate(-330.000000) translate(-539.564625, -539.964009) translate(145.064625, 144.964009)">
                        <g id="Group-6" transform="translate(394.342981, 116.484805)">
                            <path d="M-2.84217094e-13,0.434153401 L-2.84217094e-13,263.773153" id="Line"></path>
                            <path d="M-1.70530257e-13,556.150507 L-1.70530257e-13,292.811507" id="Line"></path>
                        </g>
                        <g id="Group-7" transform="translate(115.484805, 116.484805)">
                            <g id="Group-6" transform="translate(278.858177, 0.000000)">
                                <path d="M-3.41060513e-13,0.434153401 L-3.41060513e-13,263.773153" id="Line"></path>
                                <path d="M0,556.150507 L0,292.811507" id="Line"></path>
                            </g>
                            <g id="Group-6" transform="translate(279.084660, 278.358177) rotate(-270.000000) translate(-279.084660, -278.358177) translate(278.584660, -0.141823)">
                                <path d="M-1.13686838e-13,0.434153401 L-1.13686838e-13,263.773153" id="Line"></path>
                                <path d="M1.70530257e-13,556.150507 L1.70530257e-13,292.811507" id="Line"></path>
                            </g>
                        </g>
                        <g id="Group-7" transform="translate(394.717271, 395.130688) rotate(-45.000000) translate(-394.717271, -395.130688) translate(115.717271, 116.630688)">
                            <g id="Group-6" transform="translate(278.858177, -0.000000)">
                                <path d="M-3.97903932e-13,0.434153401 L-3.97903932e-13,263.773153" id="Line"></path>
                                <path d="M-5.1159077e-13,556.150507 L-5.1159077e-13,292.811507" id="Line"></path>
                            </g>
                            <g id="Group-6" transform="translate(279.084660, 278.358177) rotate(-270.000000) translate(-279.084660, -278.358177) translate(278.584660, -0.141823)">
                                <path d="M-2.27373675e-13,0.434153401 L-2.27373675e-13,263.773153" id="Line"></path>
                                <path d="M5.68434189e-14,556.150507 L5.68434189e-14,292.811507" id="Line"></path>
                            </g>
                        </g>
                    </g>
                    <g id="offset-1" transform="translate(539.584489, 539.780996) rotate(-300.000000) translate(-539.584489, -539.780996) translate(145.084489, 144.780996)">
                        <g id="Group-6" transform="translate(394.342981, 116.484805)">
                            <path d="M2.27373675e-13,0.434153401 L2.27373675e-13,263.773153" id="Line"></path>
                            <path d="M3.41060513e-13,556.150507 L3.41060513e-13,292.811507" id="Line"></path>
                        </g>
                        <g id="Group-7" transform="translate(115.484805, 116.484805)">
                            <g id="Group-6" transform="translate(278.858177, -0.000000)">
                                <path d="M0,0.434153401 L0,263.773153" id="Line"></path>
                                <path d="M0,556.150507 L0,292.811507" id="Line"></path>
                            </g>
                            <g id="Group-6" transform="translate(279.084660, 278.358177) rotate(-270.000000) translate(-279.084660, -278.358177) translate(278.584660, -0.141823)">
                                <path d="M2.84217094e-13,0.434153401 L2.84217094e-13,263.773153" id="Line"></path>
                                <path d="M3.41060513e-13,556.150507 L3.41060513e-13,292.811507" id="Line"></path>
                            </g>
                        </g>
                        <g id="Group-7" transform="translate(394.717271, 395.130688) rotate(-45.000000) translate(-394.717271, -395.130688) translate(115.717271, 116.630688)">
                            <g id="Group-6" transform="translate(278.858177, -0.000000)">
                                <path d="M-2.27373675e-13,0.434153401 L-2.27373675e-13,263.773153" id="Line"></path>
                                <path d="M0,556.150507 L0,292.811507" id="Line"></path>
                            </g>
                            <g id="Group-6" transform="translate(279.084660, 278.358177) rotate(-270.000000) translate(-279.084660, -278.358177) translate(278.584660, -0.141823)">
                                <path d="M1.70530257e-13,0.434153401 L1.70530257e-13,263.773153" id="Line"></path>
                                <path d="M3.41060513e-13,556.150507 L3.41060513e-13,292.811507" id="Line"></path>
                            </g>
                        </g>
                    </g>
                </g>
                <g id="Group-9" transform="translate(601.306595, 601.762392) rotate(7.000000) translate(-601.306595, -601.762392) translate(61.806595, 61.762392)">
                    <g id="Group-6" transform="translate(539.708394, 539.981910) rotate(-270.000000) translate(-539.708394, -539.981910) translate(539.208394, 261.481910)">
                        <path d="M5.68434189e-13,0.434153401 L5.68434189e-13,263.773153" id="Line"></path>
                        <path d="M5.68434189e-13,556.150507 L5.68434189e-13,292.811507" id="Line"></path>
                    </g>
                    <g id="Group-8" transform="translate(145.145423, 145.138929)">
                        <g id="Group-6" transform="translate(394.342981, 116.484805)">
                            <path d="M0,0.434153401 L0,263.773153" id="Line"></path>
                            <path d="M0,556.150507 L0,292.811507" id="Line"></path>
                        </g>
                        <g id="Group-7" transform="translate(115.484805, 116.484805)">
                            <g id="Group-6" transform="translate(278.858177, 0.000000)">
                                <path d="M0,0.434153401 L0,263.773153" id="Line"></path>
                                <path d="M0,556.150507 L0,292.811507" id="Line"></path>
                            </g>
                            <g id="Group-6" transform="translate(279.084660, 278.358177) rotate(-270.000000) translate(-279.084660, -278.358177) translate(278.584660, -0.141823)">
                                <path d="M7.38964445e-13,0.434153401 L7.38964445e-13,263.773153" id="Line"></path>
                                <path d="M3.41060513e-13,556.150507 L3.41060513e-13,292.811507" id="Line"></path>
                            </g>
                        </g>
                        <g id="Group-7" transform="translate(394.717271, 395.130688) rotate(-45.000000) translate(-394.717271, -395.130688) translate(115.717271, 116.630688)">
                            <g id="Group-6" transform="translate(278.858177, 0.000000)">
                                <path d="M-1.13686838e-13,0.434153401 L-1.13686838e-13,263.773153" id="Line"></path>
                                <path d="M1.70530257e-13,556.150507 L1.70530257e-13,292.811507" id="Line"></path>
                            </g>
                            <g id="Group-6" transform="translate(279.084660, 278.358177) rotate(-270.000000) translate(-279.084660, -278.358177) translate(278.584660, -0.141823)">
                                <path d="M2.27373675e-13,0.434153401 L2.27373675e-13,263.773153" id="Line"></path>
                                <path d="M6.25277607e-13,556.150507 L6.25277607e-13,292.811507" id="Line"></path>
                            </g>
                        </g>
                    </g>
                    <g id="offset-1" transform="translate(539.564625, 539.964009) rotate(-330.000000) translate(-539.564625, -539.964009) translate(145.064625, 144.964009)">
                        <g id="Group-6" transform="translate(394.342981, 116.484805)">
                            <path d="M2.84217094e-13,0.434153401 L2.84217094e-13,263.773153" id="Line"></path>
                            <path d="M2.84217094e-13,556.150507 L2.84217094e-13,292.811507" id="Line"></path>
                        </g>
                        <g id="Group-7" transform="translate(115.484805, 116.484805)">
                            <g id="Group-6" transform="translate(278.858177, 0.000000)">
                                <path d="M2.27373675e-13,0.434153401 L2.27373675e-13,263.773153" id="Line"></path>
                                <path d="M2.27373675e-13,556.150507 L2.27373675e-13,292.811507" id="Line"></path>
                            </g>
                            <g id="Group-6" transform="translate(279.084660, 278.358177) rotate(-270.000000) translate(-279.084660, -278.358177) translate(278.584660, -0.141823)">
                                <path d="M-2.27373675e-13,0.434153401 L-2.27373675e-13,263.773153" id="Line"></path>
                                <path d="M-3.97903932e-13,556.150507 L-3.97903932e-13,292.811507" id="Line"></path>
                            </g>
                        </g>
                        <g id="Group-7" transform="translate(394.717271, 395.130688) rotate(-45.000000) translate(-394.717271, -395.130688) translate(115.717271, 116.630688)">
                            <g id="Group-6" transform="translate(278.858177, -0.000000)">
                                <path d="M-1.13686838e-13,0.434153401 L-1.13686838e-13,263.773153" id="Line"></path>
                                <path d="M-3.97903932e-13,556.150507 L-3.97903932e-13,292.811507" id="Line"></path>
                            </g>
                            <g id="Group-6" transform="translate(279.084660, 278.358177) rotate(-270.000000) translate(-279.084660, -278.358177) translate(278.584660, -0.141823)">
                                <path d="M-1.13686838e-13,0.434153401 L-1.13686838e-13,263.773153" id="Line"></path>
                                <path d="M-2.84217094e-13,556.150507 L-2.84217094e-13,292.811507" id="Line"></path>
                            </g>
                        </g>
                    </g>
                    <g id="offset-1" transform="translate(539.584489, 539.780996) rotate(-300.000000) translate(-539.584489, -539.780996) translate(145.084489, 144.780996)">
                        <g id="Group-6" transform="translate(394.342981, 116.484805)">
                            <path d="M5.68434189e-13,0.434153401 L5.68434189e-13,263.773153" id="Line"></path>
                            <path d="M5.68434189e-13,556.150507 L5.68434189e-13,292.811507" id="Line"></path>
                        </g>
                        <g id="Group-7" transform="translate(115.484805, 116.484805)">
                            <g id="Group-6" transform="translate(278.858177, -0.000000)">
                                <path d="M4.54747351e-13,0.434153401 L4.54747351e-13,263.773153" id="Line"></path>
                                <path d="M4.54747351e-13,556.150507 L4.54747351e-13,292.811507" id="Line"></path>
                            </g>
                            <g id="Group-6" transform="translate(279.084660, 278.358177) rotate(-270.000000) translate(-279.084660, -278.358177) translate(278.584660, -0.141823)">
                                <path d="M5.68434189e-14,0.434153401 L5.68434189e-14,263.773153" id="Line"></path>
                                <path d="M0,556.150507 L0,292.811507" id="Line"></path>
                            </g>
                        </g>
                        <g id="Group-7" transform="translate(394.717271, 395.130688) rotate(-45.000000) translate(-394.717271, -395.130688) translate(115.717271, 116.630688)">
                            <g id="Group-6" transform="translate(278.858177, -0.000000)">
                                <path d="M-4.54747351e-13,0.434153401 L-4.54747351e-13,263.773153" id="Line"></path>
                                <path d="M5.68434189e-14,556.150507 L5.68434189e-14,292.811507" id="Line"></path>
                            </g>
                            <g id="Group-6" transform="translate(279.084660, 278.358177) rotate(-270.000000) translate(-279.084660, -278.358177) translate(278.584660, -0.141823)">
                                <path d="M-3.41060513e-13,0.434153401 L-3.41060513e-13,263.773153" id="Line"></path>
                                <path d="M2.84217094e-13,556.150507 L2.84217094e-13,292.811507" id="Line"></path>
                            </g>
                        </g>
                    </g>
                </g>
            </g>
            <polygon id="Rectangle-4" fill="#F0F0F0" opacity="0.596315299" points="180.46875 570.882812 152 543.587891 192.660156 501 578.292969 501 605.179688 538.087891 552.755859 594.101562 207.125 594.101562"></polygon>
            <g id="Wings" transform="translate(64.000000, 291.000000)" fill="#F5A623">
                <path d="M322.010448,0 L628.989126,0 C628.989126,0 610.797836,60.6880388 586.200118,60.6880388 L356.050892,60.6880388 L322.010448,0 Z" id="Rectangle-1"></path>
                <path d="M314.5,66 L576.512634,66 C576.512634,66 560.985993,117.798493 539.991333,117.798493 L343.554222,117.798493 L314.5,66 Z" id="Rectangle-1"></path>
                <path d="M309.80597,123 L531.431191,123 C531.431191,123 518.297873,166.814118 500.539393,166.814118 L334.381687,166.814118 L309.80597,123 Z" id="Rectangle-1"></path>
                <path d="M5.68434189e-14,7.10542736e-15 C5.68434189e-14,7.10542736e-15 17.9501048,60.6880388 42.2217,60.6880388 L269.319545,60.6880388 L302.908672,0 L5.68434189e-14,7.10542736e-15 Z" id="Rectangle-1"></path>
                <path d="M51.6343284,66 C51.6343284,66 66.955113,117.798493 87.6714202,117.798493 L281.504115,117.798493 L310.173128,66 L51.6343284,66 Z" id="Rectangle-1"></path>
                <path d="M95.758209,123 C95.758209,123 108.717402,166.814118 126.240435,166.814118 L290.195178,166.814118 L314.445063,123 L95.758209,123 Z" id="Rectangle-1"></path>
            </g>
            <ellipse id="Oval-1" stroke="#112E51" stroke-width="10" fill="#FFFFFF" cx="378.633588" cy="373.544444" rx="122.633588" ry="122.544444"></ellipse>
            <g id="triangle-connect" transform="translate(278.000000, 271.000000)" stroke="#9B9B9B" stroke-width="2" stroke-linecap="square">
                <path d="M101.199972,204.144518 L78.1009099,181.011628" id="Line"></path>
                <path d="M78.1009099,181.011628 L49.4020757,189.423588" id="Line"></path>
                <path d="M49.4020757,189.423588 L41.7023885,159.981728" id="Line"></path>
                <path d="M42.4023601,159.280731 L14.4034975,154.373754" id="Line"></path>
                <path d="M14.4034975,154.373754 L21.0000001,123" id="Line"></path>
                <path d="M21.0000008,122 L1.10403775,103.200997" id="Line"></path>
                <path d="M1.10403775,103.200997 L22.0000008,80" id="line-adjust-2"></path>
                <path d="M22.0000001,79.0000005 L15,51" id="line-adjust-1"></path>
                <path d="M14.4034975,51.3272425 L42.4023601,47.1212625" id="Line"></path>
                <path d="M42.4023601,47.1212625 L49.4020757,15.576412" id="Line"></path>
                <path d="M78.1009099,24.6893688 L49.4020757,15.576412" id="Line"></path>
                <path d="M100.5,1.55647841 L78.8008815,24.6893688" id="Line"></path>
                <path d="M101.199972,0.855481728 L122.199119,23.9883721" id="Line"></path>
                <path d="M122.199119,23.9883721 L152.297896,15.576412" id="Line"></path>
                <path d="M152.297896,15.576412 L157.897668,46.4202658" id="Line"></path>
                <path d="M157.897668,46.4202658 L186.596503,52.0282392" id="Line"></path>
                <path d="M186.596503,52.0282392 L177.496872,79.3671096" id="Line"></path>
                <path d="M177.496872,79.3671096 L200.595934,103.200997" id="Line"></path>
                <path d="M200.595934,103.200997 L177.496872,122.828904" id="Line"></path>
                <path d="M177.496872,122.828904 L186.596503,153.672757" id="Line"></path>
                <path d="M186.596503,153.672757 L157.897668,159.280731" id="Line"></path>
                <path d="M157.897668,159.280731 L152.297896,188.722591" id="Line"></path>
                <path d="M152.297896,189.423588 L122.199119,181.712625" id="Line"></path>
                <path d="M122.199119,181.712625 L101.199972,203.443522" id="Line"></path>
            </g>
            <polygon id="Polygon-1" stroke="#9B9B9B" stroke-width="2" points="378.795905 273 429.193858 286.523868 466.08772 323.471761 479.591811 373.943522 466.08772 424.415282 429.193858 461.363176 378.795905 474.887043 328.397953 461.363176 291.504091 424.415282 278 373.943522 291.504091 323.471761 328.397953 286.523868"></polygon>
            <polygon id="Polygon-1" stroke="#9B9B9B" stroke-width="2" transform="translate(378.196702, 374.315615) rotate(-345.000000) translate(-378.196702, -374.315615) " points="378.196702 293 418.795052 303.894227 448.515108 333.657807 459.393403 374.315615 448.515108 414.973422 418.795052 444.737003 378.196702 455.631229 337.598351 444.737003 307.878295 414.973422 297 374.315615 307.878295 333.657807 337.598351 303.894227"></polygon>
            <g id="Nodes" transform="translate(273.000000, 268.000000)" stroke="#9B9B9B" stroke-width="2" fill="#D8D8D8">
                <ellipse id="Oval-2" cx="105.849986" cy="4.90697674" rx="4.89980096" ry="4.90697674"></ellipse>
                <ellipse id="Oval-2" transform="translate(27.153142, 126.179402) rotate(-90.000000) translate(-27.153142, -126.179402) " cx="27.1531421" cy="126.179402" rx="4.89980096" ry="4.90697674"></ellipse>
                <ellipse id="Oval-adjust-1" transform="translate(26.153142, 82.717608) rotate(-90.000000) translate(-26.153142, -82.717608) " cx="26.1531421" cy="82.717608" rx="4.89980096" ry="4.90697674"></ellipse>
                <ellipse id="Oval-2" transform="translate(182.146886, 126.179402) rotate(-90.000000) translate(-182.146886, -126.179402) " cx="182.146886" cy="126.179402" rx="4.89980096" ry="4.90697674"></ellipse>
                <ellipse id="Oval-2" transform="translate(182.146886, 82.717608) rotate(-90.000000) translate(-182.146886, -82.717608) " cx="182.146886" cy="82.717608" rx="4.89980096" ry="4.90697674"></ellipse>
                <ellipse id="Oval-2" cx="54.7520615" cy="18.9269103" rx="4.89980096" ry="4.90697674"></ellipse>
                <ellipse id="Oval-2" cx="156.94791" cy="18.9269103" rx="4.89980096" ry="4.90697674"></ellipse>
                <ellipse id="Oval-2" cx="83.4508957" cy="27.3388704" rx="4.89980096" ry="4.90697674"></ellipse>
                <ellipse id="Oval-2" cx="126.849133" cy="27.3388704" rx="4.89980096" ry="4.90697674"></ellipse>
                <ellipse id="Oval-2" cx="163.247654" cy="49.7707641" rx="4.89980096" ry="4.90697674"></ellipse>
                <ellipse id="Oval-2" cx="47.0523743" cy="49.7707641" rx="4.89980096" ry="4.90697674"></ellipse>
                <ellipse id="Oval-2" transform="translate(126.849133, 184.362126) rotate(-180.000000) translate(-126.849133, -184.362126) " cx="126.849133" cy="184.362126" rx="4.89980096" ry="4.90697674"></ellipse>
                <ellipse id="Oval-2" transform="translate(83.450896, 184.362126) rotate(-180.000000) translate(-83.450896, -184.362126) " cx="83.4508957" cy="184.362126" rx="4.89980096" ry="4.90697674"></ellipse>
                <ellipse id="Oval-2" transform="translate(47.052374, 161.930233) rotate(-180.000000) translate(-47.052374, -161.930233) " cx="47.0523743" cy="161.930233" rx="4.89980096" ry="4.90697674"></ellipse>
                <ellipse id="Oval-2" transform="translate(163.247654, 161.930233) rotate(-180.000000) translate(-163.247654, -161.930233) " cx="163.247654" cy="161.930233" rx="4.89980096" ry="4.90697674"></ellipse>
                <ellipse id="Oval-2" transform="translate(5.743801, 105.850498) rotate(-180.000000) translate(-5.743801, -105.850498) " cx="5.74380084" cy="105.850498" rx="4.89980096" ry="4.90697674"></ellipse>
                <ellipse id="Oval-2" transform="translate(19.763734, 156.948423) rotate(-180.000000) translate(-19.763734, -156.948423) " cx="19.7637344" cy="156.948423" rx="4.89980096" ry="4.90697674"></ellipse>
                <ellipse id="Oval-2" transform="translate(19.763734, 54.752574) rotate(-180.000000) translate(-19.763734, -54.752574) " cx="19.7637344" cy="54.7525741" rx="4.89980096" ry="4.90697674"></ellipse>
                <ellipse id="Oval-2" transform="translate(205.256199, 105.850498) rotate(-360.000000) translate(-205.256199, -105.850498) " cx="205.256199" cy="105.850498" rx="4.89980096" ry="4.90697674"></ellipse>
                <ellipse id="Oval-2" transform="translate(191.236266, 54.752574) rotate(-360.000000) translate(-191.236266, -54.752574) " cx="191.236266" cy="54.7525741" rx="4.89980096" ry="4.90697674"></ellipse>
                <ellipse id="Oval-2" transform="translate(191.236266, 156.948423) rotate(-360.000000) translate(-191.236266, -156.948423) " cx="191.236266" cy="156.948423" rx="4.89980096" ry="4.90697674"></ellipse>
                <ellipse id="Oval-2" transform="translate(105.849986, 206.093023) rotate(-270.000000) translate(-105.849986, -206.093023) " cx="105.849986" cy="206.093023" rx="4.89980096" ry="4.90697674"></ellipse>
                <ellipse id="Oval-2" transform="translate(156.947910, 192.073090) rotate(-270.000000) translate(-156.947910, -192.073090) " cx="156.94791" cy="192.07309" rx="4.89980096" ry="4.90697674"></ellipse>
                <ellipse id="Oval-2" transform="translate(54.752062, 192.073090) rotate(-270.000000) translate(-54.752062, -192.073090) " cx="54.7520615" cy="192.07309" rx="4.89980096" ry="4.90697674"></ellipse>
            </g>
            <polygon id="Star-2" fill="#112E51" points="378.315064 400.343937 341.656338 425.823956 354.561107 383.085677 319 356.094917 363.634311 355.161227 378.315064 313 392.995816 355.161227 437.630128 356.094917 402.06902 383.085677 414.973789 425.823956"></polygon>
            <path d="M202.465,555.66 L210.745,555.66 C212.995011,555.66 215.019991,555.944997 216.82,556.515 C218.620009,557.085003 220.164994,557.962494 221.455,559.1475 C222.745006,560.332506 223.734997,561.839991 224.425,563.67 C225.115003,565.500009 225.46,567.674987 225.46,570.195 C225.46,572.715013 225.115003,574.904991 224.425,576.765 C223.734997,578.625009 222.760006,580.162494 221.5,581.3775 C220.239994,582.592506 218.732509,583.499997 216.9775,584.1 C215.222491,584.700003 213.265011,585 211.105,585 L202.465,585 L202.465,555.66 Z M210.34,579.645 C211.600006,579.645 212.739995,579.480002 213.76,579.15 C214.780005,578.819998 215.649996,578.287504 216.37,577.5525 C217.090004,576.817496 217.652498,575.850006 218.0575,574.65 C218.462502,573.449994 218.665,571.965009 218.665,570.195 C218.665,568.454991 218.462502,566.992506 218.0575,565.8075 C217.652498,564.622494 217.090004,563.677504 216.37,562.9725 C215.649996,562.267496 214.780005,561.765002 213.76,561.465 C212.739995,561.164999 211.600006,561.015 210.34,561.015 L209.08,561.015 L209.08,579.645 L210.34,579.645 Z M243.01,572.85 L242.335,570.15 C241.914998,568.679993 241.510002,567.120008 241.12,565.47 C240.729998,563.819992 240.340002,562.230008 239.95,560.7 L239.77,560.7 C239.409998,562.260008 239.042502,563.857492 238.6675,565.4925 C238.292498,567.127508 237.895002,568.679993 237.475,570.15 L236.755,572.85 L243.01,572.85 Z M244.36,578.025 L235.405,578.025 L233.605,585 L226.855,585 L236.035,555.66 L244,555.66 L253.18,585 L246.16,585 L244.36,578.025 Z M260.29,561.24 L252.235,561.24 L252.235,555.66 L275.005,555.66 L275.005,561.24 L266.95,561.24 L266.95,585 L260.29,585 L260.29,561.24 Z M290.215,572.85 L289.54,570.15 C289.119998,568.679993 288.715002,567.120008 288.325,565.47 C287.934998,563.819992 287.545002,562.230008 287.155,560.7 L286.975,560.7 C286.614998,562.260008 286.247502,563.857492 285.8725,565.4925 C285.497498,567.127508 285.100002,568.679993 284.68,570.15 L283.96,572.85 L290.215,572.85 Z M291.565,578.025 L282.61,578.025 L280.81,585 L274.06,585 L283.24,555.66 L291.205,555.66 L300.385,585 L293.365,585 L291.565,578.025 Z M312.94,555.66 L331.435,555.66 L331.435,561.24 L319.555,561.24 L319.555,568.035 L329.725,568.035 L329.725,573.615 L319.555,573.615 L319.555,585 L312.94,585 L312.94,555.66 Z M336.52,555.66 L354.88,555.66 L354.88,561.24 L343.135,561.24 L343.135,567.135 L353.125,567.135 L353.125,572.67 L343.135,572.67 L343.135,579.42 L355.33,579.42 L355.33,585 L336.52,585 L336.52,555.66 Z M361.18,555.66 L369.46,555.66 C371.710011,555.66 373.734991,555.944997 375.535,556.515 C377.335009,557.085003 378.879994,557.962494 380.17,559.1475 C381.460006,560.332506 382.449997,561.839991 383.14,563.67 C383.830003,565.500009 384.175,567.674987 384.175,570.195 C384.175,572.715013 383.830003,574.904991 383.14,576.765 C382.449997,578.625009 381.475006,580.162494 380.215,581.3775 C378.954994,582.592506 377.447509,583.499997 375.6925,584.1 C373.937491,584.700003 371.980011,585 369.82,585 L361.18,585 L361.18,555.66 Z M369.055,579.645 C370.315006,579.645 371.454995,579.480002 372.475,579.15 C373.495005,578.819998 374.364996,578.287504 375.085,577.5525 C375.805004,576.817496 376.367498,575.850006 376.7725,574.65 C377.177502,573.449994 377.38,571.965009 377.38,570.195 C377.38,568.454991 377.177502,566.992506 376.7725,565.8075 C376.367498,564.622494 375.805004,563.677504 375.085,562.9725 C374.364996,562.267496 373.495005,561.765002 372.475,561.465 C371.454995,561.164999 370.315006,561.015 369.055,561.015 L367.795,561.015 L367.795,579.645 L369.055,579.645 Z M389.755,555.66 L408.115,555.66 L408.115,561.24 L396.37,561.24 L396.37,567.135 L406.36,567.135 L406.36,572.67 L396.37,572.67 L396.37,579.42 L408.565,579.42 L408.565,585 L389.755,585 L389.755,555.66 Z M421.03,569.16 L424.45,569.16 C426.190009,569.16 427.517495,568.792504 428.4325,568.0575 C429.347505,567.322496 429.805,566.235007 429.805,564.795 C429.805,563.354993 429.347505,562.350003 428.4325,561.78 C427.517495,561.209997 426.190009,560.925 424.45,560.925 L421.03,560.925 L421.03,569.16 Z M430.3,585 L424.675,574.425 L421.03,574.425 L421.03,585 L414.415,585 L414.415,555.66 L424.99,555.66 C426.550008,555.66 428.012493,555.809999 429.3775,556.11 C430.742507,556.410002 431.934995,556.912496 432.955,557.6175 C433.975005,558.322504 434.784997,559.259994 435.385,560.43 C435.985003,561.600006 436.285,563.054991 436.285,564.795 C436.285,566.955011 435.812505,568.732493 434.8675,570.1275 C433.922495,571.522507 432.655008,572.564997 431.065,573.255 L437.725,585 L430.3,585 Z M454.105,572.85 L453.43,570.15 C453.009998,568.679993 452.605002,567.120008 452.215,565.47 C451.824998,563.819992 451.435002,562.230008 451.045,560.7 L450.865,560.7 C450.504998,562.260008 450.137502,563.857492 449.7625,565.4925 C449.387498,567.127508 448.990002,568.679993 448.57,570.15 L447.85,572.85 L454.105,572.85 Z M455.455,578.025 L446.5,578.025 L444.7,585 L437.95,585 L447.13,555.66 L455.095,555.66 L464.275,585 L457.255,585 L455.455,578.025 Z M471.385,561.24 L463.33,561.24 L463.33,555.66 L486.1,555.66 L486.1,561.24 L478.045,561.24 L478.045,585 L471.385,585 L471.385,561.24 Z M490.69,555.66 L497.305,555.66 L497.305,585 L490.69,585 L490.69,555.66 Z M516.16,585.54 C514.17999,585.54 512.372508,585.187504 510.7375,584.4825 C509.102492,583.777496 507.700006,582.765007 506.53,581.445 C505.359994,580.124993 504.452503,578.520009 503.8075,576.63 C503.162497,574.739991 502.84,572.595012 502.84,570.195 C502.84,567.794988 503.162497,565.657509 503.8075,563.7825 C504.452503,561.907491 505.359994,560.332506 506.53,559.0575 C507.700006,557.782494 509.102492,556.807503 510.7375,556.1325 C512.372508,555.457497 514.17999,555.12 516.16,555.12 C518.14001,555.12 519.947492,555.457497 521.5825,556.1325 C523.217508,556.807503 524.619994,557.789994 525.79,559.08 C526.960006,560.370006 527.867497,561.952491 528.5125,563.8275 C529.157503,565.702509 529.48,567.824988 529.48,570.195 C529.48,572.595012 529.157503,574.739991 528.5125,576.63 C527.867497,578.520009 526.960006,580.124993 525.79,581.445 C524.619994,582.765007 523.217508,583.777496 521.5825,584.4825 C519.947492,585.187504 518.14001,585.54 516.16,585.54 L516.16,585.54 Z M516.16,579.825 C518.17001,579.825 519.759994,578.962509 520.93,577.2375 C522.100006,575.512491 522.685,573.165015 522.685,570.195 C522.685,567.254985 522.100006,564.960008 520.93,563.31 C519.759994,561.659992 518.17001,560.835 516.16,560.835 C514.14999,560.835 512.560006,561.659992 511.39,563.31 C510.219994,564.960008 509.635,567.254985 509.635,570.195 C509.635,573.165015 510.219994,575.512491 511.39,577.2375 C512.560006,578.962509 514.14999,579.825 516.16,579.825 L516.16,579.825 Z M535.015,555.66 L541.81,555.66 L549.46,570.24 L552.34,576.72 L552.52,576.72 C552.369999,575.159992 552.197501,573.42001 552.0025,571.5 C551.807499,569.57999 551.71,567.750009 551.71,566.01 L551.71,555.66 L558.01,555.66 L558.01,585 L551.215,585 L543.565,570.375 L540.685,563.985 L540.505,563.985 C540.655001,565.605008 540.827499,567.344991 541.0225,569.205 C541.217501,571.065009 541.315,572.864991 541.315,574.605 L541.315,585 L535.015,585 L535.015,555.66 Z" id="DATA-FEDERATION" fill="#000000"></path>
            <path d="M206.718,517.802 L198.204,517.802 L198.204,514.792 L218.844,514.792 L218.844,517.802 L210.33,517.802 L210.33,543 L206.718,543 L206.718,517.802 Z M223.918,514.792 L227.487,514.792 L227.487,526.617 L240.602,526.617 L240.602,514.792 L244.214,514.792 L244.214,543 L240.602,543 L240.602,529.713 L227.487,529.713 L227.487,543 L223.918,543 L223.918,514.792 Z M251.954,514.792 L268.208,514.792 L268.208,517.802 L255.523,517.802 L255.523,526.66 L266.23,526.66 L266.23,529.713 L255.523,529.713 L255.523,539.947 L268.638,539.947 L268.638,543 L251.954,543 L251.954,514.792 Z M283.172,514.792 L286.741,514.792 L286.741,531.433 C286.741,533.124342 286.912998,534.543328 287.257,535.69 C287.601002,536.836672 288.06683,537.753997 288.6545,538.442 C289.24217,539.130003 289.937329,539.624498 290.74,539.9255 C291.542671,540.226502 292.402662,540.377 293.32,540.377 C294.266005,540.377 295.140329,540.226502 295.943,539.9255 C296.745671,539.624498 297.447997,539.130003 298.05,538.442 C298.652003,537.753997 299.124998,536.836672 299.469,535.69 C299.813002,534.543328 299.985,533.124342 299.985,531.433 L299.985,514.792 L303.425,514.792 L303.425,531.347 C303.425,533.611678 303.167003,535.517992 302.651,537.066 C302.134997,538.614008 301.425505,539.868162 300.5225,540.8285 C299.619495,541.788838 298.551673,542.476831 297.319,542.8925 C296.086327,543.308169 294.75334,543.516 293.32,543.516 C291.886659,543.516 290.546506,543.308169 289.2995,542.8925 C288.052494,542.476831 286.977505,541.788838 286.0745,540.8285 C285.171495,539.868162 284.462003,538.614008 283.946,537.066 C283.429997,535.517992 283.172,533.611678 283.172,531.347 L283.172,514.792 Z M311.036,514.792 L314.734,514.792 L324.925,532.508 L327.978,538.356 L328.15,538.356 C328.064,536.92266 327.970834,535.439174 327.8705,533.9055 C327.770166,532.371826 327.72,530.859674 327.72,529.369 L327.72,514.792 L331.117,514.792 L331.117,543 L327.419,543 L317.185,525.241 L314.132,519.436 L313.96,519.436 C314.074667,520.869341 314.182166,522.324159 314.2825,523.8005 C314.382834,525.276841 314.433,526.760326 314.433,528.251 L314.433,543 L311.036,543 L311.036,514.792 Z M338.857,514.792 L342.426,514.792 L342.426,543 L338.857,543 L338.857,514.792 Z M356.014,517.802 L347.5,517.802 L347.5,514.792 L368.14,514.792 L368.14,517.802 L359.626,517.802 L359.626,543 L356.014,543 L356.014,517.802 Z M373.214,514.792 L389.468,514.792 L389.468,517.802 L376.783,517.802 L376.783,526.66 L387.49,526.66 L387.49,529.713 L376.783,529.713 L376.783,539.947 L389.898,539.947 L389.898,543 L373.214,543 L373.214,514.792 Z M395.875,514.792 L402.927,514.792 C407.284355,514.792 410.595322,515.995988 412.86,518.404 C415.124678,520.812012 416.257,524.266311 416.257,528.767 C416.257,531.003011 415.970336,533.002491 415.397,534.7655 C414.823664,536.528509 413.978006,538.019161 412.86,539.2375 C411.741994,540.455839 410.366008,541.387497 408.732,542.0325 C407.097992,542.677503 405.220344,543 403.099,543 L395.875,543 L395.875,514.792 Z M402.669,540.076 C405.965683,540.076 408.438158,539.08701 410.0865,537.109 C411.734842,535.13099 412.559,532.350351 412.559,528.767 C412.559,525.183649 411.734842,522.446009 410.0865,520.554 C408.438158,518.661991 405.965683,517.716 402.669,517.716 L399.444,517.716 L399.444,540.076 L402.669,540.076 Z M431.092,536.851 C432.095338,537.911672 433.277827,538.764497 434.6395,539.4095 C436.001173,540.054503 437.412993,540.377 438.875,540.377 C440.738343,540.377 442.185995,539.954171 443.218,539.1085 C444.250005,538.262829 444.766,537.152007 444.766,535.776 C444.766,535.05933 444.644168,534.450169 444.4005,533.9485 C444.156832,533.446831 443.827169,533.016835 443.4115,532.6585 C442.995831,532.300165 442.501336,531.977668 441.928,531.691 C441.354664,531.404332 440.738337,531.103335 440.079,530.788 L436.037,529.025 C435.377663,528.738332 434.704003,528.394335 434.016,527.993 C433.327997,527.591665 432.711669,527.104336 432.167,526.531 C431.622331,525.957664 431.178002,525.276837 430.834,524.4885 C430.489998,523.700163 430.318,522.790005 430.318,521.758 C430.318,520.697328 430.540164,519.708338 430.9845,518.791 C431.428836,517.873662 432.045163,517.07817 432.8335,516.4045 C433.621837,515.73083 434.553495,515.207669 435.6285,514.835 C436.703505,514.462331 437.885994,514.276 439.176,514.276 C440.867342,514.276 442.429659,514.598497 443.863,515.2435 C445.296341,515.888503 446.514662,516.726995 447.518,517.759 L445.583,520.081 C444.722996,519.249663 443.769839,518.597502 442.7235,518.1245 C441.677161,517.651498 440.494673,517.415 439.176,517.415 C437.599325,517.415 436.330838,517.780496 435.3705,518.5115 C434.410162,519.242504 433.93,520.252994 433.93,521.543 C433.93,522.231003 434.066165,522.811498 434.3385,523.2845 C434.610835,523.757502 434.976331,524.173165 435.435,524.5315 C435.893669,524.889835 436.395331,525.205165 436.94,525.4775 C437.484669,525.749835 438.043664,526.000666 438.617,526.23 L442.616,527.95 C443.418671,528.294002 444.17833,528.688164 444.895,529.1325 C445.61167,529.576836 446.227997,530.09283 446.744,530.6805 C447.260003,531.26817 447.668498,531.956163 447.9695,532.7445 C448.270502,533.532837 448.421,534.442995 448.421,535.475 C448.421,536.593006 448.198836,537.639328 447.7545,538.614 C447.310164,539.588672 446.672337,540.441496 445.841,541.1725 C445.009663,541.903504 444.006339,542.476831 442.831,542.8925 C441.655661,543.308169 440.322674,543.516 438.832,543.516 C436.85399,543.516 435.019342,543.143337 433.328,542.398 C431.636658,541.652663 430.174673,540.635006 428.942,539.345 L431.092,536.851 Z M458.956,517.802 L450.442,517.802 L450.442,514.792 L471.082,514.792 L471.082,517.802 L462.568,517.802 L462.568,543 L458.956,543 L458.956,517.802 Z M486.433,531.519 L485.1,527.219 C484.583997,525.642325 484.096669,524.072841 483.638,522.5105 C483.179331,520.948159 482.720669,519.350008 482.262,517.716 L482.09,517.716 C481.659998,519.350008 481.215669,520.948159 480.757,522.5105 C480.298331,524.072841 479.811003,525.642325 479.295,527.219 L477.962,531.519 L486.433,531.519 Z M487.336,534.4 L477.059,534.4 L474.35,543 L470.695,543 L480.241,514.792 L484.283,514.792 L493.829,543 L490.002,543 L487.336,534.4 Z M501.956,517.802 L493.442,517.802 L493.442,514.792 L514.082,514.792 L514.082,517.802 L505.568,517.802 L505.568,543 L501.956,543 L501.956,517.802 Z M519.156,514.792 L535.41,514.792 L535.41,517.802 L522.725,517.802 L522.725,526.66 L533.432,526.66 L533.432,529.713 L522.725,529.713 L522.725,539.947 L535.84,539.947 L535.84,543 L519.156,543 L519.156,514.792 Z M541.903,536.851 C542.906338,537.911672 544.088827,538.764497 545.4505,539.4095 C546.812173,540.054503 548.223993,540.377 549.686,540.377 C551.549343,540.377 552.996995,539.954171 554.029,539.1085 C555.061005,538.262829 555.577,537.152007 555.577,535.776 C555.577,535.05933 555.455168,534.450169 555.2115,533.9485 C554.967832,533.446831 554.638169,533.016835 554.2225,532.6585 C553.806831,532.300165 553.312336,531.977668 552.739,531.691 C552.165664,531.404332 551.549337,531.103335 550.89,530.788 L546.848,529.025 C546.188663,528.738332 545.515003,528.394335 544.827,527.993 C544.138997,527.591665 543.522669,527.104336 542.978,526.531 C542.433331,525.957664 541.989002,525.276837 541.645,524.4885 C541.300998,523.700163 541.129,522.790005 541.129,521.758 C541.129,520.697328 541.351164,519.708338 541.7955,518.791 C542.239836,517.873662 542.856163,517.07817 543.6445,516.4045 C544.432837,515.73083 545.364495,515.207669 546.4395,514.835 C547.514505,514.462331 548.696994,514.276 549.987,514.276 C551.678342,514.276 553.240659,514.598497 554.674,515.2435 C556.10734,515.888503 557.325662,516.726995 558.329,517.759 L556.394,520.081 C555.533996,519.249663 554.580839,518.597502 553.5345,518.1245 C552.488161,517.651498 551.305673,517.415 549.987,517.415 C548.410325,517.415 547.141838,517.780496 546.1815,518.5115 C545.221162,519.242504 544.741,520.252994 544.741,521.543 C544.741,522.231003 544.877165,522.811498 545.1495,523.2845 C545.421835,523.757502 545.787331,524.173165 546.246,524.5315 C546.704669,524.889835 547.206331,525.205165 547.751,525.4775 C548.295669,525.749835 548.854664,526.000666 549.428,526.23 L553.427,527.95 C554.229671,528.294002 554.98933,528.688164 555.706,529.1325 C556.42267,529.576836 557.038997,530.09283 557.555,530.6805 C558.071003,531.26817 558.479498,531.956163 558.7805,532.7445 C559.081502,533.532837 559.232,534.442995 559.232,535.475 C559.232,536.593006 559.009836,537.639328 558.5655,538.614 C558.121164,539.588672 557.483337,540.441496 556.652,541.1725 C555.820663,541.903504 554.817339,542.476831 553.642,542.8925 C552.466661,543.308169 551.133674,543.516 549.643,543.516 C547.66499,543.516 545.830342,543.143337 544.139,542.398 C542.447658,541.652663 540.985673,540.635006 539.753,539.345 L541.903,536.851 Z" id="THE-UNITED-STATES" fill="#000000"></path>
        </g>
    </g>
</svg>